<?xml version="1.0" standalone="no"?>
<!DOCTYPE svg PUBLIC "-//W3C//DTD SVG 20010904//EN"
 "http://www.w3.org/TR/2001/REC-SVG-20010904/DTD/svg10.dtd">
<svg version="1.0" xmlns="http://www.w3.org/2000/svg"
 width="1599.000000pt" height="1599.000000pt" viewBox="0 0 1599.000000 1599.000000"
 preserveAspectRatio="xMidYMid meet">
<metadata>
Created by potrace 1.11, written by Peter Selinger 2001-2013
</metadata>
<g transform="translate(0.000000,1599.000000) scale(0.100000,-0.100000)"
fill="#000000" stroke="none">
<path d="M7317 15984 c-1 -1 -69 -4 -152 -8 -151 -5 -247 -12 -340 -22 -27 -3
-70 -7 -95 -9 -43 -4 -108 -12 -160 -20 -14 -2 -47 -6 -73 -10 -27 -4 -57 -8
-67 -10 -9 -2 -35 -6 -56 -9 -182 -28 -511 -102 -719 -161 -507 -146 -960
-336 -1440 -605 -98 -55 -341 -208 -448 -282 -95 -66 -370 -270 -387 -288 -3
-3 -30 -25 -60 -50 -30 -25 -57 -47 -60 -50 -3 -3 -43 -39 -90 -80 -101 -89
-99 -87 -281 -266 -743 -728 -1237 -1502 -1555 -2438 -48 -141 -135 -438 -147
-506 -3 -14 -8 -32 -11 -40 -3 -8 -7 -26 -10 -40 -2 -14 -15 -81 -30 -150 -14
-69 -28 -141 -31 -160 -3 -19 -8 -42 -10 -50 -2 -8 -7 -39 -10 -69 -4 -30 -8
-62 -10 -71 -2 -9 -6 -41 -10 -71 -3 -30 -8 -65 -10 -79 -2 -14 -7 -54 -10
-90 -3 -36 -8 -81 -10 -100 -27 -233 -27 -981 0 -1185 2 -16 6 -54 9 -82 15
-136 19 -168 42 -318 13 -88 26 -171 29 -185 6 -31 13 -66 21 -105 3 -16 15
-68 26 -115 11 -47 22 -93 24 -103 2 -10 6 -28 10 -39 3 -11 7 -30 9 -41 2
-12 11 -47 20 -77 9 -30 18 -66 21 -80 13 -64 169 -512 229 -655 63 -152 180
-408 196 -430 5 -6 34 -60 65 -120 96 -185 232 -406 373 -605 68 -97 219 -298
231 -310 3 -3 37 -43 75 -90 159 -193 500 -548 695 -722 41 -36 91 -80 110
-98 27 -24 201 -165 300 -244 74 -59 310 -225 379 -267 14 -9 88 -55 164 -103
76 -47 140 -86 142 -86 2 0 68 -35 147 -78 370 -203 795 -379 1246 -516 66
-21 427 -113 467 -120 17 -2 41 -7 55 -11 31 -7 184 -34 225 -40 17 -3 41 -7
55 -10 14 -3 48 -8 75 -11 28 -3 53 -8 56 -10 4 -2 35 -6 71 -9 35 -3 73 -7
85 -9 11 -3 56 -8 99 -12 43 -3 93 -8 109 -10 80 -8 285 -17 415 -18 l145 -1
1 1380 c0 759 -2 1385 -4 1391 -2 8 -36 12 -95 13 -51 0 -117 3 -147 5 -30 3
-86 8 -125 12 -38 3 -79 8 -90 10 -10 2 -37 6 -60 9 -76 11 -100 16 -175 31
-310 65 -629 190 -887 349 -481 294 -880 735 -1166 1288 -31 59 -53 107 -50
107 3 0 1 6 -5 13 -47 56 -216 566 -248 747 -3 14 -13 70 -24 125 -16 87 -28
166 -45 305 -6 45 -16 168 -21 250 -4 78 -4 481 0 565 8 146 33 372 51 463 2
11 6 37 9 58 4 22 16 82 27 134 11 52 22 103 24 113 2 10 20 74 40 142 105
361 242 657 444 965 59 90 204 282 257 340 18 19 42 46 54 60 57 67 214 220
311 305 83 73 258 199 374 270 121 73 425 222 425 208 0 -3 6 -1 13 4 11 10
209 78 253 88 10 2 53 13 94 23 69 18 113 27 180 38 14 2 35 7 48 9 179 41
764 54 937 21 11 -2 43 -7 70 -10 77 -10 109 -17 265 -51 91 -20 372 -108 395
-124 6 -4 42 -20 80 -36 237 -98 580 -319 761 -490 252 -237 387 -390 552
-627 114 -163 267 -439 323 -581 11 -29 26 -65 34 -82 17 -41 40 -99 40 -105
0 -3 3 -9 7 -15 29 -47 136 -451 163 -612 3 -18 7 -48 10 -65 12 -69 24 -156
30 -203 5 -51 16 -175 20 -240 6 -81 5 -517 0 -547 -5 -26 -3 -28 27 -28 522
-7 1374 -39 1728 -65 30 -2 93 -7 140 -10 47 -3 110 -8 140 -10 30 -3 82 -7
115 -10 33 -3 81 -7 108 -10 26 -3 68 -7 95 -10 125 -13 151 -15 202 -21 30
-4 63 -8 73 -10 10 -2 48 -6 85 -10 37 -3 70 -8 73 -9 3 -2 28 -7 55 -10 27
-3 65 -8 84 -12 19 -3 48 -7 64 -9 25 -3 72 -12 234 -43 23 -5 44 -5 47 -1 19
30 27 723 12 975 -31 507 -131 1030 -289 1515 -112 346 -302 787 -449 1046
-12 21 -36 64 -52 94 -129 234 -402 635 -566 833 -84 100 -213 251 -250 291
-144 157 -450 452 -576 557 -23 19 -47 40 -55 46 -8 7 -35 29 -60 49 -25 20
-56 45 -69 56 -100 85 -466 342 -603 423 -10 5 -55 32 -100 60 -46 27 -96 57
-113 66 -452 253 -883 435 -1395 589 -163 49 -569 145 -704 166 -21 3 -46 7
-55 9 -17 3 -89 14 -131 20 -28 4 -162 21 -230 29 -25 3 -81 8 -125 12 -44 3
-91 7 -105 10 -55 9 -635 25 -643 18z"/>
<path d="M10707 3354 c1 -1826 2 -3326 2 -3336 1 -15 39 -16 484 -12 265 2
498 5 517 8 19 2 86 7 148 11 62 3 121 8 130 10 9 1 55 6 102 10 47 4 87 8 90
10 3 2 34 6 70 10 36 4 74 9 85 11 11 2 34 6 50 8 17 3 46 8 65 11 19 4 46 8
60 10 87 13 324 69 465 110 578 168 1039 453 1351 835 50 62 159 219 211 305
120 200 260 561 318 825 2 8 11 48 19 87 15 70 18 84 31 163 12 73 14 86 20
135 3 28 8 61 10 75 7 41 16 125 20 182 1 29 6 95 10 146 14 183 8 711 -10
847 -2 17 -6 62 -10 101 -3 39 -7 80 -9 90 -2 11 -7 46 -11 79 -7 65 -50 305
-66 370 -5 22 -12 50 -14 62 -29 132 -109 366 -178 522 -351 792 -980 1266
-1982 1492 -120 27 -117 27 -220 45 -166 28 -267 43 -345 49 -14 1 -47 5 -75
8 -48 6 -135 14 -253 23 -31 3 -289 8 -572 11 l-515 5 2 -3318z"/>
</g>
</svg>
