<svg xmlns="http://www.w3.org/2000/svg" viewBox="0 0 380.72 349.1"><defs><style>.cls-1{fill:#f24405;}</style></defs><g id="Layer_2" data-name="Layer 2"><g id="Layer_1-2" data-name="Layer 1"><path class="cls-1" d="M62.91,158.81h64.78c14.26,0,27.63,11,30.23,25.08a43.82,43.82,0,0,1,.68,7.92q.06,62.09.05,124.16c0,12.72-5.19,22.46-16.13,29a30.15,30.15,0,0,1-15.82,4.12c-31.59,0-63.19,0-94.78,0-15.83,0-28.59-10.79-31.45-26.38a25.73,25.73,0,0,1-.4-4.64c0-54.09-.16-108.18,0-162.28A205.62,205.62,0,0,1,60.76,11.41c2.67-2.64,5.47-5.18,8.39-7.55,9.87-8,23.66-2.92,26,9.57a14.22,14.22,0,0,1-1.91,10.29c-10.32,16.72-17,34.89-21.72,53.86A291.36,291.36,0,0,0,64.31,121a353.87,353.87,0,0,0-1.49,36.4C62.83,157.82,62.87,158.21,62.91,158.81Z"/><path class="cls-1" d="M284.88,158.81H349.5a31.59,31.59,0,0,1,30.93,27.61,42.69,42.69,0,0,1,.28,4.66q0,62.83,0,125.67c0,16.69-11.38,29.82-27.89,32.12a31.08,31.08,0,0,1-4.21.2q-47.16,0-94.34,0c-15.86,0-28.57-10.44-31.62-26a32.28,32.28,0,0,1-.5-6.14q0-79.34,0-158.68a205.14,205.14,0,0,1,23.24-95.95,198,198,0,0,1,41.3-54.58,68,68,0,0,1,5.53-4.65,15.8,15.8,0,0,1,23,20.63c-12.15,19.9-19.37,41.62-24,64.3a281.18,281.18,0,0,0-5.46,41.89c-.48,9-.61,18.06-.89,27.09C284.86,157.56,284.88,158.1,284.88,158.81Z"/></g></g></svg>