<svg xmlns="http://www.w3.org/2000/svg" xmlns:xlink="http://www.w3.org/1999/xlink" viewBox="0 0 1396.24 1597.79"><defs><style>.cls-1{opacity:0.1;fill:url(#linear-gradient);}</style><linearGradient id="linear-gradient" y1="798.89" x2="1396.24" y2="798.89" gradientUnits="userSpaceOnUse"><stop offset="0" stop-color="#abcfff"/><stop offset="0" stop-color="#92c8ff"/><stop offset="0" stop-color="#65bbff"/><stop offset="0" stop-color="#41b0ff"/><stop offset="0" stop-color="#24a8ff"/><stop offset="0" stop-color="#10a2ff"/><stop offset="0" stop-color="#049eff"/><stop offset="0" stop-color="#009dff"/><stop offset="0.32" stop-color="#0099fb"/><stop offset="0.64" stop-color="#028def"/><stop offset="0.96" stop-color="#0479dc"/><stop offset="1" stop-color="#0476d9"/></linearGradient></defs><g id="Layer_2" data-name="Layer 2"><g id="Layer_1-2" data-name="Layer 1"><path class="cls-1" d="M1307.41,1012.25q89,80.54,88.83,253.55t-88.83,252.44q-89,79.26-282.51,79.55H969.8V931.29h55.1Q1218.45,931.29,1307.41,1012.25Zm-18.55-379.77c0,18.55-.85,36.54-2.53,54.54Q1183,665.09,959.4,662.28c.57-9.84.85-19.68.85-29.8q0-151.38-90.52-252.71Q779.08,278.15,644.85,278.29c-91.08,0-166.69,33.73-226,100.92Q329.46,480,329.45,632.48q0,154.75,88,254.4,88.13,99.93,226.85,99.79V1265q-129,0-247.09-48.07-118.06-48.48-207.74-137.18Q96.28,989.91,48.07,875.35,0,761.08,0,632.48c0-86.3,16-167.26,48.07-243.43Q96.15,275.2,189.46,185.25q89.4-89,207.74-137.18C476.19,16,558.55,0,644.85,0A654.59,654.59,0,0,1,892.22,48.07q118.9,48.48,209.7,137.18,90.66,89,138.59,203.51Q1289,503,1288.86,632.48Z"/></g></g></svg>