<svg xmlns="http://www.w3.org/2000/svg" viewBox="0 0 431.03 429.5"><defs><style>.cls-1{fill:#e0e0e0;}.cls-2{fill:#fafafa;}.cls-3{fill:#ebebeb;}.cls-4{fill:#263238;}.cls-5{fill:#455a64;}.cls-6{fill:#006293;}.cls-7{fill:#ff9300;}.cls-8{fill:#e8505b;}.cls-9{opacity:0.3;}.cls-10{fill:#ffbe9d;}.cls-11{fill:#009dff;}.cls-12{opacity:0.2;}.cls-13{fill:#434dff;}.cls-14{fill:#f5f5f5;}.cls-15{fill:#fff;}.cls-16{fill:#222221;}.cls-17{fill:none;}</style></defs><g id="Layer_2" data-name="Layer 2"><g id="Layer_1-2" data-name="Layer 1"><g id="Layer_2-2" data-name="Layer 2"><g id="Background_Complete" data-name="Background Complete"><path class="cls-1" d="M411.8,89.29c0-.16.79-.3,1.75-.3s1.75.14,1.75.3-.78.31-1.75.31S411.8,89.46,411.8,89.29Z"/><path class="cls-1" d="M404.8,89.29c0-.16.78-.3,1.75-.3s1.75.14,1.75.3-.78.31-1.75.31S404.8,89.46,404.8,89.29Z"/><path class="cls-1" d="M397.8,89.29c0-.16.78-.3,1.75-.3s1.75.14,1.75.3-.78.31-1.75.31S397.8,89.46,397.8,89.29Z"/><path class="cls-1" d="M390.8,89.29c0-.16.78-.3,1.75-.3s1.75.14,1.75.3-.79.31-1.75.31S390.8,89.46,390.8,89.29Z"/><path class="cls-1" d="M383.8,89.29c0-.16.78-.3,1.75-.3s1.75.14,1.75.3-.79.31-1.75.31S383.8,89.46,383.8,89.29Z"/><path class="cls-1" d="M376.79,89.29c0-.16.79-.3,1.75-.3s1.75.14,1.75.3-.78.31-1.75.31S376.79,89.46,376.79,89.29Z"/><path class="cls-1" d="M369.79,89.29c0-.16.79-.3,1.75-.3s1.75.14,1.75.3-.78.31-1.75.31S369.79,89.46,369.79,89.29Z"/><path class="cls-1" d="M362.79,89.29c0-.16.78-.3,1.75-.3s1.75.14,1.75.3-.78.31-1.75.31S362.79,89.46,362.79,89.29Z"/><path class="cls-1" d="M355.79,89.29c0-.16.78-.3,1.75-.3s1.75.14,1.75.3-.78.31-1.75.31S355.79,89.46,355.79,89.29Z"/><path class="cls-1" d="M348.79,89.29c0-.16.78-.3,1.75-.3s1.75.14,1.75.3-.79.31-1.75.31S348.79,89.46,348.79,89.29Z"/><path class="cls-1" d="M341.78,89.29c0-.16.79-.3,1.75-.3s1.76.14,1.76.3-.79.31-1.76.31S341.78,89.46,341.78,89.29Z"/><path class="cls-1" d="M334.78,89.29c0-.16.79-.3,1.75-.3s1.75.14,1.75.3-.78.31-1.75.31S334.78,89.46,334.78,89.29Z"/><path class="cls-1" d="M329.79,87.28c.17,0,.31.78.31,1.75v.26l-.3-.3c.85,0,1.49.15,1.49.3s-.64.28-1.49.3h-.29V89C329.49,88.06,329.63,87.28,329.79,87.28Z"/><path class="cls-1" d="M329.79,80.28c.17,0,.31.78.31,1.75s-.14,1.75-.31,1.75-.3-.78-.3-1.75S329.63,80.28,329.79,80.28Z"/><path class="cls-1" d="M329.79,73.28c.17,0,.31.78.31,1.75s-.14,1.75-.31,1.75-.3-.79-.3-1.75S329.63,73.28,329.79,73.28Z"/><path class="cls-1" d="M329.79,66.28c.17,0,.31.78.31,1.75s-.14,1.75-.31,1.75-.3-.79-.3-1.75S329.63,66.28,329.79,66.28Z"/><path class="cls-1" d="M329.79,59.27c.17,0,.31.79.31,1.75s-.14,1.75-.31,1.75-.3-.78-.3-1.75S329.63,59.27,329.79,59.27Z"/><path class="cls-1" d="M329.79,52.27c.17,0,.31.79.31,1.75s-.14,1.75-.31,1.75-.3-.78-.3-1.75S329.63,52.27,329.79,52.27Z"/><path class="cls-1" d="M329.79,45.27c.17,0,.31.78.31,1.75s-.14,1.75-.31,1.75-.3-.78-.3-1.75S329.63,45.27,329.79,45.27Z"/><path class="cls-1" d="M329.79,38.27c.17,0,.31.78.31,1.75s-.14,1.75-.31,1.75-.3-.78-.3-1.75S329.63,38.27,329.79,38.27Z"/><path class="cls-1" d="M329.79,31.27c.17,0,.31.78.31,1.75s-.14,1.75-.31,1.75-.3-.79-.3-1.75S329.63,31.27,329.79,31.27Z"/><path class="cls-1" d="M329.79,24.26c.17,0,.31.79.31,1.75s-.14,1.76-.31,1.76-.3-.79-.3-1.76S329.63,24.26,329.79,24.26Z"/><path class="cls-1" d="M329.79,17.26c.17,0,.31.79.31,1.75s-.14,1.75-.31,1.75-.3-.78-.3-1.75S329.63,17.26,329.79,17.26Z"/><path class="cls-1" d="M329.79,10.26c.17,0,.31.78.31,1.75s-.14,1.75-.31,1.75-.3-.78-.3-1.75S329.63,10.26,329.79,10.26Z"/><path class="cls-1" d="M330.32,3.78c0,.09-.2.16-.53.22l.22-.22A8.25,8.25,0,0,1,330.1,5c0,1-.14,1.75-.31,1.75s-.3-.78-.3-1.75a6.37,6.37,0,0,1,.09-1.23V3.53h.17C330.12,3.62,330.32,3.7,330.32,3.78Z"/><path class="cls-1" d="M337.32,3.78c0,.17-.78.31-1.75.31s-1.75-.14-1.75-.31.78-.3,1.75-.3S337.32,3.62,337.32,3.78Z"/><path class="cls-1" d="M344.32,3.78c0,.17-.78.31-1.75.31s-1.75-.14-1.75-.31.78-.3,1.75-.3S344.32,3.62,344.32,3.78Z"/><path class="cls-1" d="M351.32,3.78c0,.17-.78.31-1.75.31s-1.75-.14-1.75-.31.79-.3,1.75-.3S351.32,3.62,351.32,3.78Z"/><path class="cls-1" d="M358.33,3.78c0,.17-.79.31-1.76.31s-1.75-.14-1.75-.31.79-.3,1.75-.3S358.33,3.62,358.33,3.78Z"/><path class="cls-1" d="M365.33,3.78c0,.17-.79.31-1.75.31s-1.75-.14-1.75-.31.78-.3,1.75-.3S365.33,3.62,365.33,3.78Z"/><path class="cls-1" d="M372.33,3.78c0,.17-.78.31-1.75.31s-1.75-.14-1.75-.31.78-.3,1.75-.3S372.33,3.62,372.33,3.78Z"/><path class="cls-1" d="M379.33,3.78c0,.17-.78.31-1.75.31s-1.75-.14-1.75-.31.78-.3,1.75-.3S379.33,3.62,379.33,3.78Z"/><path class="cls-1" d="M386.33,3.78c0,.17-.78.31-1.75.31s-1.75-.14-1.75-.31.79-.3,1.75-.3S386.33,3.62,386.33,3.78Z"/><path class="cls-1" d="M393.33,3.78c0,.17-.78.31-1.75.31s-1.75-.14-1.75-.31.79-.3,1.75-.3S393.33,3.62,393.33,3.78Z"/><path class="cls-1" d="M400.34,3.78c0,.17-.79.31-1.75.31s-1.75-.14-1.75-.31.78-.3,1.75-.3S400.34,3.62,400.34,3.78Z"/><path class="cls-1" d="M407.34,3.78c0,.17-.79.31-1.75.31s-1.75-.14-1.75-.31.78-.3,1.75-.3S407.34,3.62,407.34,3.78Z"/><path class="cls-1" d="M414.34,3.78c0,.17-.78.31-1.75.31s-1.75-.14-1.75-.31.78-.3,1.75-.3S414.34,3.62,414.34,3.78Z"/><path class="cls-1" d="M415.3,9.82c-.16,0-.3-.78-.3-1.75s.14-1.75.3-1.75.31.78.31,1.75S415.47,9.82,415.3,9.82Z"/><path class="cls-1" d="M415.3,16.82c-.16,0-.3-.78-.3-1.75s.14-1.75.3-1.75.31.79.31,1.75S415.47,16.82,415.3,16.82Z"/><path class="cls-1" d="M415.3,23.82c-.16,0-.3-.78-.3-1.75s.14-1.75.3-1.75.31.79.31,1.75S415.47,23.82,415.3,23.82Z"/><path class="cls-1" d="M415.3,30.83c-.16,0-.3-.79-.3-1.75s.14-1.75.3-1.75.31.78.31,1.75S415.47,30.83,415.3,30.83Z"/><path class="cls-1" d="M415.3,37.83c-.16,0-.3-.79-.3-1.75s.14-1.75.3-1.75.31.78.31,1.75S415.47,37.83,415.3,37.83Z"/><path class="cls-1" d="M415.3,44.83c-.16,0-.3-.78-.3-1.75s.14-1.75.3-1.75.31.78.31,1.75S415.47,44.83,415.3,44.83Z"/><path class="cls-1" d="M415.3,51.83c-.16,0-.3-.78-.3-1.75s.14-1.75.3-1.75.31.78.31,1.75S415.47,51.83,415.3,51.83Z"/><path class="cls-1" d="M415.3,58.83c-.16,0-.3-.78-.3-1.75s.14-1.75.3-1.75.31.79.31,1.75S415.47,58.83,415.3,58.83Z"/><path class="cls-1" d="M415.3,65.84c-.16,0-.3-.79-.3-1.75s.14-1.75.3-1.75.31.78.31,1.75S415.47,65.84,415.3,65.84Z"/><path class="cls-1" d="M415.3,72.84c-.16,0-.3-.79-.3-1.75s.14-1.75.3-1.75.31.78.31,1.75S415.47,72.84,415.3,72.84Z"/><path class="cls-1" d="M415.3,79.84c-.16,0-.3-.78-.3-1.75s.14-1.75.3-1.75.31.78.31,1.75S415.47,79.84,415.3,79.84Z"/><path class="cls-1" d="M415.3,86.84c-.16,0-.3-.78-.3-1.75s.14-1.75.3-1.75.31.78.31,1.75S415.47,86.84,415.3,86.84Z"/><rect class="cls-1" x="412.14" y="85.26" width="6.33" height="6.33"/><rect class="cls-1" x="326.63" y="86.13" width="6.33" height="6.33"/><rect class="cls-1" x="412.14" width="6.33" height="6.33"/><rect class="cls-1" x="326.63" y="0.62" width="6.33" height="6.33"/><path class="cls-1" d="M82.21,112.69C93.27,103,94.28,87.15,92.26,73.24c-.33-2.33-.35-4.81-1.68-6.74s-4.08-3-6.06-1.82c-1.64,1-2.17,3.1-3,4.88a13.7,13.7,0,0,1-4.89,5.82c-1.4.94-3.19,1.61-4.74,1-2.14-.89-2.68-3.64-2.92-6l-1.35-13A21.89,21.89,0,0,0,66.2,50.6a7.21,7.21,0,0,0-5.06-4.37c-2.27-.37-4.86,1.2-5.07,3.52a21.54,21.54,0,0,0,.25,2.89,2.47,2.47,0,0,1-1.18,2.46,2.83,2.83,0,0,1-2.66-.79A30.88,30.88,0,0,1,46,46.57a43.64,43.64,0,0,0-6.11-8.06c-2.46-2.31-5.68-4-9-3.83s-6.65,2.62-7.13,6,1.79,6.46,4.16,8.88a51.94,51.94,0,0,0,11.91,9.09,4.34,4.34,0,0,1,2,1.74c.67,1.49-.62,3.18-2.09,3.86-1.67.77-3.56.79-5.35,1.21s-3.65,1.42-4.15,3.21c-.69,2.47,1.57,4.74,3.7,6.15a44.68,44.68,0,0,0,14,6.13,15,15,0,0,1,5.14,1.83A4.28,4.28,0,0,1,55,87.55c-.65,1.77-2.75,2.45-4.58,2.33a31.32,31.32,0,0,1-5.3-1.39c-3.32-.85-7.41-.17-9.15,2.81a7.37,7.37,0,0,0-.06,6.57,16.88,16.88,0,0,0,4.1,5.35A45.06,45.06,0,0,0,60.56,114.5c7.67,1.74,14.6,1.68,21.65-1.81"/><path class="cls-2" d="M83.54,123a102.2,102.2,0,0,0-5.9-18.69A209.24,209.24,0,0,0,66.92,82.86l-3.09-5.48c-1-1.8-2-3.58-3.13-5.26a105.67,105.67,0,0,0-6.87-9.3C51.51,60,49.2,57.34,47,54.91s-4.27-4.67-6.25-6.62a84.42,84.42,0,0,0-10-8.5c-1.25-.91-2.25-1.58-2.94-2-.32-.22-.58-.38-.78-.51l-.27-.16a1.22,1.22,0,0,0,.25.2l.76.54c.66.47,1.65,1.16,2.89,2.09a88.87,88.87,0,0,1,9.91,8.58c2,2,4,4.2,6.19,6.64s4.47,5.07,6.78,7.92a106.22,106.22,0,0,1,6.81,9.28c1.09,1.68,2.09,3.44,3.12,5.25l3.09,5.48a215.9,215.9,0,0,1,10.73,21.4,105.62,105.62,0,0,1,6,18.6"/><path class="cls-2" d="M60.57,72.12a4.21,4.21,0,0,0,.12-1c.05-.65.09-1.6.13-2.77.07-2.35.06-5.59,0-9.16s0-6.81.12-9.15c.05-1.17.1-2.12.15-2.77a5.57,5.57,0,0,0,0-1,4.29,4.29,0,0,0-.18,1c-.1.65-.19,1.6-.28,2.77-.19,2.34-.27,5.59-.25,9.17s.06,6.71.08,9.15v2.78A5.35,5.35,0,0,0,60.57,72.12Z"/><path class="cls-2" d="M30.14,69.83a6.12,6.12,0,0,0,1.21,0h3.27c2.76,0,6.58.12,10.78.44s8,.79,10.74,1.2c1.37.2,2.47.38,3.24.51a6.81,6.81,0,0,0,1.19.16,7.69,7.69,0,0,0-1.16-.33c-.76-.17-1.86-.41-3.22-.64-2.73-.49-6.54-1-10.75-1.34a105.78,105.78,0,0,0-10.83-.31c-1.38,0-2.5.11-3.27.18A7,7,0,0,0,30.14,69.83Z"/><path class="cls-2" d="M77.21,103.82a1.71,1.71,0,0,0,.17-.39c.1-.3.23-.68.39-1.13.33-1,.78-2.43,1.31-4.22,1.06-3.57,2.37-8.56,3.75-14.07S85.46,73.5,86.45,69.9c.48-1.74.88-3.18,1.18-4.25.13-.46.23-.84.31-1.16a1.43,1.43,0,0,0,.09-.41,1.71,1.71,0,0,0-.17.39c-.1.31-.23.68-.39,1.13-.33,1-.78,2.43-1.31,4.22-1.06,3.57-2.38,8.56-3.75,14.08S79.78,94.4,78.79,98c-.49,1.74-.88,3.18-1.18,4.25-.13.46-.23.84-.31,1.16A1.43,1.43,0,0,0,77.21,103.82Z"/><path class="cls-2" d="M36.18,95.42a3.31,3.31,0,0,0,.42.12l1.19.26,4.39.9c3.71.77,8.83,1.89,14.47,3.13s10.78,2.32,14.51,3c1.86.34,3.37.61,4.42.77l1.21.18a2.94,2.94,0,0,0,.42,0,2.56,2.56,0,0,0-.41-.12l-1.19-.26-4.39-.91c-3.71-.76-8.83-1.88-14.48-3.12s-10.77-2.32-14.5-3c-1.86-.34-3.37-.61-4.42-.77l-1.21-.18A1.55,1.55,0,0,0,36.18,95.42Z"/><circle class="cls-1" cx="222.73" cy="304.95" r="124.55"/><path class="cls-2" d="M222.72,403.25A98.29,98.29,0,1,1,321,305V305A98.4,98.4,0,0,1,222.72,403.25Zm0-195.58A97.29,97.29,0,1,0,320,305,97.29,97.29,0,0,0,222.72,207.67Z"/><path class="cls-2" d="M222.72,418.92a114,114,0,1,1,114-114h0A114.09,114.09,0,0,1,222.72,418.92Zm0-226.93a113,113,0,1,0,113,113,113,113,0,0,0-113-113Z"/><path class="cls-2" d="M222.72,390.18a85.23,85.23,0,1,1,85.22-85.24V305A85.32,85.32,0,0,1,222.72,390.18Zm0-169.45A84.23,84.23,0,1,0,306.94,305,84.23,84.23,0,0,0,222.72,220.73Z"/><path class="cls-2" d="M222.72,376.83A71.87,71.87,0,1,1,294.59,305v0A72,72,0,0,1,222.72,376.83Zm0-142.74A70.87,70.87,0,1,0,293.59,305a70.87,70.87,0,0,0-70.87-70.91Z"/><path class="cls-2" d="M222.72,363.14a58.19,58.19,0,1,1,58.18-58.2V305A58.25,58.25,0,0,1,222.72,363.14Zm0-115.37A57.19,57.19,0,1,0,279.9,305a57.18,57.18,0,0,0-57.18-57.23Z"/><path class="cls-2" d="M222.72,350.82a45.87,45.87,0,1,1,45.86-45.88V305A45.91,45.91,0,0,1,222.72,350.82Zm0-90.73A44.87,44.87,0,1,0,267.58,305,44.87,44.87,0,0,0,222.72,260.09Z"/><rect class="cls-3" x="213.38" y="4.92" width="48.33" height="48.33"/></g><g id="Desk"><rect class="cls-4" x="169.77" y="262.43" width="109.02" height="119.73" transform="translate(-21.96 16.45) rotate(-4)"/><polygon class="cls-5" points="271.21 317.43 269.62 282.22 174.88 291.11 178.5 327.69 271.21 317.43"/><path class="cls-5" d="M291,378.54l-121.42,8.15a7.67,7.67,0,0,1-8.18-7.13v0h0a7.68,7.68,0,0,1,7.15-8.17L290,363.21a7.67,7.67,0,0,1,8.17,7.12v0h0a7.69,7.69,0,0,1-7.15,8.18Z"/><rect class="cls-3" x="21.86" y="111.76" width="404.06" height="183.04"/><polygon class="cls-1" points="21.86 294.8 32.3 300.24 415.92 299.88 425.92 294.8 21.86 294.8"/></g><g id="Character"><polygon class="cls-5" points="131.46 277.53 130.74 154.26 320.15 154.26 320.15 278.8 131.46 277.53"/><path class="cls-2" d="M170.54,254.06c7.33-.38,14.79,1.35,22.11,2.19l-3.93-1a23.62,23.62,0,0,1,21.41-25.64,24,24,0,0,1,4.87.07c5.21.61,10.34,2.95,15.51,2.08,9.48-1.6,14.36-12.89,23.36-16.27,11.51-4.33,24.92,5.78,36.27,1,4.6-1.92,7.94-6,12.21-8.54,3.66-2.2,9-2.83,12-.3V181.21c-3,5.86-10.5,8.71-17.22,8.15-7.14-.59-13.64-4.16-19.83-7.72s-12.58-7.28-19.69-8.19c-10.1-1.3-19.9,3.22-29.7,6-8.84,2.49-18.37,3.57-27.2,1-.3-.08-.59-.19-.88-.29a15.13,15.13,0,0,1-3.68,2.62c-7.52,3.64-17.55-1.24-24.41,3.51-4.11,2.85-5.54,8.2-8.56,12.19-5.57,7.36-19,9.49-26.71,4.33v68.78h4A39.1,39.1,0,0,1,170.54,254.06Zm116-54.32a4,4,0,0,1,1.54-.73.9.9,0,0,1,.21-.08h-.08a4.6,4.6,0,1,1-1.23.58Z"/><path class="cls-6" d="M314.38,207.7c-3.08-2.53-8.38-1.9-12,.3-4.27,2.57-7.61,6.62-12.21,8.54-11.35,4.73-24.76-5.38-36.27-1-9,3.38-13.88,14.67-23.36,16.27-5.17.87-10.3-1.47-15.51-2.08a23.63,23.63,0,0,0-26.27,25.53l3.93,1c5.71.66,11.34.78,16.76-1,15.63-5.29,24.13-25.18,40.52-27.07,9.08-1,18.15,4,27.17,2.47,7.31-1.25,13.13-6.55,19.18-10.85s11.87-8.26,18.61-5.79v-5.79A4.2,4.2,0,0,0,314.38,207.7Z"/><path class="cls-7" d="M296.28,219.75c-6,4.3-11.87,9.6-19.18,10.85-9,1.53-18.09-3.52-27.17-2.47C233.54,230,225,249.91,209.41,255.2c-5.42,1.83-11,1.71-16.76,1.05-7.32-.84-14.78-2.57-22.11-2.19a39.07,39.07,0,0,0-30,17.52h4a29.71,29.71,0,0,1,14.4-8.08,29.1,29.1,0,0,1,23.5,4.5c1.53,1.1,3,2.35,4.43,3.59h29.82c1.32-.74,2.64-1.48,4-2.16,5.4-2.75,11.56-4.65,17.49-3.39a15.24,15.24,0,0,1,9.13,5.59h31.93a8.69,8.69,0,0,1,5.15-4.54c2.41-.74,5.19-.46,7.25-1.91,2.39-1.69,2.84-5,3.82-7.73a17.78,17.78,0,0,1,19.44-11.13V214C308.15,211.49,302.22,215.51,296.28,219.75Zm-28.22,45.54c-5.08,2.51-12.05-.3-14-5.63-1.51-4.2.4-9.18,4-11.74l-.79.37a8.91,8.91,0,0,1,3-1.54,7.26,7.26,0,0,1,1-.32l-.18.08a10.62,10.62,0,0,1,11.05,4.28C275.16,255.57,273.14,262.79,268.06,265.29Zm35.41-36.21a2.68,2.68,0,1,1-2.62-4.68l-.27.13a2.41,2.41,0,0,1,.94-.45l.13-.05h0a2.7,2.7,0,0,1,1.87,5Z"/><path class="cls-6" d="M295.45,257.55c-1,2.76-1.43,6-3.82,7.73-2.06,1.45-4.84,1.17-7.25,1.91a8.69,8.69,0,0,0-5.15,4.54h35.66V246.42A17.78,17.78,0,0,0,295.45,257.55Z"/><path class="cls-6" d="M159,263.51a29.71,29.71,0,0,0-14.4,8.08h42.32c-1.45-1.24-2.9-2.49-4.43-3.59A29.11,29.11,0,0,0,159,263.51Z"/><path class="cls-8" d="M238.17,266.11c-5.93-1.26-12.09.64-17.49,3.39-1.35.68-2.67,1.42-4,2.16h30.61A15.23,15.23,0,0,0,238.17,266.11Z"/><path class="cls-7" d="M225.81,168.27c-5.33.4-11-.52-15.76,1.95-4.24,2.21-6.82,6.71-10.3,10l.88.3c8.83,2.55,18.36,1.48,27.21-1,9.8-2.76,19.6-7.27,29.7-6,7.1.91,13.48,4.62,19.68,8.18s12.69,7.14,19.83,7.73c6.73.56,14.19-2.29,17.23-8.16V159.41H237.72C237.34,164.64,231.11,167.88,225.81,168.27Z"/><path class="cls-6" d="M285.17,204.74a4.45,4.45,0,1,0,3.07-5.78h.08a.9.9,0,0,0-.21.08,4,4,0,0,0-1.54.73l.44-.2A4.65,4.65,0,0,0,285.17,204.74Z"/><path class="cls-6" d="M261.08,246.51l.18-.08a7.26,7.26,0,0,0-1,.32,8.91,8.91,0,0,0-3,1.54l.79-.37c-3.57,2.56-5.48,7.54-4,11.74,1.92,5.33,8.89,8.14,14,5.63s7.1-9.72,4.07-14.5A10.64,10.64,0,0,0,261.08,246.51Z"/><path class="cls-6" d="M304.56,225.2a2.82,2.82,0,0,0-3-1.15h0l-.13,0a2.41,2.41,0,0,0-.94.45l.27-.13a2.69,2.69,0,1,0,3.72.81h0Z"/><path class="cls-6" d="M163.21,198.47c3-4,4.45-9.34,8.56-12.19,6.86-4.75,16.89.13,24.41-3.51a15.13,15.13,0,0,0,3.68-2.62c3.47-3.25,6-7.75,10.3-10,4.73-2.47,10.43-1.56,15.76-2s11.42-3.6,11.8-8.87H136.15l.15,43.3c.06.05.14.08.2.13C144.22,208,157.64,205.83,163.21,198.47Z"/><path class="cls-4" d="M265.38,211.85l-7-27.37.09.05-78.35,19.93h0l.08-.13c2.42,9.54,4.77,18.78,7,27.39l-.12-.07,78.39-19.81-78.34,20H187v-.1c-2.19-8.61-4.54-17.85-7-27.39v-.1h.1l78.36-19.87h.07v.06C262.74,201.36,265.06,210.57,265.38,211.85Z"/><rect class="cls-5" x="264.26" y="210.54" width="2.09" height="2.09" transform="translate(-43.92 71.82) rotate(-14.25)"/><rect class="cls-5" x="185.96" y="230.72" width="2.09" height="2.09" transform="translate(-51.3 53.16) rotate(-14.25)"/><rect class="cls-5" x="257.27" y="183.04" width="2.09" height="2.09" transform="translate(-37.36 69.25) rotate(-14.25)"/><rect class="cls-5" x="217.78" y="193.07" width="2.09" height="2.09" transform="translate(-41.05 59.84) rotate(-14.25)"/><rect class="cls-5" x="224.75" y="220.57" width="2.09" height="2.09" transform="translate(-47.6 62.4) rotate(-14.25)"/><rect class="cls-5" x="182.36" y="216.57" width="2.09" height="2.09" transform="translate(-47.92 51.84) rotate(-14.25)"/><rect class="cls-5" x="260.74" y="196.65" width="2.09" height="2.09" transform="translate(-40.61 70.52) rotate(-14.25)"/><rect class="cls-5" x="179" y="203.33" width="2.09" height="2.09" transform="translate(-44.77 50.61) rotate(-14.25)"/><path class="cls-4" d="M199.3,206.75l-5.64,1.43-.68-2.67,14.45-3.67.67,2.67L202.46,206l3.65,14.34-3.16.8Z"/><path class="cls-4" d="M223.26,210.06l-10.19,2.59c.85,1.8,2.74,2.61,5,2a4.77,4.77,0,0,0,3.17-2.31l2.1,1.46a6.8,6.8,0,0,1-4.69,3.45c-4.35,1.1-7.88-1-8.86-4.85a6.66,6.66,0,0,1,4.55-8.23l.45-.11a6.53,6.53,0,0,1,8.12,4.43,6.23,6.23,0,0,1,.15.62A9.39,9.39,0,0,1,223.26,210.06Zm-10.72.57,7.36-1.87a3.64,3.64,0,0,0-4.47-2.22A3.69,3.69,0,0,0,212.54,210.63Z"/><path class="cls-4" d="M235.53,212.82l-4.47-3.66-2.21,5.35-3.36.86,3.39-7.88-6.47-5.16,3.38-.86,4.27,3.44,2.1-5.06,3.29-.83-3.26,7.58,6.77,5.34Z"/><path class="cls-4" d="M248.83,208.69a4.87,4.87,0,0,1-2.7,1.61c-2.84.73-4.85-.37-5.58-3.24L239,200.82l-2.14.54-.62-2.43,2.14-.54-.75-3,3-.77.75,3,3.48-.88.62,2.43L242,200l1.57,6.18a1.73,1.73,0,0,0,1.89,1.57,1.77,1.77,0,0,0,.4-.08,2.87,2.87,0,0,0,1.57-1Z"/><path class="cls-4" d="M263.8,205.65s-17.52,4.55-39.15,10-39.2,9.91-39.21,9.85,17.56-4.5,39.16-10S263.79,205.59,263.8,205.65Z"/><path class="cls-4" d="M427.29,206.31a7,7,0,0,0,3.51-6.47,8.87,8.87,0,0,0-.79-4,8.55,8.55,0,0,0-3.19-3.6c-2.94-2-7.37-2.34-11.46-.59s-7.88,5-12,8.27a36.18,36.18,0,0,1-6.86,4.49,21,21,0,0,1-8.48,1.91,22.4,22.4,0,0,1-16.7-7.32,19.91,19.91,0,0,1-4.68-8.67,13.49,13.49,0,0,1,1.15-10,11.17,11.17,0,0,1,3.56-3.74,8.34,8.34,0,0,1,4.91-1.42,7.27,7.27,0,0,1,4.58,2.09,9.92,9.92,0,0,1,2.42,4.32,12.38,12.38,0,0,1-1,9.39,13,13,0,0,1-7.09,5.67,17.45,17.45,0,0,1-8.66.66,28.41,28.41,0,0,1-7.75-2.69c-4.74-2.39-8.7-5.33-12.57-7.57a32.11,32.11,0,0,0-11.1-4.46,16.92,16.92,0,0,0-8.91.89,13.33,13.33,0,0,0-4.74,3.16l-.58.64-.38.5c-.2.27-.32.4-.32.4s.09-.15.28-.43l.36-.52.57-.66a12.84,12.84,0,0,1,4.73-3.28,17,17,0,0,1,9-1,32.43,32.43,0,0,1,11.24,4.43c3.89,2.24,7.87,5.16,12.57,7.5a28,28,0,0,0,7.64,2.63,17.08,17.08,0,0,0,8.42-.66,12.61,12.61,0,0,0,6.82-5.47,11.9,11.9,0,0,0,.95-9,9.25,9.25,0,0,0-2.3-4.09,6.61,6.61,0,0,0-4.24-1.94,7.78,7.78,0,0,0-4.6,1.33,10.56,10.56,0,0,0-3.39,3.58,12.93,12.93,0,0,0-1.09,9.62,19.47,19.47,0,0,0,4.55,8.45A22,22,0,0,0,388,205.83a20.45,20.45,0,0,0,8.29-1.85,36.08,36.08,0,0,0,6.79-4.41c4.09-3.27,7.85-6.6,12.1-8.27s8.82-1.36,11.82.7a8.85,8.85,0,0,1,3.26,3.75,9.34,9.34,0,0,1,.76,4.11,8,8,0,0,1-2.06,5.31,4,4,0,0,1-.66.58,2.7,2.7,0,0,1-.53.35Z"/><g class="cls-9"><path d="M238.17,266.11c-5.93-1.26-12.09.64-17.49,3.39-1.35.68-2.67,1.42-4,2.16h30.61A15.23,15.23,0,0,0,238.17,266.11Z"/></g><path class="cls-6" d="M182.46,320.59c2.75-4.93,9.09-6.66,14.74-6.47s11.21,1.82,16.85,1.55c12.9-.6,24.07-10.89,37-10.52,7.74.23,15.31,4.34,22.93,2.9,1.84-.34,4-.92,5.37.38a3.41,3.41,0,0,1,.12,4.24,9.2,9.2,0,0,1-3.64,2.74c-19.7,9.95-42.5,10.93-64.39,13.67-5.61.71-11.31,1.54-16.87.56s-11.08-4.13-13.32-9.31"/><path class="cls-10" d="M338.24,288.52l-35.71-63-2.91-5.63a8.47,8.47,0,0,0-6.83-4.55l-5.76-.48s.42-6.68-2.7-6.15c-2,.34-9.28,6.59-7.87,8.43s5.55-2.91,5.55-2.91L283.58,226s-10.95-6.38-12.72-6a1.65,1.65,0,0,0-.44,3.14A30.72,30.72,0,0,1,283,236.58h0l25.3,56.49L299.61,300l10.27,26.85L331.51,312a16.78,16.78,0,0,0,7.21-22.61Q338.5,289,338.24,288.52Z"/><rect class="cls-4" x="265.16" y="213.32" width="0.21" height="1.18" transform="translate(-47.01 350.32) rotate(-62.48)"/><path class="cls-4" d="M265.7,213.9l4.49.12,25.54,14a1.93,1.93,0,0,1,.78,2.59h0a1.93,1.93,0,0,1-2.61.8h0l-25.35-13.55-3.08-3.5a.31.31,0,0,1,.12-.42Z"/><polygon class="cls-5" points="293.18 226.67 291.37 230.14 290.33 229.6 292.16 226.1 293.18 226.67"/><path class="cls-10" d="M190.54,228c-1.8-.18-8.57,5.86-8.57,5.86l-3.35-12.08s4.49.41,5.7-1.57-11-1.79-11.25-.45.71,5,.71,5l-4.62.89a9.07,9.07,0,0,0-7.28,7.84l-.75,6.45h.13l-35.68,59.61a22.74,22.74,0,0,0,4.61,28.87l35.74,25.4,13.34-29.08-26.42-17.36L183.12,249s6.81-17.09,8.2-17.94a1.65,1.65,0,0,0,.6-2.24A1.63,1.63,0,0,0,190.54,228Z"/><path class="cls-11" d="M315.33,328.48l-.42-4.15A18.1,18.1,0,0,0,308,311.88h0A18.12,18.12,0,0,1,301,297l.06-1.73L282.87,306.5a39.14,39.14,0,0,0-5.44,4.43v-.09s-39,.64-95.67,8.92L160.26,312l1.85,1.45c1,5.7-.87,10.74-4.88,14.91h0a18.11,18.11,0,0,0-5,13.31l.17,4.17s12.81,8.35,22.14,11.49l.34.1a111.62,111.62,0,0,0,49.77,9.51c34.87-1.43,63.53-20,67.29-22.53C300.75,339.84,315.33,328.48,315.33,328.48Z"/><path class="cls-4" d="M181.72,319.76a3.07,3.07,0,0,1,.39.3c.24.21.58.52,1,.94a27.86,27.86,0,0,1,3.27,3.92,23.76,23.76,0,0,1,3.25,6.84,21.57,21.57,0,0,1,.78,9.24,16.76,16.76,0,0,1-1.41,4.63,29.88,29.88,0,0,1-2.3,3.85,20.24,20.24,0,0,1-5.34,5.38,17.13,17.13,0,0,1-4.62,2.17c-.44.14-.89.26-1.34.36a1.59,1.59,0,0,1-.48.07s.63-.21,1.76-.62a18.7,18.7,0,0,0,4.47-2.29,20.28,20.28,0,0,0,5.15-5.34,29.58,29.58,0,0,0,2.24-3.8,16.4,16.4,0,0,0,1.35-4.49,21.57,21.57,0,0,0-.72-9,23.82,23.82,0,0,0-3.1-6.76,31.73,31.73,0,0,0-3.11-4A16.53,16.53,0,0,1,181.72,319.76Z"/><g class="cls-12"><path d="M281.35,350.59c2.82-2,1.42-6.12-1.72-7.6s-6.85-.59-10.15.49c-10.65,3.48-20.72,8.58-31.36,12.1s-22.27,5.42-33,2.26c-7.49-2.2-12.53-7.12-20.29-6.24-3.52.4-4.63,4.89-9.85,6A114.57,114.57,0,0,0,198.42,365a109.23,109.23,0,0,0,29.26,1.83,130.72,130.72,0,0,0,29.56-5.94A147.54,147.54,0,0,0,281.35,350.59Z"/></g><g class="cls-12"><path d="M190.17,334.44s.93-9.48-4.78-15.21l-3.82.57S186.59,323.42,190.17,334.44Z"/></g><path class="cls-10" d="M208.32,309.27c-.2.52,1.93,22.43,1.93,22.43s11.11,15.51,28.58.41l2.11-23.89Z"/><g class="cls-12"><path d="M210.25,331.7s-5.15-8.55-6.58-14.91l4.24-.52,1,1.19Z"/></g><path class="cls-4" d="M302,337.91a3.3,3.3,0,0,1-.43.3c-.28.18-.72.43-1.29.74a20.11,20.11,0,0,1-5.12,2,12.76,12.76,0,0,1-3.8.31,18.43,18.43,0,0,1-4.28-.9,19,19,0,0,1-8.22-5.59,18.14,18.14,0,0,1-2.8-4.38,31.8,31.8,0,0,1-1.55-4.56,20.75,20.75,0,0,1-.61-8.11,12.31,12.31,0,0,1,1.92-5.13,8.7,8.7,0,0,1,.92-1.18,2.16,2.16,0,0,1,.37-.37,1.86,1.86,0,0,1-.29.44,12.83,12.83,0,0,0-2.56,6.29,21.08,21.08,0,0,0,.71,7.94,32,32,0,0,0,1.56,4.47,17.88,17.88,0,0,0,2.72,4.25c4.57,5.32,11.43,7.23,15.84,6.16a21.47,21.47,0,0,0,5.1-1.79C300.78,338.47,301.38,338.18,302,337.91Z"/><path class="cls-4" d="M277.14,332.37l-.2.13-.6.34L274,334.1c-1,.54-2.26,1.21-3.75,1.88s-3.15,1.53-5.07,2.29-4,1.67-6.28,2.45-4.75,1.61-7.36,2.41a134.9,134.9,0,0,1-17.32,3.74,139.51,139.51,0,0,1-17.69,1.28h-4c-1.29,0-2.54-.11-3.75-.16-2.42-.08-4.67-.31-6.72-.51s-3.9-.47-5.52-.67-3-.44-4.15-.65l-2.61-.48-.67-.14-.23-.06a.49.49,0,0,1,.24,0l.68.09,2.62.38c1.14.18,2.53.4,4.16.57s3.46.46,5.51.59,4.29.37,6.71.44c1.21,0,2.46.14,3.74.13h4a144.16,144.16,0,0,0,17.61-1.31,141.09,141.09,0,0,0,17.27-3.69c2.6-.79,5.08-1.51,7.34-2.36s4.38-1.62,6.29-2.38,3.59-1.56,5.09-2.21,2.75-1.28,3.78-1.8l2.38-1.17.62-.29C277.06,332.39,277.13,332.36,277.14,332.37Z"/><g class="cls-12"><path d="M220.08,337.84a7,7,0,0,0,4,9.05,7.13,7.13,0,0,0,2.62.46,8,8,0,0,1,3.09.11c1.17.45,1.82,1.67,2.59,2.66a9.25,9.25,0,0,0,16.54-5.27,3.27,3.27,0,0,1,.47-2.05c1-1.15,2.8,0,4.16.68,3.45,1.8,8.09,0,10-3.39s1.31-7.83-.88-11a17.46,17.46,0,0,0-9.46-6.46c-2.39-.73-5-1.16-6.86-2.82-2.7-2.39-2.94-6.44-3-10"/></g><path class="cls-4" d="M248.52,269.83c2.44,5.36,3.71,8.45,4.09,14.16a42.7,42.7,0,0,1-7.36,27.69c0,.07.05-.06,0,0C241.09,318,228.64,325.93,225,327s-18.37-8.07-21.33-18.35-6.78-16.51-1.73-34.46c5.18-18.4,30-19.06,30-19.06s16.65,0,19.7,9.66S248.52,269.83,248.52,269.83Z"/><path class="cls-4" d="M222.3,290.44A11.89,11.89,0,0,0,213.66,309c2.06,3,5.44,5,7,8.26,1.46,3,1.15,6.54.45,9.79s-1.76,6.49-1.71,9.82,1.5,6.91,4.52,8.32,7.41-.57,7.42-3.9c-1,5.27,5.07,10.44,10.12,8.6s6.35-9.71,2.19-13.09c3.68.87,7.81.86,11-1.23s4.76-6.74,2.61-9.86c-2.54-3.69-8.35-3.35-11.56-6.48-2.66-2.58-2.81-6.71-3-10.41-.28-5.32-1.08-10.78-3.8-15.36s-7.73-8.13-13-7.77"/><path class="cls-2" d="M231.86,341.06a2.84,2.84,0,0,1-.53-.25,3.81,3.81,0,0,1-.61-.37,7.06,7.06,0,0,1-.78-.57,12,12,0,0,1-3.53-5,16.62,16.62,0,0,1-1-4.16,20.16,20.16,0,0,1,.16-4.91,50.85,50.85,0,0,1,3.22-10.8,49.91,49.91,0,0,0,3.2-10.61,19.29,19.29,0,0,0,.15-4.8,15.77,15.77,0,0,0-1-4.06,12.11,12.11,0,0,0-3.39-5c-1.1-.93-1.84-1.25-1.81-1.31a2.79,2.79,0,0,1,.53.24,4.71,4.71,0,0,1,.62.35,7.48,7.48,0,0,1,.79.56,12,12,0,0,1,3.61,5,15.7,15.7,0,0,1,1,4.16,19.69,19.69,0,0,1-.11,4.91,48.33,48.33,0,0,1-3.18,10.73,52.35,52.35,0,0,0-3.24,10.6,20.21,20.21,0,0,0-.2,4.79,16.31,16.31,0,0,0,.92,4.08,12.29,12.29,0,0,0,3.31,5C231.15,340.66,231.89,341,231.86,341.06Z"/><path class="cls-5" d="M246.9,337.06a2.65,2.65,0,0,1-.62.14,9.35,9.35,0,0,1-1.83.08,10.49,10.49,0,0,1-9.07-6,10.89,10.89,0,0,1-1-5.24,19.8,19.8,0,0,1,1.4-5.72,61.23,61.23,0,0,0,2.08-5.88,25.62,25.62,0,0,0,.48-11.87,20.45,20.45,0,0,0-4.1-8.78,18.77,18.77,0,0,0-4.94-4.33c-1.35-.8-2.17-1.1-2.15-1.15a2.49,2.49,0,0,1,.6.2,12.38,12.38,0,0,1,1.65.77,18.06,18.06,0,0,1,5.13,4.28,20.58,20.58,0,0,1,4.28,8.91,26,26,0,0,1-.44,12.11,62.18,62.18,0,0,1-2.11,5.92,19.16,19.16,0,0,0-1.4,5.57,10.55,10.55,0,0,0,3.67,8.6,10.78,10.78,0,0,0,6,2.44A20.83,20.83,0,0,0,246.9,337.06Z"/><path class="cls-13" d="M231.78,286.78a14.48,14.48,0,0,0-1.76-1.36,5.81,5.81,0,0,0-8.58,3.2,14.51,14.51,0,0,0-.44,2.18,1.94,1.94,0,0,1-.11-.61,5,5,0,0,1,.2-1.68,6,6,0,0,1,9.12-3.41,5.07,5.07,0,0,1,1.26,1.14A1.39,1.39,0,0,1,231.78,286.78Z"/><path class="cls-5" d="M222.26,327.59a1.4,1.4,0,0,1-.36-.28,10,10,0,0,1-.93-.91,17,17,0,0,1-2.73-3.94,16,16,0,0,1-1.78-6.88,9.32,9.32,0,0,1,.88-4.16,17.16,17.16,0,0,1,2.72-3.62,10.09,10.09,0,0,0,2.35-3.65,6.9,6.9,0,0,0-.13-4c-.75-2.5-2.07-4.62-2.31-6.69a6.38,6.38,0,0,1,.82-4.69,3.31,3.31,0,0,1,1-.9c.26-.14.4-.21.41-.19a4.93,4.93,0,0,0-1.2,1.21,6.32,6.32,0,0,0-.63,4.51c.27,2,1.6,4,2.41,6.61a7.33,7.33,0,0,1,.16,4.25,10.6,10.6,0,0,1-2.45,3.84,16.44,16.44,0,0,0-2.65,3.51,9,9,0,0,0-.86,3.93,16.33,16.33,0,0,0,1.63,6.72,19.25,19.25,0,0,0,2.55,4C221.84,327.13,222.29,327.56,222.26,327.59Z"/><path class="cls-5" d="M243.43,317.35a7.58,7.58,0,0,1,.07-1.43c.06-.92.16-2.24.2-3.88a34.57,34.57,0,0,0-1.8-12.56,20.85,20.85,0,0,0-7.55-10,22,22,0,0,0-4.73-2.31,1.89,1.89,0,0,1,.36.05,8.68,8.68,0,0,1,1,.27,14.55,14.55,0,0,1,3.54,1.68,20.48,20.48,0,0,1,7.84,10.1A32.48,32.48,0,0,1,244,312c-.08,1.65-.23,3-.36,3.89A7,7,0,0,1,243.43,317.35Z"/><path class="cls-5" d="M234.35,289.15a13.29,13.29,0,0,1,0-2.36,12.33,12.33,0,0,0-.82-5.44,6.18,6.18,0,0,0-4-3.45,13.56,13.56,0,0,0-2.29-.31,4,4,0,0,1,2.38,0,6.2,6.2,0,0,1,2.38,1.08,6.33,6.33,0,0,1,2,2.52,11.36,11.36,0,0,1,.72,5.68A9.28,9.28,0,0,1,234.35,289.15Z"/><path class="cls-14" d="M236,270.56a9.42,9.42,0,0,1-1.37-.52,8.22,8.22,0,0,0-3.41-.45,8.58,8.58,0,0,0-3.28,1,13.59,13.59,0,0,1-1.26.76,3.26,3.26,0,0,1,1.07-1.07,7.08,7.08,0,0,1,7-.61A3.74,3.74,0,0,1,236,270.56Z"/><path class="cls-5" d="M248,270.52a23.71,23.71,0,0,0-2.56-2.55,12.4,12.4,0,0,0-15.91.21,22.74,22.74,0,0,0-2.49,2.61,2.62,2.62,0,0,1,.47-.87,10.94,10.94,0,0,1,1.78-2,12.3,12.3,0,0,1,16.39-.21,10.79,10.79,0,0,1,1.82,2A2.81,2.81,0,0,1,248,270.52Z"/><path class="cls-14" d="M242.38,256.47c0,.09-1.29.17-3.26.76a17.32,17.32,0,0,0-11.35,10.54c-.74,1.93-.91,3.21-1,3.2a2.8,2.8,0,0,1,.06-.91,14.48,14.48,0,0,1,.59-2.42A16.57,16.57,0,0,1,239,256.87a15.47,15.47,0,0,1,2.45-.41A2.64,2.64,0,0,1,242.38,256.47Z"/><path class="cls-5" d="M226.71,256.36c.07.06-.55.72-1.22,2a10.68,10.68,0,0,0,.1,10.53c.7,1.23,1.33,1.88,1.26,1.94a5.4,5.4,0,0,1-1.58-1.75,10.14,10.14,0,0,1-.1-10.9A5.21,5.21,0,0,1,226.71,256.36Z"/><path class="cls-5" d="M212.92,260.08a15.6,15.6,0,0,0,.77,2.58,11.14,11.14,0,0,0,4.25,4.72,24.18,24.18,0,0,0,6,2.47,18.25,18.25,0,0,1,2.61.79,11.8,11.8,0,0,1-2.7-.44,19.63,19.63,0,0,1-6.18-2.38,10.66,10.66,0,0,1-4.31-5,6.54,6.54,0,0,1-.46-2A1.68,1.68,0,0,1,212.92,260.08Z"/><path class="cls-5" d="M220.53,303.8a1.66,1.66,0,0,1-.49-.11c-.32-.09-.78-.25-1.36-.48a18.22,18.22,0,0,1-4.56-2.73,17.7,17.7,0,0,1-4.84-6.21,15.93,15.93,0,0,1-1.16-9.53,14.47,14.47,0,0,1,4.68-8.38,14.08,14.08,0,0,1,7.17-3.21,12.82,12.82,0,0,1,5.3.35,8.18,8.18,0,0,1,1.35.52c.3.13.45.21.44.23s-.64-.25-1.85-.55a13.34,13.34,0,0,0-5.19-.19,14,14,0,0,0-6.91,3.21,14.28,14.28,0,0,0-4.48,8.11,15.68,15.68,0,0,0,1.09,9.24,17.68,17.68,0,0,0,4.64,6.13,19.51,19.51,0,0,0,4.4,2.82C219.89,303.55,220.55,303.75,220.53,303.8Z"/><path class="cls-5" d="M219.2,314.36a2.88,2.88,0,0,1-.62-.28,14.29,14.29,0,0,1-1.73-1,33.63,33.63,0,0,1-12.19-13,34.67,34.67,0,0,1-2.43-5.88,21.86,21.86,0,0,1-1-6.77A14.38,14.38,0,0,1,203,280.8a16.85,16.85,0,0,1,4-5,19.61,19.61,0,0,1,9.77-4.36,25.89,25.89,0,0,1,7.25-.09c.85.1,1.5.23,1.94.32a3.9,3.9,0,0,1,.67.18,5.05,5.05,0,0,1-.68-.07c-.45-.07-1.1-.16-2-.23a27.26,27.26,0,0,0-7.16.25,19.74,19.74,0,0,0-9.53,4.36,15.39,15.39,0,0,0-5.56,11.24,21.8,21.8,0,0,0,1,6.61,33.73,33.73,0,0,0,2.37,5.81,34.79,34.79,0,0,0,6.29,8.55A36.06,36.06,0,0,0,217,313C218.38,313.89,219.23,314.31,219.2,314.36Z"/><path class="cls-5" d="M243.36,303.63a26,26,0,0,0,2.67-5.76,20.25,20.25,0,0,0,.81-6.79,19.1,19.1,0,0,0-2.2-8,19.35,19.35,0,0,0-11.37-9.58,9.91,9.91,0,0,0-4.56-.23c-1.07.24-1.61.54-1.64.49a2.5,2.5,0,0,1,.39-.23,6.46,6.46,0,0,1,1.2-.46,9.59,9.59,0,0,1,4.7.08,17.25,17.25,0,0,1,6.24,3.14,20.39,20.39,0,0,1,5.5,6.54,19.2,19.2,0,0,1,2.22,8.25,20,20,0,0,1-.94,6.92,19.33,19.33,0,0,1-2,4.27,12.32,12.32,0,0,1-.73,1.05C243.48,303.53,243.38,303.65,243.36,303.63Z"/></g><g id="Windows"><rect class="cls-15" x="238.34" y="33.03" width="153.98" height="114.81"/><path class="cls-4" d="M392.32,147.85v-8.21c0-5.34,0-13.18-.06-23.19,0-20-.06-48.68-.11-83.42l.22.22h-154l.26-.26V147.81l-.23-.24,111.12.12,31.58.06h.08l-31.52.07-111.28.11h-.24V32.62H392.62V33c0,34.79-.08,63.52-.11,83.55,0,10,0,17.81-.06,23.15v6.06A12.94,12.94,0,0,1,392.32,147.85Z"/><rect class="cls-2" x="317.73" y="100.82" width="93.63" height="36.4"/><path class="cls-4" d="M411.36,137.21v-9.77c0-6.28-.06-15.36-.1-26.62l.18.18-93.62.08h0l.26-.26v36.39l-.25-.25,67.06.12,19.51.07h.11l-19.45.07-67.23.11h-.25v-36.9h.27l93.62.08h.18v.18c0,11.31-.08,20.42-.1,26.73v9A1.5,1.5,0,0,1,411.36,137.21Z"/><rect class="cls-4" x="317.73" y="100.82" width="93.63" height="7.8"/><rect class="cls-4" x="328.86" y="114.56" width="9.19" height="9.19"/><rect class="cls-4" x="334.42" y="120.13" width="9.19" height="9.19"/><rect class="cls-4" x="350.77" y="114.56" width="9.19" height="9.19"/><rect class="cls-14" x="356.34" y="120.13" width="9.19" height="9.19"/><path class="cls-4" d="M365.54,129.33a4.17,4.17,0,0,1-.06-.71c0-.52,0-1.15-.05-1.89-.05-1.62-.1-3.89-.12-6.6l.23.23h-9.2l.26-.26h0v9.18l-.23-.23c2.71,0,5,.07,6.6.12l1.89.06a3.35,3.35,0,0,1,.71.05,3.21,3.21,0,0,1-.62,0l-1.84.06c-1.6,0-3.93.09-6.74.11h-.22v-9.4h0c-.23.24.32-.32.26-.26h9.42V120c0,2.81-.07,5.14-.11,6.74a16.61,16.61,0,0,1-.06,1.84A4.57,4.57,0,0,1,365.54,129.33Z"/><rect class="cls-14" x="371.22" y="114.56" width="9.19" height="9.19"/><path class="cls-4" d="M380.42,123.76a3.35,3.35,0,0,1-.05-.71c0-.52,0-1.14-.06-1.89-.05-1.62-.1-3.89-.12-6.6l.23.23h-9.2c-.05.06.5-.49.26-.26h0v9.19l-.23-.23c2.71,0,5,.08,6.6.12l1.89.06a3.35,3.35,0,0,1,.71,0,3.21,3.21,0,0,1-.62,0l-1.84.06c-1.6,0-3.93.09-6.74.11H371v-9.4h0c-.23.24.32-.31.26-.26h9.42v.22c0,2.81-.07,5.14-.11,6.74a16.61,16.61,0,0,1-.06,1.84A4.41,4.41,0,0,1,380.42,123.76Z"/><rect class="cls-14" x="376.79" y="120.13" width="9.19" height="9.19"/><path class="cls-4" d="M386,129.33a4.17,4.17,0,0,1-.06-.71c0-.52,0-1.15-.05-1.89-.05-1.62-.1-3.89-.12-6.6l.23.23h-9.2l.26-.26h0v9.18l-.23-.23c2.71,0,5,.07,6.6.12l1.89.06a3.35,3.35,0,0,1,.71.05,3.21,3.21,0,0,1-.62,0l-1.84.06c-1.6,0-3.93.09-6.74.11h-.22v-9.4h0l.26-.26h9.42V120c0,2.81-.07,5.14-.11,6.74,0,.73-.05,1.34-.06,1.84A4.57,4.57,0,0,1,386,129.33Z"/><rect class="cls-4" x="376.79" y="120.13" width="3.63" height="3.63"/><rect class="cls-4" x="390.02" y="114.56" width="9.19" height="9.19"/><rect class="cls-4" x="395.59" y="120.13" width="9.19" height="9.19"/><rect class="cls-2" x="395.59" y="120.13" width="3.63" height="3.63"/><polygon class="cls-2" points="415.55 246.69 339.9 246.82 339.9 211.84 416.02 211.71 415.55 246.69"/><path class="cls-16" d="M415.55,246.69l-75.78.25V211.71H416Zm-75.53,0h75.53l.48-35L340,212Z"/><polygon class="cls-4" points="416.02 219.34 339.9 219.34 339.9 211.84 416.02 211.71 416.02 219.34"/><rect class="cls-14" x="344.97" y="228.69" width="8.89" height="8.89"/><path class="cls-4" d="M353.86,237.58a3.07,3.07,0,0,1-.05-.68c0-.51,0-1.11-.06-1.84,0-1.56-.1-3.75-.12-6.37l.23.23L345,229l.26-.26h0v8.87l-.22-.22c2.61,0,4.81.07,6.37.11l1.83.06a4,4,0,0,1,.69.05,21.06,21.06,0,0,1-2.38.11c-1.54,0-3.8.09-6.51.12h-.23v-9.1h0c-.24.23.31-.32.26-.26h9.11v.22c0,2.72-.07,5-.11,6.52A23.24,23.24,0,0,1,353.86,237.58Z"/><line class="cls-17" x1="353.86" y1="228.69" x2="344.97" y2="237.58"/><path class="cls-8" d="M345,237.58a76.16,76.16,0,0,1,8.89-8.89,38.15,38.15,0,0,1-4.26,4.63A38.15,38.15,0,0,1,345,237.58Z"/><rect class="cls-4" x="356.54" y="228.69" width="8.89" height="8.89"/><rect class="cls-5" x="368.1" y="228.69" width="8.89" height="8.89"/><rect class="cls-11" x="379.67" y="228.69" width="8.89" height="8.89"/><rect class="cls-7" x="391.24" y="228.69" width="8.89" height="8.89"/><line class="cls-17" x1="402.81" y1="237.58" x2="402.81" y2="228.69"/><rect class="cls-6" x="402.81" y="228.67" width="8.89" height="8.89"/><rect class="cls-15" x="75.14" y="33.03" width="125.82" height="87.62"/><path class="cls-4" d="M201,120.65V96.76c0-15.24-.07-37.11-.11-63.73l.21.21H75.29L75.4,33v87.62l-.24-.23,90.69.11,25.87.07h.12l-25.81.06-90.85.12H74.9V32.63H201.19V33c0,26.67-.09,48.59-.11,63.86,0,7.61,0,13.55-.06,17.61v4.6C201,120.12,201,120.65,201,120.65Z"/><rect class="cls-4" x="75.14" y="33.03" width="125.82" height="10.95"/><path class="cls-15" d="M82,38.82a1.32,1.32,0,1,1-1.31-1.37A1.34,1.34,0,0,1,82,38.82Z"/><path class="cls-15" d="M87.29,38.82A1.31,1.31,0,1,1,86,37.45a1.33,1.33,0,0,1,1.29,1.37Z"/><path class="cls-15" d="M92.62,38.82a1.32,1.32,0,1,1-1.32-1.37,1.34,1.34,0,0,1,1.32,1.36Z"/><rect class="cls-6" x="87.1" y="54.71" width="17.93" height="43.02"/><rect class="cls-3" x="114.75" y="54.71" width="17.93" height="43.02"/><rect class="cls-2" x="142.4" y="54.71" width="17.93" height="43.02"/><rect class="cls-1" x="170.05" y="55.05" width="17.93" height="43.02"/><rect class="cls-6" x="85.02" y="102.48" width="108.68" height="9.83"/><polygon class="cls-4" points="185.44 110.3 187.78 122.13 189.7 118.83 193.83 124.73 195.9 123.4 191.77 117.5 195.56 116.95 185.44 110.3"/><rect class="cls-2" x="97.36" y="131.07" width="55.38" height="94.99"/><path class="cls-16" d="M152.74,226.06V219c0-4.57,0-11.23-.07-19.62,0-16.78-.07-40.5-.11-68.3l.24.24H97.42l.26-.26c0,36.23-.05,69.47-.06,95l-.2-.2,40.37.1h11.13l-11,.05-40.5.11h-.2v-.2c0-25.52,0-58.76-.06-95v-.26H153v.24c0,27.87-.09,51.64-.12,68.46,0,8.37,0,15-.06,19.57v6.52A2.62,2.62,0,0,1,152.74,226.06Z"/><rect class="cls-4" x="97.36" y="131.07" width="55.38" height="8"/><polygon class="cls-4" points="110.67 149.06 111.34 157.93 113.81 154.7 117.96 154.52 110.67 149.06"/><path class="cls-4" d="M134.6,149.06l.52.36,1.52,1.09c1.3.94,3.18,2.29,5.34,3.89l.33.25h-.41l-4,.18h-.14l.11-.06L135.39,158l-.24.31v-.39c-.19-2.63-.31-4.88-.4-6.45,0-.69-.07-1.29-.1-1.81,0-.21,0-.41,0-.62a4.35,4.35,0,0,0,.08.7c.08.44.11,1.15.17,1.86.16,1.58.37,3.76.57,6.3l-.27-.08c.78-1,1.61-2.1,2.47-3.24v-.06h.22l4-.15-.08.26c-2.08-1.57-3.84-2.95-5.13-3.95l-1.51-1.18C134.81,149.23,134.61,149.08,134.6,149.06Z"/><path class="cls-4" d="M109.06,187.65c-.07-.06,2.69-3,6.16-6.56s6.32-6.41,6.38-6.35-2.7,3-6.16,6.56S109.12,187.71,109.06,187.65Z"/><path class="cls-4" d="M147.5,181.11a13.6,13.6,0,0,0-.3-2,8.29,8.29,0,0,0-2.89-4.47,7.88,7.88,0,0,0-3.35-1.53,7.71,7.71,0,0,0-4.2.37,7.86,7.86,0,0,0-3.65,2.86,8.26,8.26,0,0,0,0,9.49,7.86,7.86,0,0,0,3.65,2.86,7.71,7.71,0,0,0,4.2.37,7.88,7.88,0,0,0,3.35-1.53,8.29,8.29,0,0,0,2.89-4.47,13.6,13.6,0,0,0,.3-2,6.73,6.73,0,0,1-.18,2,8.24,8.24,0,0,1-2.87,4.61,7.9,7.9,0,0,1-7.79,1.26,8.2,8.2,0,0,1-3.8-3,8.55,8.55,0,0,1,0-9.85,8.14,8.14,0,0,1,3.8-3,7.9,7.9,0,0,1,7.79,1.26,8.24,8.24,0,0,1,2.87,4.61A6.81,6.81,0,0,1,147.5,181.11Z"/><path class="cls-4" d="M140.33,202.2l.2.15.57.48,2.18,1.87.07.06-.06.07L134,215.52h0l-1.12.16-2,.31h-.22l.05-.21.72-3.67h0c2.53-3,4.72-5.49,6.32-7.25a16.92,16.92,0,0,1,2.67-2.68,1.07,1.07,0,0,1-.19.18c-.11.12-.29.3-.5.54-.44.47-1.06,1.19-1.84,2.08-1.56,1.8-3.72,4.35-6.23,7.33v-.07c-.22,1.16-.46,2.39-.71,3.67l-.18-.19,2-.3,1.12-.17h-.09l9.39-10.61v.13l-2.09-1.91-.55-.53A1,1,0,0,1,140.33,202.2Z"/><path class="cls-4" d="M120.07,215.16v-3.72c0-2.41,0-5.71-.07-9.64l.13.14h-13l.15-.16h0v13.35l-.13-.13,9.37.07h.09l-9.46.07H107V201.65h0l.16-.16H120.3v.14c0,4,0,7.3-.07,9.73v3.4C120.08,215.09,120.08,215.17,120.07,215.16Z"/><path class="cls-4" d="M109.06,201.8a12.69,12.69,0,0,1-2.82.16,12.6,12.6,0,0,1-2.81-.16,12.6,12.6,0,0,1,2.81-.16A12.69,12.69,0,0,1,109.06,201.8Z"/><path class="cls-4" d="M107.09,204.37a32,32,0,0,1,0-6.34A33.57,33.57,0,0,1,107.09,204.37Z"/><rect class="cls-14" x="11.72" y="159.37" width="73.33" height="73.33"/><circle class="cls-1" cx="102.06" cy="261.55" r="13.74"/><circle class="cls-2" cx="103.4" cy="256.04" r="12.02"/><circle class="cls-4" cx="103.4" cy="256.04" r="11.58"/><path class="cls-4" d="M103.4,264.92a8.88,8.88,0,1,1,8.88-8.88,8.89,8.89,0,0,1-8.88,8.88Zm0-17.7a8.83,8.83,0,1,0,8.83,8.83h0a8.84,8.84,0,0,0-8.83-8.82Z"/><path class="cls-5" d="M104.35,248a5.74,5.74,0,1,0,4.26,6.91,6.54,6.54,0,0,0,.13-.75,5.19,5.19,0,0,0-.81-3.39,5.34,5.34,0,0,0-3.58-2.77"/><polygon class="cls-4" points="101.23 263.52 101.89 264.43 105.42 264.31 106.1 263.52 101.23 263.52"/><circle class="cls-4" cx="337.81" cy="263.16" r="7.34"/><path class="cls-5" d="M340.49,263.16a2.68,2.68,0,1,1-2.68-2.68h0A2.68,2.68,0,0,1,340.49,263.16Z"/><path class="cls-4" d="M69.12,243.05c0-.13.63-.24,1.42-.24s1.42.11,1.42.24-.64.25-1.42.25S69.12,243.19,69.12,243.05Z"/><path class="cls-4" d="M63.44,243.05c0-.13.63-.24,1.42-.24s1.42.11,1.42.24-.64.25-1.42.25S63.44,243.19,63.44,243.05Z"/><path class="cls-4" d="M57.75,243.05c0-.13.64-.24,1.42-.24s1.42.11,1.42.24-.63.25-1.42.25S57.75,243.19,57.75,243.05Z"/><path class="cls-4" d="M52.07,243.05c0-.13.64-.24,1.42-.24s1.42.11,1.42.24-.63.25-1.42.25S52.07,243.19,52.07,243.05Z"/><path class="cls-4" d="M46.39,243.05c0-.13.64-.24,1.42-.24s1.42.11,1.42.24-.63.25-1.42.25S46.39,243.19,46.39,243.05Z"/><path class="cls-4" d="M40.71,243.05c0-.13.63-.24,1.42-.24s1.42.11,1.42.24-.64.25-1.42.25S40.71,243.19,40.71,243.05Z"/><path class="cls-4" d="M35,243.05c0-.13.63-.24,1.42-.24s1.42.11,1.42.24-.64.25-1.42.25S35,243.19,35,243.05Z"/><path class="cls-4" d="M29.35,243.05c0-.13.63-.24,1.42-.24s1.42.11,1.42.24-.64.25-1.42.25S29.35,243.19,29.35,243.05Z"/><path class="cls-4" d="M23.66,243.05c0-.13.64-.24,1.42-.24s1.42.11,1.42.24-.63.25-1.42.25S23.66,243.19,23.66,243.05Z"/><path class="cls-4" d="M18,243.05c0-.13.64-.24,1.42-.24s1.42.11,1.42.24-.63.25-1.42.25S18,243.19,18,243.05Z"/><path class="cls-4" d="M12.3,243.05c0-.13.64-.24,1.42-.24s1.42.11,1.42.24-.64.25-1.42.25S12.3,243.19,12.3,243.05Z"/><path class="cls-4" d="M6.62,243.05c0-.13.63-.24,1.42-.24s1.42.11,1.42.24-.64.25-1.42.25S6.62,243.19,6.62,243.05Z"/><path class="cls-4" d="M2.57,241.42c.14,0,.25.63.25,1.42v.21l-.24-.24c.68,0,1.21.12,1.21.24s-.53.23-1.21.25H2.33v-.46C2.32,242.05,2.43,241.42,2.57,241.42Z"/><path class="cls-4" d="M2.57,235.74c.14,0,.25.63.25,1.42s-.11,1.42-.25,1.42-.25-.64-.25-1.42S2.43,235.74,2.57,235.74Z"/><path class="cls-4" d="M2.57,230.05c.14,0,.25.64.25,1.43s-.11,1.42-.25,1.42-.25-.64-.25-1.42S2.43,230.05,2.57,230.05Z"/><path class="cls-4" d="M2.57,224.37c.14,0,.25.64.25,1.42s-.11,1.42-.25,1.42-.25-.63-.25-1.42S2.43,224.37,2.57,224.37Z"/><path class="cls-4" d="M2.57,218.69c.14,0,.25.64.25,1.42s-.11,1.42-.25,1.42-.25-.63-.25-1.42S2.43,218.69,2.57,218.69Z"/><path class="cls-4" d="M2.57,213c.14,0,.25.64.25,1.42s-.11,1.42-.25,1.42-.25-.64-.25-1.42S2.43,213,2.57,213Z"/><path class="cls-4" d="M2.57,207.33c.14,0,.25.63.25,1.42s-.11,1.42-.25,1.42-.25-.64-.25-1.42S2.43,207.33,2.57,207.33Z"/><path class="cls-4" d="M2.57,201.65c.14,0,.25.63.25,1.42s-.11,1.42-.25,1.42-.25-.64-.25-1.42S2.43,201.65,2.57,201.65Z"/><path class="cls-4" d="M2.57,196c.14,0,.25.64.25,1.42s-.11,1.43-.25,1.43-.25-.64-.25-1.43S2.43,196,2.57,196Z"/><path class="cls-4" d="M2.57,190.28c.14,0,.25.64.25,1.42s-.11,1.42-.25,1.42-.25-.63-.25-1.42S2.43,190.28,2.57,190.28Z"/><path class="cls-4" d="M2.57,184.6c.14,0,.25.64.25,1.42s-.11,1.42-.25,1.42-.25-.63-.25-1.42S2.43,184.6,2.57,184.6Z"/><path class="cls-4" d="M2.57,178.92c.14,0,.25.64.25,1.42s-.11,1.42-.25,1.42-.25-.64-.25-1.42S2.43,178.92,2.57,178.92Z"/><path class="cls-4" d="M3,173.66c0,.07-.16.13-.42.18l.18-.18a6.73,6.73,0,0,1,.07,1c0,.78-.11,1.42-.25,1.42s-.25-.64-.25-1.42a6.73,6.73,0,0,1,.07-1v-.2h.14C2.83,173.53,3,173.59,3,173.66Z"/><path class="cls-4" d="M8.68,173.66c0,.14-.64.25-1.42.25s-1.42-.11-1.42-.25.63-.24,1.42-.24S8.68,173.53,8.68,173.66Z"/><path class="cls-4" d="M14.36,173.66c0,.14-.64.25-1.42.25s-1.42-.11-1.42-.25.63-.24,1.42-.24S14.36,173.53,14.36,173.66Z"/><path class="cls-4" d="M20,173.66c0,.14-.64.25-1.42.25s-1.42-.11-1.42-.25.64-.24,1.42-.24S20,173.53,20,173.66Z"/><path class="cls-4" d="M25.72,173.66c0,.14-.63.25-1.42.25s-1.42-.11-1.42-.25.64-.24,1.42-.24S25.72,173.53,25.72,173.66Z"/><path class="cls-4" d="M31.4,173.66c0,.14-.63.25-1.42.25s-1.42-.11-1.42-.25.64-.24,1.42-.24S31.4,173.53,31.4,173.66Z"/><path class="cls-4" d="M37.09,173.66c0,.14-.64.25-1.43.25s-1.42-.11-1.42-.25.64-.24,1.42-.24S37.09,173.53,37.09,173.66Z"/><path class="cls-4" d="M42.77,173.66c0,.14-.64.25-1.42.25s-1.42-.11-1.42-.25.63-.24,1.42-.24S42.77,173.53,42.77,173.66Z"/><path class="cls-4" d="M48.45,173.66c0,.14-.64.25-1.42.25s-1.42-.11-1.42-.25.63-.24,1.42-.24S48.45,173.53,48.45,173.66Z"/><path class="cls-4" d="M54.13,173.66c0,.14-.64.25-1.42.25s-1.42-.11-1.42-.25.64-.24,1.42-.24S54.13,173.53,54.13,173.66Z"/><path class="cls-4" d="M59.81,173.66c0,.14-.63.25-1.42.25S57,173.8,57,173.66s.64-.24,1.42-.24S59.81,173.53,59.81,173.66Z"/><path class="cls-4" d="M65.49,173.66c0,.14-.63.25-1.42.25s-1.42-.11-1.42-.25.64-.24,1.42-.24S65.49,173.53,65.49,173.66Z"/><path class="cls-4" d="M71.18,173.66c0,.14-.64.25-1.42.25s-1.43-.11-1.43-.25.64-.24,1.43-.24S71.18,173.53,71.18,173.66Z"/><path class="cls-4" d="M72,178.56c-.14,0-.25-.63-.25-1.42s.11-1.42.25-1.42.24.64.24,1.42A2.73,2.73,0,0,1,72,178.56Z"/><path class="cls-4" d="M72,184.24c-.14,0-.25-.63-.25-1.42s.11-1.42.25-1.42.24.64.24,1.42A2.73,2.73,0,0,1,72,184.24Z"/><path class="cls-4" d="M72,189.93c-.14,0-.25-.64-.25-1.42s.11-1.42.25-1.42.24.63.24,1.42A2.7,2.7,0,0,1,72,189.93Z"/><path class="cls-4" d="M72,195.61c-.14,0-.25-.64-.25-1.42s.11-1.42.25-1.42.24.63.24,1.42A2.7,2.7,0,0,1,72,195.61Z"/><path class="cls-4" d="M72,201.29c-.14,0-.25-.64-.25-1.42s.11-1.42.25-1.42.24.63.24,1.42A2.7,2.7,0,0,1,72,201.29Z"/><path class="cls-4" d="M72,207c-.14,0-.25-.63-.25-1.42s.11-1.42.25-1.42.24.64.24,1.42A2.73,2.73,0,0,1,72,207Z"/><path class="cls-4" d="M72,212.65c-.14,0-.25-.63-.25-1.42s.11-1.42.25-1.42.24.64.24,1.42A2.73,2.73,0,0,1,72,212.65Z"/><path class="cls-4" d="M72,218.33c-.14,0-.25-.63-.25-1.42s.11-1.42.25-1.42.24.64.24,1.42A2.73,2.73,0,0,1,72,218.33Z"/><path class="cls-4" d="M72,224c-.14,0-.25-.64-.25-1.42s.11-1.42.25-1.42.24.63.24,1.42A2.7,2.7,0,0,1,72,224Z"/><path class="cls-4" d="M72,229.7c-.14,0-.25-.64-.25-1.42s.11-1.42.25-1.42.24.63.24,1.42A2.7,2.7,0,0,1,72,229.7Z"/><path class="cls-4" d="M72,235.38c-.14,0-.25-.64-.25-1.42s.11-1.42.25-1.42.24.63.24,1.42A2.7,2.7,0,0,1,72,235.38Z"/><path class="cls-4" d="M72,241.06c-.14,0-.25-.63-.25-1.42s.11-1.42.25-1.42.24.64.24,1.42A2.73,2.73,0,0,1,72,241.06Z"/><rect class="cls-4" x="69.39" y="239.78" width="5.14" height="5.14"/><rect class="cls-4" y="240.48" width="5.14" height="5.14"/><rect class="cls-4" x="69.39" y="170.59" width="5.14" height="5.14"/><rect class="cls-4" y="171.09" width="5.14" height="5.14"/></g></g></g></g></svg>