<svg xmlns="http://www.w3.org/2000/svg" viewBox="0 0 431.01 429.51"><defs><style>.cls-1{fill:#e0e0e0;}.cls-2{fill:#fafafa;}.cls-3{fill:#ebebeb;}.cls-4{fill:#263238;}.cls-5{fill:#455a64;}.cls-6{fill:#006293;}.cls-7{fill:#009dff;}.cls-8{fill:#e8505b;}.cls-9{opacity:0.3;}.cls-10{fill:#ffbe9d;}.cls-11{opacity:0.2;}.cls-12{fill:#434dff;}.cls-13{fill:#f5f5f5;}.cls-14{fill:#fff;}.cls-15{fill:#222221;}.cls-16{opacity:0.5;}</style></defs><g id="Layer_2" data-name="Layer 2"><g id="Background_Complete" data-name="Background Complete"><path class="cls-1" d="M411.8,89.29c0-.16.79-.3,1.75-.3s1.75.14,1.75.3-.78.31-1.75.31S411.8,89.46,411.8,89.29Z"/><path class="cls-1" d="M404.8,89.29c0-.16.78-.3,1.75-.3s1.75.14,1.75.3-.78.31-1.75.31S404.8,89.46,404.8,89.29Z"/><path class="cls-1" d="M397.8,89.29c0-.16.78-.3,1.75-.3s1.75.14,1.75.3-.78.31-1.75.31S397.8,89.46,397.8,89.29Z"/><path class="cls-1" d="M390.8,89.29c0-.16.78-.3,1.75-.3s1.75.14,1.75.3-.79.31-1.75.31S390.8,89.46,390.8,89.29Z"/><path class="cls-1" d="M383.8,89.29c0-.16.78-.3,1.75-.3s1.75.14,1.75.3-.79.31-1.75.31S383.8,89.46,383.8,89.29Z"/><path class="cls-1" d="M376.79,89.29c0-.16.79-.3,1.75-.3s1.75.14,1.75.3-.78.31-1.75.31S376.79,89.46,376.79,89.29Z"/><path class="cls-1" d="M369.79,89.29c0-.16.79-.3,1.75-.3s1.75.14,1.75.3-.78.31-1.75.31S369.79,89.46,369.79,89.29Z"/><path class="cls-1" d="M362.79,89.29c0-.16.78-.3,1.75-.3s1.75.14,1.75.3-.78.31-1.75.31S362.79,89.46,362.79,89.29Z"/><path class="cls-1" d="M355.79,89.29c0-.16.78-.3,1.75-.3s1.75.14,1.75.3-.78.31-1.75.31S355.79,89.46,355.79,89.29Z"/><path class="cls-1" d="M348.79,89.29c0-.16.78-.3,1.75-.3s1.75.14,1.75.3-.79.31-1.75.31S348.79,89.46,348.79,89.29Z"/><path class="cls-1" d="M341.78,89.29c0-.16.79-.3,1.75-.3s1.76.14,1.76.3-.79.31-1.76.31S341.78,89.46,341.78,89.29Z"/><path class="cls-1" d="M334.78,89.29c0-.16.79-.3,1.75-.3s1.75.14,1.75.3-.78.31-1.75.31S334.78,89.46,334.78,89.29Z"/><path class="cls-1" d="M329.79,87.28c.17,0,.31.78.31,1.75v.26l-.3-.3c.85,0,1.49.15,1.49.3s-.64.28-1.49.3h-.29V89C329.49,88.06,329.63,87.28,329.79,87.28Z"/><path class="cls-1" d="M329.79,80.28c.17,0,.31.78.31,1.75s-.14,1.75-.31,1.75-.3-.78-.3-1.75S329.63,80.28,329.79,80.28Z"/><path class="cls-1" d="M329.79,73.28c.17,0,.31.78.31,1.75s-.14,1.75-.31,1.75-.3-.79-.3-1.75S329.63,73.28,329.79,73.28Z"/><path class="cls-1" d="M329.79,66.28c.17,0,.31.78.31,1.75s-.14,1.75-.31,1.75-.3-.79-.3-1.75S329.63,66.28,329.79,66.28Z"/><path class="cls-1" d="M329.79,59.27c.17,0,.31.79.31,1.75s-.14,1.75-.31,1.75-.3-.78-.3-1.75S329.63,59.27,329.79,59.27Z"/><path class="cls-1" d="M329.79,52.27c.17,0,.31.79.31,1.75s-.14,1.75-.31,1.75-.3-.78-.3-1.75S329.63,52.27,329.79,52.27Z"/><path class="cls-1" d="M329.79,45.27c.17,0,.31.78.31,1.75s-.14,1.75-.31,1.75-.3-.78-.3-1.75S329.63,45.27,329.79,45.27Z"/><path class="cls-1" d="M329.79,38.27c.17,0,.31.78.31,1.75s-.14,1.75-.31,1.75-.3-.78-.3-1.75S329.63,38.27,329.79,38.27Z"/><path class="cls-1" d="M329.79,31.27c.17,0,.31.78.31,1.75s-.14,1.75-.31,1.75-.3-.79-.3-1.75S329.63,31.27,329.79,31.27Z"/><path class="cls-1" d="M329.79,24.26c.17,0,.31.79.31,1.75s-.14,1.76-.31,1.76-.3-.79-.3-1.76S329.63,24.26,329.79,24.26Z"/><path class="cls-1" d="M329.79,17.26c.17,0,.31.79.31,1.75s-.14,1.75-.31,1.75-.3-.78-.3-1.75S329.63,17.26,329.79,17.26Z"/><path class="cls-1" d="M329.79,10.26c.17,0,.31.78.31,1.75s-.14,1.75-.31,1.75-.3-.78-.3-1.75S329.63,10.26,329.79,10.26Z"/><path class="cls-1" d="M330.32,3.78c0,.09-.2.16-.53.22l.22-.22A8.18,8.18,0,0,1,330.1,5c0,1-.14,1.75-.31,1.75s-.3-.78-.3-1.75a7,7,0,0,1,.09-1.23l0-.24.17,0C330.12,3.62,330.32,3.7,330.32,3.78Z"/><path class="cls-1" d="M337.32,3.78c0,.17-.78.31-1.75.31s-1.75-.14-1.75-.31.78-.3,1.75-.3S337.32,3.62,337.32,3.78Z"/><path class="cls-1" d="M344.32,3.78c0,.17-.78.31-1.75.31s-1.75-.14-1.75-.31.78-.3,1.75-.3S344.32,3.62,344.32,3.78Z"/><path class="cls-1" d="M351.32,3.78c0,.17-.78.31-1.75.31s-1.75-.14-1.75-.31.79-.3,1.75-.3S351.32,3.62,351.32,3.78Z"/><path class="cls-1" d="M358.33,3.78c0,.17-.79.31-1.76.31s-1.75-.14-1.75-.31.79-.3,1.75-.3S358.33,3.62,358.33,3.78Z"/><path class="cls-1" d="M365.33,3.78c0,.17-.79.31-1.75.31s-1.75-.14-1.75-.31.78-.3,1.75-.3S365.33,3.62,365.33,3.78Z"/><path class="cls-1" d="M372.33,3.78c0,.17-.78.31-1.75.31s-1.75-.14-1.75-.31.78-.3,1.75-.3S372.33,3.62,372.33,3.78Z"/><path class="cls-1" d="M379.33,3.78c0,.17-.78.31-1.75.31s-1.75-.14-1.75-.31.78-.3,1.75-.3S379.33,3.62,379.33,3.78Z"/><path class="cls-1" d="M386.33,3.78c0,.17-.78.31-1.75.31s-1.75-.14-1.75-.31.79-.3,1.75-.3S386.33,3.62,386.33,3.78Z"/><path class="cls-1" d="M393.33,3.78c0,.17-.78.31-1.75.31s-1.75-.14-1.75-.31.79-.3,1.75-.3S393.33,3.62,393.33,3.78Z"/><path class="cls-1" d="M400.34,3.78c0,.17-.79.31-1.75.31s-1.75-.14-1.75-.31.78-.3,1.75-.3S400.34,3.62,400.34,3.78Z"/><path class="cls-1" d="M407.34,3.78c0,.17-.79.31-1.75.31s-1.75-.14-1.75-.31.78-.3,1.75-.3S407.34,3.62,407.34,3.78Z"/><path class="cls-1" d="M414.34,3.78c0,.17-.78.31-1.75.31s-1.75-.14-1.75-.31.78-.3,1.75-.3S414.34,3.62,414.34,3.78Z"/><path class="cls-1" d="M415.3,9.82c-.16,0-.3-.78-.3-1.75s.14-1.75.3-1.75.31.78.31,1.75S415.47,9.82,415.3,9.82Z"/><path class="cls-1" d="M415.3,16.82c-.16,0-.3-.78-.3-1.75s.14-1.75.3-1.75.31.79.31,1.75S415.47,16.82,415.3,16.82Z"/><path class="cls-1" d="M415.3,23.82c-.16,0-.3-.78-.3-1.75s.14-1.75.3-1.75.31.79.31,1.75S415.47,23.82,415.3,23.82Z"/><path class="cls-1" d="M415.3,30.83c-.16,0-.3-.79-.3-1.75s.14-1.75.3-1.75.31.78.31,1.75S415.47,30.83,415.3,30.83Z"/><path class="cls-1" d="M415.3,37.83c-.16,0-.3-.79-.3-1.75s.14-1.75.3-1.75.31.78.31,1.75S415.47,37.83,415.3,37.83Z"/><path class="cls-1" d="M415.3,44.83c-.16,0-.3-.78-.3-1.75s.14-1.75.3-1.75.31.78.31,1.75S415.47,44.83,415.3,44.83Z"/><path class="cls-1" d="M415.3,51.83c-.16,0-.3-.78-.3-1.75s.14-1.75.3-1.75.31.78.31,1.75S415.47,51.83,415.3,51.83Z"/><path class="cls-1" d="M415.3,58.83c-.16,0-.3-.78-.3-1.75s.14-1.75.3-1.75.31.79.31,1.75S415.47,58.83,415.3,58.83Z"/><path class="cls-1" d="M415.3,65.84c-.16,0-.3-.79-.3-1.75s.14-1.75.3-1.75.31.78.31,1.75S415.47,65.84,415.3,65.84Z"/><path class="cls-1" d="M415.3,72.84c-.16,0-.3-.79-.3-1.75s.14-1.75.3-1.75.31.78.31,1.75S415.47,72.84,415.3,72.84Z"/><path class="cls-1" d="M415.3,79.84c-.16,0-.3-.78-.3-1.75s.14-1.75.3-1.75.31.78.31,1.75S415.47,79.84,415.3,79.84Z"/><path class="cls-1" d="M415.3,86.84c-.16,0-.3-.78-.3-1.75s.14-1.75.3-1.75.31.78.31,1.75S415.47,86.84,415.3,86.84Z"/><rect class="cls-1" x="412.14" y="85.26" width="6.33" height="6.33"/><rect class="cls-1" x="326.63" y="86.13" width="6.33" height="6.33"/><rect class="cls-1" x="412.14" width="6.33" height="6.33"/><rect class="cls-1" x="326.63" y="0.62" width="6.33" height="6.33"/><path class="cls-1" d="M82.21,112.69C93.27,103,94.28,87.15,92.26,73.24c-.33-2.33-.35-4.81-1.68-6.74s-4.08-3-6.06-1.82c-1.64,1-2.17,3.1-3,4.88a13.71,13.71,0,0,1-4.89,5.82c-1.4.94-3.19,1.61-4.74,1-2.14-.89-2.68-3.64-2.92-6l-1.35-13A21.82,21.82,0,0,0,66.2,50.6a7.22,7.22,0,0,0-5.06-4.37c-2.27-.37-4.86,1.2-5.07,3.52a21.54,21.54,0,0,0,.25,2.89,2.46,2.46,0,0,1-1.18,2.46,2.81,2.81,0,0,1-2.66-.79A31,31,0,0,1,46,46.57a43.52,43.52,0,0,0-6.11-8.06c-2.46-2.31-5.68-4-9-3.83s-6.65,2.62-7.13,6,1.79,6.46,4.16,8.88a52.09,52.09,0,0,0,11.91,9.09,4.31,4.31,0,0,1,2,1.74c.67,1.49-.62,3.18-2.09,3.86-1.67.77-3.56.79-5.35,1.21s-3.65,1.42-4.15,3.21c-.69,2.47,1.57,4.74,3.7,6.15a44.57,44.57,0,0,0,14,6.13,15.12,15.12,0,0,1,5.14,1.83c1.5,1,2.56,3,1.91,4.77S52.24,90,50.41,89.88a31.12,31.12,0,0,1-5.3-1.39c-3.32-.85-7.41-.17-9.15,2.81a7.37,7.37,0,0,0-.06,6.57A16.94,16.94,0,0,0,40,103.22,45,45,0,0,0,60.56,114.5c7.67,1.74,14.6,1.68,21.65-1.81"/><path class="cls-2" d="M83.54,123a102.24,102.24,0,0,0-5.9-18.69A207.14,207.14,0,0,0,66.92,82.86l-3.09-5.48c-1-1.8-2-3.58-3.13-5.26a105.73,105.73,0,0,0-6.87-9.3C51.51,60,49.2,57.34,47,54.91s-4.27-4.67-6.25-6.62a83.51,83.51,0,0,0-10-8.5c-1.25-.91-2.25-1.58-2.94-2-.32-.22-.58-.38-.78-.51l-.27-.16a1.31,1.31,0,0,0,.25.2l.76.54c.66.47,1.65,1.16,2.89,2.09a88.35,88.35,0,0,1,9.91,8.58c2,2,4,4.2,6.19,6.64s4.47,5.07,6.78,7.92a106,106,0,0,1,6.81,9.28c1.09,1.68,2.09,3.44,3.12,5.25l3.09,5.48a215.94,215.94,0,0,1,10.73,21.4,104.82,104.82,0,0,1,6,18.6"/><path class="cls-2" d="M60.57,72.12a4.74,4.74,0,0,0,.12-1c.05-.65.09-1.6.13-2.77.07-2.35.06-5.59,0-9.16s0-6.81.12-9.15c.05-1.17.1-2.12.15-2.77a5,5,0,0,0,0-1,4.74,4.74,0,0,0-.18,1c-.1.65-.19,1.6-.28,2.77-.19,2.34-.27,5.59-.25,9.17s.06,6.71.08,9.15c0,1.1,0,2,0,2.78A5.21,5.21,0,0,0,60.57,72.12Z"/><path class="cls-2" d="M30.14,69.83a6,6,0,0,0,1.21,0c.77,0,1.89,0,3.27,0,2.76,0,6.58.12,10.78.44s8,.79,10.74,1.2c1.37.2,2.47.38,3.24.51a6.34,6.34,0,0,0,1.19.16,6.9,6.9,0,0,0-1.16-.33c-.76-.17-1.86-.41-3.22-.64-2.73-.49-6.54-1-10.75-1.34a105.21,105.21,0,0,0-10.83-.31c-1.38,0-2.5.11-3.27.18A6.57,6.57,0,0,0,30.14,69.83Z"/><path class="cls-2" d="M77.21,103.82a1.54,1.54,0,0,0,.17-.39c.1-.3.23-.68.39-1.13.33-1,.78-2.43,1.31-4.22,1.06-3.57,2.37-8.56,3.75-14.07S85.46,73.5,86.45,69.9c.48-1.74.88-3.18,1.18-4.25.13-.46.23-.84.31-1.16a1.88,1.88,0,0,0,.09-.41,1.54,1.54,0,0,0-.17.39c-.1.31-.23.68-.39,1.13-.33,1-.78,2.43-1.31,4.22-1.06,3.57-2.38,8.56-3.75,14.08S79.78,94.4,78.79,98c-.49,1.74-.88,3.18-1.18,4.25-.13.46-.23.84-.31,1.16A1.88,1.88,0,0,0,77.21,103.82Z"/><path class="cls-2" d="M36.18,95.42a2.52,2.52,0,0,0,.42.12l1.19.26,4.39.9c3.71.77,8.83,1.89,14.47,3.13s10.78,2.32,14.51,3c1.86.34,3.37.61,4.42.77l1.21.18a2.19,2.19,0,0,0,.42,0s-.14-.06-.41-.12l-1.19-.26-4.39-.91c-3.71-.76-8.83-1.88-14.48-3.12s-10.77-2.32-14.5-3c-1.86-.34-3.37-.61-4.42-.77l-1.21-.18A1.55,1.55,0,0,0,36.18,95.42Z"/><circle class="cls-1" cx="222.72" cy="304.96" r="124.55" transform="translate(-150.4 246.8) rotate(-45)"/><path class="cls-2" d="M222.72,403.25A98.29,98.29,0,1,1,321,305,98.4,98.4,0,0,1,222.72,403.25Zm0-195.58A97.29,97.29,0,1,0,320,305,97.39,97.39,0,0,0,222.72,207.67Z"/><path class="cls-2" d="M222.72,418.92a114,114,0,1,1,114-114A114.09,114.09,0,0,1,222.72,418.92Zm0-226.93a113,113,0,1,0,113,113A113.1,113.1,0,0,0,222.72,192Z"/><path class="cls-2" d="M222.72,390.18A85.23,85.23,0,1,1,307.94,305,85.32,85.32,0,0,1,222.72,390.18Zm0-169.45A84.23,84.23,0,1,0,306.94,305,84.32,84.32,0,0,0,222.72,220.73Z"/><path class="cls-2" d="M222.72,376.83A71.87,71.87,0,1,1,294.59,305,72,72,0,0,1,222.72,376.83Zm0-142.74A70.87,70.87,0,1,0,293.59,305,70.95,70.95,0,0,0,222.72,234.09Z"/><path class="cls-2" d="M222.72,363.14A58.19,58.19,0,1,1,280.9,305,58.25,58.25,0,0,1,222.72,363.14Zm0-115.37A57.19,57.19,0,1,0,279.9,305,57.25,57.25,0,0,0,222.72,247.77Z"/><path class="cls-2" d="M222.72,350.82A45.87,45.87,0,1,1,268.58,305,45.91,45.91,0,0,1,222.72,350.82Zm0-90.73A44.87,44.87,0,1,0,267.58,305,44.91,44.91,0,0,0,222.72,260.09Z"/><rect class="cls-3" x="213.38" y="4.92" width="48.33" height="48.33"/></g><g id="Desk"><rect class="cls-4" x="170.25" y="261.06" width="108.75" height="119.44" transform="matrix(1, -0.07, 0.07, 1, -22.8, 17.24)"/><polygon class="cls-5" points="271.21 317.43 269.62 282.22 174.88 291.11 178.5 327.69 271.21 317.43"/><path class="cls-5" d="M291,378.54l-121.42,8.15a7.67,7.67,0,0,1-8.18-7.15h0a7.68,7.68,0,0,1,7.15-8.17L290,363.21a7.66,7.66,0,0,1,8.17,7.15h0A7.68,7.68,0,0,1,291,378.54Z"/><rect class="cls-3" x="21.86" y="111.76" width="404.06" height="183.04"/><polygon class="cls-1" points="21.86 294.8 32.3 300.24 415.92 299.88 425.92 294.8 21.86 294.8"/></g><g id="Character"><polygon class="cls-5" points="131.46 277.53 130.74 154.26 320.15 154.26 320.15 278.8 131.46 277.53"/><path class="cls-2" d="M170.54,254.06c7.33-.38,14.79,1.35,22.11,2.19l-3.93-1A23.62,23.62,0,0,1,215,229.68c5.21.61,10.34,2.95,15.51,2.08,9.48-1.6,14.36-12.89,23.36-16.27,11.51-4.33,24.92,5.78,36.27,1,4.6-1.92,7.94-6,12.21-8.54,3.66-2.2,9-2.83,12-.3V181.21c-3,5.86-10.5,8.71-17.22,8.15-7.14-.59-13.64-4.16-19.83-7.72s-12.58-7.28-19.69-8.19c-10.1-1.3-19.9,3.22-29.7,6-8.84,2.49-18.37,3.57-27.2,1-.3-.08-.59-.19-.88-.29a15.13,15.13,0,0,1-3.68,2.62c-7.52,3.64-17.55-1.24-24.41,3.51-4.11,2.85-5.54,8.2-8.56,12.19-5.57,7.36-19,9.49-26.71,4.33v60.9l0,7.88h4A39.1,39.1,0,0,1,170.54,254.06Zm116-54.32a4,4,0,0,1,1.54-.73.9.9,0,0,1,.21-.08l-.08,0a4.61,4.61,0,1,1-1.23.58Z"/><path class="cls-6" d="M314.38,207.7c-3.08-2.53-8.38-1.9-12,.3-4.27,2.57-7.61,6.62-12.21,8.54-11.35,4.73-24.76-5.38-36.27-1-9,3.38-13.88,14.67-23.36,16.27-5.17.87-10.3-1.47-15.51-2.08a23.62,23.62,0,0,0-26.27,25.53l3.93,1c5.71.66,11.34.78,16.76-1.05,15.63-5.29,24.13-25.18,40.52-27.07,9.08-1,18.15,4,27.17,2.47,7.31-1.25,13.13-6.55,19.18-10.85s11.87-8.26,18.61-5.79v-5.79A4.51,4.51,0,0,0,314.38,207.7Z"/><path class="cls-7" d="M296.28,219.75c-6,4.3-11.87,9.6-19.18,10.85-9,1.53-18.09-3.52-27.17-2.47C233.54,230,225,249.91,209.41,255.2c-5.42,1.83-11,1.71-16.76,1.05-7.32-.84-14.78-2.57-22.11-2.19a39.1,39.1,0,0,0-30,17.52h4a29.75,29.75,0,0,1,14.4-8.08A29.12,29.12,0,0,1,182.44,268c1.53,1.1,3,2.35,4.43,3.59l29.82,0c1.32-.74,2.64-1.48,4-2.16,5.4-2.75,11.56-4.65,17.49-3.39a15.25,15.25,0,0,1,9.13,5.59l31.93,0a8.71,8.71,0,0,1,5.15-4.54c2.41-.74,5.19-.46,7.25-1.91,2.39-1.69,2.84-5,3.82-7.73a17.79,17.79,0,0,1,19.44-11.13V214C308.15,211.49,302.22,215.51,296.28,219.75Zm-28.22,45.54c-5.08,2.51-12.05-.3-14-5.63-1.51-4.2.4-9.18,4-11.74l-.79.37a8.86,8.86,0,0,1,3-1.54,7.36,7.36,0,0,1,1-.32l-.18.08a10.63,10.63,0,0,1,11.05,4.28C275.16,255.57,273.14,262.79,268.06,265.29Zm35.41-36.21a2.68,2.68,0,0,1-2.62-4.68l-.27.13a2.41,2.41,0,0,1,.94-.45l.13-.05,0,0a2.7,2.7,0,0,1,1.87,5Z"/><path class="cls-6" d="M295.45,257.55c-1,2.76-1.43,6-3.82,7.73-2.06,1.45-4.84,1.17-7.25,1.91a8.71,8.71,0,0,0-5.15,4.54l35.66,0V246.42A17.79,17.79,0,0,0,295.45,257.55Z"/><path class="cls-6" d="M159,263.51a29.75,29.75,0,0,0-14.4,8.08l42.32,0c-1.45-1.24-2.9-2.49-4.43-3.59A29.12,29.12,0,0,0,159,263.51Z"/><path class="cls-8" d="M238.17,266.11c-5.93-1.26-12.09.64-17.49,3.39-1.35.68-2.67,1.42-4,2.16l30.61,0A15.25,15.25,0,0,0,238.17,266.11Z"/><path class="cls-7" d="M225.81,168.27c-5.33.4-11-.52-15.76,1.95-4.24,2.21-6.82,6.71-10.3,10l.88.3c8.83,2.55,18.36,1.48,27.21-1,9.8-2.76,19.6-7.27,29.7-6,7.1.91,13.48,4.62,19.68,8.18s12.69,7.14,19.83,7.73c6.73.56,14.19-2.29,17.23-8.16V159.41h0l-76.56,0C237.34,164.64,231.11,167.88,225.81,168.27Z"/><path class="cls-6" d="M285.17,204.74a4.45,4.45,0,1,0,3.07-5.78l.08,0a.9.9,0,0,0-.21.08,4,4,0,0,0-1.54.73l.44-.2A4.65,4.65,0,0,0,285.17,204.74Z"/><path class="cls-6" d="M261.08,246.51l.18-.08a7.36,7.36,0,0,0-1,.32,8.86,8.86,0,0,0-3,1.54l.79-.37c-3.57,2.56-5.48,7.54-4,11.74,1.92,5.33,8.89,8.14,14,5.63s7.1-9.72,4.07-14.5A10.63,10.63,0,0,0,261.08,246.51Z"/><path class="cls-6" d="M304.56,225.2a2.83,2.83,0,0,0-3-1.15l0,0-.13.05a2.41,2.41,0,0,0-.94.45l.27-.13a2.69,2.69,0,1,0,3.71.8Z"/><path class="cls-6" d="M163.21,198.47c3-4,4.45-9.34,8.56-12.19,6.86-4.75,16.89.13,24.41-3.51a15.13,15.13,0,0,0,3.68-2.62c3.47-3.25,6-7.75,10.3-10,4.73-2.47,10.43-1.56,15.76-1.95s11.42-3.6,11.8-8.87H136.15l.15,43.3c.06.05.14.08.2.13C144.22,208,157.64,205.83,163.21,198.47Z"/><path class="cls-4" d="M265.38,211.85l-7-27.37.09.05-78.35,19.93h0l.08-.13c2.42,9.54,4.77,18.78,7,27.39l-.12-.07,78.39-19.81-78.34,20-.1,0,0-.1c-2.19-8.61-4.54-17.85-7-27.39l0-.1.1,0h0l78.36-19.87h.07l0,.06C262.74,201.36,265.06,210.57,265.38,211.85Z"/><rect class="cls-5" x="264.26" y="210.53" width="2.09" height="2.09" transform="translate(-43.92 71.83) rotate(-14.25)"/><rect class="cls-5" x="185.97" y="230.71" width="2.09" height="2.09" transform="translate(-51.3 53.18) rotate(-14.25)"/><rect class="cls-5" x="257.28" y="183.03" width="2.09" height="2.09" transform="translate(-37.37 69.26) rotate(-14.25)"/><rect class="cls-5" x="217.78" y="193.06" width="2.09" height="2.09" transform="translate(-41.05 59.85) rotate(-14.25)"/><rect class="cls-5" x="224.76" y="220.56" width="2.09" height="2.09" transform="translate(-47.61 62.41) rotate(-14.25)"/><rect class="cls-5" x="182.37" y="216.55" width="2.09" height="2.09" transform="translate(-47.93 51.86) rotate(-14.25)"/><rect class="cls-5" x="260.74" y="196.65" width="2.09" height="2.09" transform="translate(-40.61 70.52) rotate(-14.25)"/><rect class="cls-5" x="179.01" y="203.32" width="2.09" height="2.09" transform="translate(-44.77 50.62) rotate(-14.25)"/><path class="cls-4" d="M199.3,206.75l-5.64,1.43-.68-2.67,14.45-3.67.67,2.67L202.46,206l3.65,14.34-3.16.8Z"/><path class="cls-4" d="M223.26,210.06l-10.19,2.59c.85,1.8,2.74,2.61,5,2a4.8,4.8,0,0,0,3.17-2.31l2.1,1.46a6.79,6.79,0,0,1-4.69,3.45c-4.35,1.1-7.88-1-8.86-4.85a6.65,6.65,0,0,1,5-8.34,6.54,6.54,0,0,1,8.27,5.05C223.14,209.39,223.21,209.76,223.26,210.06Zm-10.72.57,7.36-1.87a3.64,3.64,0,0,0-4.47-2.22A3.69,3.69,0,0,0,212.54,210.63Z"/><path class="cls-4" d="M235.53,212.82l-4.47-3.66-2.21,5.35-3.36.86,3.39-7.88-6.47-5.16,3.38-.86,4.27,3.44,2.1-5.06,3.29-.83-3.26,7.58,6.77,5.34Z"/><path class="cls-4" d="M248.83,208.69a4.86,4.86,0,0,1-2.7,1.61c-2.84.73-4.85-.37-5.58-3.24L239,200.82l-2.14.54-.62-2.43,2.14-.54-.75-3,3-.77.75,3,3.48-.88.62,2.43L242,200l1.57,6.18a1.74,1.74,0,0,0,2.29,1.49,2.85,2.85,0,0,0,1.57-1Z"/><path class="cls-4" d="M263.8,205.65s-17.52,4.55-39.15,10-39.2,9.91-39.21,9.85S203,221,224.6,215.5,263.79,205.59,263.8,205.65Z"/><path class="cls-4" d="M427.29,206.31a7,7,0,0,0,3.51-6.47,8.91,8.91,0,0,0-.79-4,8.52,8.52,0,0,0-3.19-3.6c-2.94-2-7.37-2.34-11.46-.59s-7.88,5-12,8.27a36.43,36.43,0,0,1-6.86,4.49,21.17,21.17,0,0,1-8.48,1.91A22.39,22.39,0,0,1,371.32,199a20,20,0,0,1-4.68-8.67,13.47,13.47,0,0,1,1.15-10,11.18,11.18,0,0,1,3.56-3.74,8.34,8.34,0,0,1,4.91-1.42,7.25,7.25,0,0,1,4.58,2.09,10,10,0,0,1,2.42,4.32,12.37,12.37,0,0,1-1,9.39,13.05,13.05,0,0,1-7.09,5.67,17.47,17.47,0,0,1-8.66.66,28.32,28.32,0,0,1-7.75-2.69c-4.74-2.39-8.7-5.33-12.57-7.57a32.27,32.27,0,0,0-11.1-4.46,16.86,16.86,0,0,0-8.91.89,13.29,13.29,0,0,0-4.74,3.16l-.58.64-.38.5c-.2.27-.32.4-.32.4s.09-.15.28-.43l.36-.52.57-.66a12.9,12.9,0,0,1,4.73-3.28,17,17,0,0,1,9-1,32.5,32.5,0,0,1,11.24,4.43c3.89,2.24,7.87,5.16,12.57,7.5a28,28,0,0,0,7.64,2.63,17.1,17.1,0,0,0,8.42-.66,12.59,12.59,0,0,0,6.82-5.47,11.92,11.92,0,0,0,.95-9,9.31,9.31,0,0,0-2.3-4.09,6.64,6.64,0,0,0-4.24-1.94,7.79,7.79,0,0,0-4.6,1.33,10.57,10.57,0,0,0-3.39,3.58,12.94,12.94,0,0,0-1.09,9.62,19.54,19.54,0,0,0,4.55,8.45A21.94,21.94,0,0,0,388,205.83a20.56,20.56,0,0,0,8.29-1.85,35.38,35.38,0,0,0,6.79-4.41c4.09-3.27,7.85-6.6,12.1-8.27S424,189.94,427,192a8.86,8.86,0,0,1,3.26,3.75,9.23,9.23,0,0,1,.76,4.11,8,8,0,0,1-2.06,5.31,4.08,4.08,0,0,1-.66.58,2.8,2.8,0,0,1-.53.35Z"/><g class="cls-9"><path d="M238.17,266.11c-5.93-1.26-12.09.64-17.49,3.39-1.35.68-2.67,1.42-4,2.16l30.61,0A15.25,15.25,0,0,0,238.17,266.11Z"/></g><path class="cls-6" d="M182.46,320.59c2.75-4.93,9.09-6.66,14.74-6.47s11.21,1.82,16.85,1.55c12.9-.6,24.07-10.89,37-10.52,7.74.23,15.31,4.34,22.93,2.9,1.84-.34,4-.92,5.37.38a3.4,3.4,0,0,1,.12,4.24,9.2,9.2,0,0,1-3.64,2.74c-19.7,9.95-42.5,10.93-64.39,13.67-5.61.71-11.31,1.54-16.87.56s-11.08-4.13-13.32-9.31"/><path class="cls-10" d="M338.24,288.52l-35.71-63-2.91-5.63a8.47,8.47,0,0,0-6.83-4.55l-5.76-.48s.42-6.68-2.7-6.15c-2,.34-9.28,6.59-7.87,8.43s5.55-2.91,5.55-2.91L283.58,226s-10.95-6.38-12.72-6a1.65,1.65,0,0,0-.44,3.14A30.75,30.75,0,0,1,283,236.58h0l25.3,56.49L299.61,300l10.27,26.85L331.51,312A16.78,16.78,0,0,0,338.24,288.52Z"/><rect class="cls-4" x="264.66" y="213.81" width="1.18" height="0.21" transform="translate(128.87 -98.36) rotate(27.52)"/><path class="cls-4" d="M265.7,213.9l4.49.12,25.54,14a1.93,1.93,0,0,1,.78,2.59h0a1.93,1.93,0,0,1-2.61.8l-25.35-13.55-3.08-3.5A.31.31,0,0,1,265.7,213.9Z"/><polygon class="cls-5" points="293.18 226.67 291.37 230.14 290.33 229.6 292.16 226.1 293.18 226.67"/><path class="cls-10" d="M190.54,228c-1.8-.18-8.57,5.86-8.57,5.86l-3.35-12.08s4.49.41,5.7-1.57-11-1.79-11.25-.45.71,5,.71,5l-4.62.89a9.07,9.07,0,0,0-7.28,7.84l-.75,6.45.13,0-35.68,59.61a22.74,22.74,0,0,0,4.61,28.87l35.74,25.4,13.34-29.08-26.42-17.36L183.12,249s6.81-17.09,8.2-17.94A1.64,1.64,0,0,0,190.54,228Z"/><path class="cls-7" d="M315.33,328.48l-.42-4.15A18.11,18.11,0,0,0,308,311.88h0a18.12,18.12,0,0,1-7-14.88l.06-1.73L282.87,306.5a39.19,39.19,0,0,0-5.44,4.43l0-.09s-39,.64-95.67,8.92L160.26,312l1.85,1.45c1,5.7-.87,10.74-4.88,14.91h0a18.12,18.12,0,0,0-5,13.31l.17,4.17s12.81,8.35,22.14,11.49l.34.1a111.61,111.61,0,0,0,49.77,9.51c34.87-1.43,63.53-20,67.29-22.53C300.75,339.84,315.33,328.48,315.33,328.48Z"/><path class="cls-4" d="M181.72,319.76s.15.09.39.3.58.52,1,.94a28.07,28.07,0,0,1,3.27,3.92,23.67,23.67,0,0,1,3.25,6.84,21.57,21.57,0,0,1,.78,9.24,16.74,16.74,0,0,1-1.41,4.63,29.68,29.68,0,0,1-2.3,3.85,20.2,20.2,0,0,1-5.34,5.38,17.19,17.19,0,0,1-4.62,2.17,13.66,13.66,0,0,1-1.34.36,1.74,1.74,0,0,1-.48.07s.63-.21,1.76-.62a18.53,18.53,0,0,0,4.47-2.29,20.3,20.3,0,0,0,5.15-5.34,29.7,29.7,0,0,0,2.24-3.8,16.49,16.49,0,0,0,1.35-4.49,21.49,21.49,0,0,0-.72-9,23.87,23.87,0,0,0-3.1-6.76,31.12,31.12,0,0,0-3.11-4A17.12,17.12,0,0,1,181.72,319.76Z"/><g class="cls-11"><path d="M281.35,350.59c2.82-2,1.42-6.12-1.72-7.6s-6.85-.59-10.15.49c-10.65,3.48-20.72,8.58-31.36,12.1s-22.27,5.42-33,2.26c-7.49-2.2-12.53-7.12-20.29-6.24-3.52.4-4.63,4.89-9.85,6a114.29,114.29,0,0,0,23.44,7.37,109,109,0,0,0,29.26,1.83,130.59,130.59,0,0,0,29.56-5.94A147.47,147.47,0,0,0,281.35,350.59Z"/></g><g class="cls-11"><path d="M190.17,334.44s.93-9.48-4.78-15.21l-3.82.57S186.59,323.42,190.17,334.44Z"/></g><path class="cls-10" d="M208.32,309.27c-.2.52,1.93,22.43,1.93,22.43s11.11,15.51,28.58.41l2.11-23.89Z"/><g class="cls-11"><path d="M210.25,331.7s-5.15-8.55-6.58-14.91l4.24-.52,1,1.19Z"/></g><path class="cls-4" d="M302,337.91a2.87,2.87,0,0,1-.43.3c-.28.18-.72.43-1.29.74a19.87,19.87,0,0,1-5.12,2,12.83,12.83,0,0,1-3.8.31,18.1,18.1,0,0,1-4.28-.9,19.08,19.08,0,0,1-8.22-5.59,18.17,18.17,0,0,1-2.8-4.38,31.08,31.08,0,0,1-1.55-4.56,20.77,20.77,0,0,1-.61-8.11,12.3,12.3,0,0,1,1.92-5.13,8.89,8.89,0,0,1,.92-1.18,2.47,2.47,0,0,1,.37-.37,1.94,1.94,0,0,1-.29.44,12.8,12.8,0,0,0-2.56,6.29,21.14,21.14,0,0,0,.71,7.94,32.19,32.19,0,0,0,1.56,4.47,18.12,18.12,0,0,0,2.72,4.25c4.57,5.32,11.43,7.23,15.84,6.16a21.67,21.67,0,0,0,5.1-1.79A19.52,19.52,0,0,1,302,337.91Z"/><path class="cls-4" d="M277.14,332.37l-.2.13-.6.34L274,334.1c-1,.54-2.26,1.21-3.75,1.88s-3.15,1.53-5.07,2.29-4,1.67-6.28,2.45-4.75,1.61-7.36,2.41a134.86,134.86,0,0,1-17.32,3.74,139.61,139.61,0,0,1-17.69,1.28l-4,0c-1.29,0-2.54-.11-3.75-.16-2.42-.08-4.67-.31-6.72-.51s-3.9-.47-5.52-.67-3-.44-4.15-.65l-2.61-.48-.67-.14-.23-.06a.62.62,0,0,1,.24,0l.68.09,2.62.38c1.14.18,2.53.4,4.16.57s3.46.46,5.51.59,4.29.37,6.71.44c1.21,0,2.46.14,3.74.13l4,0a144.32,144.32,0,0,0,17.61-1.31,139.94,139.94,0,0,0,17.27-3.69c2.6-.79,5.08-1.51,7.34-2.36s4.38-1.62,6.29-2.38,3.59-1.56,5.09-2.21,2.75-1.28,3.78-1.8l2.38-1.17.62-.29C277.06,332.39,277.13,332.36,277.14,332.37Z"/><g class="cls-11"><path d="M220.08,337.84a7,7,0,0,0,6.64,9.51,8,8,0,0,1,3.09.11c1.17.45,1.82,1.67,2.59,2.66a9.25,9.25,0,0,0,16.54-5.27,3.26,3.26,0,0,1,.47-2.05c1-1.15,2.8,0,4.16.68,3.45,1.8,8.09,0,10-3.39s1.31-7.83-.88-11a17.43,17.43,0,0,0-9.46-6.46c-2.39-.73-5-1.16-6.86-2.82-2.7-2.39-2.94-6.44-3-10"/></g><path class="cls-4" d="M248.52,269.83c2.44,5.36,3.71,8.45,4.09,14.16a42.71,42.71,0,0,1-7.36,27.69c0,.07.05-.06,0,0C241.09,318,228.64,325.93,225,327s-18.37-8.07-21.33-18.35-6.78-16.51-1.73-34.46c5.18-18.4,30-19.06,30-19.06s16.65,0,19.7,9.66S248.52,269.83,248.52,269.83Z"/><path class="cls-4" d="M222.3,290.44A11.89,11.89,0,0,0,213.66,309c2.06,3,5.44,5,7,8.26,1.46,3,1.15,6.54.45,9.79s-1.76,6.49-1.71,9.82,1.5,6.91,4.52,8.32,7.41-.57,7.42-3.9c-1,5.27,5.07,10.44,10.12,8.6s6.35-9.71,2.19-13.09c3.68.87,7.81.86,11-1.23s4.76-6.74,2.61-9.86c-2.54-3.69-8.35-3.35-11.56-6.48-2.66-2.58-2.81-6.71-3-10.41-.28-5.32-1.08-10.78-3.8-15.36s-7.73-8.13-13-7.77"/><path class="cls-2" d="M231.86,341.06a2.83,2.83,0,0,1-.53-.25,3.67,3.67,0,0,1-.61-.37,6.32,6.32,0,0,1-.78-.57,12,12,0,0,1-3.53-5,16.36,16.36,0,0,1-1-4.16,20,20,0,0,1,.16-4.91A51.1,51.1,0,0,1,228.79,315a50,50,0,0,0,3.2-10.61,19.56,19.56,0,0,0,.15-4.8,15.59,15.59,0,0,0-1-4.06,12.11,12.11,0,0,0-3.39-5c-1.1-.93-1.84-1.25-1.81-1.31a3.11,3.11,0,0,1,.53.24,4.62,4.62,0,0,1,.62.35,7.4,7.4,0,0,1,.79.56,12,12,0,0,1,3.61,5,15.84,15.84,0,0,1,1,4.16,19.4,19.4,0,0,1-.11,4.91,48.71,48.71,0,0,1-3.18,10.73,52,52,0,0,0-3.24,10.6,20.1,20.1,0,0,0-.2,4.79,16.3,16.3,0,0,0,.92,4.08,12.28,12.28,0,0,0,3.31,5C231.15,340.66,231.89,341,231.86,341.06Z"/><path class="cls-5" d="M246.9,337.06a2.49,2.49,0,0,1-.62.14,9.4,9.4,0,0,1-1.83.08,10.49,10.49,0,0,1-9.07-6,10.85,10.85,0,0,1-1-5.24,19.61,19.61,0,0,1,1.4-5.72,60.73,60.73,0,0,0,2.08-5.88,25.63,25.63,0,0,0,.48-11.87,20.43,20.43,0,0,0-4.1-8.78,18.68,18.68,0,0,0-4.94-4.33c-1.35-.8-2.17-1.1-2.15-1.15a2.47,2.47,0,0,1,.6.2,12.49,12.49,0,0,1,1.65.77,18,18,0,0,1,5.13,4.28,20.5,20.5,0,0,1,4.28,8.91,26,26,0,0,1-.44,12.11,61.21,61.21,0,0,1-2.11,5.92,19.15,19.15,0,0,0-1.4,5.57,10.55,10.55,0,0,0,3.67,8.6,10.79,10.79,0,0,0,6,2.44A20.89,20.89,0,0,0,246.9,337.06Z"/><path class="cls-12" d="M231.78,286.78a15.44,15.44,0,0,0-1.76-1.36,5.81,5.81,0,0,0-8.58,3.2,15,15,0,0,0-.44,2.18s-.09-.21-.11-.61a5.14,5.14,0,0,1,.2-1.68,6,6,0,0,1,9.12-3.41,5.22,5.22,0,0,1,1.26,1.14A1.42,1.42,0,0,1,231.78,286.78Z"/><path class="cls-5" d="M222.26,327.59a1.45,1.45,0,0,1-.36-.28,9.27,9.27,0,0,1-.93-.91,16.9,16.9,0,0,1-2.73-3.94,16.1,16.1,0,0,1-1.78-6.88,9.31,9.31,0,0,1,.88-4.16,16.91,16.91,0,0,1,2.72-3.62,10.22,10.22,0,0,0,2.35-3.65,6.92,6.92,0,0,0-.13-4c-.75-2.5-2.07-4.62-2.31-6.69a6.37,6.37,0,0,1,.82-4.69,3.32,3.32,0,0,1,1-.9c.26-.14.4-.21.41-.19a5,5,0,0,0-1.2,1.21,6.33,6.33,0,0,0-.63,4.51c.27,2,1.6,4,2.41,6.61a7.36,7.36,0,0,1,.16,4.25,10.5,10.5,0,0,1-2.45,3.84,16.45,16.45,0,0,0-2.65,3.51,9,9,0,0,0-.86,3.93,16.33,16.33,0,0,0,1.63,6.72,19.14,19.14,0,0,0,2.55,4C221.84,327.13,222.29,327.56,222.26,327.59Z"/><path class="cls-5" d="M243.43,317.35a8.07,8.07,0,0,1,.07-1.43c.06-.92.16-2.24.2-3.88a34.38,34.38,0,0,0-1.8-12.56,20.84,20.84,0,0,0-7.55-10,21.85,21.85,0,0,0-4.73-2.31s.13,0,.36.05a7.62,7.62,0,0,1,1,.27,14.38,14.38,0,0,1,3.54,1.68,20.48,20.48,0,0,1,7.84,10.1,32.47,32.47,0,0,1,1.67,12.75c-.08,1.65-.23,3-.36,3.89A7.3,7.3,0,0,1,243.43,317.35Z"/><path class="cls-5" d="M234.35,289.15a13.17,13.17,0,0,1,0-2.36,12.26,12.26,0,0,0-.82-5.44,6.17,6.17,0,0,0-4-3.45,13.56,13.56,0,0,0-2.29-.31,4,4,0,0,1,2.38,0,6.16,6.16,0,0,1,2.38,1.08,6.34,6.34,0,0,1,2,2.52,11.37,11.37,0,0,1,.72,5.68A9.44,9.44,0,0,1,234.35,289.15Z"/><path class="cls-13" d="M236,270.56a9.22,9.22,0,0,1-1.37-.52,8.2,8.2,0,0,0-3.41-.45,8.45,8.45,0,0,0-3.28,1,13.58,13.58,0,0,1-1.26.76c0-.05.3-.52,1.07-1.07a7.06,7.06,0,0,1,7-.61C235.58,270.1,236,270.51,236,270.56Z"/><path class="cls-5" d="M248,270.52a23.86,23.86,0,0,0-2.56-2.55,12.41,12.41,0,0,0-15.91.21,22.76,22.76,0,0,0-2.49,2.61,2.77,2.77,0,0,1,.47-.87,11,11,0,0,1,1.78-2,12.31,12.31,0,0,1,16.39-.21,11.16,11.16,0,0,1,1.82,2A2.75,2.75,0,0,1,248,270.52Z"/><path class="cls-13" d="M242.38,256.47c0,.09-1.29.17-3.26.76a17.31,17.31,0,0,0-11.35,10.54c-.74,1.93-.91,3.21-1,3.2a3,3,0,0,1,.06-.91,14.16,14.16,0,0,1,.59-2.42A16.56,16.56,0,0,1,239,256.87a14.84,14.84,0,0,1,2.45-.41A2.78,2.78,0,0,1,242.38,256.47Z"/><path class="cls-5" d="M226.71,256.36c.07.06-.55.72-1.22,2a10.67,10.67,0,0,0,.1,10.53c.7,1.23,1.33,1.88,1.26,1.94a5.41,5.41,0,0,1-1.58-1.75,10.14,10.14,0,0,1-.1-10.9A5.29,5.29,0,0,1,226.71,256.36Z"/><path class="cls-5" d="M212.92,260.08a16.25,16.25,0,0,0,.77,2.58,11.12,11.12,0,0,0,4.25,4.72,23.79,23.79,0,0,0,6,2.47,17.53,17.53,0,0,1,2.61.79,11.61,11.61,0,0,1-2.7-.44,19.69,19.69,0,0,1-6.18-2.38,10.62,10.62,0,0,1-4.31-5,6.55,6.55,0,0,1-.46-2A1.66,1.66,0,0,1,212.92,260.08Z"/><path class="cls-5" d="M220.53,303.8a1.64,1.64,0,0,1-.49-.11c-.32-.09-.78-.25-1.36-.48a18.3,18.3,0,0,1-4.56-2.73,17.8,17.8,0,0,1-4.84-6.21,15.94,15.94,0,0,1-1.16-9.53,14.51,14.51,0,0,1,4.68-8.38,14.1,14.1,0,0,1,7.17-3.21,12.82,12.82,0,0,1,5.3.35,8.56,8.56,0,0,1,1.35.52c.3.13.45.21.44.23s-.64-.25-1.85-.55a13.36,13.36,0,0,0-5.19-.19,14,14,0,0,0-6.91,3.21,14.26,14.26,0,0,0-4.48,8.11,15.64,15.64,0,0,0,1.09,9.24,17.74,17.74,0,0,0,4.64,6.13,19.7,19.7,0,0,0,4.4,2.82C219.89,303.55,220.55,303.75,220.53,303.8Z"/><path class="cls-5" d="M219.2,314.36a2.94,2.94,0,0,1-.62-.28c-.41-.2-1-.51-1.73-1a33.7,33.7,0,0,1-12.19-13,34.63,34.63,0,0,1-2.43-5.88,21.85,21.85,0,0,1-1-6.77,14.44,14.44,0,0,1,1.75-6.63,17,17,0,0,1,4-5,19.65,19.65,0,0,1,9.77-4.36,25.65,25.65,0,0,1,7.25-.09c.85.1,1.5.23,1.94.32a3.35,3.35,0,0,1,.67.18,4.84,4.84,0,0,1-.68-.07c-.45-.07-1.1-.16-1.95-.23a27.44,27.44,0,0,0-7.16.25,19.74,19.74,0,0,0-9.53,4.36,15.4,15.4,0,0,0-5.56,11.24,21.6,21.6,0,0,0,1,6.61,34.09,34.09,0,0,0,2.37,5.81,34.72,34.72,0,0,0,6.29,8.55A36.21,36.21,0,0,0,217,313C218.38,313.89,219.23,314.31,219.2,314.36Z"/><path class="cls-5" d="M243.36,303.63a26.06,26.06,0,0,0,2.67-5.76,20.28,20.28,0,0,0,.81-6.79,19,19,0,0,0-2.2-8,19.36,19.36,0,0,0-11.37-9.58,10,10,0,0,0-4.56-.23c-1.07.24-1.61.54-1.64.49a2.62,2.62,0,0,1,.39-.23,6.6,6.6,0,0,1,1.2-.46,9.59,9.59,0,0,1,4.7.08,17.13,17.13,0,0,1,6.24,3.14,20.37,20.37,0,0,1,5.5,6.54,19.14,19.14,0,0,1,2.22,8.25,20,20,0,0,1-.94,6.92,19.71,19.71,0,0,1-2,4.27,11.42,11.42,0,0,1-.73,1.05C243.48,303.53,243.38,303.65,243.36,303.63Z"/></g><g id="Windows"><rect class="cls-14" x="238.34" y="33.03" width="153.98" height="114.81"/><path class="cls-4" d="M392.32,147.85s0-.72,0-2.11,0-3.43,0-6.1c0-5.34,0-13.18-.06-23.19,0-20-.06-48.68-.11-83.42l.22.22-154,0h0l.26-.26c0,41.26,0,80.34,0,114.82l-.23-.24,111.12.12,31.58.06,8.38,0,2.16,0h0l-2.13,0-8.33,0-31.52.07-111.28.11h-.24v-.23c0-34.48,0-73.56,0-114.82v-.26h.27l154,0h.21V33c0,34.79-.08,63.52-.11,83.55,0,10,0,17.81-.06,23.15,0,2.65,0,4.68,0,6.06S392.32,147.85,392.32,147.85Z"/><rect class="cls-2" x="317.73" y="100.82" width="93.63" height="36.4"/><path class="cls-4" d="M411.36,137.21s0-.22,0-.65,0-1.07,0-1.89c0-1.67,0-4.1,0-7.23,0-6.28-.06-15.36-.1-26.62l.18.18-93.62.08h0l.26-.26c0,12.72,0,25,0,36.39l-.25-.25,67.06.12,19.51.07,5.23,0,1.36,0h.47l-.44,0-1.33,0-5.18,0-19.45.07-67.23.11h-.25v-.25c0-11.37,0-23.67,0-36.39v-.26h.27l93.62.08h.18v.18c0,11.31-.08,20.42-.1,26.73,0,3.11,0,5.53,0,7.19,0,.8,0,1.42,0,1.86S411.36,137.21,411.36,137.21Z"/><rect class="cls-4" x="317.73" y="100.82" width="93.63" height="7.8"/><rect class="cls-4" x="328.86" y="114.56" width="9.19" height="9.19"/><rect class="cls-4" x="334.42" y="120.13" width="9.19" height="9.19"/><rect class="cls-4" x="350.77" y="114.56" width="9.19" height="9.19"/><rect class="cls-13" x="356.34" y="120.13" width="9.19" height="9.19"/><path class="cls-4" d="M365.54,129.33a3.87,3.87,0,0,1-.06-.71c0-.52,0-1.15-.05-1.89-.05-1.62-.1-3.89-.12-6.6l.23.23-9.2,0,.26-.26h0v2.46c0,.81,0,1.61,0,2.38,0,1.54,0,3,0,4.34l-.23-.23c2.71,0,5,.07,6.6.12l1.89.06a3.46,3.46,0,0,1,.71.05,3.85,3.85,0,0,1-.62,0l-1.84.06c-1.6,0-3.93.09-6.74.11h-.22v-.22c0-1.35,0-2.8,0-4.34,0-.77,0-1.57,0-2.38v-2.46h0c-.23.24.32-.32.26-.26l9.2,0h.22v.22c0,2.81-.07,5.14-.11,6.74,0,.73,0,1.34-.06,1.84A3.85,3.85,0,0,1,365.54,129.33Z"/><rect class="cls-13" x="371.22" y="114.56" width="9.19" height="9.19"/><path class="cls-4" d="M380.42,123.76a3.46,3.46,0,0,1-.05-.71c0-.52,0-1.14-.06-1.89-.05-1.62-.1-3.89-.12-6.6l.23.23-9.2,0c-.05.06.5-.49.26-.26h0V117c0,.81,0,1.61,0,2.38,0,1.54,0,3,0,4.34l-.23-.23c2.71,0,5,.08,6.6.12l1.89.06a3.46,3.46,0,0,1,.71.05,3.85,3.85,0,0,1-.62,0l-1.84.06c-1.6,0-3.93.09-6.74.11H371v-.22c0-1.35,0-2.8,0-4.34,0-.77,0-1.57,0-2.38v-2.46h0c-.23.24.32-.31.26-.26l9.2,0h.22v.22c0,2.81-.07,5.14-.11,6.74,0,.73,0,1.34-.06,1.84A3.85,3.85,0,0,1,380.42,123.76Z"/><rect class="cls-13" x="376.79" y="120.13" width="9.19" height="9.19"/><path class="cls-4" d="M386,129.33a3.87,3.87,0,0,1-.06-.71c0-.52,0-1.15-.05-1.89-.05-1.62-.1-3.89-.12-6.6l.23.23-9.2,0,.26-.26h0v2.46c0,.81,0,1.61,0,2.38,0,1.54,0,3,0,4.34l-.23-.23c2.71,0,5,.07,6.6.12l1.89.06a3.46,3.46,0,0,1,.71.05,3.85,3.85,0,0,1-.62,0l-1.84.06c-1.6,0-3.93.09-6.74.11h-.22v-.22c0-1.35,0-2.8,0-4.34,0-.77,0-1.57,0-2.38v-2.46h0c-.23.24.32-.32.26-.26l9.2,0h.22v.22c0,2.81-.07,5.14-.11,6.74,0,.73-.05,1.34-.06,1.84A3.85,3.85,0,0,1,386,129.33Z"/><rect class="cls-4" x="376.79" y="120.13" width="3.63" height="3.63"/><rect class="cls-4" x="390.02" y="114.56" width="9.19" height="9.19"/><rect class="cls-4" x="395.59" y="120.13" width="9.19" height="9.19"/><rect class="cls-2" x="395.59" y="120.13" width="3.63" height="3.63"/><polygon class="cls-2" points="415.55 246.69 339.9 246.82 339.9 211.84 416.02 211.71 415.55 246.69"/><path class="cls-15" d="M415.55,246.69l-75.78.25V211.71H416Zm-75.53,0h75.53l.48-35L340,212Z"/><polygon class="cls-4" points="416.02 219.34 339.9 219.34 339.9 211.84 416.02 211.71 416.02 219.34"/><rect class="cls-13" x="344.97" y="228.69" width="8.89" height="8.89"/><path class="cls-4" d="M353.86,237.58a3.1,3.1,0,0,1-.05-.68c0-.51,0-1.11-.06-1.84,0-1.56-.1-3.75-.12-6.37l.23.23L345,229l.26-.26h0v2.38c0,.78,0,1.55,0,2.3,0,1.48,0,2.89,0,4.19l-.22-.22c2.61,0,4.81.07,6.37.11l1.83.06a4.33,4.33,0,0,1,.69.05,22.65,22.65,0,0,1-2.38.11c-1.54,0-3.8.09-6.51.12h-.23v-.23c0-1.3,0-2.71,0-4.19,0-.75,0-1.52,0-2.3v-2.38h0c-.24.23.31-.32.26-.26l8.89,0h.22v.22c0,2.72-.07,5-.11,6.52A22,22,0,0,1,353.86,237.58Z"/><line class="cls-2" x1="353.86" y1="228.69" x2="344.97" y2="237.58"/><path class="cls-8" d="M345,237.58a75.65,75.65,0,0,1,8.89-8.89,38.46,38.46,0,0,1-4.26,4.63A38.32,38.32,0,0,1,345,237.58Z"/><rect class="cls-4" x="356.54" y="228.69" width="8.89" height="8.89"/><rect class="cls-5" x="368.1" y="228.69" width="8.89" height="8.89"/><rect class="cls-7" x="379.67" y="228.69" width="8.89" height="8.89"/><rect class="cls-8" x="391.24" y="228.69" width="8.89" height="8.89"/><g class="cls-16"><rect class="cls-12" x="391.24" y="228.69" width="8.89" height="8.89"/></g><line class="cls-8" x1="402.81" y1="237.58" x2="402.81" y2="228.69"/><rect class="cls-6" x="402.81" y="228.67" width="8.89" height="8.89"/><rect class="cls-14" x="75.14" y="33.03" width="125.82" height="87.62"/><path class="cls-4" d="M201,120.65s0-.55,0-1.6,0-2.61,0-4.63c0-4.07,0-10,0-17.66,0-15.24-.07-37.11-.11-63.73l.21.21-125.81,0h0L75.4,33c0,31.32,0,61.06,0,87.62l-.24-.23,90.69.11,25.87.07,6.87,0H201l-.59,0h-1.74l-6.83,0-25.81.06-90.85.12H74.9v-.24c0-26.56,0-56.3,0-87.62v-.26h.27l125.81,0h.21V33c0,26.67-.09,48.59-.11,63.86,0,7.61,0,13.55-.06,17.61,0,2,0,3.55,0,4.6S201,120.65,201,120.65Z"/><rect class="cls-4" x="75.14" y="33.03" width="125.82" height="10.95"/><path class="cls-14" d="M82,38.82a1.32,1.32,0,1,1-1.31-1.37A1.34,1.34,0,0,1,82,38.82Z"/><path class="cls-14" d="M87.29,38.82A1.31,1.31,0,1,1,86,37.45,1.33,1.33,0,0,1,87.29,38.82Z"/><path class="cls-14" d="M92.62,38.82a1.32,1.32,0,1,1-1.32-1.37A1.34,1.34,0,0,1,92.62,38.82Z"/><rect class="cls-6" x="87.1" y="54.71" width="17.93" height="43.02"/><rect class="cls-3" x="114.75" y="54.71" width="17.93" height="43.02"/><rect class="cls-2" x="142.4" y="54.71" width="17.93" height="43.02"/><rect class="cls-1" x="170.05" y="55.05" width="17.93" height="43.02"/><rect class="cls-6" x="85.02" y="102.48" width="108.68" height="9.83"/><polygon class="cls-4" points="185.44 110.3 187.78 122.13 189.7 118.83 193.83 124.73 195.9 123.4 191.77 117.5 195.56 116.95 185.44 110.3"/><rect class="cls-2" x="97.36" y="131.07" width="55.38" height="94.99"/><path class="cls-15" d="M152.74,226.06s0-.17,0-.47,0-.77,0-1.36c0-1.2,0-3,0-5.24,0-4.57,0-11.23-.07-19.62,0-16.78-.07-40.5-.11-68.3l.24.24-55.38,0h0l.26-.26c0,36.23-.05,69.47-.06,95l-.2-.2,40.37.1,11.1,0,2.9,0c.66,0,1,0,1,0l-1,0-2.87,0-11,.05-40.5.11h-.2v-.2c0-25.52,0-58.76-.06-95v-.26h.26l55.38,0H153v.24c0,27.87-.09,51.64-.12,68.46,0,8.37-.05,15-.06,19.57q0,3.39,0,5.19c0,.57,0,1,0,1.33S152.74,226.06,152.74,226.06Z"/><rect class="cls-4" x="97.36" y="131.07" width="55.38" height="8"/><polygon class="cls-4" points="110.67 149.06 111.34 157.93 113.81 154.7 117.96 154.52 110.67 149.06"/><path class="cls-4" d="M134.6,149.06l.52.36,1.52,1.09c1.3.94,3.18,2.29,5.34,3.89l.33.25-.41,0-4,.18h-.14l.11-.06L135.39,158l-.24.31,0-.39c-.19-2.63-.31-4.88-.4-6.45,0-.69-.07-1.29-.1-1.81a5.8,5.8,0,0,1,0-.62s0,.26.08.7.11,1.15.17,1.86c.16,1.58.37,3.76.57,6.3l-.27-.08c.78-1,1.61-2.1,2.47-3.24l0-.06h.22l4-.15-.08.26c-2.08-1.57-3.84-2.95-5.13-3.95l-1.51-1.18C134.81,149.23,134.61,149.08,134.6,149.06Z"/><path class="cls-4" d="M109.06,187.65c-.07-.06,2.69-3,6.16-6.56s6.32-6.41,6.38-6.35-2.7,3-6.16,6.56S109.12,187.71,109.06,187.65Z"/><path class="cls-4" d="M147.5,181.11a13,13,0,0,0-.3-2,8.31,8.31,0,0,0-2.89-4.47,7.84,7.84,0,0,0-3.35-1.53,7.65,7.65,0,0,0-4.2.37,7.88,7.88,0,0,0-3.65,2.86,8.26,8.26,0,0,0,0,9.49,7.88,7.88,0,0,0,3.65,2.86,7.66,7.66,0,0,0,4.2.37,7.84,7.84,0,0,0,3.35-1.53,8.31,8.31,0,0,0,2.89-4.47,13.15,13.15,0,0,0,.3-2,6.71,6.71,0,0,1-.18,2,8.28,8.28,0,0,1-2.87,4.61,7.9,7.9,0,0,1-7.79,1.26,8.16,8.16,0,0,1-3.8-2.95,8.55,8.55,0,0,1,0-9.85,8.16,8.16,0,0,1,3.8-3,7.9,7.9,0,0,1,7.79,1.26,8.28,8.28,0,0,1,2.87,4.61A6.77,6.77,0,0,1,147.5,181.11Z"/><path class="cls-4" d="M140.33,202.2l.2.15.57.48,2.18,1.87.07.06-.06.07L134,215.52l0,0h0l-1.12.16-2,.31-.22,0,.05-.21.72-3.67v0l0,0c2.53-3,4.72-5.49,6.32-7.25a17.32,17.32,0,0,1,2.67-2.68,1.09,1.09,0,0,1-.19.18c-.11.12-.29.3-.5.54-.44.47-1.06,1.19-1.84,2.08-1.56,1.8-3.72,4.35-6.23,7.33l0-.07c-.22,1.16-.46,2.39-.71,3.67l-.18-.19,2-.3,1.12-.17-.09,0,9.39-10.61v.13l-2.09-1.91-.55-.53A1.09,1.09,0,0,1,140.33,202.2Z"/><path class="cls-4" d="M120.07,215.16s0-.09,0-.26l0-.73q0-1,0-2.73c0-2.41,0-5.71-.07-9.64l.13.14-13,0s.29-.3.15-.16h0v7.06c0,2.23,0,4.35,0,6.29l-.13-.13,9.37.07,2.65,0,.71,0h.25s-.07,0-.22,0h-.68l-2.62,0-9.46.07H107v-.14c0-1.94,0-4.06,0-6.29,0-1.13,0-2.28,0-3.46v-3.6h0l.16-.16,13,0h.14v.14c0,4,0,7.3-.07,9.73,0,1.11,0,2,0,2.7v.7C120.08,215.09,120.08,215.17,120.07,215.16Z"/><path class="cls-4" d="M109.06,201.8a12.43,12.43,0,0,1-2.82.16,12.38,12.38,0,0,1-2.81-.16,12.38,12.38,0,0,1,2.81-.16A12.43,12.43,0,0,1,109.06,201.8Z"/><path class="cls-4" d="M107.09,204.37a31.48,31.48,0,0,1,0-6.34,33.57,33.57,0,0,1,0,6.34Z"/><rect class="cls-13" x="11.72" y="159.37" width="73.33" height="73.33"/><circle class="cls-1" cx="102.06" cy="261.55" r="13.74" transform="translate(-155.05 148.77) rotate(-45)"/><circle class="cls-2" cx="103.4" cy="256.04" r="12.02" transform="translate(-150.76 148.11) rotate(-45)"/><circle class="cls-7" cx="103.4" cy="256.04" r="11.58"/><path class="cls-4" d="M103.4,264.92a8.88,8.88,0,1,1,8.88-8.88A8.88,8.88,0,0,1,103.4,264.92Zm0-17.7a8.83,8.83,0,1,0,8.83,8.82A8.83,8.83,0,0,0,103.4,247.22Z"/><g class="cls-11"><path d="M104.35,248a5.74,5.74,0,1,0,4.39,6.16,5.18,5.18,0,0,0-.81-3.39c-1-1.5-1.82-2.38-3.58-2.77"/></g><polygon class="cls-4" points="101.23 263.52 101.89 264.43 105.42 264.31 106.1 263.52 101.23 263.52"/><circle class="cls-4" cx="337.81" cy="263.16" r="7.34"/><path class="cls-5" d="M340.49,263.16a2.68,2.68,0,1,1-2.68-2.68A2.68,2.68,0,0,1,340.49,263.16Z"/><path class="cls-4" d="M69.12,243.05c0-.13.63-.24,1.42-.24s1.42.11,1.42.24-.64.25-1.42.25S69.12,243.19,69.12,243.05Z"/><path class="cls-4" d="M63.44,243.05c0-.13.63-.24,1.42-.24s1.42.11,1.42.24-.64.25-1.42.25S63.44,243.19,63.44,243.05Z"/><path class="cls-4" d="M57.75,243.05c0-.13.64-.24,1.42-.24s1.42.11,1.42.24-.63.25-1.42.25S57.75,243.19,57.75,243.05Z"/><path class="cls-4" d="M52.07,243.05c0-.13.64-.24,1.42-.24s1.42.11,1.42.24-.63.25-1.42.25S52.07,243.19,52.07,243.05Z"/><path class="cls-4" d="M46.39,243.05c0-.13.64-.24,1.42-.24s1.42.11,1.42.24-.63.25-1.42.25S46.39,243.19,46.39,243.05Z"/><path class="cls-4" d="M40.71,243.05c0-.13.63-.24,1.42-.24s1.42.11,1.42.24-.64.25-1.42.25S40.71,243.19,40.71,243.05Z"/><path class="cls-4" d="M35,243.05c0-.13.63-.24,1.42-.24s1.42.11,1.42.24-.64.25-1.42.25S35,243.19,35,243.05Z"/><path class="cls-4" d="M29.35,243.05c0-.13.63-.24,1.42-.24s1.42.11,1.42.24-.64.25-1.42.25S29.35,243.19,29.35,243.05Z"/><path class="cls-4" d="M23.66,243.05c0-.13.64-.24,1.42-.24s1.42.11,1.42.24-.63.25-1.42.25S23.66,243.19,23.66,243.05Z"/><path class="cls-4" d="M18,243.05c0-.13.64-.24,1.42-.24s1.42.11,1.42.24-.63.25-1.42.25S18,243.19,18,243.05Z"/><path class="cls-4" d="M12.3,243.05c0-.13.64-.24,1.42-.24s1.42.11,1.42.24-.64.25-1.42.25S12.3,243.19,12.3,243.05Z"/><path class="cls-4" d="M6.62,243.05c0-.13.63-.24,1.42-.24s1.42.11,1.42.24-.64.25-1.42.25S6.62,243.19,6.62,243.05Z"/><path class="cls-4" d="M2.57,241.42c.14,0,.25.63.25,1.42v.21l-.24-.24c.68,0,1.21.12,1.21.24s-.53.23-1.21.25H2.33v-.46C2.32,242.05,2.43,241.42,2.57,241.42Z"/><path class="cls-4" d="M2.57,235.74c.14,0,.25.63.25,1.42s-.11,1.42-.25,1.42-.25-.64-.25-1.42S2.43,235.74,2.57,235.74Z"/><path class="cls-4" d="M2.57,230.05c.14,0,.25.64.25,1.43s-.11,1.42-.25,1.42-.25-.64-.25-1.42S2.43,230.05,2.57,230.05Z"/><path class="cls-4" d="M2.57,224.37c.14,0,.25.64.25,1.42s-.11,1.42-.25,1.42-.25-.63-.25-1.42S2.43,224.37,2.57,224.37Z"/><path class="cls-4" d="M2.57,218.69c.14,0,.25.64.25,1.42s-.11,1.42-.25,1.42-.25-.63-.25-1.42S2.43,218.69,2.57,218.69Z"/><path class="cls-4" d="M2.57,213c.14,0,.25.64.25,1.42s-.11,1.42-.25,1.42-.25-.64-.25-1.42S2.43,213,2.57,213Z"/><path class="cls-4" d="M2.57,207.33c.14,0,.25.63.25,1.42s-.11,1.42-.25,1.42-.25-.64-.25-1.42S2.43,207.33,2.57,207.33Z"/><path class="cls-4" d="M2.57,201.65c.14,0,.25.63.25,1.42s-.11,1.42-.25,1.42-.25-.64-.25-1.42S2.43,201.65,2.57,201.65Z"/><path class="cls-4" d="M2.57,196c.14,0,.25.64.25,1.42s-.11,1.43-.25,1.43-.25-.64-.25-1.43S2.43,196,2.57,196Z"/><path class="cls-4" d="M2.57,190.28c.14,0,.25.64.25,1.42s-.11,1.42-.25,1.42-.25-.63-.25-1.42S2.43,190.28,2.57,190.28Z"/><path class="cls-4" d="M2.57,184.6c.14,0,.25.64.25,1.42s-.11,1.42-.25,1.42-.25-.63-.25-1.42S2.43,184.6,2.57,184.6Z"/><path class="cls-4" d="M2.57,178.92c.14,0,.25.64.25,1.42s-.11,1.42-.25,1.42-.25-.64-.25-1.42S2.43,178.92,2.57,178.92Z"/><path class="cls-4" d="M3,173.66c0,.07-.16.13-.42.18l.18-.18a6.79,6.79,0,0,1,.07,1c0,.78-.11,1.42-.25,1.42s-.25-.64-.25-1.42a6.79,6.79,0,0,1,.07-1l0-.2.14,0C2.83,173.53,3,173.59,3,173.66Z"/><path class="cls-4" d="M8.68,173.66c0,.14-.64.25-1.42.25s-1.42-.11-1.42-.25.63-.24,1.42-.24S8.68,173.53,8.68,173.66Z"/><path class="cls-4" d="M14.36,173.66c0,.14-.64.25-1.42.25s-1.42-.11-1.42-.25.63-.24,1.42-.24S14.36,173.53,14.36,173.66Z"/><path class="cls-4" d="M20,173.66c0,.14-.64.25-1.42.25s-1.42-.11-1.42-.25.64-.24,1.42-.24S20,173.53,20,173.66Z"/><path class="cls-4" d="M25.72,173.66c0,.14-.63.25-1.42.25s-1.42-.11-1.42-.25.64-.24,1.42-.24S25.72,173.53,25.72,173.66Z"/><path class="cls-4" d="M31.4,173.66c0,.14-.63.25-1.42.25s-1.42-.11-1.42-.25.64-.24,1.42-.24S31.4,173.53,31.4,173.66Z"/><path class="cls-4" d="M37.09,173.66c0,.14-.64.25-1.43.25s-1.42-.11-1.42-.25.64-.24,1.42-.24S37.09,173.53,37.09,173.66Z"/><path class="cls-4" d="M42.77,173.66c0,.14-.64.25-1.42.25s-1.42-.11-1.42-.25.63-.24,1.42-.24S42.77,173.53,42.77,173.66Z"/><path class="cls-4" d="M48.45,173.66c0,.14-.64.25-1.42.25s-1.42-.11-1.42-.25.63-.24,1.42-.24S48.45,173.53,48.45,173.66Z"/><path class="cls-4" d="M54.13,173.66c0,.14-.64.25-1.42.25s-1.42-.11-1.42-.25.64-.24,1.42-.24S54.13,173.53,54.13,173.66Z"/><path class="cls-4" d="M59.81,173.66c0,.14-.63.25-1.42.25S57,173.8,57,173.66s.64-.24,1.42-.24S59.81,173.53,59.81,173.66Z"/><path class="cls-4" d="M65.49,173.66c0,.14-.63.25-1.42.25s-1.42-.11-1.42-.25.64-.24,1.42-.24S65.49,173.53,65.49,173.66Z"/><path class="cls-4" d="M71.18,173.66c0,.14-.64.25-1.42.25s-1.43-.11-1.43-.25.64-.24,1.43-.24S71.18,173.53,71.18,173.66Z"/><path class="cls-4" d="M72,178.56c-.14,0-.25-.63-.25-1.42s.11-1.42.25-1.42.24.64.24,1.42S72.09,178.56,72,178.56Z"/><path class="cls-4" d="M72,184.24c-.14,0-.25-.63-.25-1.42s.11-1.42.25-1.42.24.64.24,1.42S72.09,184.24,72,184.24Z"/><path class="cls-4" d="M72,189.93c-.14,0-.25-.64-.25-1.42s.11-1.42.25-1.42.24.63.24,1.42S72.09,189.93,72,189.93Z"/><path class="cls-4" d="M72,195.61c-.14,0-.25-.64-.25-1.42s.11-1.42.25-1.42.24.63.24,1.42S72.09,195.61,72,195.61Z"/><path class="cls-4" d="M72,201.29c-.14,0-.25-.64-.25-1.42s.11-1.42.25-1.42.24.63.24,1.42S72.09,201.29,72,201.29Z"/><path class="cls-4" d="M72,207c-.14,0-.25-.63-.25-1.42s.11-1.42.25-1.42.24.64.24,1.42S72.09,207,72,207Z"/><path class="cls-4" d="M72,212.65c-.14,0-.25-.63-.25-1.42s.11-1.42.25-1.42.24.64.24,1.42S72.09,212.65,72,212.65Z"/><path class="cls-4" d="M72,218.33c-.14,0-.25-.63-.25-1.42s.11-1.42.25-1.42.24.64.24,1.42S72.09,218.33,72,218.33Z"/><path class="cls-4" d="M72,224c-.14,0-.25-.64-.25-1.42s.11-1.42.25-1.42.24.63.24,1.42S72.09,224,72,224Z"/><path class="cls-4" d="M72,229.7c-.14,0-.25-.64-.25-1.42s.11-1.42.25-1.42.24.63.24,1.42S72.09,229.7,72,229.7Z"/><path class="cls-4" d="M72,235.38c-.14,0-.25-.64-.25-1.42s.11-1.42.25-1.42.24.63.24,1.42S72.09,235.38,72,235.38Z"/><path class="cls-4" d="M72,241.06c-.14,0-.25-.63-.25-1.42s.11-1.42.25-1.42.24.64.24,1.42S72.09,241.06,72,241.06Z"/><rect class="cls-4" x="69.39" y="239.78" width="5.14" height="5.14"/><rect class="cls-4" y="240.48" width="5.14" height="5.14"/><rect class="cls-4" x="69.39" y="170.59" width="5.14" height="5.14"/><rect class="cls-4" y="171.09" width="5.14" height="5.14"/></g></g></svg>