<svg xmlns="http://www.w3.org/2000/svg" viewBox="0 0 453.45 380.65"><defs><style>.cls-1{isolation:isolate;}.cls-2{fill:#c9d8f5;}.cls-3{fill:#8c9ff4;}.cls-4{fill:#20243e;}.cls-5{fill:#4e63bb;}.cls-6{fill:#789be6;}.cls-13,.cls-7{fill:#82a1e8;}.cls-8{fill:#fff;}.cls-11,.cls-9{fill:#df65a2;}.cls-10{fill:#fdfffc;}.cls-11,.cls-12,.cls-13{mix-blend-mode:multiply;}.cls-12,.cls-14{fill:#eec161;}.cls-15{fill:#455ba8;}.cls-16{fill:#b7d3f5;}.cls-17{fill:#d4dded;}.cls-18{fill:#e5b1ac;}.cls-19{fill:#efc5bc;}.cls-20{fill:none;stroke:#20243e;stroke-miterlimit:10;stroke-width:0.23px;}.cls-21{fill:#ebabab;}.cls-22{fill:#f5f5f5;}.cls-23{fill:#ece9fc;}</style></defs><g class="cls-1"><g id="Layer_2" data-name="Layer 2"><g id="OBJECTS"><path class="cls-2" d="M283,61.11H410.06s0-16-28.62-15.69c-24.37-24.37-54-17.47-64.93-5.05C282.7,39.8,283,61.11,283,61.11Z"/><path class="cls-2" d="M20,106.28H151.37S147.84,91.89,123,91.89c0-35-59.24-35-65.55-4C20.77,86.66,20,106.28,20,106.28Z"/><path class="cls-3" d="M29.24,306.26c75.49-.11,332.23.1,407.58,0,17.66,0,6.65,18.78,1.31,25.26-39.62,48.14-118,55.41-175.47,45-39.44-7.14-55.39-25.15-138.38-30.54-32-2.09-65.82-5.16-95.69-17.78C18.37,323.9,14,306.28,29.24,306.26Z"/><path class="cls-4" d="M24.92,200.09V186.77c-6.77-3.67-13.17-4.58-17.56-3.49C11,185.37,17.45,190.12,24.92,200.09Z"/><path class="cls-4" d="M42.63,235.32h0v-.05A174.82,174.82,0,0,0,33,214.41H7.12C13.66,224.1,22,233,19.36,242.48a51.86,51.86,0,0,0-2,16.41h33C47.93,250,45.31,242.19,42.63,235.32Z"/><path class="cls-4" d="M59.51,296.1c0-18.14-1.25-56.41-10-79.53l-5.91,18.66C49.5,250.51,55.19,270.39,59.51,296.1Z"/><path class="cls-4" d="M27.08,203.08c4.89,7,10.51,17,16,30.79L49,215.21c-.71-1.76-1.47-3.44-2.28-5-6-11.42-13.57-18.76-20.83-22.94v14.06C26.25,201.9,26.67,202.48,27.08,203.08Z"/><path class="cls-4" d="M26.41,203.72C17.58,191,9.72,185.63,6.12,183.66a7.09,7.09,0,0,0-3.95,3.18c-4.76,10-.95,18.63,4.34,26.66h26C30.38,209.74,28.33,206.49,26.41,203.72Z"/><path class="cls-4" d="M17.45,259.81C18.59,274.86,28,292,59.4,306.23c0,0,.05-1.65.09-4.54a375.15,375.15,0,0,0-8.82-41.88Z"/><path class="cls-5" d="M26.41,203.72c1.92,2.77,4,6,6.07,9.78h.8v.91H33a174.82,174.82,0,0,1,9.61,20.85l.44-1.39c-5.46-13.82-11.08-23.76-16-30.79-.41-.6-.83-1.18-1.24-1.74v.15h-.92v-1.4c-7.47-10-13.95-14.72-17.56-16.81-.43.11-.85.24-1.24.38C9.72,185.63,17.58,191,26.41,203.72Z"/><path class="cls-5" d="M59.51,296.1c-4.32-25.71-10-45.59-15.93-60.87l-.11.35-.84-.26c2.68,6.87,5.3,14.69,7.78,23.57h.64v.92h-.38a375.15,375.15,0,0,1,8.82,41.88C59.5,300.16,59.52,298.27,59.51,296.1Z"/><path class="cls-5" d="M32.48,213.5h-26c.2.3.4.61.61.91H33Z"/><path class="cls-5" d="M33.28,213.5h-.8l.52.91h.28Z"/><path class="cls-5" d="M25.84,201.34V187.28c-.31-.18-.61-.35-.92-.51v13.32C25.23,200.5,25.53,200.91,25.84,201.34Z"/><path class="cls-5" d="M24.92,201.49h.92v-.15c-.31-.43-.61-.84-.92-1.25Z"/><path class="cls-5" d="M50.41,258.89h-33l.06.92H50.67C50.58,259.51,50.5,259.2,50.41,258.89Z"/><path class="cls-5" d="M51.05,259.81v-.92h-.64c.09.31.17.62.26.92Z"/><path class="cls-5" d="M42.6,235.31h0l0-.06Z"/><path class="cls-5" d="M43.58,235.23l5.91-18.66L49,215.21l-5.9,18.66C43.23,234.31,43.41,234.78,43.58,235.23Z"/><path class="cls-5" d="M42.61,235.26l0,.06.84.26.11-.35c-.17-.45-.35-.92-.53-1.36Z"/><path class="cls-5" d="M103,193.41c-3.32-10.61-8.24-10-5.48-21,2.91-11.5,1.24-21.64-6.91-24.79A544.53,544.53,0,0,0,75.08,205Z"/><path class="cls-5" d="M89.69,147.36a14.7,14.7,0,0,0-2-.46c-5.63-.93-11.43,4.33-16.16,11.1l10.39,15C85.09,161.57,87.94,152.61,89.69,147.36Z"/><path class="cls-5" d="M65.92,265.65,39.85,232.92c-2.83,2.71-4.6,7-3.18,15.31,3.35,19.6,15.5,51.26,31.07,58l.06-.06A200.55,200.55,0,0,1,65.92,265.65Z"/><path class="cls-5" d="M71.38,219.16,52,188.25a16.36,16.36,0,0,0-3.05,4.17c-4.61,8.64,7.05,26.06,3,32.43-2.23,3.46-7.52,4.29-11.35,7.46L66,264.26A361.34,361.34,0,0,1,71.38,219.16Z"/><path class="cls-5" d="M104.45,199.77a52,52,0,0,0-1.23-5.48L74.86,206.05c-4.88,23.29-8.74,50.11-8.25,75.3l27.46-19.74c-3.75-6.36-11-10.55-7.73-18.94C91,230.92,107.41,217.26,104.45,199.77Z"/><path class="cls-5" d="M68.62,305.45c4.55-4.05,25.58-23.28,27.33-34.7a13.1,13.1,0,0,0-1.43-8.33l-27.88,20A176,176,0,0,0,68.62,305.45Z"/><path class="cls-5" d="M81.62,174.16,71,158.81a75.16,75.16,0,0,0-8.61,17.41c-2.61,8.05-6.18,8.35-9.71,11.4l18.94,30.2C74.59,201.56,78.25,186.5,81.62,174.16Z"/><path class="cls-6" d="M94.07,261.61,66.61,281.35c-.49-25.19,3.37-52,8.25-75.3l28.36-11.76-.27-.88L75.08,205a544.53,544.53,0,0,1,15.48-57.31l-.87-.3c-1.75,5.25-4.6,14.21-7.75,25.64L71.55,158l-.55.81,10.62,15.35c-3.37,12.34-7,27.4-10,43.66l-18.94-30.2c-.23.2-.46.4-.69.63l19.39,30.91a361.34,361.34,0,0,0-5.4,45.1L40.54,232.31c-.24.19-.47.4-.69.61l26.07,32.73a200.55,200.55,0,0,0,1.88,40.52l.82-.72a176,176,0,0,1-2-23l27.88-20Q94.31,262,94.07,261.61Z"/><rect class="cls-7" x="109.12" y="158.01" width="22.25" height="148.27"/><line class="cls-8" x1="118.02" y1="166.56" x2="131.37" y2="166.56"/><rect class="cls-8" x="118.02" y="165.54" width="13.35" height="2.04"/><line class="cls-8" x1="118.02" y1="210.28" x2="131.37" y2="210.28"/><rect class="cls-8" x="118.02" y="209.26" width="13.35" height="2.04"/><line class="cls-8" x1="121.58" y1="175.3" x2="131.37" y2="175.3"/><rect class="cls-8" x="121.58" y="174.28" width="9.79" height="2.04"/><line class="cls-8" x1="121.58" y1="192.79" x2="131.37" y2="192.79"/><rect class="cls-8" x="121.58" y="191.77" width="9.79" height="2.04"/><line class="cls-8" x1="121.58" y1="201.54" x2="131.37" y2="201.54"/><rect class="cls-8" x="121.58" y="200.52" width="9.79" height="2.04"/><line class="cls-8" x1="121.58" y1="184.05" x2="131.37" y2="184.05"/><rect class="cls-8" x="121.58" y="183.03" width="9.79" height="2.04"/><line class="cls-8" x1="121.58" y1="219.02" x2="131.37" y2="219.02"/><rect class="cls-8" x="121.58" y="218.01" width="9.79" height="2.04"/><line class="cls-8" x1="121.58" y1="236.51" x2="131.37" y2="236.51"/><rect class="cls-8" x="121.58" y="235.49" width="9.79" height="2.04"/><line class="cls-8" x1="121.58" y1="245.26" x2="131.37" y2="245.26"/><rect class="cls-8" x="121.58" y="244.24" width="9.79" height="2.04"/><line class="cls-8" x1="121.58" y1="227.77" x2="131.37" y2="227.77"/><rect class="cls-8" x="121.58" y="226.75" width="9.79" height="2.04"/><line class="cls-8" x1="118.02" y1="254" x2="131.37" y2="254"/><rect class="cls-8" x="118.02" y="252.98" width="13.35" height="2.04"/><line class="cls-8" x1="118.02" y1="297.72" x2="131.37" y2="297.72"/><rect class="cls-8" x="118.02" y="296.7" width="13.35" height="2.04"/><line class="cls-8" x1="121.58" y1="262.74" x2="131.37" y2="262.74"/><rect class="cls-8" x="121.58" y="261.73" width="9.79" height="2.04"/><line class="cls-8" x1="121.58" y1="280.23" x2="131.37" y2="280.23"/><rect class="cls-8" x="121.58" y="279.21" width="9.79" height="2.04"/><line class="cls-8" x1="121.58" y1="288.98" x2="131.37" y2="288.98"/><rect class="cls-8" x="121.58" y="287.96" width="9.79" height="2.04"/><line class="cls-8" x1="121.58" y1="271.49" x2="131.37" y2="271.49"/><rect class="cls-8" x="121.58" y="270.47" width="9.79" height="2.04"/><path class="cls-9" d="M73.83,229H93.21L120,306.28H98.43l-4.68-15.14H73.18l-4.57,15.14H46.94Zm16.55,48-6.86-24-7.18,24Z"/><path class="cls-9" d="M122.39,295.14c-4.36-9.62.26-21.41,13.22-25.47,6.28-2,15.56-2.07,21.5.76,0-4.16.21-9.69-9.9-9.69-6,0-11,1.69-17.75,6.21l-6-12.85a46.62,46.62,0,0,1,25.8-7.29c17.24,0,28.53,7.27,28.53,24.38,0,13.35-.89,16.07,3.92,16.55v17.42a44.07,44.07,0,0,1-8.71,1.09c-10.69,0-11.71-5.63-12.63-10C148.62,311.34,128.23,308.1,122.39,295.14Zm34-7.78c1-1.3.76-1.73.76-6.37-15.2-5.36-19.86,4.93-14.86,8.93C146.09,293,153.66,291,156.35,287.36Z"/><rect class="cls-10" x="232.22" y="56.19" width="155.68" height="250.07"/><path class="cls-8" d="M337.2,119.24a28.35,28.35,0,1,0-52.1-.43,28.36,28.36,0,1,0,25,47.41,28.35,28.35,0,1,0,27.14-47Z"/><circle class="cls-11" cx="289.37" cy="146.84" r="28.35"/><circle class="cls-12" cx="330.75" cy="146.84" r="28.35"/><circle class="cls-13" cx="311.24" cy="107.83" r="28.35" transform="translate(-16.45 74.39) rotate(-13.28)"/><path class="cls-2" d="M421.59,246.28H278.36v60H421.59Zm-136.49,30a5.46,5.46,0,1,1,5.46,5.45A5.45,5.45,0,0,1,285.1,276.27Z"/><rect class="cls-7" x="379.56" y="265.15" width="47.13" height="22.24" transform="translate(679.39 -126.85) rotate(90)"/><rect class="cls-7" x="349.77" y="265.15" width="47.13" height="22.24" transform="translate(649.6 -97.07) rotate(90)"/><rect class="cls-7" x="319.98" y="265.15" width="47.13" height="22.24" transform="translate(619.81 -67.28) rotate(90)"/><rect class="cls-7" x="290.19" y="265.15" width="47.13" height="22.24" transform="translate(590.02 -37.49) rotate(90)"/><path class="cls-14" d="M285.06,145.42a82.41,82.41,0,1,0-135.57,63h0s2.41,2,5.5,4.24c8.58,7.41,24.19,24.36,24.19,49.74h47c0-25.6,15.89-42.63,24.42-49.93,1.72-1.23,3.4-2.52,5-3.89l.25-.16h-.05A82.21,82.21,0,0,0,285.06,145.42Z"/><path class="cls-8" d="M202.55,262.36c-.14-10.08-.55-61.9,4.71-92.16.13-.72.25-1.47.38-2.24.09-.55.19-1.11.28-1.67a93.73,93.73,0,0,1-13.63-.2c3.29,24,2.88,95.53,2.87,96.27h-1.6c0-.75.42-73.07-2.92-96.46-7.09-1-13.37-3.36-17.16-8.62-2.24-3.11-3.51-9.71-1.75-14.22a6.85,6.85,0,0,1,5.14-4.52,6.64,6.64,0,0,1,5.31,1.13c6.48,4.46,9,19.5,9.81,24.45a3.06,3.06,0,0,1,0,.32,84.38,84.38,0,0,0,14.17.24c1.41-7.95,3.59-16.71,10.06-20.53,2.65-1.56,5.15-1.85,7.07-.8,1.49.81,3.31,2.84,3.49,7.82.37,10-12.41,14.34-19.26,15-.11.69-.23,1.38-.34,2s-.26,1.52-.38,2.24c-5.24,30.12-4.83,81.81-4.69,91.87Zm20.26-118a7.52,7.52,0,0,0-3.72,1.19c-5.77,3.41-7.87,11.52-9.23,19,6.88-.8,17.67-5.08,17.37-13.32-.13-3.35-1-5.59-2.67-6.47A3.62,3.62,0,0,0,222.81,144.33ZM180.27,140a5.84,5.84,0,0,0-1.09.11,5.27,5.27,0,0,0-4,3.54c-1.53,3.91-.44,9.92,1.55,12.69,3.44,4.76,9.48,6.94,15.6,7.88-2.14-12.72-5.2-20.54-9.11-23.23A5.24,5.24,0,0,0,180.27,140Z"/><path class="cls-5" d="M226.68,271.13H178.62a4.4,4.4,0,0,1-4.39-4.39h0a4.4,4.4,0,0,1,4.39-4.39h48.06a4.39,4.39,0,0,1,4.38,4.39h0A4.39,4.39,0,0,1,226.68,271.13Z"/><path class="cls-15" d="M226.68,279.9H178.62a4.39,4.39,0,0,1-4.39-4.39h0a4.39,4.39,0,0,1,4.39-4.38h48.06a4.38,4.38,0,0,1,4.38,4.38h0A4.38,4.38,0,0,1,226.68,279.9Z"/><path class="cls-5" d="M226.68,288.68H178.62a4.4,4.4,0,0,1-4.39-4.39h0a4.4,4.4,0,0,1,4.39-4.39h48.06a4.39,4.39,0,0,1,4.38,4.39h0A4.39,4.39,0,0,1,226.68,288.68Z"/><rect class="cls-15" x="174.23" y="288.68" width="56.83" height="8.77" rx="4.39"/><rect class="cls-5" x="174.23" y="297.45" width="56.83" height="8.77" rx="4.39"/><path class="cls-4" d="M212.38,25.72c-2.6-11-13.31-10-15.25-15S195,0,187.82,0s-6.72,10-6.72,10a5.69,5.69,0,0,1-1.64,3.88c-1.53,1.35-14.17,7.37-9.63,17.7C178,48.24,215,36.72,212.38,25.72Z"/><path class="cls-4" d="M162.12,106.07s-8.31,2.44-8.31,4.85,11.85-2.24,11.85-2.24l-.08-2.61Z"/><path class="cls-4" d="M173.34,106.07s-8.31,2.44-8.31,4.85,11.85-2.24,11.85-2.24l-.08-2.61Z"/><path class="cls-6" d="M180.12,45.1a25.83,25.83,0,0,0-5.33,8.32s-16,7.88-17,18.33,4.38,34.32,4.38,34.32h3.51s1.7-16.42,1.92-29.63c8.52-6.82,19.18-17,19.18-17V45.1Z"/><path class="cls-6" d="M186.73,54.06s-14.49,7.88-16.2,21.52,2.77,30.49,2.77,30.49h3.5s3.54-19,4.39-29.42c21.95-8.53,23.44-14.28,21.74-21.1a43.25,43.25,0,0,0-3.84-10.45H186.73Z"/><path class="cls-16" d="M180.12,45.1s-5-14.7-1.77-22c3.16-7,15.59-7.09,21.36-1.31,2.58,2.59-.62,23.26-.62,23.26Z"/><path class="cls-16" d="M180.38,20.46s-4.06,2.05-8.23,16.54-5.46,19.83-5.46,19.83l3.45,1.49L182,33.59Z"/><polygon class="cls-17" points="169.36 56.61 192.81 56.61 185.98 65.14 162.11 65.14 169.36 56.61"/><path class="cls-16" d="M197.6,35.09l5.11,11L191.53,55l2,2.72s13.76-5.36,16.75-8.35S203.56,18,192.21,18"/><polygon class="cls-8" points="155.93 48.09 179.8 48.09 185.98 65.14 162.11 65.14 155.93 48.09"/><path class="cls-18" d="M191.76,12.34l.61,7.67a5.78,5.78,0,0,1-3.9,1.49,4.09,4.09,0,0,1-3.36-1.3l1.24-7.44Z"/><path class="cls-19" d="M188,4.07a4.59,4.59,0,0,0-4.51,4.6c0,3.07,1.12,7.31,4.5,7.15,3.87-.18,4.64-3.07,4.77-7a4.6,4.6,0,0,0-4.65-4.76Z"/><path class="cls-19" d="M191.2,10.32a1.49,1.49,0,1,0,1.49-1.49A1.49,1.49,0,0,0,191.2,10.32Z"/><path class="cls-19" d="M191.53,55a7.7,7.7,0,0,0-5.22,1.37c-1.22,1-.26,1.48.31,1.1a3.58,3.58,0,0,1,1.83-.24A9,9,0,0,1,186,59.31c-1.72,1.06-.88,2.86,2.11,1.9a15,15,0,0,0,5.44-3.5Z"/><path class="cls-4" d="M192.78,8.83a19.23,19.23,0,0,1-6.41-4.95C191.4,2,193.54,5.48,192.78,8.83Z"/><path class="cls-20" d="M184.2,8.72a1.12,1.12,0,0,1,1.83,0"/><ellipse class="cls-4" cx="185.07" cy="9.36" rx="0.44" ry="0.51"/><path class="cls-20" d="M188.71,8.72a1.12,1.12,0,0,1,1.83,0"/><path class="cls-4" d="M189.15,9.36a.44.44,0,1,0,.43-.51A.47.47,0,0,0,189.15,9.36Z"/><path class="cls-20" d="M187.44,9.36s-1.61,2.78,0,2.78"/><path class="cls-20" d="M186.37,13.22a3.67,3.67,0,0,0,2.29,0"/><path class="cls-21" d="M188.91,11.43a1.28,1.28,0,1,0,2.56,0,1.28,1.28,0,1,0-2.56,0Z"/><path class="cls-21" d="M186.07,11.43a1.28,1.28,0,0,0-1.28-1.28,1.26,1.26,0,0,0-1.1.63,9.93,9.93,0,0,0,.42,1.73,1.32,1.32,0,0,0,.68.2A1.29,1.29,0,0,0,186.07,11.43Z"/><path class="cls-20" d="M193.45,9.62s-.86.21-.86,1.52"/><polygon class="cls-4" points="308.54 295.66 308.54 295.64 290.13 295.66 308.54 295.66"/><path class="cls-4" d="M290.58,188.91l-.47,110.9v.11l0-4.26,0-6.08h18.42L309,189Z"/><polygon class="cls-22" points="290.13 295.66 308.54 295.64 308.56 295.64 308.59 289.58 308.57 289.58 290.15 289.58 290.13 295.66"/><polygon class="cls-19" points="303.08 171.46 296.68 171.44 290.6 188.91 309.01 188.99 303.08 171.46"/><polygon class="cls-4" points="299.92 162.13 296.68 171.44 303.08 171.46 299.92 162.13"/><path class="cls-5" d="M290.11,299.92v6a5.58,5.58,0,0,0,5.58,5.59h7.26a5.58,5.58,0,0,0,5.58-5.55l0-10.27H290.13Z"/><path class="cls-7" d="M399.3,163.17s9.11-1.16,9.11,10.25H392S391.62,163.17,399.3,163.17Z"/><path class="cls-5" d="M409.34,206.87h-20c-10.93,16.44-11.64,100.05-11.64,100.05h3.73l16.12-76,5.19,76h3.46s1.07-7.73,5.33-40.49A182.51,182.51,0,0,0,409.34,206.87Z"/><path class="cls-6" d="M389.32,183.55c5.56-5.6,17.38-4.22,22.17-1.29s-2.15,24.61-2.15,24.61h-20S384.56,189.14,389.32,183.55Z"/><path class="cls-6" d="M391.05,188.91s-4.92-2.12-13.25-12.92c-5.85-7.59,5.86-23.68,5.86-23.68l3.45.9L382,169.51l14.7,10.77Z"/><path class="cls-6" d="M407.27,190.85s2.09.67,10.61,2.33c9.41,1.84,15.22-20.71,15.22-20.71l-3.38-.89-9.35,14.32c-5.28-2.52-10.58-6.19-16.95-6Z"/><path class="cls-4" d="M406.16,306.92s8.31,2.44,8.31,4.85-11.85-2.24-11.85-2.24l.08-2.61Z"/><path class="cls-4" d="M377.7,306.92s-8.31,2.44-8.31,4.85,12-2.48,12-2.48l0-2.37Z"/><path class="cls-23" d="M374.93,129.2c1.59.41,3.25.88,5,1.39l-6.31,14.7c-1.55-.89-3-1.78-4.43-2.64Z"/><path class="cls-5" d="M407.73,140.79c27.26,11.7,47.66,25.12,45.58,30s-25.88-.67-53.14-12.36a256.75,256.75,0,0,1-26.58-13.13l6.31-14.7A256.63,256.63,0,0,1,407.73,140.79Z"/><path class="cls-7" d="M354.59,128.44c1.16-2.7,9-2.2,20.34.76l-5.77,13.45C359.18,136.45,353.44,131.13,354.59,128.44Z"/><path class="cls-5" d="M334.93,115.8s1.22,6.23,10,3.59,13.18,7.37,13.18,7.37l-2.3,5.36C336.81,137.06,334.93,115.8,334.93,115.8Z"/><path class="cls-18" d="M402.91,173.42l.61,7.67a5.78,5.78,0,0,1-3.9,1.49,4.09,4.09,0,0,1-3.36-1.3l1.24-7.44Z"/><path class="cls-19" d="M399.17,165.15a4.58,4.58,0,0,0-4.51,4.6c0,3.07.77,7,4.56,7,3.39,0,4.59-2.88,4.71-6.8a4.61,4.61,0,0,0-4.65-4.77Z"/><path class="cls-19" d="M402.35,171.4a1.49,1.49,0,1,0,1.49-1.49A1.49,1.49,0,0,0,402.35,171.4Z"/><path class="cls-19" d="M429.72,171.58s.16-2.77,1.88-2.46a37.93,37.93,0,0,1,4,1.06s.26-1.82,1-1.76.1,3.36-1.21,3.3a8.05,8.05,0,0,1-2-.33l-.29,1.08Z"/><path class="cls-19" d="M387.11,153.21s1.23-2.48-.42-3.06a37,37,0,0,0-4-1.06s.66-1.71,0-2-1.73,2.89-.56,3.47a7.49,7.49,0,0,0,1.94.72l-.28,1.08Z"/><path class="cls-20" d="M395.33,170a1.11,1.11,0,0,1,1.83,0"/><path class="cls-4" d="M395.77,170.58a.44.44,0,1,0,.44-.51A.48.48,0,0,0,395.77,170.58Z"/><path class="cls-20" d="M399.85,170a1.11,1.11,0,0,1,1.83,0"/><path class="cls-4" d="M400.28,170.58a.44.44,0,1,0,.44-.51A.48.48,0,0,0,400.28,170.58Z"/><path class="cls-20" d="M398.58,170.58s-1.61,2.78,0,2.78"/><path class="cls-20" d="M397.51,174.45a3.67,3.67,0,0,0,2.29,0"/><path class="cls-21" d="M400.05,172.65a1.28,1.28,0,1,0,1.28-1.28A1.28,1.28,0,0,0,400.05,172.65Z"/><path class="cls-21" d="M397.21,172.65a1.27,1.27,0,0,0-2.38-.64,10.15,10.15,0,0,0,.42,1.73,1.31,1.31,0,0,0,.68.19A1.28,1.28,0,0,0,397.21,172.65Z"/><path class="cls-20" d="M404.59,170.84s-.87.22-.87,1.53"/><path class="cls-7" d="M403.93,169.91a8.7,8.7,0,0,1-6.93-4.77C401.45,163.59,404.85,165.92,403.93,169.91Z"/><path class="cls-19" d="M292.13,197.62c-.77-.32-1.56,2-1.56,2v-5.35c-1.62.34-2.6,6.62-2.6,6.62l2.16,2.64S292.9,197.94,292.13,197.62Z"/><path class="cls-6" d="M243.25,213.35s-4.26,20.32,0,53.08,5.33,40.49,5.33,40.49H252l4-71.27,17.32,71.27h3.73s-4.54-69.67-11.28-93.53Z"/><path class="cls-5" d="M265.42,183.55c-5.56-5.6-17.38-4.22-22.17-1.29s0,31.09,0,31.09l22.55,0S270.18,189.14,265.42,183.55Z"/><path class="cls-5" d="M243.25,182.26s-6.93,5.86-15.19,18.38,14.58,16.43,14.58,16.43l.61-3.72-9.59-7.43,11.67-11.68Z"/><path class="cls-5" d="M259.22,180.28s7.2.91,11.46,10.77a118,118,0,0,0,7.46,14.87l9.83-5,2.16,2.64s-9.6,10.51-15.46,9.78-13.31-18-13.31-18"/><path class="cls-4" d="M248.58,306.92s-8.31,2.44-8.31,4.85,11.85-2.24,11.85-2.24l-.08-2.61Z"/><path class="cls-4" d="M277,306.92s8.31,2.44,8.31,4.85-12-2.48-12-2.48l0-2.37Z"/><path class="cls-5" d="M256.07,162.44c-8.21,0-4.77,9.4-4.77,9.4h9.58S264.29,162.44,256.07,162.44Z"/><path class="cls-18" d="M253,173.86l-.61,7.67a5.74,5.74,0,0,0,3.89,1.49,4.07,4.07,0,0,0,3.36-1.3v-7.34Z"/><path class="cls-19" d="M256.75,165.59a4.58,4.58,0,0,1,4.5,4.6c0,3.07-.68,7.58-4.18,7.58-3.31,0-5-3.5-5.08-7.42a4.6,4.6,0,0,1,4.64-4.76Z"/><path class="cls-19" d="M253.56,171.84a1.49,1.49,0,1,1-1.49-1.48A1.49,1.49,0,0,1,253.56,171.84Z"/><path class="cls-19" d="M243.25,213.35l-.61,3.72s1.62.79,2.25-1.24c0,0,2.65,1.82,3.28-.07S244.4,210.52,243.25,213.35Z"/><path class="cls-20" d="M260.71,170.3a1.12,1.12,0,0,0-1.83,0"/><path class="cls-4" d="M260.28,170.94a.44.44,0,1,1-.44-.51A.48.48,0,0,1,260.28,170.94Z"/><path class="cls-20" d="M256.2,170.3a1.12,1.12,0,0,0-1.83,0"/><path class="cls-4" d="M255.76,170.94a.44.44,0,1,1-.44-.51A.48.48,0,0,1,255.76,170.94Z"/><path class="cls-20" d="M257.47,170.94s1.6,2.78,0,2.78"/><path class="cls-20" d="M258.53,174.81a3.73,3.73,0,0,1-2.28,0"/><path class="cls-21" d="M256,173a1.28,1.28,0,1,1-1.28-1.28A1.28,1.28,0,0,1,256,173Z"/><path class="cls-21" d="M258.84,173a1.28,1.28,0,0,1,1.28-1.28,1.05,1.05,0,0,1,1,.52,9.4,9.4,0,0,1-.32,1.8,1.34,1.34,0,0,1-.7.24A1.28,1.28,0,0,1,258.84,173Z"/><path class="cls-20" d="M251.46,171.2s.86.21.86,1.53"/><path class="cls-2" d="M144.89,138.38H71.38s4.55-15.09,30.34-10.24C119.49,111.71,146.21,123.47,144.89,138.38Z"/><path class="cls-2" d="M376.21,91.35h59.54s-3.69-12.22-24.58-8.29C396.78,69.75,375.14,79.27,376.21,91.35Z"/></g></g></g></svg>