<svg xmlns="http://www.w3.org/2000/svg" viewBox="0 0 460.29 408.78"><defs><style>.cls-1{fill:#e0e0e0;}.cls-2{fill:#f5f5f5;}.cls-3{opacity:0.8;}.cls-11,.cls-4{fill:#ebebeb;}.cls-12,.cls-13,.cls-4{fill-rule:evenodd;}.cls-5{fill:#263238;}.cls-6{fill:#fff;}.cls-13,.cls-7{fill:#009dff;}.cls-8{opacity:0.3;}.cls-12,.cls-9{fill:#e8505b;}.cls-10{fill:#fafafa;}.cls-14{fill:#ffbe9d;}.cls-15{fill:#eb996e;}.cls-16{fill:#455a64;}.cls-17{opacity:0.2;}.cls-18,.cls-19{opacity:0.4;}</style></defs><g id="Layer_2" data-name="Layer 2"><g id="Background_Complete" data-name="Background Complete"><path class="cls-1" d="M404.58,91a4.8,4.8,0,0,1,1.5.47,6.3,6.3,0,0,1,3,3,6.46,6.46,0,0,1,.61,2.92,6.57,6.57,0,0,1-1,3.27,6.47,6.47,0,0,1-2.86,2.46,6.47,6.47,0,0,1-7.52-1.68,6.11,6.11,0,0,1-1-1.65,6.27,6.27,0,0,1-.5-1.81A6.42,6.42,0,0,1,399,92.23a6.32,6.32,0,0,1,4-1.46,4.73,4.73,0,0,1,1.55.22,14.83,14.83,0,0,0-1.55-.08,6.34,6.34,0,0,0-3.83,1.52A6.22,6.22,0,0,0,397.08,98a6.27,6.27,0,0,0,1.48,3.26,6.12,6.12,0,0,0,7.1,1.6,6.05,6.05,0,0,0,1.57-1,5.84,5.84,0,0,0,1.16-1.33,6.2,6.2,0,0,0,1-3.1,6,6,0,0,0-.54-2.8,6.28,6.28,0,0,0-2.81-3A13.14,13.14,0,0,0,404.58,91Z"/><path class="cls-1" d="M409.66,84.21s0-.08,0-.23,0-.38,0-.67c0-.62,0-1.51,0-2.67l0,0-5.77-1.26.11-.05-1.52,3.23,0,.06h-.06a14.91,14.91,0,0,0-3.77.67l-.06,0-.06,0L396,80.8l.16,0-5,3.17.05-.17c.38,1,.79,2.19,1.21,3.36l0,.09-.06.07a14.15,14.15,0,0,0-2.19,3.11l-.05.09h-3.66l.16-.13c-.41,1.82-.84,3.77-1.29,5.77l-.09-.19,3.23,1.53.09,0v.11a14.44,14.44,0,0,0,.66,3.74l0,.11-.07.07-2.52,2.53,0-.22,3.17,5-.22-.07,3.37-1.2.1,0,.08.08a14.41,14.41,0,0,0,3.11,2.18h0l.1.16h0v3.55l-.14-.18L402,114.7l-.21.1,1.54-3.22,0-.1h.11a14.66,14.66,0,0,0,3.75-.65l.1,0,.08.08,2.52,2.52-.21,0,5-3.16-.07.2L413.47,107l0-.09.06-.07a14.55,14.55,0,0,0,2.2-3.11l.05-.09h3.66l-.15.12c.46-2,.89-3.94,1.31-5.76l.07.16-3.22-1.54-.07,0v-.08a14.27,14.27,0,0,0-.65-3.76l0-.07.05,0,2.53-2.52v.13l-3.14-5,.09,0-3.37,1.18h0l0,0a14.73,14.73,0,0,0-2.29-1.77l-.61-.37-.21-.12s.08,0,.22.09.36.19.63.35a13.69,13.69,0,0,1,2.34,1.73h-.06l3.36-1.22.06,0,0,.05,3.19,5,0,.07-.06.06c-.77.79-1.59,1.62-2.51,2.54l0-.12a14.65,14.65,0,0,1,.68,3.82l-.08-.11,3.23,1.52.1,0,0,.11c-.41,1.82-.83,3.74-1.28,5.77l0,.11h-.12l-3.57,0,.14-.09a14.61,14.61,0,0,1-2.24,3.19l0-.17c.39,1.11.79,2.23,1.2,3.37l0,.12-.11.07-5,3.17-.11.07-.1-.09-2.53-2.52.17,0a14.45,14.45,0,0,1-3.84.67l.16-.1c-.51,1.07-1,2.14-1.53,3.23l-.06.13-.14,0-5.77-1.29-.14,0V110h0l.1.16h0a14.6,14.6,0,0,1-3.19-2.25l.19,0-3.37,1.2-.13,0-.08-.13c-1.09-1.71-2.16-3.41-3.16-5l-.07-.12.1-.1,2.52-2.53-.05.18a14.81,14.81,0,0,1-.66-3.84l.1.15-3.22-1.53-.13-.06,0-.13,1.3-5.77,0-.12H390l-.14.09a14.59,14.59,0,0,1,2.25-3.18l0,.15-1.2-3.36,0-.11.09-.06,5-3.15.09-.06.07.08,2.52,2.52-.12,0a14.44,14.44,0,0,1,3.83-.65l-.09.06,1.54-3.22,0-.06h.07l5.76,1.33h0v0c0,1.14,0,2,0,2.64,0,.3,0,.52,0,.69A1.35,1.35,0,0,1,409.66,84.21Z"/><path class="cls-1" d="M444.61,372.26s0-.37,0-1.09,0-1.78,0-3.15c0-2.78,0-6.84,0-12.06,0-10.44,0-25.48-.09-43.95l.17.17-104.13,0h0l.21-.21c0,21.32,0,41.7,0,60.25l-.2-.2,74.9.1,21.51,0,5.73,0h.05l-5.7,0-21.46.05-75,.1h-.2v-.2c0-18.55,0-38.93,0-60.25v-.21h.22l104.13.05h.16V312c0,18.51-.07,33.59-.09,44.05,0,5.2,0,9.26,0,12,0,1.37,0,2.41,0,3.13S444.61,372.26,444.61,372.26Z"/><path class="cls-1" d="M444.65,319.31c0,.11-23.3.21-52,.21s-52-.1-52-.21,23.29-.22,52-.22S444.65,319.19,444.65,319.31Z"/><rect class="cls-2" x="349.49" y="329.24" width="32.17" height="32.17"/><path class="cls-1" d="M437.05,334.55a2.15,2.15,0,0,1-.47,0l-1.36,0-5,.07-16.46.06-16.46-.06-5-.07-1.35,0a2.32,2.32,0,0,1-.48,0,1.87,1.87,0,0,1,.48-.05l1.35,0,5-.06,16.46-.07,16.46.07,5,.06,1.36,0A1.74,1.74,0,0,1,437.05,334.55Z"/><path class="cls-1" d="M438.09,341.73a1.68,1.68,0,0,1-.48,0l-1.39,0-5.1.07-16.83.06-16.83-.06-5.1-.07-1.38,0a1.72,1.72,0,0,1-.49,0,2.37,2.37,0,0,1,.49,0l1.38,0,5.1-.07,16.83-.06,16.83.06,5.1.07,1.39,0A2.32,2.32,0,0,1,438.09,341.73Z"/><path class="cls-1" d="M438.09,348.92a2.32,2.32,0,0,1-.48,0l-1.39,0-5.1.07-16.83.06-16.83-.06-5.1-.07L391,349a2.37,2.37,0,0,1-.49,0,1.91,1.91,0,0,1,.49-.05l1.38,0,5.1-.06,16.83-.07,16.83.07,5.1.06,1.39,0A1.87,1.87,0,0,1,438.09,348.92Z"/><path class="cls-1" d="M438.09,356.1a1.87,1.87,0,0,1-.48,0l-1.39,0-5.1.06-16.83.07-16.83-.07-5.1-.06-1.38,0a1.91,1.91,0,0,1-.49,0,2.37,2.37,0,0,1,.49,0l1.38,0,5.1-.07,16.83-.06,16.83.06,5.1.07,1.39,0A2.32,2.32,0,0,1,438.09,356.1Z"/><circle class="cls-2" cx="143.48" cy="43.28" r="43.28" transform="translate(11.42 114.13) rotate(-45)"/><path class="cls-1" d="M163.13,44.61a8.08,8.08,0,0,1-1.53.1l-4.2.09c-3.57.05-8.54.08-14.16.09H143V41.8c0-6.26,0-11.94.08-16,0-2,.07-3.62.09-4.86a11.72,11.72,0,0,1,.11-1.79,10.27,10.27,0,0,1,.11,1.79c0,1.24.05,2.88.09,4.86.05,4.11.08,9.79.08,16v2.81l-.28-.28c5.62,0,10.59.05,14.16.1l4.2.08A9.32,9.32,0,0,1,163.13,44.61Z"/><path class="cls-1" d="M143.37,7.11a11.87,11.87,0,0,1,.28,3.64,11.83,11.83,0,0,1-.28,3.63,12.21,12.21,0,0,1-.28-3.63A12.26,12.26,0,0,1,143.37,7.11Z"/><path class="cls-1" d="M163.09,13a11.57,11.57,0,0,1-2.33,2.73A11.77,11.77,0,0,1,158,18a11.5,11.5,0,0,1,2.33-2.74A11.87,11.87,0,0,1,163.09,13Z"/><path class="cls-1" d="M174.62,25.54a14.73,14.73,0,0,1-3,2,15.53,15.53,0,0,1-3.14,1.73,9.46,9.46,0,0,1,2.85-2.21A9.83,9.83,0,0,1,174.62,25.54Z"/><path class="cls-1" d="M181.38,44.24a22.54,22.54,0,0,1-5,.28,22.48,22.48,0,0,1-4.95-.28,21.78,21.78,0,0,1,4.95-.28A21.83,21.83,0,0,1,181.38,44.24Z"/><path class="cls-1" d="M112.64,43.57a19.5,19.5,0,0,1-4.68.28,19.43,19.43,0,0,1-4.68-.28,20.06,20.06,0,0,1,4.68-.28A20.13,20.13,0,0,1,112.64,43.57Z"/><path class="cls-1" d="M117.5,57.49A20.43,20.43,0,0,1,114,60.7a19.38,19.38,0,0,1-3.89,2.77,21.39,21.39,0,0,1,3.54-3.21A21,21,0,0,1,117.5,57.49Z"/><path class="cls-1" d="M129.49,68.25a31.24,31.24,0,0,1-2.4,4.18,30.66,30.66,0,0,1-2.56,4.08,15.75,15.75,0,0,1,2.08-4.37A15.63,15.63,0,0,1,129.49,68.25Z"/><path class="cls-1" d="M143.37,82.13a22.54,22.54,0,0,1-.28-5,22.48,22.48,0,0,1,.28-5,21.78,21.78,0,0,1,.28,5A21.83,21.83,0,0,1,143.37,82.13Z"/><path class="cls-1" d="M164.74,75.53a14.81,14.81,0,0,1-4.08-2.8,14.83,14.83,0,0,1-3.34-3.67A43.1,43.1,0,0,1,161,72.3,44.75,44.75,0,0,1,164.74,75.53Z"/><path class="cls-1" d="M174.77,64.73a17.35,17.35,0,0,1-3.28-2.89,17.35,17.35,0,0,1-2.89-3.28,17.27,17.27,0,0,1,3.29,2.88A17.27,17.27,0,0,1,174.77,64.73Z"/><path class="cls-1" d="M117.05,30.24a13.17,13.17,0,0,1-2.9-2.5,13.26,13.26,0,0,1-2.5-2.89,13.26,13.26,0,0,1,2.89,2.5A13.76,13.76,0,0,1,117.05,30.24Z"/><path class="cls-1" d="M129.42,17.21a13.07,13.07,0,0,1-2.85-2.44,12.8,12.8,0,0,1-2.45-2.84A12.5,12.5,0,0,1,127,14.37,12.8,12.8,0,0,1,129.42,17.21Z"/><g class="cls-3"><path class="cls-4" d="M378.88,21.11a28.62,28.62,0,0,1,6.23,4.38l6.65-2.36L398,33l-5,5a28.49,28.49,0,0,1,1.31,7.5l6.38,3-2.56,11.4-7.06,0a28.26,28.26,0,0,1-4.39,6.22l2.37,6.66-9.87,6.25-5-5a28.63,28.63,0,0,1-7.51,1.3l-3,6.38-11.4-2.56,0-7.06A28.62,28.62,0,0,1,346,67.78l-6.65,2.37-6.25-9.87,5-5a28.48,28.48,0,0,1-1.3-7.5l-6.38-3L333,33.34H340a29,29,0,0,1,4.39-6.23l-2.37-6.66,9.87-6.25,5,5a28.49,28.49,0,0,1,7.5-1.31l3-6.38,11.4,2.56v7.06ZM368.83,34.52a12.53,12.53,0,1,0,9.49,15A12.54,12.54,0,0,0,368.83,34.52Z"/></g><path class="cls-2" d="M43.85,121.4h74s-6.54-11.91-25.58-10.17c-18.19,1.65-19.11-5.86-28.36-6.78S46.93,110.61,43.85,121.4Z"/><path class="cls-2" d="M203.94,255.89h59.88s-5.3-9.64-20.71-8.23c-14.72,1.34-15.47-4.74-23-5.49S206.44,247.16,203.94,255.89Z"/></g><g id="Floor"><path class="cls-5" d="M460.29,403.63c0,.15-103,.26-230.13.26S0,403.78,0,403.63s103-.26,230.16-.26S460.29,403.49,460.29,403.63Z"/></g><g id="Screens"><rect class="cls-6" x="290.05" y="103.94" width="145.28" height="97.28"/><path class="cls-7" d="M435.34,201.22s0-.61,0-1.77l0-5.14c0-4.5,0-11.1-.05-19.56,0-16.9-.07-41.19-.11-70.81l.21.21-145.27,0h0l.26-.26c0,34.65,0,67.61,0,97.28l-.24-.24,104.67.11,29.9.07,8,0h2.05l.71,0h-2.71l-7.9,0-29.85.07-104.83.11h-.23v-.23c0-29.67,0-62.63,0-97.28v-.26h.28l145.27,0h.2v.21c0,29.67-.08,54-.1,70.94,0,8.44-.05,15-.06,19.52,0,2.22,0,3.93,0,5.09S435.34,201.22,435.34,201.22Z"/><path class="cls-7" d="M290.05,112.62c0-.14,32.5-.26,72.58-.26s72.59.12,72.59.26-32.5.26-72.59.26S290.05,112.76,290.05,112.62Z"/><g class="cls-8"><path class="cls-7" d="M295.79,108.24a1.17,1.17,0,1,1-2.33,0,1.17,1.17,0,0,1,2.33,0Z"/></g><g class="cls-8"><path class="cls-7" d="M299.78,108.24a1.17,1.17,0,1,1-2.33,0,1.17,1.17,0,0,1,2.33,0Z"/></g><g class="cls-8"><path class="cls-7" d="M303.71,108.24a1.17,1.17,0,1,1-1.17-1.16A1.17,1.17,0,0,1,303.71,108.24Z"/></g><g class="cls-8"><rect class="cls-7" x="302.54" y="122.76" width="38.75" height="38.75"/></g><path class="cls-7" d="M415.41,133.72c0,.14-15.11.26-33.75.26s-33.76-.12-33.76-.26,15.11-.26,33.76-.26S415.41,133.57,415.41,133.72Z"/><path class="cls-7" d="M415.41,140.92c0,.14-15.11.26-33.75.26s-33.76-.12-33.76-.26,15.11-.26,33.76-.26S415.41,140.78,415.41,140.92Z"/><path class="cls-7" d="M415.41,148.12c0,.15-15.11.26-33.75.26s-33.76-.11-33.76-.26,15.11-.26,33.76-.26S415.41,148,415.41,148.12Z"/><path class="cls-7" d="M387.8,155.32a9,9,0,0,1-1.57.11l-4.27.08c-3.61,0-8.6.07-14.11.07s-10.5,0-14.11-.07l-4.27-.08a9,9,0,0,1-1.57-.11,9.9,9.9,0,0,1,1.57-.1l4.27-.08c3.61,0,8.6-.08,14.11-.08s10.5,0,14.11.08l4.27.08A9.9,9.9,0,0,1,387.8,155.32Z"/><g class="cls-8"><rect class="cls-9" x="304.97" y="174.58" width="18.21" height="18.21"/></g><g class="cls-8"><rect class="cls-7" x="338" y="174.58" width="18.21" height="18.21"/></g><g class="cls-8"><rect class="cls-7" x="371.03" y="174.58" width="18.21" height="18.21"/></g><g class="cls-8"><rect class="cls-7" x="404.06" y="174.58" width="18.21" height="18.21"/></g><rect class="cls-6" x="24.36" y="138.98" width="129.42" height="52.57"/><path class="cls-7" d="M153.78,191.55s0-.32,0-.94,0-1.53,0-2.72c0-2.4,0-5.93,0-10.47,0-9.07,0-22.19-.08-38.44l.15.15-129.42.06h0l.2-.21c0,18.41,0,36.18,0,52.57l-.19-.19,92.79.09,26.92.05,7.2,0h1.89l-1.84,0-7.16,0-26.88.06-92.92.09h-.2v-.2c0-16.39,0-34.16,0-52.57v-.2h.21l129.42.06h.14V139c0,16.28-.06,29.44-.08,38.53,0,4.53,0,8,0,10.43,0,1.18,0,2.09,0,2.7S153.78,191.55,153.78,191.55Z"/><path class="cls-7" d="M24.48,146.07c0-.11,28.93-.2,64.61-.2s64.61.09,64.61.2-28.92.21-64.61.21S24.48,146.19,24.48,146.07Z"/><g class="cls-8"><path class="cls-7" d="M29.9,142.9A.94.94,0,1,1,29,142,.94.94,0,0,1,29.9,142.9Z"/></g><g class="cls-8"><path class="cls-7" d="M33.12,142.9a.94.94,0,1,1-.94-.94A.94.94,0,0,1,33.12,142.9Z"/></g><g class="cls-8"><path class="cls-7" d="M36.29,142.9a.94.94,0,1,1-.94-.94A.94.94,0,0,1,36.29,142.9Z"/></g><g class="cls-8"><rect class="cls-7" x="35.35" y="154.62" width="31.26" height="31.26"/></g><path class="cls-7" d="M144.82,163c0,.12-16.08.21-35.92.21S73,163.11,73,163s16.08-.2,35.93-.2S144.82,162.88,144.82,163Z"/><path class="cls-7" d="M144.82,169.36c0,.12-16.08.21-35.92.21S73,169.48,73,169.36s16.08-.2,35.93-.2S144.82,169.25,144.82,169.36Z"/><path class="cls-7" d="M119.22,175.73a1.57,1.57,0,0,1-.47,0l-1.34,0-5,.07-16.35.06-16.36-.06-4.95-.07-1.35,0a1.57,1.57,0,0,1-.47,0,2.15,2.15,0,0,1,.47,0l1.35,0,4.95-.06,16.36-.06,16.35.06,5,.06,1.34,0A2.15,2.15,0,0,1,119.22,175.73Z"/></g><g id="Rocket"><path class="cls-2" d="M248.88,72.92c-2.17-1.44-5.15-.57-7.32.88s-4,3.43-6.45,4.37c-4.57,1.78-10.55-.32-14.1,3-2.25,2.15-2.48,5.66-4.2,8.25-2.9,4.36-9.85,6-10.45,11.2-.35,3,2.06,5.94,5,6.79a10.7,10.7,0,0,0,8.7-1.73c3-2,5.3-5,8.69-6.15s7.73-.18,10.46-2.6,2.32-6.86,4.27-9.94A20,20,0,0,1,247.63,83c1.47-1.28,2.87-2.85,3.12-4.77s-.55-5.22-1.87-5.3"/><path class="cls-5" d="M192.53,285.37c.12-.07.53.33.9.91s.59,1.1.48,1.19-.53-.32-.91-.91S192.41,285.45,192.53,285.37Z"/><path class="cls-5" d="M188.24,276.35a12.26,12.26,0,0,1,1.9,4.63,6.13,6.13,0,0,1-1.19-2.21A6.29,6.29,0,0,1,188.24,276.35Z"/><path class="cls-5" d="M185.92,266.63a6.05,6.05,0,0,1,.72,2.41,6.32,6.32,0,0,1,.2,2.51,6.14,6.14,0,0,1-.72-2.41A6.32,6.32,0,0,1,185.92,266.63Z"/><path class="cls-5" d="M185.57,256.64a12,12,0,0,1-.07,5,12.43,12.43,0,0,1,.07-5Z"/><path class="cls-5" d="M187.19,246.78a6.23,6.23,0,0,1-.27,2.5,6.12,6.12,0,0,1-.79,2.39,6.16,6.16,0,0,1,.28-2.5A6.08,6.08,0,0,1,187.19,246.78Z"/><path class="cls-5" d="M190.79,237.46a6.53,6.53,0,0,1-.79,2.39,6.46,6.46,0,0,1-1.26,2.18,6.1,6.1,0,0,1,.79-2.39C190.09,238.37,190.66,237.39,190.79,237.46Z"/><path class="cls-5" d="M196.3,229.13a6.39,6.39,0,0,1-1.29,2.16,6.48,6.48,0,0,1-1.69,1.86c-.13-.09.45-1.05,1.28-2.17S196.18,229,196.3,229.13Z"/><path class="cls-5" d="M203,221.72c.1.1-.59,1-1.54,2s-1.81,1.73-1.91,1.63.58-1,1.53-2S202.92,221.62,203,221.72Z"/><path class="cls-5" d="M210.06,214.61c.1.1-.6,1-1.57,2s-1.84,1.7-1.94,1.6.6-1,1.57-2S210,214.51,210.06,214.61Z"/><path class="cls-5" d="M216.63,207.07c.12.08-.5,1-1.38,2.1s-1.68,1.86-1.79,1.77.51-1,1.38-2.1S216.52,207,216.63,207.07Z"/><path class="cls-5" d="M221.74,198.48a5.42,5.42,0,0,1-.84,2.39,5.51,5.51,0,0,1-1.46,2.06,7.32,7.32,0,0,1,1-2.3A7.39,7.39,0,0,1,221.74,198.48Z"/><path class="cls-5" d="M224.17,188.82a5.28,5.28,0,0,1,0,2.53,5.21,5.21,0,0,1-.77,2.4,7.77,7.77,0,0,1,.25-2.49A7.64,7.64,0,0,1,224.17,188.82Z"/><path class="cls-5" d="M223.43,178.88a8.9,8.9,0,0,1,.77,4.94,7.63,7.63,0,0,1-.55-2.44A8,8,0,0,1,223.43,178.88Z"/><path class="cls-5" d="M219.5,169.73a5.31,5.31,0,0,1,1.51,2,5.18,5.18,0,0,1,.85,2.37c-.14.06-.66-.92-1.31-2.13A7.9,7.9,0,0,1,219.5,169.73Z"/><path class="cls-5" d="M212.52,162.64a5,5,0,0,1,2.16,1.31c1.08.89,1.78,1.8,1.67,1.89s-.95-.62-2-1.49S212.44,162.76,212.52,162.64Z"/><path class="cls-5" d="M203.43,158.58a5.17,5.17,0,0,1,2.49.45,5.26,5.26,0,0,1,2.24,1.16,7.37,7.37,0,0,1-2.41-.67A8.12,8.12,0,0,1,203.43,158.58Z"/><path class="cls-5" d="M193.5,158.13a5,5,0,0,1,2.47-.52,5,5,0,0,1,2.51.25,8.06,8.06,0,0,1-2.48.27A8.35,8.35,0,0,1,193.5,158.13Z"/><path class="cls-5" d="M184.27,161.8c-.08-.11.78-.87,2-1.53a5,5,0,0,1,2.39-.83,8.43,8.43,0,0,1-2.14,1.29A8.33,8.33,0,0,1,184.27,161.8Z"/><path class="cls-5" d="M177.4,169a5.15,5.15,0,0,1,1.23-2.21c.86-1.11,1.74-1.83,1.84-1.73a8.35,8.35,0,0,1-1.43,2C178.2,168.18,177.53,169.07,177.4,169Z"/><path class="cls-5" d="M174,178.33a8,8,0,0,1,1.18-4.85,25,25,0,0,1-1.18,4.85Z"/><path class="cls-5" d="M175.22,188.18a5.11,5.11,0,0,1-1-2.33,5,5,0,0,1-.2-2.52,8.37,8.37,0,0,1,.71,2.4A8.25,8.25,0,0,1,175.22,188.18Z"/><path class="cls-5" d="M180.29,196.75c-.1.09-.93-.69-1.75-1.82a5.32,5.32,0,0,1-1.16-2.24c.13-.08.78.82,1.59,1.93A7.77,7.77,0,0,1,180.29,196.75Z"/><path class="cls-5" d="M187.66,203.49a5.57,5.57,0,0,1-2.16-1.31c-1.08-.88-1.83-1.73-1.73-1.83s1,.56,2.06,1.42S187.74,203.37,187.66,203.49Z"/><path class="cls-5" d="M196.33,208.46a6.18,6.18,0,0,1-2.35-.9c-1.24-.63-2.19-1.24-2.11-1.37a6.32,6.32,0,0,1,2.34.91A6.45,6.45,0,0,1,196.33,208.46Z"/><path class="cls-5" d="M205.84,211.49a5.51,5.51,0,0,1-2.5-.29,5.56,5.56,0,0,1-2.34-.95,7.12,7.12,0,0,1,2.46.44A7.28,7.28,0,0,1,205.84,211.49Z"/><path class="cls-5" d="M215.8,212a8.86,8.86,0,0,1-5,.1,7.93,7.93,0,0,1,2.5-.21A7.66,7.66,0,0,1,215.8,212Z"/><path class="cls-5" d="M225.43,209.43a8.71,8.71,0,0,1-4.71,1.69,7.75,7.75,0,0,1,2.3-1A7.86,7.86,0,0,1,225.43,209.43Z"/><path class="cls-5" d="M233.77,204c.09.1-.67.95-1.77,1.8a5.31,5.31,0,0,1-2.2,1.24c-.08-.12.8-.82,1.88-1.66S233.67,203.86,233.77,204Z"/><path class="cls-5" d="M240.28,196.4a5.42,5.42,0,0,1-1.23,2.21c-.84,1.11-1.67,1.89-1.78,1.79a7.43,7.43,0,0,1,1.36-2.1C239.46,197.2,240.16,196.32,240.28,196.4Z"/><path class="cls-5" d="M244.61,187.41a9.35,9.35,0,0,1-1.87,4.64,7.38,7.38,0,0,1,.77-2.39A7.14,7.14,0,0,1,244.61,187.41Z"/><path class="cls-5" d="M246.55,177.61a5.62,5.62,0,0,1,0,2.52,5.48,5.48,0,0,1-.66,2.44,6.86,6.86,0,0,1,.15-2.51A7.07,7.07,0,0,1,246.55,177.61Z"/><path class="cls-5" d="M246.29,167.62a6.33,6.33,0,0,1,.45,2.48,5.94,5.94,0,0,1-.07,2.51,12.12,12.12,0,0,1-.38-5Z"/><path class="cls-5" d="M244.12,157.86a6.38,6.38,0,0,1,.9,2.35,6.21,6.21,0,0,1,.4,2.48,6.37,6.37,0,0,1-.9-2.34A6.21,6.21,0,0,1,244.12,157.86Z"/><path class="cls-5" d="M240.29,148.62a6.3,6.3,0,0,1,1.33,2.14,6.08,6.08,0,0,1,.77,2.4,15,15,0,0,1-2.1-4.54Z"/><path class="cls-5" d="M235.37,139.91c.12-.07.79.83,1.49,2a6.22,6.22,0,0,1,1,2.29c-.13.07-.79-.84-1.49-2A6.09,6.09,0,0,1,235.37,139.91Z"/><path class="cls-5" d="M230.4,131.22a6.21,6.21,0,0,1,1.44,2.07,6.35,6.35,0,0,1,1,2.31c-.13.07-.77-.85-1.44-2.06A6.5,6.5,0,0,1,230.4,131.22Z"/><path class="cls-5" d="M226.5,122a12.29,12.29,0,0,1,1.74,4.68,6.24,6.24,0,0,1-1.12-2.25A6.1,6.1,0,0,1,226.5,122Z"/><path class="cls-5" d="M224.8,112.19a7.76,7.76,0,0,1,.44,2.47,7.13,7.13,0,0,1,.08,2.5,5.62,5.62,0,0,1-.6-2.45A5.25,5.25,0,0,1,224.8,112.19Z"/><path class="cls-5" d="M225.62,102.24a7.25,7.25,0,0,1-.18,2.5,7.49,7.49,0,0,1-.54,2.45,5.37,5.37,0,0,1,0-2.52A5.5,5.5,0,0,1,225.62,102.24Z"/><path class="cls-5" d="M228.88,92.81a7.29,7.29,0,0,1-.8,2.37A7.19,7.19,0,0,1,227,97.42,5.68,5.68,0,0,1,227.6,95,5.52,5.52,0,0,1,228.88,92.81Z"/><path class="cls-5" d="M234.46,84.53a7.9,7.9,0,0,1-1.39,2.08c-.85,1.09-1.55,2-1.68,1.87a5.44,5.44,0,0,1,1.26-2.19C233.51,85.19,234.35,84.43,234.46,84.53Z"/><path class="cls-5" d="M242,78c.08.12-.78.83-1.87,1.67s-2,1.49-2.09,1.38.67-.94,1.77-1.79A5.36,5.36,0,0,1,242,78Z"/><path class="cls-5" d="M250.86,73.42a16.9,16.9,0,0,1-4.59,2,9.41,9.41,0,0,1,4.59-2Z"/><path class="cls-5" d="M258.12,71.59c0,.14-.51.35-1.19.48s-1.24.11-1.27,0,.49-.36,1.18-.48S258.09,71.44,258.12,71.59Z"/><path class="cls-7" d="M278.52,42.14s11.75-8.38,28-3c0,0,1.34,13.46-11.7,24.16"/><path class="cls-7" d="M241.5,67c.5.75,13.24,21.25,13.24,21.25L293,64.67a13.39,13.39,0,0,0,3.73-19.38h0a13.4,13.4,0,0,0-18.23-3.15Z"/><path class="cls-5" d="M254.74,88.25l-.86,14.41s24.81-12,18.62-25.35Z"/><path class="cls-5" d="M259.22,55.1s-16.81-7.42-30.66,3.46L241.5,67Z"/><path class="cls-5" d="M259.11,67,235.17,82s.82,2.57,1.47,2.36S255.16,73.55,261,70.1a1.79,1.79,0,0,0,.47-2.7h0A1.8,1.8,0,0,0,259.11,67Z"/><circle class="cls-10" cx="281.15" cy="55.67" r="7.66" transform="translate(162.58 316.6) rotate(-76.76)"/><path class="cls-5" d="M288.82,55.67c-.06,0,0-.69-.34-1.85a7.67,7.67,0,0,0-2.8-4.1,7.45,7.45,0,0,0-7.06-1,7.32,7.32,0,0,0-3.43,2.59,7.38,7.38,0,0,0,0,8.76,7.32,7.32,0,0,0,3.43,2.59,7.48,7.48,0,0,0,7.06-1,7.6,7.6,0,0,0,2.8-4.1c.31-1.16.28-1.85.34-1.84a2.66,2.66,0,0,1,0,.49,5.64,5.64,0,0,1-.17,1.4,7.62,7.62,0,0,1-2.77,4.35,7.86,7.86,0,0,1-3.29,1.5,7.94,7.94,0,0,1-4.15-.32,7.74,7.74,0,0,1-3.68-2.74,7.84,7.84,0,0,1,0-9.36,7.82,7.82,0,0,1,7.83-3.06,7.74,7.74,0,0,1,3.29,1.5,7.63,7.63,0,0,1,2.77,4.34,5.66,5.66,0,0,1,.17,1.41A2.66,2.66,0,0,1,288.82,55.67Z"/><path class="cls-5" d="M298.15,60.78c-.1,0-.22-1.49-.81-3.82A27.74,27.74,0,0,0,296,53a31.38,31.38,0,0,0-2.39-4.56,32,32,0,0,0-3.17-4.06,29.49,29.49,0,0,0-3.09-2.85c-1.88-1.5-3.2-2.22-3.15-2.3a3.64,3.64,0,0,1,1,.45,9.67,9.67,0,0,1,1.06.63c.4.26.88.55,1.36.93A26,26,0,0,1,290.8,44a27,27,0,0,1,5.66,8.76,26.1,26.1,0,0,1,1.24,4.09c.15.59.21,1.14.29,1.62a11.58,11.58,0,0,1,.14,1.23A5.08,5.08,0,0,1,298.15,60.78Z"/><path class="cls-5" d="M296.08,61.88c-.1,0-.22-1.51-.82-3.88a29.63,29.63,0,0,0-1.35-4.07,33.45,33.45,0,0,0-2.42-4.64,34.14,34.14,0,0,0-3.21-4.14,29.8,29.8,0,0,0-3.13-2.92c-1.9-1.53-3.24-2.28-3.18-2.36a4,4,0,0,1,1,.47A12,12,0,0,1,284,41c.41.28.89.57,1.37,1a26.5,26.5,0,0,1,3.25,2.88,31.19,31.19,0,0,1,3.3,4.19,30.47,30.47,0,0,1,2.43,4.74,25.92,25.92,0,0,1,1.26,4.16,16.18,16.18,0,0,1,.3,1.64,12,12,0,0,1,.14,1.26A3.84,3.84,0,0,1,296.08,61.88Z"/></g><g id="Plant"><path class="cls-11" d="M62,379.78c-.85-3.4,1.39-6.79,3.9-9.24s5.51-4.64,6.82-7.89c2.14-5.27-.65-12.11,3-16.5,2.13-2.57,5.92-3.42,7.81-6.18A14,14,0,0,0,85.18,335a50.25,50.25,0,0,1,12.63-23.3,43.68,43.68,0,0,1-5,22.5c-1.47,2.76-3.27,5.44-3.77,8.53-.81,5,2,10.2.7,15.11-1.44,5.63-7.79,9.36-8.12,15.16-.28,4.9,4,9.23,3.62,14.12A13.19,13.19,0,0,1,83,393c-3.82,6.28-9.41,10.59-17.85,10.4l-10.34.31Z"/><path class="cls-5" d="M52.7,403.93a8.3,8.3,0,0,1-2.84-.08A16.71,16.71,0,0,1,46.5,403a14,14,0,0,1-4.13-2.29,5.79,5.79,0,0,1-1.7-2.29,10.69,10.69,0,0,1-.47-3.09A29.71,29.71,0,0,0,40,392a9.32,9.32,0,0,0-1.24-3.33c-1.21-2.15-3.22-4.19-3.86-7.1s-.16-6,.33-9.06,1-6.48-.18-9.71-3.34-6.17-4.46-9.82S30,345.3,29.8,341.4a15.32,15.32,0,0,0-1.32-5.75c-.82-1.84-2-3.57-2.87-5.5-1.81-3.9-2.11-8.32-2.59-12.65q-.35-3.27-.7-6.61a32.16,32.16,0,0,0-1.11-6.61,59.82,59.82,0,0,0-2.44-6.42,20.92,20.92,0,0,1-1.18-3.34c-.19-1.22-.24-2.36-.31-3.56a43,43,0,0,1,.31-7.16c.3-2.38.74-4.74,1-7.13,0-.14,0-.28,0-.41l.06-.48.42.22a16,16,0,0,1,5.54,4.72A25.53,25.53,0,0,1,28.05,287c1.7,4.45,2.3,9.11,3.14,13.56s1.92,8.82,4.18,12.52c1.12,1.85,2.48,3.54,3.67,5.34a14.53,14.53,0,0,1,2.53,5.91c.59,4.38-1.84,8.2-1.36,12.08a13.43,13.43,0,0,0,1.85,5.37c.93,1.66,2,3.2,3.07,4.74a30.94,30.94,0,0,1,2.74,4.79,15,15,0,0,1,1.24,5.19c.24,3.48-.28,6.79,0,9.91a22.73,22.73,0,0,0,2.5,8.51c1.24,2.55,2.62,4.86,3.77,7.1.58,1.11,1.11,2.21,1.55,3.3a16.44,16.44,0,0,1,.89,3.27,20.87,20.87,0,0,1,0,5.9,14.94,14.94,0,0,1-3,7.51,6.8,6.8,0,0,1-.84.9,4.26,4.26,0,0,1-.68.57c-.39.29-.6.42-.6.42a13.57,13.57,0,0,0,2-2,15,15,0,0,0,2.84-7.46,20.81,20.81,0,0,0-.09-5.82,16.27,16.27,0,0,0-.9-3.19A35.59,35.59,0,0,0,55,382.23c-1.16-2.22-2.55-4.52-3.82-7.08a23.42,23.42,0,0,1-2.59-8.66c-.25-3.19.25-6.51,0-9.91a14.53,14.53,0,0,0-1.21-5,29.69,29.69,0,0,0-2.72-4.69c-1-1.53-2.14-3.08-3.1-4.77a13.85,13.85,0,0,1-1.94-5.6c-.48-4.12,1.94-8,1.34-12a14,14,0,0,0-2.45-5.65c-1.17-1.77-2.54-3.46-3.69-5.36-2.33-3.81-3.44-8.27-4.28-12.73s-1.45-9.08-3.12-13.44a24.69,24.69,0,0,0-3.29-6.16,15.28,15.28,0,0,0-5.31-4.53l.48-.26,0,.42c-.27,2.41-.72,4.78-1,7.14a41.59,41.59,0,0,0-.31,7,32.06,32.06,0,0,0,.3,3.45,19.73,19.73,0,0,0,1.14,3.23,59,59,0,0,1,2.45,6.48A32.88,32.88,0,0,1,23,310.82c.23,2.23.47,4.43.7,6.61.46,4.35.76,8.7,2.51,12.46.86,1.88,2,3.62,2.86,5.51a15.85,15.85,0,0,1,1.35,6c.2,4-.34,7.89.72,11.43s3.29,6.47,4.41,9.81.68,6.87.17,9.95-1,6.14-.39,8.89,2.54,4.8,3.77,7a9.51,9.51,0,0,1,1.26,3.47,28.56,28.56,0,0,1,.2,3.38,10.63,10.63,0,0,0,.42,3,5.51,5.51,0,0,0,1.6,2.18,14,14,0,0,0,4,2.31,18.22,18.22,0,0,0,3.31.92,13.62,13.62,0,0,0,2.1.21Z"/><path class="cls-5" d="M20.73,282a1,1,0,0,1,.1.31l.22.94c.2.81.44,2,.82,3.58s1.32,3.27,2.11,5.41a73.79,73.79,0,0,1,2.42,7.35c.77,2.76,1.45,5.82,2.17,9.11a38,38,0,0,0,3.25,10.11c.83,1.69,1.78,3.39,2.53,5.25A24.69,24.69,0,0,1,35.8,330,118.14,118.14,0,0,0,38,342.48C40,351,41.91,359,43.67,366.4s3.42,13.94,4.79,19.51,2.41,10,3.17,13.17l.83,3.58c.08.38.14.69.2.94a1.14,1.14,0,0,1,0,.33,1.43,1.43,0,0,1-.11-.31c-.07-.25-.16-.55-.26-.92l-.95-3.56c-.81-3.15-2-7.62-3.38-13.12s-3.08-12.15-4.93-19.47-3.72-15.44-5.76-23.93a116.85,116.85,0,0,1-2.15-12.57,24.39,24.39,0,0,0-1.4-5.79c-.72-1.82-1.65-3.51-2.49-5.22A38.21,38.21,0,0,1,28,308.77c-.69-3.29-1.34-6.34-2.08-9.1s-1.53-5.21-2.31-7.34-1.65-3.89-2-5.47-.54-2.8-.7-3.63c-.06-.38-.11-.69-.16-.94A1.38,1.38,0,0,1,20.73,282Z"/><path class="cls-7" d="M50.88,404c-6.73-4.05-8.6-16.25-5.74-23.56s7.82-14,8.63-21.8c.62-6-1.32-12.19.12-18.06,1.93-7.91,9.71-14,9.66-22.16,0-4.57-2.6-8.89-2.37-13.45.29-5.6,4.62-10,7.31-14.94,4.12-7.53,4.44-16.46,5.88-24.93s4.72-17.51,12.25-21.63c1.07,7.2,2.93,12.13,2.28,21.87-.23,3.5-4.33,10.17-4.93,17.84-.36,4.58-.61,9.17-.92,13.75s-.61,9-2.23,13.17c-1.25,3.19-3.23,6.09-4.16,9.39-1.75,6.2.46,12.95-1,19.23C74.5,344,70.78,348.57,70,354c-1.11,7.59,3.77,15.52,1.21,22.75-1.27,3.59-4.25,6.46-5.11,10.17-.66,2.88,0,5.94-.58,8.83-1,4.66-9.89,8.23-14.64,7.91"/><path class="cls-5" d="M84.72,250.55a2,2,0,0,1,0,.4c0,.3-.1.69-.16,1.18-.16,1-.35,2.56-.71,4.53s-1.42,4.21-2.25,6.9-1.75,5.77-2.53,9.23-1.46,7.29-2.16,11.41-1.46,8.62-3.53,12.9c-1,2.16-2,4.31-2.85,6.61A29.47,29.47,0,0,0,69,311,148.6,148.6,0,0,1,67,326.71c-2.13,10.65-4.16,20.78-6,30s-3.7,17.47-5.17,24.44-2.69,12.53-3.54,16.47c-.42,1.9-.75,3.4-1,4.46L51,403.25a1.63,1.63,0,0,1-.11.39,1.51,1.51,0,0,1,0-.4q.07-.45.21-1.17c.21-1.07.5-2.58.87-4.5.8-3.94,1.93-9.57,3.33-16.51s3.14-15.26,5-24.46,3.83-19.36,5.94-30a147.62,147.62,0,0,0,2.08-15.67,30.54,30.54,0,0,1,1.51-7.43c.84-2.35,1.93-4.51,2.89-6.65,2.06-4.22,2.8-8.63,3.55-12.74s1.42-8,2.24-11.42,1.72-6.57,2.63-9.25,1.94-4.9,2.36-6.83.62-3.47.83-4.5c.09-.48.16-.87.22-1.17A1.43,1.43,0,0,1,84.72,250.55Z"/></g><g id="Chart"><rect class="cls-7" x="382.61" y="246.57" width="6.97" height="22.52"/><rect class="cls-7" x="395.44" y="237.31" width="6.97" height="31.78"/><rect class="cls-7" x="409.1" y="232.98" width="6.97" height="36.11"/><rect class="cls-7" x="422.75" y="228.41" width="6.97" height="40.68"/></g><g id="Gears"><path class="cls-5" d="M147.66,275.79a4.73,4.73,0,0,1,1.5.47,6.3,6.3,0,0,1,3,3,6.46,6.46,0,0,1,.61,2.92,6.57,6.57,0,0,1-1,3.27,6.47,6.47,0,0,1-2.86,2.46,6.47,6.47,0,0,1-7.52-1.68,6.11,6.11,0,0,1-1-1.65,6.27,6.27,0,0,1-.5-1.81,6.42,6.42,0,0,1,2.29-5.76,6.32,6.32,0,0,1,4-1.46,4.73,4.73,0,0,1,1.55.22,14.83,14.83,0,0,0-1.55-.08,6.38,6.38,0,0,0-3.83,1.51,6.26,6.26,0,0,0-2.12,5.53,5.94,5.94,0,0,0,.49,1.71,5.83,5.83,0,0,0,1,1.55,6.24,6.24,0,0,0,3.29,2,6.32,6.32,0,0,0,3.81-.37,6.05,6.05,0,0,0,1.57-1,5.84,5.84,0,0,0,1.16-1.33,6.32,6.32,0,0,0,1-3.1,6.19,6.19,0,0,0-.55-2.81,6.3,6.3,0,0,0-2.81-3A13.14,13.14,0,0,0,147.66,275.79Z"/><path class="cls-5" d="M152.75,269s0-.07,0-.22,0-.39,0-.67c0-.62,0-1.52,0-2.67l0,.05L147,264.23l.11-.05-1.52,3.23,0,.06h-.06a14.34,14.34,0,0,0-3.76.67l-.07,0-.06-.05L139,265.6l.16,0-5,3.17,0-.17c.38,1,.79,2.19,1.21,3.36l0,.09-.06.06a14.47,14.47,0,0,0-2.19,3.12l-.05.09h-3.66l.16-.13c-.4,1.81-.84,3.77-1.29,5.77l-.09-.19,3.23,1.53.09,0v.11a14.44,14.44,0,0,0,.66,3.74l0,.11-.07.07-2.52,2.53,0-.22,3.17,5-.22-.07,3.37-1.2.1,0,.08.08a14.41,14.41,0,0,0,3.11,2.18h0c0,.07-.1-.17.1.16h0v3.55l-.14-.18,5.77,1.29-.21.1,1.54-3.22,0-.1h.11a14.66,14.66,0,0,0,3.75-.65l.1,0,.08.08,2.52,2.52-.21,0,5-3.16-.07.2-1.19-3.37,0-.09.06-.07a14.2,14.2,0,0,0,2.2-3.11l.05-.09h3.66l-.15.12c.46-2,.89-3.94,1.31-5.76l.07.16-3.22-1.54-.07,0v-.08a14.27,14.27,0,0,0-.65-3.76l0-.07.05-.05,2.53-2.52v.13l-3.14-5,.09,0-3.37,1.18h0l0,0a14.27,14.27,0,0,0-2.29-1.77l-.61-.37c-.14-.08-.21-.12-.2-.13l.21.1.63.35a13.69,13.69,0,0,1,2.34,1.73h-.06l3.36-1.22.06,0,0,.05c.89,1.41,1.95,3,3.18,5l0,.07-.06.06c-.77.79-1.59,1.62-2.51,2.54l0-.12a14.65,14.65,0,0,1,.68,3.82l-.07-.11,3.22,1.52.1.05,0,.11c-.41,1.82-.83,3.74-1.28,5.77l0,.11h-.12l-3.57,0,.14-.09a14.61,14.61,0,0,1-2.24,3.19l0-.17c.39,1.1.79,2.23,1.2,3.37l0,.12-.11.07-5,3.17-.11.07-.1-.09-2.53-2.52.17,0a14.45,14.45,0,0,1-3.84.67l.16-.1c-.51,1.06-1,2.14-1.53,3.23l-.06.13-.14,0-5.77-1.29-.14,0v-3.69h0l.1.16h0a14.6,14.6,0,0,1-3.19-2.25l.19,0-3.37,1.2-.13,0-.08-.12c-1.09-1.71-2.16-3.41-3.16-5l-.07-.12.1-.1,2.52-2.53,0,.18a14.81,14.81,0,0,1-.66-3.84l.1.15-3.22-1.53-.13-.06,0-.13c.45-2,.89-4,1.3-5.77l0-.12h3.7l-.14.09a14.59,14.59,0,0,1,2.25-3.18l0,.15c-.42-1.17-.83-2.32-1.19-3.36l0-.11.09-.06,5-3.15.09-.06.07.08,2.52,2.52-.12,0a14.44,14.44,0,0,1,3.83-.65l-.09.06,1.54-3.22,0-.06H147l5.76,1.33h.05v.05c0,1.14,0,2,0,2.64,0,.29,0,.52,0,.69S152.75,269,152.75,269Z"/><path class="cls-12" d="M141.86,224.15a15.58,15.58,0,0,1,3.48,2.45l3.72-1.33,3.5,5.52-2.79,2.8a15.87,15.87,0,0,1,.73,4.19l3.57,1.69-1.43,6.37h-3.95a15.92,15.92,0,0,1-2.45,3.48l1.32,3.72-5.51,3.5-2.8-2.79a16.29,16.29,0,0,1-4.19.73l-1.7,3.56L127,256.63v-3.95a16.16,16.16,0,0,1-3.48-2.45l-3.72,1.32L116.29,246l2.78-2.8a16.29,16.29,0,0,1-.73-4.19l-3.56-1.7,1.43-6.37h4a15.82,15.82,0,0,1,2.45-3.48l-1.33-3.72,5.52-3.49,2.8,2.78a16.29,16.29,0,0,1,4.19-.73l1.69-3.56,6.37,1.43v4Zm-5.61,7.49a7,7,0,1,0,5.3,8.37A7,7,0,0,0,136.25,231.64Z"/><g class="cls-3"><path class="cls-13" d="M141.86,224.15a15.58,15.58,0,0,1,3.48,2.45l3.72-1.33,3.5,5.52-2.79,2.8a15.87,15.87,0,0,1,.73,4.19l3.57,1.69-1.43,6.37h-3.95a15.92,15.92,0,0,1-2.45,3.48l1.32,3.72-5.51,3.5-2.8-2.79a16.29,16.29,0,0,1-4.19.73l-1.7,3.56L127,256.63v-3.95a16.16,16.16,0,0,1-3.48-2.45l-3.72,1.32L116.29,246l2.78-2.8a16.29,16.29,0,0,1-.73-4.19l-3.56-1.7,1.43-6.37h4a15.82,15.82,0,0,1,2.45-3.48l-1.33-3.72,5.52-3.49,2.8,2.78a16.29,16.29,0,0,1,4.19-.73l1.69-3.56,6.37,1.43v4Zm-5.61,7.49a7,7,0,1,0,5.3,8.37A7,7,0,0,0,136.25,231.64Z"/></g><path class="cls-13" d="M118.82,261.68a9.16,9.16,0,0,1,2,1.43l2.16-.77,2,3.21-1.62,1.63a9.45,9.45,0,0,1,.42,2.44l2.08,1-.84,3.71H122.8a9.34,9.34,0,0,1-1.43,2l.77,2.17-3.21,2-1.63-1.62a9,9,0,0,1-2.44.42l-1,2.08-3.71-.83v-2.3a9.65,9.65,0,0,1-2-1.43l-2.16.77-2-3.21,1.62-1.62a9.61,9.61,0,0,1-.43-2.45l-2.07-1,.83-3.71h2.3a9.3,9.3,0,0,1,1.42-2l-.77-2.17,3.21-2,1.63,1.62a9,9,0,0,1,2.44-.42l1-2.08,3.71.83v2.3ZM115.55,266a4.08,4.08,0,1,0,3.09,4.88A4.08,4.08,0,0,0,115.55,266Z"/></g><g id="Character"><path class="cls-5" d="M339.68,224.88a9.76,9.76,0,0,0,7.06-9.75c-.12-1.95-.85-3.86-.76-5.82.13-3,2.14-5.61,3.66-8.24s2.54-6.12.77-8.6c-1.15-1.6-3.18-2.33-4.57-3.73s-2-3.27-2.73-5.06-1.68-3.63-3.35-4.59-4.26-.53-4.94,1.28"/><path class="cls-5" d="M321.51,175.55c3-1.9,3.72-6.31,2.1-9.47s-5.07-5.07-8.57-5.63A16.3,16.3,0,0,0,301,165.11c-1.94,2-3.5,4.59-6.12,5.5-2.31.8-4.86.08-7.28.39a11,11,0,0,0-7.68,5.54,23.7,23.7,0,0,0-2.74,9.35c-.35,3-.58,6.25-2.65,8.43s-5.2,2.57-7.71,4.08a10.54,10.54,0,0,0-3.13,14.41c1,1.45,2.41,2.78,2.53,4.53.1,1.6-.93,3-1.41,4.55a7.12,7.12,0,0,0,6.09,8.85c2.08.12,4.31-.69,6.17.24s2.55,3.15,3.73,4.85a8.89,8.89,0,0,0,10.86,2.8c1.53-.75,3-2,4.68-1.87s3,1.56,4.7,1.89c2.18.42,4.26-1.19,5.56-3s2.2-3.94,3.87-5.41c2.18-1.94,5.24-2.42,8-3.37a22.56,22.56,0,0,0,12.74-31.59"/><path class="cls-14" d="M328.09,179.48a4.81,4.81,0,0,1,4.28,4.87h0L329.51,249c-.12,7.64-11.29,11.93-19.46,11.74h0c-8.26-.19-8.53-4.24-8.63-11.51-.17-12.14-.16-16.69-.16-16.62s-10.43-1.76-12.57-15.38c-1.06-6.77-.69-17.87-.1-26.95.53-8.16,6-18.17,14.1-17.3Z"/><path class="cls-5" d="M291.59,199.12a1.73,1.73,0,0,0,1.68,1.76,1.67,1.67,0,0,0,1.8-1.57,1.75,1.75,0,0,0-1.68-1.76A1.66,1.66,0,0,0,291.59,199.12Z"/><path class="cls-5" d="M291,196.08c.21.23,1.54-.75,3.42-.74s3.25,1,3.45.73-.12-.52-.72-1a4.83,4.83,0,0,0-2.76-.86,4.68,4.68,0,0,0-2.73.88C291.08,195.57,290.88,196,291,196.08Z"/><path class="cls-5" d="M310.32,199.12a1.73,1.73,0,0,0,1.67,1.76,1.68,1.68,0,0,0,1.81-1.57,1.75,1.75,0,0,0-1.68-1.76A1.66,1.66,0,0,0,310.32,199.12Z"/><path class="cls-5" d="M309.45,196.47c.22.23,1.55-.74,3.42-.73s3.26.95,3.46.72-.11-.52-.72-1a4.69,4.69,0,0,0-2.76-.86,4.61,4.61,0,0,0-2.73.87C309.55,196,309.35,196.37,309.45,196.47Z"/><path class="cls-5" d="M302.6,210.39a12.59,12.59,0,0,0-3.05-.55c-.48-.05-.93-.15-1-.48a2.48,2.48,0,0,1,.32-1.42c.46-1.16.93-2.38,1.43-3.65,2-5.2,3.42-9.47,3.21-9.55s-2,4.07-4,9.27l-1.37,3.67a2.81,2.81,0,0,0-.25,1.88,1.23,1.23,0,0,0,.79.71,3.13,3.13,0,0,0,.81.11A11.78,11.78,0,0,0,302.6,210.39Z"/><path class="cls-15" d="M301.26,232.63a34.61,34.61,0,0,0,18.24-4.83s-4.62,9.6-18.24,8.3Z"/><path class="cls-9" d="M303.39,214.92a3.39,3.39,0,0,1,3-1.25,3.13,3.13,0,0,1,2.13,1.15,2,2,0,0,1,.14,2.24,2.27,2.27,0,0,1-2.46.62,7.12,7.12,0,0,1-2.4-1.44,2.06,2.06,0,0,1-.54-.56.62.62,0,0,1,0-.69"/><path class="cls-5" d="M308.13,211.71c-.3,0-.31,2-2.06,3.46s-3.92,1.21-3.94,1.5c0,.13.49.4,1.4.42a5.06,5.06,0,0,0,3.29-1.13,4.46,4.46,0,0,0,1.6-2.91C308.5,212.2,308.27,211.69,308.13,211.71Z"/><path class="cls-5" d="M308.62,193.18c.18.51,2.06.28,4.26.55s4,.87,4.28.41c.13-.21-.18-.7-.9-1.19a7.44,7.44,0,0,0-6.51-.73C308.94,192.54,308.54,192.94,308.62,193.18Z"/><path class="cls-5" d="M291.69,190.65c.33.42,1.62,0,3.18,0s2.87.29,3.18-.16c.13-.21-.08-.64-.65-1.05a4.62,4.62,0,0,0-5.12.15C291.72,190,291.54,190.44,291.69,190.65Z"/><path class="cls-5" d="M319.15,175.06a13.21,13.21,0,0,1,10.8-2c3.63,1,6.64,4.31,6.76,8,.08,2.41-1,5,.11,7.13s3.52,2.91,5.29,4.4a8.14,8.14,0,0,1,1.89,9.83c-1.49,2.72-4.62,4.72-4.88,7.81-.25,2.9,2.2,5.34,2.79,8.19.66,3.15-1.08,6.4-3.58,8.49s-5.64,3.23-8.72,4.34c-2.41.86-5,1.74-7.48,1.18a7.66,7.66,0,0,1-5.6-6.39,10.42,10.42,0,0,1,2.84-8.22c1.75-1.92,4.2-3.56,4.62-6.1.65-4-4.06-7.22-3.77-11.22.15-2.06,1.6-3.77,2.81-5.46s2.27-3.83,1.53-5.77c-1-2.52-4.28-3.17-6.27-5a6.1,6.1,0,0,1-1.68-6.19,6.32,6.32,0,0,1,4.94-4.21"/><path class="cls-5" d="M320.62,172a9.32,9.32,0,0,1-11,9.19c-2.08-.38-4.36-1.43-6.16-.32s-2,4-3.65,5.48c-2.4,2.08-6.22.13-9.27,1-2.35.7-3.82,2.95-5.38,4.84s-3.91,3.69-6.26,3a27.53,27.53,0,0,1,.93-6.27,9.28,9.28,0,0,1,3.57-5.12,34.68,34.68,0,0,0,3-1.75c1.95-1.58,2.4-4.32,3.61-6.52a10.2,10.2,0,0,1,7.78-5.16c2.68-.28,5.44.53,8.05-.13,1.93-.49,3.61-1.74,5.57-2.11,3.8-.73,7.34,2,10.1,4.73"/><path class="cls-16" d="M345.49,204.53a3,3,0,0,0,.3-1.57,4,4,0,0,0-2.74-3.13,20.45,20.45,0,0,0-3-.8,8.87,8.87,0,0,1-3.39-1.4A4.78,4.78,0,0,1,334.9,194a38.75,38.75,0,0,1,.21-4.29,10.42,10.42,0,0,0-.1-2.1,4.45,4.45,0,0,0-.81-1.78,6.78,6.78,0,0,0-3.28-1.88,15.21,15.21,0,0,1-3.33-1.44,11.8,11.8,0,0,1-4.87-5.89,8.38,8.38,0,0,1-.35-1.19c-.06-.28-.08-.43-.06-.43s.18.57.6,1.54a12,12,0,0,0,2.48,3.7,12.27,12.27,0,0,0,5.69,3.25,7.16,7.16,0,0,1,3.52,2,4.86,4.86,0,0,1,.91,2,9.74,9.74,0,0,1,.12,2.22,39.21,39.21,0,0,0-.22,4.23,4.31,4.31,0,0,0,1.55,3.3,8.66,8.66,0,0,0,3.2,1.36,19,19,0,0,1,3,.88,4.79,4.79,0,0,1,2.11,1.59A3.57,3.57,0,0,1,346,203a2.42,2.42,0,0,1-.24,1.23A1,1,0,0,1,345.49,204.53Z"/><path class="cls-16" d="M265.29,213l-.22-.1a1.57,1.57,0,0,1-.51-.52,2.77,2.77,0,0,1,.27-2.69,3.71,3.71,0,0,1,1.46-1.39,17.8,17.8,0,0,1,2.19-.93,6.51,6.51,0,0,0,2.29-1.3,4.86,4.86,0,0,0,1.31-2.58c.23-1,.3-2.14.48-3.3a7.3,7.3,0,0,1,1.35-3.43c1.59-2.09,4.19-3.2,6.13-5.16a9.41,9.41,0,0,0,2.12-3.61,24.28,24.28,0,0,0,1-4.36c.42-3,.84-6.34,2.86-9.08a6.65,6.65,0,0,1,4.1-2.65,14.43,14.43,0,0,1,4.74.12,17.18,17.18,0,0,0,4.43.26,5.73,5.73,0,0,0,3.62-1.87c1.86-2,2.93-4.7,5.21-6.09a8.74,8.74,0,0,1,6.88-.94,7.62,7.62,0,0,1,4.53,3.52,8.54,8.54,0,0,1,1.18,4.2,7.42,7.42,0,0,1-.44,2.72,5,5,0,0,1-.4.87s.12-.31.3-.9a7.57,7.57,0,0,0,.33-2.69,8.44,8.44,0,0,0-1.22-4,7.36,7.36,0,0,0-4.38-3.32,8.34,8.34,0,0,0-6.54,1,9.33,9.33,0,0,0-2.63,2.71,30.49,30.49,0,0,1-2.47,3.34,6.2,6.2,0,0,1-3.9,2,17.46,17.46,0,0,1-4.56-.25,14.1,14.1,0,0,0-4.58-.11,6.1,6.1,0,0,0-3.79,2.46,12.52,12.52,0,0,0-1.94,4.27,42.13,42.13,0,0,0-.83,4.57,24.35,24.35,0,0,1-1,4.45,9.92,9.92,0,0,1-2.25,3.78c-2.05,2-4.63,3.12-6.12,5.08a6.72,6.72,0,0,0-1.3,3.24c-.19,1.13-.27,2.25-.52,3.31a5.27,5.27,0,0,1-1.44,2.75,7.08,7.08,0,0,1-2.42,1.33,18.83,18.83,0,0,0-2.17.87,3.37,3.37,0,0,0-1.4,1.28,2.64,2.64,0,0,0-.36,2.53A2.24,2.24,0,0,0,265.29,213Z"/><path class="cls-7" d="M256,304.55s14.87-39.14,33.19-48.64l11.87,20.73-25.41,47.74H226.07l5.81-17.61"/><path class="cls-10" d="M241.42,317.82a38.08,38.08,0,0,1,4.52-7.56,19.15,19.15,0,0,1-2,3.92A18.72,18.72,0,0,1,241.42,317.82Z"/><path class="cls-10" d="M258.53,317.35a37.11,37.11,0,0,1-5.49-6.84,19.13,19.13,0,0,1,3,3.25A18,18,0,0,1,258.53,317.35Z"/><path class="cls-10" d="M261.51,308.37a18.69,18.69,0,0,1,0-6.33,19.39,19.39,0,0,1,0,6.33Z"/><path class="cls-10" d="M253,322.37a6.66,6.66,0,0,1-2.31-1.2c-1.2-.78-2.11-1.51-2-1.63a6.62,6.62,0,0,1,2.31,1.19A6.93,6.93,0,0,1,253,322.37Z"/><path class="cls-10" d="M266.87,286.38a41.69,41.69,0,0,1-3.81,8.51,42.35,42.35,0,0,1,3.81-8.51Z"/><path class="cls-10" d="M276.66,270.52c.09.12-.78.92-1.93,1.79a6.66,6.66,0,0,1-2.24,1.37c-.09-.11.78-.91,1.93-1.79A6.87,6.87,0,0,1,276.66,270.52Z"/><path class="cls-7" d="M312.79,321.28,325.24,271a17.12,17.12,0,0,1,19.65-12.73h0a17.1,17.1,0,0,1,13.87,19.46l-7.62,49.17a24.61,24.61,0,0,1-20.41,19.9l-9.9,1.55Z"/><path class="cls-5" d="M352,255a11.22,11.22,0,0,0-4.44-2.24,12,12,0,0,0-5.36,0,14.57,14.57,0,0,0-5.83,3c-3.65,3.06-5.64,7-7,9.82-.67,1.42-1.17,2.58-1.54,3.38a7.74,7.74,0,0,1-.6,1.22,5.88,5.88,0,0,1,.42-1.3c.3-.82.76-2,1.39-3.45a36.13,36.13,0,0,1,2.56-4.91,21.71,21.71,0,0,1,4.43-5.16,14.66,14.66,0,0,1,6.05-3.11,11.85,11.85,0,0,1,5.56.08,9.32,9.32,0,0,1,3.37,1.63,6.5,6.5,0,0,1,.76.68C352,254.89,352.05,255,352,255Z"/><path class="cls-5" d="M281.47,266.32s-.1.17-.34.46l-1.07,1.28c-.92,1.11-2.24,2.73-3.74,4.83a51.39,51.39,0,0,0-8.5,18.05c-1.74,7.67-1.82,14.85-2.12,20-.12,2.58-.24,4.67-.35,6.11l-.15,1.66a2.14,2.14,0,0,1-.09.57,2.59,2.59,0,0,1,0-.58c0-.44,0-1,.05-1.66.05-1.52.11-3.59.19-6.12.21-5.14.23-12.35,2-20.1A49.68,49.68,0,0,1,276,272.67c1.54-2.08,2.91-3.67,3.88-4.74.48-.54.87-.94,1.14-1.22A2.39,2.39,0,0,1,281.47,266.32Z"/><path class="cls-7" d="M361.3,266.21c-1.37-9-6.34-11.16-11.49-14-1.68-.91-9.79-3-16.22-4.56-.61-3.9-1.71-10.87-1.95-12.35-.34-2.06-32.76,3.11-33.17,3.88-.27.52-1,8.6-1.49,14l-7.76,2.71-10.13,12.88-5.27,7.49a40.19,40.19,0,0,0-6.53,14.37,78.31,78.31,0,0,0-1.46,17.42l-1.56,33,67.82,19.18,5.25-33.46L354.84,303C356.33,293.37,363,277.27,361.3,266.21Z"/><path class="cls-5" d="M303.41,254.24A10.39,10.39,0,0,1,303,252c-.22-1.43-.47-3.4-.73-5.58-.11-1.08-.23-2.1-.33-3.07a20.57,20.57,0,0,1-.18-2.55,3.12,3.12,0,0,1,.48-1.69c.26-.34.49-.43.5-.41s-.14.19-.33.52a3.21,3.21,0,0,0-.28,1.59c0,.69.17,1.54.29,2.48s.24,2,.37,3.07c.25,2.18.45,4.16.57,5.59A10.72,10.72,0,0,1,303.41,254.24Z"/><path class="cls-5" d="M312.06,252.19a7.31,7.31,0,0,1-.73-2.09,33.14,33.14,0,0,1-.91-5.27,33.72,33.72,0,0,1-.07-5.35,8,8,0,0,1,.33-2.2c.16,0-.13,3.38.26,7.5S312.21,252.15,312.06,252.19Z"/><path class="cls-5" d="M328.15,249.86a33.57,33.57,0,0,0-.18-7.46,34.25,34.25,0,0,0-2.34-7.09,6.81,6.81,0,0,1,1.19,1.88,19,19,0,0,1,1.82,10.49A6.77,6.77,0,0,1,328.15,249.86Z"/><path class="cls-10" d="M282.09,279.27a31.46,31.46,0,0,1,6-7.93,32.77,32.77,0,0,1-2.87,4A31.24,31.24,0,0,1,282.09,279.27Z"/><path class="cls-10" d="M297.37,266.84a31.58,31.58,0,0,1-5-6.51,16.16,16.16,0,0,1,2.7,3.1A17.05,17.05,0,0,1,297.37,266.84Z"/><path class="cls-10" d="M313.34,259a31.49,31.49,0,0,1-3.19,3.22,30.06,30.06,0,0,1-3.31,3.11,23.5,23.5,0,0,1,6.5-6.33Z"/><path class="cls-10" d="M308.85,249.52a9.71,9.71,0,0,1-2.49-1.91,9.43,9.43,0,0,1-2.14-2.29,9.71,9.71,0,0,1,2.49,1.91A9.43,9.43,0,0,1,308.85,249.52Z"/><path class="cls-10" d="M322.84,242.06a23.92,23.92,0,0,1-6.84,1.46,12.21,12.21,0,0,1,3.37-1A12,12,0,0,1,322.84,242.06Z"/><path class="cls-10" d="M325.64,264.2a12.12,12.12,0,0,1-.44-3.48,11.88,11.88,0,0,1,.09-3.51,11.93,11.93,0,0,1,.43,3.48A11.7,11.7,0,0,1,325.64,264.2Z"/><path class="cls-10" d="M320.54,274.86a19.23,19.23,0,0,1-1.75-4.05,18.51,18.51,0,0,1-1.26-4.22,19,19,0,0,1,1.75,4A18.66,18.66,0,0,1,320.54,274.86Z"/><path class="cls-10" d="M306.69,282.36a20.13,20.13,0,0,1-1.93-4.23,21.21,21.21,0,0,1-1.44-4.42,20.44,20.44,0,0,1,1.93,4.23A21.21,21.21,0,0,1,306.69,282.36Z"/><path class="cls-10" d="M293.64,290.88a36.81,36.81,0,0,1-1.74-8.49,35.46,35.46,0,0,1,1.74,8.49Z"/><path class="cls-10" d="M278.15,291.22a17.71,17.71,0,0,1-2.1-3.71,18.18,18.18,0,0,1-1.63-3.93,17.14,17.14,0,0,1,2.1,3.7A17.35,17.35,0,0,1,278.15,291.22Z"/><path class="cls-10" d="M277.81,301.15a20.53,20.53,0,0,1-4.06,2.3,21.87,21.87,0,0,1-4.29,1.83,20.91,20.91,0,0,1,4.06-2.3A21.15,21.15,0,0,1,277.81,301.15Z"/><path class="cls-10" d="M278,316.87a17.56,17.56,0,0,1-2-7.5,22.92,22.92,0,0,1,1.09,3.73A23.3,23.3,0,0,1,278,316.87Z"/><path class="cls-10" d="M274.8,327.91a16.76,16.76,0,0,1-3.27-2.63,17.28,17.28,0,0,1-2.91-3,16.76,16.76,0,0,1,3.27,2.63A17.28,17.28,0,0,1,274.8,327.91Z"/><path class="cls-10" d="M295.22,320.38c0,.15-2.26.8-4.94,2s-4.73,2.42-4.81,2.29a21.08,21.08,0,0,1,9.75-4.27Z"/><path class="cls-10" d="M289.25,314.9a12.93,12.93,0,0,1-1.47-3.42,13.17,13.17,0,0,1-1-3.6,13.71,13.71,0,0,1,1.47,3.43A14,14,0,0,1,289.25,314.9Z"/><path class="cls-10" d="M301.36,301.38a30.18,30.18,0,0,1-2.74,4.83,29.1,29.1,0,0,1-3.18,4.56,30.18,30.18,0,0,1,2.74-4.83A29.7,29.7,0,0,1,301.36,301.38Z"/><path class="cls-10" d="M314.37,302.68a31.09,31.09,0,0,1-5.77-9.61,55.93,55.93,0,0,1,2.89,4.8C313.08,300.52,314.49,302.59,314.37,302.68Z"/><path class="cls-10" d="M322.17,289.84a10.37,10.37,0,0,1-3.81.67,10.22,10.22,0,0,1-3.86-.29,25,25,0,0,1,3.83-.23A24.39,24.39,0,0,1,322.17,289.84Z"/><path class="cls-10" d="M340.67,275.21a59.46,59.46,0,0,1-10,4.77,30,30,0,0,1,4.9-2.62A29.7,29.7,0,0,1,340.67,275.21Z"/><path class="cls-10" d="M341.9,265.9a20.12,20.12,0,0,1,1.76-4.12,19.74,19.74,0,0,1,2.22-3.89,19.47,19.47,0,0,1-1.76,4.12A18.83,18.83,0,0,1,341.9,265.9Z"/><path class="cls-10" d="M353.67,273.2a31.28,31.28,0,0,1-1.52-4.55,34,34,0,0,1-1.35-4.6,17,17,0,0,1,1.85,4.45A17.54,17.54,0,0,1,353.67,273.2Z"/><path class="cls-10" d="M355.51,282.88a23.28,23.28,0,0,1-9,2.31A36.4,36.4,0,0,1,351,284,34.62,34.62,0,0,1,355.51,282.88Z"/><path class="cls-10" d="M335.36,294.71c-.15,0,.28-2.47.4-5.5s-.09-5.49.07-5.51a22.49,22.49,0,0,1-.47,11Z"/><path class="cls-10" d="M331.34,306.87a16.77,16.77,0,0,1-3.66-3.58,16.47,16.47,0,0,1-2.84-4.25c.12-.09,1.45,1.77,3.24,3.92S331.44,306.76,331.34,306.87Z"/><path class="cls-10" d="M351.55,304.31a42.06,42.06,0,0,1-8.54,3.57,20.26,20.26,0,0,1,4.17-2A21.13,21.13,0,0,1,351.55,304.31Z"/><path class="cls-10" d="M344.31,327.2a57.22,57.22,0,0,1,.11-11,59.43,59.43,0,0,1-.11,11Z"/><path class="cls-10" d="M328.79,325.89a32.16,32.16,0,0,1,2.77-11.06,54.78,54.78,0,0,1-1.37,5.53C329.42,323.41,328.94,325.91,328.79,325.89Z"/><path class="cls-10" d="M329.51,331.9c0,.15-2.49.38-5.53.89s-5.48,1.07-5.52.93a20.09,20.09,0,0,1,5.44-1.44A19.47,19.47,0,0,1,329.51,331.9Z"/><path class="cls-10" d="M312.35,328a19.49,19.49,0,0,1,3-3.44,20.13,20.13,0,0,1,3.34-3.08,20,20,0,0,1-3,3.44A20.59,20.59,0,0,1,312.35,328Z"/><path class="cls-10" d="M301.23,338.86a35.89,35.89,0,0,1-1.35-3.92,37.44,37.44,0,0,1-1.4-3.89,15.93,15.93,0,0,1,2.75,7.81Z"/><path class="cls-10" d="M319.17,345a57.66,57.66,0,0,1-9.82-4.36,27.59,27.59,0,0,1,5,1.94A26.7,26.7,0,0,1,319.17,345Z"/><path class="cls-10" d="M287.9,343.22a27.34,27.34,0,0,1,2.38-7.15,14.46,14.46,0,0,1-.94,3.66A13.71,13.71,0,0,1,287.9,343.22Z"/><path class="cls-10" d="M308.5,346.71c0,.15-2.87-.31-6.4-.49s-6.42,0-6.43-.19a31.09,31.09,0,0,1,12.83.68Z"/><path class="cls-5" d="M312.79,317.22s0-.13,0-.39a3.71,3.71,0,0,1,.16-1.14,2.45,2.45,0,0,1,1.09-1.48,3.43,3.43,0,0,1,2.44-.41l-.21.12c1.1-3.83,2.85-9.44,4.6-15.71,1.64-5.88,2.74-11.3,3.52-15.22l.91-4.65a10.25,10.25,0,0,1,.4-1.7,12.32,12.32,0,0,1-.2,1.73c-.16,1.11-.41,2.71-.75,4.69-.68,3.94-1.74,9.39-3.38,15.28-1.76,6.3-3.57,11.88-4.76,15.68l-.05.15-.16,0a3.24,3.24,0,0,0-2.22.3,2.34,2.34,0,0,0-1,1.31A13.52,13.52,0,0,0,312.79,317.22Z"/><path class="cls-5" d="M335.21,331.13c-.09,0-.7-1.31-2-3.33a34.37,34.37,0,0,0-13.61-12.37c-2.13-1.07-3.53-1.55-3.5-1.64a3.72,3.72,0,0,1,1,.26,22.77,22.77,0,0,1,2.65,1.05,31.17,31.17,0,0,1,13.76,12.51,23,23,0,0,1,1.3,2.54A4.52,4.52,0,0,1,335.21,331.13Z"/><g class="cls-17"><path d="M316.69,313.05A35.55,35.55,0,0,1,327.24,315c3.59,1.35,6.9,3.92,8.22,7.52a2.49,2.49,0,0,1-.18,2.6,1.86,1.86,0,0,1-1.9.3,5,5,0,0,1-1.65-1.13c-2.21-2-4.49-3.84-6.77-5.8s-5.58-4-8.55-4.48"/></g><path class="cls-5" d="M309.48,306.67a4.5,4.5,0,0,1-1,.61,18.85,18.85,0,0,1-3.08,1.16,20.54,20.54,0,0,1-20.13-5.23,18.39,18.39,0,0,1-2.13-2.51,4.09,4.09,0,0,1-.61-1,43.66,43.66,0,0,0,3,3.28,21.15,21.15,0,0,0,19.79,5.14A42.89,42.89,0,0,0,309.48,306.67Z"/><g class="cls-17"><path d="M283,300.44c1.68,3.66,3.66,7.34,6.85,9.8a11,11,0,0,0,6.32,2.65c3.34.05,6.2-2.22,8.75-4.38-8.25,1.29-17.55-2.45-21.92-8.07"/></g><path class="cls-5" d="M320,251.43c-.16,0,0-3.43-.38-7.62s-1.23-7.52-1.07-7.56a8.64,8.64,0,0,1,.69,2.14,38.3,38.3,0,0,1,1,10.8A8,8,0,0,1,320,251.43Z"/><path class="cls-7" d="M201.38,385.25s-10.87,2.35-20.57.9c-9.1-1.37-29.47.05-29.46,12,0,13.37,27.17,10.06,37.77,7.94s21.15-4,21.15-4Z"/><path class="cls-5" d="M177,402.39a45.75,45.75,0,0,1-2.12-9.43,22.61,22.61,0,0,1,1.31,4.66A22.37,22.37,0,0,1,177,402.39Z"/><path class="cls-5" d="M180.7,402.56a45,45,0,0,1-1.32-9.61,46.72,46.72,0,0,1,1.32,9.61Z"/><path class="cls-5" d="M184.28,401.16a16.84,16.84,0,0,1-.77-4.17,17.62,17.62,0,0,1-.25-4.23,17,17,0,0,1,.77,4.17A17.63,17.63,0,0,1,184.28,401.16Z"/><path class="cls-5" d="M189.9,399.76a14.36,14.36,0,0,1-1.8-7.4,27,27,0,0,1,.91,3.7A28.83,28.83,0,0,1,189.9,399.76Z"/><path class="cls-5" d="M191.1,394.87a4.82,4.82,0,0,1,1.42-.09,11.91,11.91,0,0,1,3.82.74,4.22,4.22,0,0,1,1.17.64,1.76,1.76,0,0,1,.74,1.32,2,2,0,0,1-2.46,1.79,5,5,0,0,1-2.84-2,8.64,8.64,0,0,1-1.6-3.34,8.48,8.48,0,0,1,1.19-6.93,1.4,1.4,0,0,1,.81-.48,1.06,1.06,0,0,1,.9.28,2.35,2.35,0,0,1,.68,1.46,7.36,7.36,0,0,1-.14,2.72,7.67,7.67,0,0,1-1.83,3.43,5.76,5.76,0,0,1-.8.7c-.19.14-.3.21-.31.19s.37-.34,1-1a7.88,7.88,0,0,0,1.62-3.37,7.35,7.35,0,0,0,.08-2.58,2,2,0,0,0-.56-1.17.69.69,0,0,0-1,.17,8.17,8.17,0,0,0-1.05,6.49,8.36,8.36,0,0,0,1.5,3.15,4.7,4.7,0,0,0,2.52,1.86,1.58,1.58,0,0,0,1.95-1.31,1.36,1.36,0,0,0-.56-1,4,4,0,0,0-1-.6,13.39,13.39,0,0,0-3.7-.89C191.61,394.9,191.1,394.91,191.1,394.87Z"/><path class="cls-5" d="M209.19,400.32s-.09,0-.27.09l-.82.2-3.15.72c-2.74.61-6.71,1.45-11.65,2.41s-10.85,2-17.46,2.93a47.45,47.45,0,0,1-10.49.52,22.54,22.54,0,0,1-5.5-1.05,15,15,0,0,1-2.63-1.17,8.07,8.07,0,0,1-2.32-1.87l0,0A5.59,5.59,0,0,1,154,402a7.08,7.08,0,0,1-.55-5.85,9.34,9.34,0,0,1,3.49-4.55,17.62,17.62,0,0,1,4.95-2.46c.87-.24,1.71-.54,2.57-.74s1.71-.4,2.56-.51c6.81-1.08,13-.53,18.15-.53,2.58.05,4.91,0,7-.15a43.68,43.68,0,0,0,5.2-.66l1.87-.39,1.35-.39.84-.22.29-.07-.27.12-.82.27-1.35.44-1.87.44a42.2,42.2,0,0,1-5.22.75c-2,.16-4.4.25-7,.23-5.16,0-11.35-.46-18.07.63-.84.12-1.67.35-2.52.52s-1.68.49-2.53.73a17.33,17.33,0,0,0-4.81,2.4,8.8,8.8,0,0,0-3.29,4.3,6.56,6.56,0,0,0,.5,5.42,5,5,0,0,0,.85,1v0l0,0a7.73,7.73,0,0,0,2.15,1.71,14.05,14.05,0,0,0,2.54,1.13,21.7,21.7,0,0,0,5.37,1,46.69,46.69,0,0,0,10.38-.48c6.61-.88,12.51-1.92,17.46-2.82s8.93-1.7,11.68-2.24l3.17-.63.83-.15Z"/><path class="cls-5" d="M169.45,406.76a17,17,0,0,1-.26-2.77c-.12-1.72-.33-4.08-.68-6.68s-.77-4.93-1.1-6.61a19.18,19.18,0,0,1-.48-2.75,12.36,12.36,0,0,1,.84,2.66,62,62,0,0,1,1.26,6.63,60.4,60.4,0,0,1,.53,6.73A12.19,12.19,0,0,1,169.45,406.76Z"/><polygon class="cls-18" points="198.04 385.83 204.92 403.08 210.27 402.09 200.03 385.25 198.04 385.83"/><path class="cls-5" d="M287.8,338.55c-1.11.37-72.29-19.58-101.07-27.67a27.35,27.35,0,0,0-22.26,3.37l-.34.22a27.36,27.36,0,0,0-11.78,29.16h0a27.31,27.31,0,0,0,12.34,17.11c19,11.63,59.15,36.09,60.38,35.62,1.61-.63,51.78-1.93,51.78-1.93L216.5,351l28.71,18.55,42.59-31Z"/><path class="cls-14" d="M228.37,316.89l15.13-7.83,14.84,9.31,55.55,1.81,8,27-80.4-18.63s-14.63,1.29-15.73-2S228.37,316.89,228.37,316.89Z"/><path class="cls-5" d="M273.88,360.23l-7.47,24.56.92,7.48h0A38.43,38.43,0,0,0,318,395.69h0a37.71,37.71,0,0,0,14.72-30L332.63,340Z"/><path class="cls-16" d="M229.35,360.39c-.09.12-8.77-6.21-19.39-14.13s-19.16-14.44-19.08-14.56,8.77,6.21,19.39,14.14S229.44,360.27,229.35,360.39Z"/><path class="cls-15" d="M242.48,314a60.17,60.17,0,0,1-7.4,2.64,57.43,57.43,0,0,1-7.56,2.15,59,59,0,0,1,7.4-2.64A58.39,58.39,0,0,1,242.48,314Z"/><path class="cls-15" d="M243.61,318.58a16.8,16.8,0,0,1-2.57.48c-1.6.26-3.79.65-6.19,1.2s-4.54,1.16-6.08,1.62a14.09,14.09,0,0,1-2.53.69,11.35,11.35,0,0,1,2.41-1,52.87,52.87,0,0,1,6.09-1.77A50.61,50.61,0,0,1,241,318.7,10.89,10.89,0,0,1,243.61,318.58Z"/><path class="cls-15" d="M242.35,322.81a71,71,0,0,1-8.34,1.92,67.21,67.21,0,0,1-8.43,1.4,71.82,71.82,0,0,1,8.33-1.91A70.48,70.48,0,0,1,242.35,322.81Z"/><path class="cls-16" d="M222.72,280.61l14,45.92a1.32,1.32,0,0,0,1.17.94l38,2.86a1.33,1.33,0,0,1,1.23,1.32V334a1.33,1.33,0,0,1-1.35,1.33l-104-2a1.31,1.31,0,0,1-1.21-.85l-18.29-47.9a1.33,1.33,0,0,1,1.18-1.8l67.92-3.18A1.33,1.33,0,0,1,222.72,280.61Z"/><path class="cls-1" d="M193.42,300.4a3.28,3.28,0,0,0-2,2.33,3.14,3.14,0,0,0,1.34,2.87,3.44,3.44,0,0,0,3.8.14,3.17,3.17,0,0,0,1-3.84c-.46-1.27-2.78-2.16-4.13-1.5"/><path class="cls-5" d="M210.27,402.09l-11-18.07,80.8-63.33a32.52,32.52,0,0,1,17.65-7.23h0a32.46,32.46,0,0,1,35.3,35l-1.29,15.45-53.63,17.24Z"/><path class="cls-16" d="M313.89,359.17a1.32,1.32,0,0,1-.21.2l-.67.55L310.44,362l-1.87,1.48c-.68.54-1.48,1-2.31,1.62l-2.69,1.84c-.47.33-1,.67-1.47,1l-1.6,1c-2.2,1.31-4.57,2.81-7.25,4.17-1.33.69-2.69,1.45-4.13,2.16l-4.46,2.12c-6.16,2.8-13.05,5.62-20.43,8.13-14.76,5.09-28.41,8.75-38.18,11.71-2.45.72-4.66,1.4-6.59,2s-3.61,1.12-5,1.58l-3.13,1-.82.25a.87.87,0,0,1-.28.07l.27-.12.8-.3,3.09-1.11c1.35-.49,3-1,4.94-1.66s4.13-1.33,6.57-2.08c9.76-3.05,23.38-6.77,38.12-11.85,7.37-2.5,14.25-5.3,20.39-8.08l4.47-2.09c1.43-.7,2.79-1.45,4.12-2.14,2.69-1.33,5.06-2.81,7.27-4.1l1.61-.95c.51-.32,1-.66,1.47-1l2.7-1.81c.84-.57,1.65-1.06,2.34-1.59l1.89-1.43,2.63-2,.69-.51Z"/><path class="cls-16" d="M315.85,367.63a3.45,3.45,0,0,1-.82.42c-.53.25-1.32.57-2.31.94a59.51,59.51,0,0,1-16.09,3.46c-1.06.07-1.91.1-2.5.09a3.06,3.06,0,0,1-.92-.05,29.64,29.64,0,0,1,3.38-.41c2.09-.23,5-.64,8.09-1.31a81,81,0,0,0,7.92-2.13A29.55,29.55,0,0,1,315.85,367.63Z"/><path class="cls-16" d="M276.85,323.73c.09.11-17.21,13.7-38.62,30.35S199.37,384.13,199.28,384s17.2-13.7,38.63-30.36S276.76,323.61,276.85,323.73Z"/><path class="cls-7" d="M272.18,390.93c-3.88-2.07-8.23-.85-11.94.4-2.46.83-5,2.15-7.54,1.45-1.81-.51-3.16-2-4.54-3.26A28.57,28.57,0,0,0,227.27,382a8.49,8.49,0,0,0-5.74,2.59c-3.8,4.12-.93,9.49,2.47,13a37.61,37.61,0,0,0,22.71,11c7.09.74,16.84-.24,24-3.31,4.43-1.9,6.71-7.13,4.38-11.35A7.26,7.26,0,0,0,272.18,390.93Z"/><g class="cls-19"><path d="M272.17,394.23c-3.88-2.07-8.23-.85-11.93.4-2.47.83-5,2.15-7.55,1.45-1.81-.51-3.16-2-4.54-3.26a28.57,28.57,0,0,0-20.89-7.48,8.45,8.45,0,0,0-5.73,2.59,6.49,6.49,0,0,0-1.6,2.89,15.07,15.07,0,0,0,4.06,6.77,37.61,37.61,0,0,0,22.72,11c7.08.74,16.83-.24,24-3.31a8.8,8.8,0,0,0,5.12-6.1,7.57,7.57,0,0,0-.74-2A7.24,7.24,0,0,0,272.17,394.23Z"/></g><path class="cls-5" d="M275.85,399.13a7.15,7.15,0,0,0-1-2.3,7.59,7.59,0,0,0-2.08-2,8.2,8.2,0,0,0-3.56-1.37c-2.88-.34-6.21.88-9.92,1.88-1.83.48-3.83,1.22-6,.95a7.92,7.92,0,0,1-3.09-1.07,19.23,19.23,0,0,1-2.67-2,28,28,0,0,0-10.6-6.3,28.65,28.65,0,0,0-5.27-1.22,16.78,16.78,0,0,0-4.69,0,10.22,10.22,0,0,0-3.63,1.27,9.21,9.21,0,0,0-2.22,1.88,20.64,20.64,0,0,0-1.43,2.07,8,8,0,0,1,1.27-2.2,9.32,9.32,0,0,1,2.23-2,10.34,10.34,0,0,1,3.72-1.38,17,17,0,0,1,4.8,0,27.28,27.28,0,0,1,5.38,1.2,30.68,30.68,0,0,1,5.56,2.46,23.61,23.61,0,0,1,2.71,1.76c.86.67,1.68,1.42,2.51,2.14a19.51,19.51,0,0,0,2.59,1.95,7.34,7.34,0,0,0,2.9,1c2,.27,4-.42,5.83-.91,3.68-1,7.08-2.17,10.08-1.77a8.37,8.37,0,0,1,5.77,3.64,5.42,5.42,0,0,1,.71,1.75A2.53,2.53,0,0,1,275.85,399.13Z"/><path class="cls-5" d="M275.85,399.13a7.15,7.15,0,0,0-1-2.3,7.59,7.59,0,0,0-2.08-2,8.2,8.2,0,0,0-3.56-1.37c-2.88-.34-6.21.88-9.92,1.88-1.83.48-3.83,1.22-6,.95a7.92,7.92,0,0,1-3.09-1.07,19.23,19.23,0,0,1-2.67-2,28,28,0,0,0-10.6-6.3,28.65,28.65,0,0,0-5.27-1.22,16.78,16.78,0,0,0-4.69,0,10.22,10.22,0,0,0-3.63,1.27,9.21,9.21,0,0,0-2.22,1.88,20.64,20.64,0,0,0-1.43,2.07,8,8,0,0,1,1.27-2.2,9.32,9.32,0,0,1,2.23-2,10.34,10.34,0,0,1,3.72-1.38,17,17,0,0,1,4.8,0,27.28,27.28,0,0,1,5.38,1.2,30.68,30.68,0,0,1,5.56,2.46,23.61,23.61,0,0,1,2.71,1.76c.86.67,1.68,1.42,2.51,2.14a19.51,19.51,0,0,0,2.59,1.95,7.34,7.34,0,0,0,2.9,1c2,.27,4-.42,5.83-.91,3.68-1,7.08-2.17,10.08-1.77a8.37,8.37,0,0,1,5.77,3.64,5.42,5.42,0,0,1,.71,1.75A2.53,2.53,0,0,1,275.85,399.13Z"/><path class="cls-5" d="M227.78,398.2a9.69,9.69,0,0,1,2-1.38,57.39,57.39,0,0,1,5.14-2.74,53.75,53.75,0,0,1,5.38-2.2,10.29,10.29,0,0,1,2.33-.66,12,12,0,0,1-2.2,1c-1.36.57-3.25,1.37-5.29,2.33s-3.87,1.9-5.18,2.59A13.43,13.43,0,0,1,227.78,398.2Z"/><path class="cls-5" d="M229.11,402.07a70.24,70.24,0,0,1,7.57-3.94,68.32,68.32,0,0,1,7.79-3.48,71.21,71.21,0,0,1-7.57,3.94A68.32,68.32,0,0,1,229.11,402.07Z"/><path class="cls-5" d="M245.16,403.76c-.07.12-4.2-2.35-9.22-5.51s-9-5.82-8.95-5.94,4.21,2.34,9.23,5.5A105.14,105.14,0,0,1,245.16,403.76Z"/><path class="cls-5" d="M247.49,399.73a11.38,11.38,0,0,1-2-1.35c-1.22-.87-2.89-2.08-4.77-3.39s-3.6-2.44-4.85-3.27a12.56,12.56,0,0,1-2-1.42,10,10,0,0,1,2.17,1.11c1.3.75,3.06,1.85,4.95,3.16s3.53,2.57,4.69,3.52A11,11,0,0,1,247.49,399.73Z"/></g></g></svg>