<svg xmlns="http://www.w3.org/2000/svg" viewBox="0 0 355.85 438.75"><defs><style>.cls-1{fill:#e0e0e0;}.cls-2{fill:#ebebeb;}.cls-3{fill:#f5f5f5;}.cls-4{fill:#e8505b;}.cls-5{opacity:0.8;}.cls-16,.cls-6,.cls-9{fill:#fff;}.cls-7{fill:#009dff;}.cls-8{fill:#ffbe9d;}.cls-19,.cls-9{opacity:0.3;}.cls-10{fill:#263238;}.cls-11{fill:#fafafa;}.cls-12{fill:#455a64;}.cls-13{opacity:0.4;}.cls-14{fill:#152cff;}.cls-15,.cls-16{opacity:0.6;}.cls-17{fill:#eb996e;}.cls-18{opacity:0.2;}</style></defs><g id="Layer_2" data-name="Layer 2"><g id="Background_Complete" data-name="Background Complete"><path class="cls-1" d="M251.4,57.07h65.75s-5.81-10.58-22.74-9c-16.16,1.47-17-5.2-25.2-6S254.14,47.48,251.4,57.07Z"/><path class="cls-2" d="M79.54,230.89s-6.59,3.56,3,17.32,15.83,20.36,15.83,20.36,1.81,3.25-1,4.19-9.33.79-10.13,4.51,2.31,7,8.14,9.24,18.4,7.78,19.53,8.28,2.37,1.95.55,2.89-15.94,4.41-13.89,11,19.32,10.32,21.2,10.77,2.41,1.14,2.4,2.14-4.86,1.72-8.84,2.87-8.38,3.18-6.88,6.89,12.36,10.44,36.33,9.5l11.09-1.17,4.71-10.15c8.78-22.33,6-34.8,3-37.43s-6.38.86-8.78,4.23-4.67,7.72-5.61,7.4-1.44-1.05-1.24-3,2.37-19.45-3.19-23.56-13.47,8.09-15,9.49-2.46-.25-2.55-1.46-1.15-14.92-1.4-21.17-2.14-10.24-6-10.73-5.78,5.73-7.59,8.08-4.28-.42-4.28-.42-4.19-8.07-14-21.65S79.41,231,79.41,231"/><path class="cls-1" d="M157.79,342.21c-7.18-10-19.65-28-30.44-43.39s-20.57-29.3-27.7-39.34c-3.57-5-6.46-9.06-8.46-11.88l-2.3-3.23-.59-.85-.19-.29.22.27.61.83,2.36,3.19c2,2.78,5,6.81,8.55,11.82,7.18,10,17,23.9,27.78,39.28S150.86,332,158,342.07"/><path class="cls-1" d="M96.34,277.83a2.82,2.82,0,0,1,.8.11c.51.09,1.24.24,2.14.43,1.81.4,4.3,1,7,1.73l7,1.87,2.12.55a4.42,4.42,0,0,1,.77.23,3,3,0,0,1-.8-.1c-.51-.09-1.25-.24-2.15-.45-1.81-.41-4.28-1.05-7-1.77l-7-1.82-2.12-.54A4.46,4.46,0,0,1,96.34,277.83Z"/><path class="cls-1" d="M116.83,281.94c-.09,0,.94-5.19,2.3-11.56s2.54-11.51,2.64-11.49-.94,5.2-2.3,11.56S116.93,282,116.83,281.94Z"/><path class="cls-1" d="M132.33,306.32a4.17,4.17,0,0,1,.36-.74l1.06-2c.89-1.66,2.12-4,3.37-6.55s2.33-5,3.08-6.7c.36-.81.66-1.5.9-2.05a4,4,0,0,1,.36-.74,3,3,0,0,1-.24.79c-.17.5-.44,1.22-.79,2.09-.7,1.76-1.73,4.16-3,6.76s-2.52,4.89-3.47,6.52c-.47.82-.87,1.47-1.15,1.92S132.36,306.34,132.33,306.32Z"/><path class="cls-1" d="M113,306.68a4,4,0,0,1,.76-.09l2.06-.12c1.75-.09,4.16-.18,6.82-.26s5.07-.14,6.82-.17h2.06a2.87,2.87,0,0,1,.76.05,4,4,0,0,1-.75.09l-2.07.12c-1.74.08-4.15.18-6.81.26s-5.07.14-6.82.16h-2.07A3.34,3.34,0,0,1,113,306.68Z"/><path class="cls-1" d="M123.92,329.94a6.15,6.15,0,0,1,1-.11l2.65-.16c2.23-.12,5.32-.27,8.73-.41s6.5-.24,8.73-.3l2.65,0a5.59,5.59,0,0,1,1,0,4.59,4.59,0,0,1-1,.11l-2.65.16c-2.23.13-5.32.27-8.73.41s-6.5.25-8.73.31l-2.65.05A5,5,0,0,1,123.92,329.94Z"/><path class="cls-1" d="M148,328.79a6.17,6.17,0,0,1,.42-1l1.26-2.55c1-2.14,2.5-5.12,4-8.45s2.8-6.37,3.72-8.58l1.08-2.62a6,6,0,0,1,.44-.95,6.58,6.58,0,0,1-.31,1c-.22.63-.55,1.54-1,2.66-.86,2.24-2.11,5.3-3.63,8.64s-3,6.29-4.11,8.42c-.55,1.06-1,1.91-1.35,2.49A6,6,0,0,1,148,328.79Z"/><path class="cls-3" d="M241,181.21c-11.9-13.34-10.76-32.61-6.25-49.11.75-2.75,1.14-5.75,3-7.88s5.38-3,7.58-1.29c1.84,1.46,2.17,4.07,2.85,6.32a16.69,16.69,0,0,0,5,7.76c1.55,1.34,3.6,2.42,5.58,1.87,2.7-.76,3.77-4,4.41-6.76q1.77-7.74,3.56-15.46a26.26,26.26,0,0,1,2.77-8c1.48-2.41,4-4.4,6.76-4.51s5.69,2.17,5.6,5a26,26,0,0,1-.73,3.46,3,3,0,0,0,1,3.14c1,.58,2.31.06,3.33-.55,3.51-2.12,6.29-5.25,8.95-8.39s5.27-6.39,8.58-8.81,7.45-4,11.46-3.28,7.64,4.15,7.72,8.27-3.13,7.54-6.34,10.1a63.41,63.41,0,0,1-15.73,9.2,5.19,5.19,0,0,0-2.7,1.8c-1,1.69.28,3.94,1.95,5,1.9,1.17,4.18,1.49,6.27,2.25s4.2,2.27,4.54,4.5c.46,3.09-2.6,5.49-5.38,6.87A54.18,54.18,0,0,1,287.16,148c-2.21.26-4.5.41-6.48,1.45s-3.55,3.28-3,5.46,2.92,3.41,5.14,3.52,4.4-.6,6.61-.88c4.13-.53,9,.89,10.62,4.74a9,9,0,0,1-.9,7.95,20.64,20.64,0,0,1-5.8,5.83,54.44,54.44,0,0,1-26.44,10.56c-9.53,1-17.88-.14-25.87-5.41"/><path class="cls-1" d="M243.43,182.82c2.17-6.45-.1-3.21,4.35-11a256.22,256.22,0,0,1,16.13-24.31l4.56-6.15c1.5-2,3-4,4.56-5.88a127,127,0,0,1,9.67-10.21c3.23-3.1,6.41-5.92,9.4-8.54s5.85-5,8.53-7A100.91,100.91,0,0,1,314,100.89c1.65-.9,3-1.57,3.85-2l1-.49a1.5,1.5,0,0,1,.36-.15l-.33.19-1,.54c-.87.47-2.16,1.16-3.8,2.09A106.62,106.62,0,0,0,300.85,110c-2.66,2.07-5.48,4.46-8.46,7.08s-6.15,5.46-9.36,8.56a127.7,127.7,0,0,0-9.61,10.19c-1.56,1.86-3,3.84-4.54,5.86s-3,4.08-4.55,6.16a262.18,262.18,0,0,0-16.13,24.24c-4.46,7.76-2.22,4.48-4.42,10.89"/><path class="cls-1" d="M273.18,135.47a6.19,6.19,0,0,1,0-1.24c0-.8.13-1.95.26-3.37.26-2.84.75-6.75,1.31-11.07s1-8.22,1.22-11.05c.11-1.42.19-2.57.24-3.37a5.41,5.41,0,0,1,.13-1.23,6.09,6.09,0,0,1,.07,1.24c0,.8,0,2-.07,3.38-.13,2.85-.51,6.78-1.07,11.1s-1.07,8.1-1.46,11c-.17,1.33-.31,2.45-.43,3.35A5.29,5.29,0,0,1,273.18,135.47Z"/><path class="cls-1" d="M310.25,137.24a7,7,0,0,1-1.45-.16c-.93-.14-2.28-.34-3.95-.53-3.33-.42-8-.84-13.08-1.08s-9.78-.24-13.14-.15c-1.68,0-3,.1-4,.14a7.6,7.6,0,0,1-1.47,0,7.91,7.91,0,0,1,1.45-.22c.94-.1,2.3-.22,4-.3,3.37-.19,8-.24,13.17,0a127.45,127.45,0,0,1,13.11,1.24c1.67.24,3,.5,3.93.7A8.62,8.62,0,0,1,310.25,137.24Z"/><path class="cls-1" d="M248.38,171.25a1.57,1.57,0,0,1-.15-.49l-.3-1.42c-.26-1.25-.58-3.05-1-5.29-.75-4.47-1.59-10.68-2.43-17.55s-1.62-13.07-2.27-17.55c-.33-2.18-.59-4-.79-5.31-.09-.58-.15-1-.21-1.45a2,2,0,0,1,0-.51,1.7,1.7,0,0,1,.14.49c.08.39.18.86.31,1.43.25,1.24.58,3.05.95,5.29.75,4.47,1.59,10.68,2.43,17.55s1.62,13.07,2.27,17.55c.33,2.18.59,4,.79,5.31.08.58.15,1,.21,1.44A2.81,2.81,0,0,1,248.38,171.25Z"/><path class="cls-1" d="M299.15,167.22a1.88,1.88,0,0,1-.52.09l-1.47.13-5.44.44c-4.6.38-10.93,1-17.94,1.62s-13.35,1.19-17.95,1.47c-2.3.14-4.16.23-5.45.27l-1.49,0a1.71,1.71,0,0,1-.51,0,2.92,2.92,0,0,1,.51-.08l1.48-.13,5.44-.44c4.59-.38,10.93-1,17.93-1.62s13.35-1.19,17.95-1.47c2.3-.14,4.17-.23,5.45-.27l1.49,0A3,3,0,0,1,299.15,167.22Z"/><path class="cls-1" d="M338.53,269a3.36,3.36,0,0,1-.17.46c-.13.34-.31.78-.54,1.34l-2.14,5L328,293.65l-.05.11-.12,0-24.22,4-8.11,1.33-.37.06.09-.37,5.33-21.05.12.23-14.24-6.36-3.92-1.79-1-.48-.34-.18a1.61,1.61,0,0,1,.37.12l1.05.43,4,1.69,14.3,6.2.16.07-.05.17c-1.52,6.1-3.3,13.28-5.25,21.07l-.27-.3,8.11-1.33,24.23-3.94-.16.12,7.87-17.75c.95-2.12,1.71-3.79,2.24-5l.61-1.31A2.22,2.22,0,0,1,338.53,269Z"/><polygon class="cls-1" points="298.31 296.25 297.65 297.99 298.71 299.52 296.85 299.43 295.72 300.91 295.23 299.11 293.47 298.5 295.03 297.48 295.07 295.61 296.53 296.78 298.31 296.25"/><polygon class="cls-1" points="281.68 267.99 281.35 268.86 281.88 269.62 280.96 269.58 280.39 270.31 280.15 269.42 279.27 269.11 280.05 268.6 280.07 267.68 280.8 268.26 281.68 267.99"/><polygon class="cls-1" points="328.65 292.56 328.32 293.43 328.85 294.19 327.93 294.14 327.36 294.88 327.12 293.99 326.25 293.68 327.02 293.17 327.04 292.24 327.77 292.82 328.65 292.56"/><polygon class="cls-1" points="301.55 276.96 301.22 277.83 301.75 278.59 300.82 278.55 300.26 279.28 300.02 278.39 299.14 278.08 299.92 277.57 299.94 276.65 300.66 277.23 301.55 276.96"/><polygon class="cls-1" points="339.66 268.13 339.33 269 339.86 269.76 338.93 269.71 338.37 270.45 338.13 269.56 337.25 269.25 338.02 268.74 338.05 267.81 338.77 268.39 339.66 268.13"/><path class="cls-1" d="M36.56,340.9H88.91s-4.63-8.42-18.1-7.2c-12.87,1.17-13.53-4.14-20.07-4.8S38.74,333.27,36.56,340.9Z"/><path class="cls-3" d="M47,134.79H99.31s-4.63-8.43-18.11-7.2c-12.87,1.17-13.52-4.15-20.07-4.8S49.14,127.15,47,134.79Z"/><path class="cls-3" d="M312.84,171.19h43S352,164.27,341,165.28c-10.57,1-11.11-3.41-16.48-3.95S314.63,164.92,312.84,171.19Z"/></g><g id="Pencil"><path class="cls-4" d="M227,256.09c2.14-16.12-9.2-29.42-23.36-37.41S173,208,157.37,203.57c-14.75-4.19-29.42-10.3-40.35-21.06s-17.47-26.94-13.55-41.76c1-3.72,2.75-7.46,6-9.61s8.07-2.09,10.46.93c5.07,6.44-4.82,18,1.37,23.35,1.43,1.23,3.38,1.68,4.85,2.86,3.92,3.12,2.65,9.19,3.21,14.17,1.09,9.85,10.32,16.69,19.4,20.68,12.14,5.35,25.3,7.86,38.19,11s25.88,7.15,36.62,15,20,20,20,33.28c0,3.71-.49,8.27-2.82,11.16s-5.29,3.48-8.65,1.9-5.7-4-5.08-9.37"/><g class="cls-5"><path class="cls-6" d="M227,256.09c2.14-16.12-9.2-29.42-23.36-37.41S173,208,157.37,203.57c-14.75-4.19-29.42-10.3-40.35-21.06s-17.47-26.94-13.55-41.76c1-3.72,2.75-7.46,6-9.61s8.07-2.09,10.46.93c5.07,6.44-4.82,18,1.37,23.35,1.43,1.23,3.38,1.68,4.85,2.86,3.92,3.12,2.65,9.19,3.21,14.17,1.09,9.85,10.32,16.69,19.4,20.68,12.14,5.35,25.3,7.86,38.19,11s25.88,7.15,36.62,15,20,20,20,33.28c0,3.71-.49,8.27-2.82,11.16s-5.29,3.48-8.65,1.9-5.7-4-5.08-9.37"/></g><path class="cls-4" d="M158.45,128c-.51-6,3.93-11.17,9-14s10.85-3.92,16.07-6.39c13-6.14,21.18-20.58,21.79-35.4s-5.82-29.63-15.87-40.51c-4.08-4.42-9.1-9-9.16-15.09-.07-6.29,6-11.25,12.14-11.17s11.72,4.16,15.37,9.29S213.45,26,215.42,32c-1.41-2.51,1.47-5.62,4.24-5.36s5,2.58,6.67,4.89a52,52,0,0,1,10,34.84,49,49,0,0,1-15.5,31.94c-9.86,9-22.92,13.22-35.57,17.21l-26.42,8.33"/><g class="cls-5"><path class="cls-6" d="M158.45,128c-.51-6,3.93-11.17,9-14s10.85-3.92,16.07-6.39c13-6.14,21.18-20.58,21.79-35.4s-5.82-29.63-15.87-40.51c-4.08-4.42-9.1-9-9.16-15.09-.07-6.29,6-11.25,12.14-11.17s11.72,4.16,15.37,9.29S213.45,26,215.42,32c-1.41-2.51,1.47-5.62,4.24-5.36s5,2.58,6.67,4.89a52,52,0,0,1,10,34.84,49,49,0,0,1-15.5,31.94c-9.86,9-22.92,13.22-35.57,17.21l-26.42,8.33"/></g><path class="cls-4" d="M151.1,2.52A5.79,5.79,0,0,0,148,9.61,5.8,5.8,0,0,0,155,13a5.8,5.8,0,0,0,3.68-6.8,5.8,5.8,0,0,0-6.64-4"/><g class="cls-5"><path class="cls-6" d="M151.1,2.52A5.79,5.79,0,0,0,148,9.61,5.8,5.8,0,0,0,155,13a5.8,5.8,0,0,0,3.68-6.8,5.8,5.8,0,0,0-6.64-4"/></g><path class="cls-4" d="M183.67,387.83c-3.24-6.71-.42-15.08,4.74-20.46s12.21-8.45,19-11.45c15.05-6.63,31-14.53,38.65-29.1,2.58-4.91,4-10.31,5.5-15.66,2.81-10.37,5.45-22.14-.2-31.27-1.63-2.62-4.07-5-7.12-5.5-3.46-.62-7,1.29-9.15,4.09s-3.05,6.33-3.49,9.82c-.84,6.64-.15,13.39-.85,20s-3.13,13.61-8.62,17.44c-6.66,4.64-16.17,3.6-22.64,8.51-5.23,4-7.22,10.84-11.31,16-3.43,4.31-8.24,7.26-12.64,10.57s-8.67,7.37-10.16,12.67a15,15,0,0,0,20.89,17.63"/><g class="cls-5"><path class="cls-6" d="M183.67,387.83c-3.24-6.71-.42-15.08,4.74-20.46s12.21-8.45,19-11.45c15.05-6.63,31-14.53,38.65-29.1,2.58-4.91,4-10.31,5.5-15.66,2.81-10.37,5.45-22.14-.2-31.27-1.63-2.62-4.07-5-7.12-5.5-3.46-.62-7,1.29-9.15,4.09s-3.05,6.33-3.49,9.82c-.84,6.64-.15,13.39-.85,20s-3.13,13.61-8.62,17.44c-6.66,4.64-16.17,3.6-22.64,8.51-5.23,4-7.22,10.84-11.31,16-3.43,4.31-8.24,7.26-12.64,10.57s-8.67,7.37-10.16,12.67a15,15,0,0,0,20.89,17.63"/></g><path class="cls-4" d="M83.54,48.85a21.22,21.22,0,0,1-8.42-17.11,21.19,21.19,0,0,1,9-16.79c3.07-2.12,6.72-3.41,9.45-5.95,2.43-2.26,4-5.4,6.74-7.3A10.08,10.08,0,0,1,111.9,2,10.09,10.09,0,0,1,115.18,13c-1.26,3.51-4.41,6.08-5.72,9.57-1.42,3.75-.51,8-1,11.93A16.47,16.47,0,0,1,86.35,47.81"/><g class="cls-5"><path class="cls-6" d="M83.54,48.85a21.22,21.22,0,0,1-8.42-17.11,21.19,21.19,0,0,1,9-16.79c3.07-2.12,6.72-3.41,9.45-5.95,2.43-2.26,4-5.4,6.74-7.3A10.08,10.08,0,0,1,111.9,2,10.09,10.09,0,0,1,115.18,13c-1.26,3.51-4.41,6.08-5.72,9.57-1.42,3.75-.51,8-1,11.93A16.47,16.47,0,0,1,86.35,47.81"/></g><path class="cls-7" d="M83.93,27.41H96.22a0,0,0,0,1,0,0V52.74a5.41,5.41,0,0,1-5.41,5.41H89.34a5.41,5.41,0,0,1-5.41-5.41V27.41A0,0,0,0,1,83.93,27.41Z"/><polygon class="cls-8" points="83.93 27.41 90.07 16.14 96.22 27.41 83.93 27.41"/><path class="cls-7" d="M87.64,20.6s1.86,2.81,4.87,0l-2.44-4.46Z"/><line class="cls-9" x1="85.75" y1="27.41" x2="88.39" y2="27.41"/><path class="cls-10" d="M96.39,51.51a39,39,0,0,1-6.25.25,39,39,0,0,1-6.25-.25,39,39,0,0,1,6.25-.25A39,39,0,0,1,96.39,51.51Z"/><path class="cls-10" d="M96.26,49.63a38.8,38.8,0,0,1-6.12.25A38.8,38.8,0,0,1,84,49.63a37.41,37.41,0,0,1,6.12-.25A37.41,37.41,0,0,1,96.26,49.63Z"/><path class="cls-11" d="M87.54,27.59c.13,0,.24,4.91.24,11s-.11,11-.24,11-.25-4.9-.25-11S87.4,27.59,87.54,27.59Z"/><path class="cls-11" d="M92.51,27.59c.13,0,.25,4.91.25,11s-.12,11-.25,11-.25-4.9-.25-11S92.37,27.59,92.51,27.59Z"/></g><g id="Notebook"><polygon class="cls-10" points="190.7 373.71 246.54 376.1 247.88 379.35 211.29 438.75 145.23 436.82 190.7 373.71"/><polygon class="cls-1" points="142.72 431.03 209.18 434.83 243.9 380.96 219.52 382.94 157.83 404.67 142.72 431.03"/><path class="cls-2" d="M133.39,427l61,1c-2.54-7.8,3.44-18.8,11.65-22.5,5.43-2.45,15.67-5.63,21-8.34,10-5.14,19.1-14.89,18.3-23.25l-25.06-.8-32-1.24c-2.68,7.94-8.4,13.14-17.1,16.27-7.78,2.79-16.64,2.79-24.24,6-12.22,5.12-18.09,21.7-13.54,32.93"/><path class="cls-10" d="M133.39,427s-.06-.13-.15-.39l-.42-1.18a12.63,12.63,0,0,1-.52-2,20.07,20.07,0,0,1-.42-2.78,27.69,27.69,0,0,1,.48-7.75,28.8,28.8,0,0,1,3.92-9.69,22.05,22.05,0,0,1,1.75-2.45c.33-.4.64-.82,1-1.21l1.13-1.14a10.72,10.72,0,0,1,1.22-1.1c.43-.34.85-.72,1.31-1.05a21.76,21.76,0,0,1,3-1.77c4.23-2.13,9.28-3,14.54-4,2.64-.48,5.35-1,8.08-1.73a37.71,37.71,0,0,0,8-3.24,25.3,25.3,0,0,0,3.76-2.46,22,22,0,0,0,3.33-3.15,23.94,23.94,0,0,0,4.64-8.18l0-.16h.18l26.65,1c9.24.36,18.82.61,28.61.94l1.79.06h.22l0,.21a13.51,13.51,0,0,1-.81,5.65,22.82,22.82,0,0,1-1.11,2.6c-.48.81-.92,1.64-1.46,2.4a37.56,37.56,0,0,1-7.56,8,44.9,44.9,0,0,1-9.13,5.64c-3.22,1.44-6.48,2.62-9.67,3.8s-6.35,2.3-9.35,3.61a18,18,0,0,0-4.1,2.49,22.19,22.19,0,0,0-1.78,1.57,23.39,23.39,0,0,0-1.57,1.75,22.75,22.75,0,0,0-4.27,8,14.9,14.9,0,0,0-.15,8.54l.08.27h-.28L150,427.42l-12.31-.25-3.23-.08c-.73,0-1.1,0-1.1,0s.38,0,1.11,0l3.22,0,12.31.14,44.39.61-.19.27a15.31,15.31,0,0,1,.12-8.79,23,23,0,0,1,4.34-8.18c.47-.64,1.06-1.19,1.59-1.79a23.13,23.13,0,0,1,1.82-1.6,18.65,18.65,0,0,1,4.2-2.56c3-1.32,6.18-2.44,9.37-3.63s6.44-2.37,9.63-3.8a44.57,44.57,0,0,0,9-5.58,36.82,36.82,0,0,0,7.46-7.89c.54-.74,1-1.56,1.43-2.35a23.67,23.67,0,0,0,1.09-2.54,13.18,13.18,0,0,0,.78-5.43l.24.23-1.79-.06c-9.8-.33-19.37-.58-28.62-1l-26.65-1,.22-.15a24.58,24.58,0,0,1-4.73,8.33,22.73,22.73,0,0,1-3.4,3.19,27.23,27.23,0,0,1-3.82,2.5,38.21,38.21,0,0,1-8.14,3.25c-2.75.75-5.48,1.25-8.12,1.72-5.27.94-10.29,1.82-14.46,3.91a21.4,21.4,0,0,0-2.94,1.73c-.45.33-.86.69-1.29,1a9.61,9.61,0,0,0-1.21,1.08l-1.12,1.12c-.35.38-.66.8-1,1.19a24.2,24.2,0,0,0-1.75,2.42,28.85,28.85,0,0,0-3.94,9.58,28,28,0,0,0-.54,7.7,19.13,19.13,0,0,0,.38,2.77,14.8,14.8,0,0,0,.48,2c.17.51.29.9.38,1.18S133.39,427,133.39,427Z"/><path class="cls-10" d="M205.41,372.86s.08-.39.14-1.09a6.19,6.19,0,0,0-.48-2.88,5.92,5.92,0,0,0-2.89-3.09,6.58,6.58,0,0,0-8.85,3.39,7.31,7.31,0,0,0-.59,4.25,7.41,7.41,0,0,0,1,2.75c.38.59.66.87.63.9a2.7,2.7,0,0,1-.79-.79,6.94,6.94,0,0,1-1.23-2.8,7.6,7.6,0,0,1,.52-4.5,7.07,7.07,0,0,1,4-3.85,7,7,0,0,1,5.51.24,6.19,6.19,0,0,1,3,3.37,5.85,5.85,0,0,1,.34,3,4.29,4.29,0,0,1-.2.81C205.47,372.78,205.43,372.87,205.41,372.86Z"/><path class="cls-10" d="M215,372.86s.08-.39.13-1.09a6.06,6.06,0,0,0-.48-2.88,5.9,5.9,0,0,0-2.88-3.09,6.59,6.59,0,0,0-8.86,3.39,7.48,7.48,0,0,0-.59,4.25,7.23,7.23,0,0,0,1,2.75c.38.59.66.87.63.9a2.7,2.7,0,0,1-.79-.79,6.68,6.68,0,0,1-1.23-2.8,7.51,7.51,0,0,1,.51-4.5,7.07,7.07,0,0,1,4-3.85,7,7,0,0,1,5.52.24,6.17,6.17,0,0,1,3,3.37,6,6,0,0,1,.35,3,4.16,4.16,0,0,1-.21.81C215,372.78,215,372.87,215,372.86Z"/><path class="cls-10" d="M222.24,373.36s.06-.4.08-1.1a6.16,6.16,0,0,0-.65-2.85,5.89,5.89,0,0,0-3-2.92,6.64,6.64,0,0,0-5.15.11,6.72,6.72,0,0,0-3.5,3.78,7.29,7.29,0,0,0,.85,7c.41.57.71.83.68.86a2.55,2.55,0,0,1-.83-.74,6.88,6.88,0,0,1-1.39-2.73,7.51,7.51,0,0,1,.26-4.52,7.11,7.11,0,0,1,3.73-4.07,7,7,0,0,1,5.53-.07,6.18,6.18,0,0,1,3.19,3.19,6,6,0,0,1,.52,3,4.21,4.21,0,0,1-.16.82C222.29,373.27,222.26,373.36,222.24,373.36Z"/><path class="cls-10" d="M230,373.8c-.05,0,0-.4,0-1.1a6.31,6.31,0,0,0-.8-2.81,5.92,5.92,0,0,0-3.2-2.76,6.6,6.6,0,0,0-8.43,4.34,7.36,7.36,0,0,0-.12,4.29,7.26,7.26,0,0,0,1.33,2.62c.44.55.76.8.73.83a2.71,2.71,0,0,1-.87-.7,6.74,6.74,0,0,1-1.53-2.65,7.59,7.59,0,0,1,0-4.53,7,7,0,0,1,9-4.63,6.14,6.14,0,0,1,3.36,3,5.81,5.81,0,0,1,.68,3,4.28,4.28,0,0,1-.11.83C230.08,373.71,230.05,373.81,230,373.8Z"/><path class="cls-10" d="M237.83,373.62s0-.4,0-1.1a6.16,6.16,0,0,0-.87-2.79,5.93,5.93,0,0,0-3.28-2.67,6.61,6.61,0,0,0-8.31,4.58,7.31,7.31,0,0,0,1.41,6.87c.46.53.77.77.75.81a2.65,2.65,0,0,1-.89-.68A6.84,6.84,0,0,1,225,376a7.49,7.49,0,0,1-.11-4.53,7.11,7.11,0,0,1,3.39-4.36,7,7,0,0,1,5.5-.52,6.14,6.14,0,0,1,3.44,2.93,5.83,5.83,0,0,1,.76,3,3.73,3.73,0,0,1-.09.82C237.88,373.53,237.85,373.62,237.83,373.62Z"/><path class="cls-10" d="M244.41,374.5s0-.4,0-1.1a6.24,6.24,0,0,0-.76-2.83,5.93,5.93,0,0,0-3.17-2.79,6.67,6.67,0,0,0-5.14.32A6.74,6.74,0,0,0,232,372a7.48,7.48,0,0,0-.17,4.29,7.26,7.26,0,0,0,1.31,2.63c.43.55.74.81.71.84a2.84,2.84,0,0,1-.86-.71,6.84,6.84,0,0,1-1.49-2.67,7.51,7.51,0,0,1,.07-4.52,7,7,0,0,1,9.08-4.53,6.17,6.17,0,0,1,3.32,3.06,5.87,5.87,0,0,1,.64,3,4,4,0,0,1-.12.82A.87.87,0,0,1,244.41,374.5Z"/></g><g id="Air_Balloon" data-name="Air Balloon"><path class="cls-7" d="M273.17,169.65a54.53,54.53,0,0,0-8.27.37,34.41,34.41,0,0,0-30,34.3A61,61,0,0,0,237,220.67c4.81,17.05,6.29,32.09,5.74,39.41l16.09,8.65s7.46-10.7,14.65-15.32,31.17-17,40.65-29.66c6.12-8.18,7.3-25-7.28-39.66A49.42,49.42,0,0,0,273.17,169.65Z"/><polygon class="cls-12" points="235.12 278.7 249.66 286.56 240.19 298.59 230.5 294.18 235.12 278.7"/><path class="cls-10" d="M235.82,279.19c-.12-.05,1.32-4.36,3.23-9.64s3.56-9.52,3.69-9.47-1.32,4.36-3.23,9.64A99.88,99.88,0,0,1,235.82,279.19Z"/><path class="cls-10" d="M248.74,286c-.11-.07,2.16-4.14,5.09-9.1s5.4-8.93,5.52-8.86-2.16,4.15-5.09,9.11S248.86,286,248.74,286Z"/><g class="cls-13"><path d="M278,170.1c-.65,0-8.66,9.4-12.2,15.74-11.9,21.33-12.44,42.09-15.74,66.29-.48,3.45-2.19,10.91-2.16,10.73,1.76,1.39,7.68,4.13,7.68,4.13s5.59-6.74,7.81-10.13c8.88-13.57,18.53-24.15,26.14-38.48s14.93-27,7.88-41.66C297.43,176.72,285.24,169.7,278,170.1Z"/></g><path class="cls-10" d="M314.2,225.9a2,2,0,0,1-.21-.46c-.14-.31-.29-.78-.56-1.36a24.15,24.15,0,0,0-2.81-4.72,24.79,24.79,0,0,0-6.17-5.77,23.74,23.74,0,0,0-10.14-3.75h-.09l-.06-.08a55.79,55.79,0,0,0-6.5-7.45,32.24,32.24,0,0,0-8.87-6.11,23,23,0,0,0-10.48-2,17.4,17.4,0,0,0-9.17,3.06l-.15.1-.13-.12a18.16,18.16,0,0,0-9.8-4.35,17.78,17.78,0,0,0-8.33,1.06,18.67,18.67,0,0,0-4.78,2.7c-.51.39-.88.71-1.13.93a2.11,2.11,0,0,1-.38.33,2.11,2.11,0,0,1,.33-.38,14.41,14.41,0,0,1,1.09-1,17.87,17.87,0,0,1,13.24-4,18.41,18.41,0,0,1,10,4.39h-.27a17.63,17.63,0,0,1,9.41-3.18,23.2,23.2,0,0,1,10.71,2,32.76,32.76,0,0,1,9,6.21,56.46,56.46,0,0,1,6.52,7.54l-.15-.09a23.69,23.69,0,0,1,10.28,3.89,24.34,24.34,0,0,1,6.19,5.91,22.48,22.48,0,0,1,2.72,4.83c.25.59.38,1.07.5,1.38A3.23,3.23,0,0,1,314.2,225.9Z"/><path class="cls-10" d="M284.27,247.15a10.11,10.11,0,0,0-1.38-3.5,9.6,9.6,0,0,0-3.09-3,8.65,8.65,0,0,0-5.33-1.26l-.2,0,0-.2a14.09,14.09,0,0,0-2.65-6.22,13.74,13.74,0,0,0-6-4.63,14.24,14.24,0,0,0-11.8.61l-.15.08-.12-.13a10.12,10.12,0,0,0-5.59-3,11.19,11.19,0,0,0-5,.15,11.6,11.6,0,0,0-4,2s.06-.08.21-.22a6.54,6.54,0,0,1,.68-.56,9.78,9.78,0,0,1,3-1.45,11.16,11.16,0,0,1,5.15-.27,10.47,10.47,0,0,1,5.86,3.09l-.27,0a14.58,14.58,0,0,1,12.2-.68,14.55,14.55,0,0,1,8.85,11.25l-.24-.18a8.91,8.91,0,0,1,5.56,1.39,9.55,9.55,0,0,1,3.12,3.13,8.25,8.25,0,0,1,1.06,2.63c.07.32.08.57.11.74S284.29,247.15,284.27,247.15Z"/><path class="cls-10" d="M246.85,290.35s-.16-.2-.53-.35a2.55,2.55,0,0,0-1.7.05,4.72,4.72,0,0,1-1.29.23,2,2,0,0,1-1.44-.63c-.77-.8-1.06-2-1.79-2.77a1.69,1.69,0,0,0-1.34-.56,8.17,8.17,0,0,0-1.52.3,3.27,3.27,0,0,1-1.52.08,2.54,2.54,0,0,1-1.19-.61,2.83,2.83,0,0,1-1-1.61,1.11,1.11,0,0,1,0-.69s0,.24.17.64a2.87,2.87,0,0,0,1,1.39,2.37,2.37,0,0,0,1.05.48,3.12,3.12,0,0,0,1.33-.12,8.55,8.55,0,0,1,1.61-.35,2.17,2.17,0,0,1,1.72.71c.84,1,1.11,2.11,1.76,2.79a1.59,1.59,0,0,0,1.12.54,4.68,4.68,0,0,0,1.19-.16,2.58,2.58,0,0,1,1.87.11C246.81,290.07,246.87,290.35,246.85,290.35Z"/><path class="cls-10" d="M248.52,288a63.21,63.21,0,0,1-7.1-3.51,63.31,63.31,0,0,1-6.86-3.94,63.21,63.21,0,0,1,7.1,3.51A63.31,63.31,0,0,1,248.52,288Z"/><path class="cls-10" d="M245.63,291.68s-.2.1-.56.27c-.17.08-.38.2-.65.31a2.3,2.3,0,0,1-1,.13,4.18,4.18,0,0,1-2.4-.92,3.3,3.3,0,0,1-.91-1.26,5,5,0,0,0-.71-1.31,3.33,3.33,0,0,0-2.63-.75,6.05,6.05,0,0,1-2.53-.25,2.33,2.33,0,0,1-1.28-1.17c-.16-.39-.1-.63-.08-.63s.06.22.25.54a2.33,2.33,0,0,0,1.23.94,6.49,6.49,0,0,0,2.39.11,3.7,3.7,0,0,1,3,.88,5,5,0,0,1,.78,1.44,2.91,2.91,0,0,0,.77,1.11,4,4,0,0,0,2.13.92,3.08,3.08,0,0,0,1.56-.27A1.23,1.23,0,0,1,245.63,291.68Z"/></g><g id="Character"><path class="cls-14" d="M135.84,198.29,161,194.56l-12-17-6.45.38a11.49,11.49,0,0,0-9.88,6.93h0a11.5,11.5,0,0,0-.73,6.73Z"/><path class="cls-8" d="M243.85,226.15c.26.72.55,1.58.83,2.6a7.62,7.62,0,0,1,.27,2.69,12.23,12.23,0,0,1-.56,3.33c-.42.95.54,1.91,1.36,1.43s2-3.07,1.94-6.42,3.34.66,4.61,2.1,5.41,5.71,6.17,5.67c1.1-.06,1.24-1.25-.06-2.66s-4.91-5.9-4.12-6.54,7.15,6.8,7.15,6.8,1.1,1.8,2,1.1c1.7-1.27-5.65-8.65-6.37-9.34-.5-.48.34-1.2.85-.66s6.18,7.55,7.92,6.28c1.33-1-6-6.13-6.36-8.24s5.16,4.48,6.39,3.49c.46-.37.76-.7-3-4-1.81-1.61-8.67-6.41-8.67-6.41l-20.63-59.1-15.94,9.13Z"/><path class="cls-8" d="M121,114.39,97.93,86.87h0a14.87,14.87,0,0,0-1.12-2.74,8.61,8.61,0,0,0-5.44-4.54c-1.47-.32-3.14-.17-4.29-1.13-.51-.43-.85-1-1.39-1.44s-1.43-.48-1.78.1a1.55,1.55,0,0,0,.1,1.37,12.77,12.77,0,0,0,4,5.17c-2.16.65-5.25,1.65-5.25,1.65S77.87,80,75.38,80s2,4.72,2,4.72-4-3.7-5.23-2.66,1.93,3.79,1.93,3.79A5.27,5.27,0,0,0,70.85,85c-1.13.19-2.1,1.52-1.49,2.49a2.71,2.71,0,0,0,1,.82l6.14,3.42a7.41,7.41,0,0,0,3.28,1.19c3.12.1,5.48-1.83,8.6-1.75,0,0,17.39,36.61,19.15,38.5s40,4.46,40,4.46l22.11-19.05Z"/><path class="cls-7" d="M190.26,313.82l23.56,10.26L201.2,353.45c-2.73-1.38-1.84-19-1.84-19l-15.36-6Z"/><g class="cls-15"><path class="cls-7" d="M202,324.83a1.31,1.31,0,0,1,1.73-.24,1.27,1.27,0,0,1,.25,1.71,1.38,1.38,0,0,1-1.83.24,1.29,1.29,0,0,1-.06-1.8"/></g><path class="cls-16" d="M213.82,324.08l-2.42-.94-11.19,28.51s0,1.55,1,1.8Z"/><path class="cls-10" d="M199,334.87c.15.06.52-.63,1.28-1.14s1.53-.63,1.53-.78-.92-.3-1.83.33S198.87,334.84,199,334.87Z"/><path class="cls-10" d="M199,338.5c.13.09.64-.43,1.45-.65s1.52-.1,1.58-.24-.72-.59-1.73-.29S198.83,338.43,199,338.5Z"/><path class="cls-10" d="M201.9,341.83c.08-.12-.55-.63-1.49-.59s-1.55.56-1.45.68.69-.13,1.46-.14S201.82,342,201.9,341.83Z"/><path class="cls-10" d="M195.66,333.12c.16,0,.24-.74.64-1.53s.93-1.31.84-1.44-.86.26-1.32,1.2S195.52,333.15,195.66,333.12Z"/><path class="cls-10" d="M192.48,330.93a3.05,3.05,0,0,0,.62-1.48,6.8,6.8,0,0,0,.19-1.74,7.7,7.7,0,0,0-.09-1,1.89,1.89,0,0,0-.15-.59.69.69,0,0,0-.74-.39.83.83,0,0,0-.59.49,2.08,2.08,0,0,0-.17.58,5.45,5.45,0,0,0-.07,1.05,5.72,5.72,0,0,0,.3,1.74,2.73,2.73,0,0,0,.83,1.38c.07-.05-.23-.57-.46-1.49a6.14,6.14,0,0,1-.17-1.63,5.4,5.4,0,0,1,.1-1c0-.34.16-.61.33-.63s.09,0,.16.11a1.77,1.77,0,0,1,.11.43,8.47,8.47,0,0,1,0,2.62A11.52,11.52,0,0,0,192.48,330.93Z"/><path class="cls-10" d="M192.76,330.83c.05,0-.35-.55-1.25-1a5.35,5.35,0,0,0-1.7-.49,5.24,5.24,0,0,0-1.05,0,1.32,1.32,0,0,0-1.15.62.75.75,0,0,0,.15.79,2.18,2.18,0,0,0,.47.38,3.42,3.42,0,0,0,1,.43,3.62,3.62,0,0,0,1.79,0c1-.24,1.44-.77,1.39-.8a14,14,0,0,1-1.46.43,3.68,3.68,0,0,1-1.58-.13,3.74,3.74,0,0,1-.84-.39c-.29-.18-.49-.41-.41-.51a.89.89,0,0,1,.7-.31,5.17,5.17,0,0,1,1,0,5.77,5.77,0,0,1,1.59.34C192.24,330.51,192.71,330.9,192.76,330.83Z"/><path class="cls-7" d="M172.12,354.17l9.75,20.4,3,18.37a2.31,2.31,0,0,0,2.82,1.87h0a2.29,2.29,0,0,0,1.61-1.38c1.79-4.43,8.29-20.77,7.5-22.23C195.92,369.52,188,349,188,349Z"/><path class="cls-16" d="M187.74,394.81l8.48-25,.39.88a3.48,3.48,0,0,1,.18,2.4c-.62,2.12-2.46,8-7.38,20.32a2.3,2.3,0,0,1-1.67,1.4Z"/><g class="cls-15"><path class="cls-6" d="M189,365.06a1.39,1.39,0,0,0,.4,1.83,1.34,1.34,0,0,0,1.81-.38,1.49,1.49,0,0,0-.43-1.94,1.42,1.42,0,0,0-1.85.61"/></g><path class="cls-10" d="M188.4,383.68a7.07,7.07,0,0,0-2.53-.79,7.26,7.26,0,0,0-2.58.61s.15-.32.6-.6a3.66,3.66,0,0,1,2-.51,3.55,3.55,0,0,1,2,.65C188.27,383.35,188.44,383.64,188.4,383.68Z"/><path class="cls-10" d="M188.17,387.1c-.06.14-1-.23-2.22-.06s-2,.76-2.14.64a3.28,3.28,0,0,1,4.36-.58Z"/><path class="cls-10" d="M189.54,378.91a22.58,22.58,0,0,0-3.43-.33,25.07,25.07,0,0,0-3.38.66,5.18,5.18,0,0,1,3.36-1.16A5.12,5.12,0,0,1,189.54,378.91Z"/><path class="cls-10" d="M187.1,372.46c0,.15-1.35.19-2.86.8s-2.52,1.5-2.62,1.39a4.4,4.4,0,0,1,2.44-1.85A4.49,4.49,0,0,1,187.1,372.46Z"/><path class="cls-10" d="M184.39,366.4a11.24,11.24,0,0,0-3,.75,11,11,0,0,0-2.42,1.92c-.06,0,.05-.39.4-.88a5,5,0,0,1,4.08-2C184.05,366.2,184.4,366.34,184.39,366.4Z"/><path class="cls-10" d="M180.91,366a1.84,1.84,0,0,1-.38-.77,6,6,0,0,1-.3-2.32,2.6,2.6,0,0,1,.52-1.61.91.91,0,0,1,1-.24,1.54,1.54,0,0,1,.75.78,3.28,3.28,0,0,1-1.38,3.94,3.79,3.79,0,0,1-4.22-.28,1.27,1.27,0,0,1-.5-1,.91.91,0,0,1,.67-.84,3.3,3.3,0,0,1,1.68.1,6.49,6.49,0,0,1,2.12,1c.46.32.66.55.64.57a10.79,10.79,0,0,0-2.84-1.2,3.18,3.18,0,0,0-1.47-.05.5.5,0,0,0-.37.45.94.94,0,0,0,.37.63,3.39,3.39,0,0,0,3.66.2,2.85,2.85,0,0,0,1.22-3.33,1.14,1.14,0,0,0-.5-.57.5.5,0,0,0-.58.13,2.43,2.43,0,0,0-.46,1.35A8.94,8.94,0,0,0,180.91,366Z"/><path class="cls-10" d="M205,316.31l-26.71-18,8.84-86.8-25.3-14.77-23.13-5.36s-9.66,20.1-14,33c-9.14,27.36-15.55,37.17-14.09,57,.47,6.28,23.65,22,38.29,30.71a45.8,45.8,0,0,0,.78,5.2c5,22.61,20.27,52.69,20.27,52.69l23.21-10.79-7.49-25.64,7.8,4.55Zm-57.41-56,3.12-13.91c-.66,8.84-1.26,18.07-1.69,26.92A27.48,27.48,0,0,1,147.54,260.35Z"/><path class="cls-12" d="M169.94,370a1.82,1.82,0,0,1-.18-.36c-.11-.27-.27-.63-.48-1.1l-1.79-4.23c-1.54-3.68-3.75-9-6.41-15.65s-5.78-14.53-9-23.43c-.79-2.22-1.56-4.52-2.29-6.88-.32-1.2-.73-2.39-.94-3.65-.06-.32-.13-.63-.18-.95l-.11-.94c-.07-.64-.14-1.27-.22-1.91q-.4-3.84-.66-7.81c-.08-1.33-.16-2.67-.21-4s-.11-2.71,0-4.07c.39-10.91,1.31-21.25,2.06-30.66s1.5-17.86,2.09-25,1-12.88,1.21-16.86c.12-2,.19-3.54.24-4.59,0-.51,0-.9.07-1.2s0-.4,0-.4a1.85,1.85,0,0,1,0,.41c0,.29,0,.68,0,1.19,0,1-.05,2.6-.15,4.6-.17,4-.52,9.75-1,16.87s-1.23,15.6-2,25-1.63,19.76-2,30.63c-.08,1.36,0,2.69,0,4s.12,2.67.2,4q.25,4,.66,7.8l.21,1.9.11.94c.05.31.12.62.18.92.19,1.22.6,2.41.91,3.6.72,2.36,1.49,4.65,2.27,6.87,3.14,8.89,6.25,16.81,8.85,23.45l6.26,15.71,1.7,4.26.44,1.12A1.73,1.73,0,0,1,169.94,370Z"/><path class="cls-12" d="M152.09,213.37a2.74,2.74,0,0,1-.61-.5,6.45,6.45,0,0,1-1.13-1.81,19.75,19.75,0,0,1-1.13-6.89,58.06,58.06,0,0,1,.33-6.95,16.14,16.14,0,0,1,.4-2.86,16.91,16.91,0,0,1,0,2.88c-.09,1.78-.24,4.22-.19,6.92a22.37,22.37,0,0,0,1,6.77,7.63,7.63,0,0,0,.95,1.82C152,213.12,152.11,213.34,152.09,213.37Z"/><path class="cls-12" d="M142.1,192.71a5.73,5.73,0,0,1,.2,2.43,11.17,11.17,0,0,1-6.38,9.37,5.89,5.89,0,0,1-2.34.7c0-.08.88-.31,2.18-1a11.83,11.83,0,0,0,6.19-9.1C142.13,193.64,142,192.72,142.1,192.71Z"/><path class="cls-12" d="M183.6,243.17a.86.86,0,0,1,0,.26c0,.21,0,.46-.07.78-.07.71-.17,1.7-.29,3-.29,2.61-.69,6.32-1.19,10.89-1,9.22-2.48,21.9-4.07,35.9a65.45,65.45,0,0,0,1.32,19.71,67.87,67.87,0,0,0,2.42,8.3c.9,2.57,1.73,5,2.5,7.14,1.5,4.34,2.73,7.87,3.59,10.35.4,1.2.72,2.14.95,2.82l.23.74a1.32,1.32,0,0,1,.07.26A.86.86,0,0,1,189,343l-.29-.72-1-2.79c-.89-2.47-2.17-6-3.73-10.3-.79-2.18-1.64-4.56-2.56-7.12a67.89,67.89,0,0,1-2.48-8.34,65,65,0,0,1-1.36-19.85c1.56-14,3.11-26.71,4.21-35.9.56-4.56,1-8.26,1.34-10.87.17-1.25.3-2.24.39-3l.12-.77C183.58,243.26,183.6,243.17,183.6,243.17Z"/><polyline class="cls-8" points="138.65 191.24 142.75 180.78 152.09 194.72 139.63 191.6"/><path class="cls-7" d="M236.47,159.78l-11.09-24.87c-1.33-4-3.82-4.62-5.9-6.94l-27.8-15.68c-20.25-8.3-31.28,19.53-31.28,19.53l-18.41,42c-21.65,7.18-6.32,23.8-6.32,23.8s-5.89-10.23-.1-13.93c6.07-3.86,12.79,6.32,19.25,16,7.63,11.43,32.41,18.85,32.41,18.85,2.89-3.07,2.08-13.76,4.35-19.49.72-1.82,17.88-41.57,17.88-41.57l6.65,16.12s8.53-10,12.66-11.59A46.69,46.69,0,0,1,236.47,159.78Z"/><path class="cls-10" d="M187.23,177.45a3.66,3.66,0,0,1-.85.59,16,16,0,0,1-2.52,1.2,18.15,18.15,0,0,1-17.56-2.71,16.23,16.23,0,0,1-2.05-1.91,3.66,3.66,0,0,1-.63-.81c.07-.07,1,1.06,2.89,2.44a18.86,18.86,0,0,0,17.23,2.66C186,178.16,187.18,177.37,187.23,177.45Z"/><path class="cls-7" d="M141.17,138h0l17.15,1.62,27.44-29-16.14-.55-28.74,2.83A74.38,74.38,0,0,1,141.17,138Z"/><path class="cls-10" d="M165,122.73a2.28,2.28,0,0,1-.21.53l-.69,1.48-2.54,5.44c-2.14,4.59-5,11-8,18.09s-5.86,13.53-8,18.14c-1.05,2.31-1.92,4.17-2.55,5.44-.29.6-.53,1.08-.72,1.46a2.27,2.27,0,0,1-.29.5,2.65,2.65,0,0,1,.2-.54c.16-.39.38-.89.64-1.5.59-1.36,1.4-3.22,2.4-5.5l7.83-18.19c3.07-7.1,5.95-13.49,8.17-18.05,1.1-2.28,2-4.12,2.69-5.37l.77-1.44A2.05,2.05,0,0,1,165,122.73Z"/><path class="cls-10" d="M217.34,131.17c0,.08-1,.63-2.47,1.87a18.53,18.53,0,0,0-2.32,2.4,20.05,20.05,0,0,0-2.17,3.44,20.48,20.48,0,0,0-1.36,3.85,17.38,17.38,0,0,0-.44,3.3c-.08,1.9.15,3.08,0,3.1a3.45,3.45,0,0,1-.21-.82,6.9,6.9,0,0,1-.13-1,10.25,10.25,0,0,1-.07-1.31,16.88,16.88,0,0,1,.35-3.39,19.19,19.19,0,0,1,1.36-4,18.88,18.88,0,0,1,2.27-3.52,15.85,15.85,0,0,1,2.45-2.38,9.43,9.43,0,0,1,1.07-.76,5.79,5.79,0,0,1,.85-.5A2.62,2.62,0,0,1,217.34,131.17Z"/><path class="cls-8" d="M222.13,91.33,206,121.41a10.62,10.62,0,0,1-13.69,4.68h0a10.61,10.61,0,0,1-5-14.64c1.51-2.87,2.77-5.21,2.77-5.21s-7-4.54-3.72-12.1c2.92-6.74,13.63-25.77,15.91-29.8l13.56,6.07A15.23,15.23,0,0,1,222.13,91.33Z"/><path class="cls-17" d="M190.12,106.12a19.09,19.09,0,0,0,11,1.6s-4.74,4.38-11.94.34Z"/><path class="cls-10" d="M195.29,82.08a1.16,1.16,0,0,0,.55,1.54,1.12,1.12,0,0,0,1.54-.47,1.19,1.19,0,0,0-.55-1.55A1.13,1.13,0,0,0,195.29,82.08Z"/><path class="cls-10" d="M195.35,81.12c.07.2,1.15,0,2.3.48s1.75,1.48,1.94,1.39.06-.35-.19-.78a3.2,3.2,0,0,0-1.46-1.29,3.15,3.15,0,0,0-1.92-.21C195.54,80.83,195.31,81,195.35,81.12Z"/><path class="cls-10" d="M206.09,87.39a1.19,1.19,0,0,0,.56,1.55,1.13,1.13,0,0,0,1.54-.47,1.19,1.19,0,0,0-.55-1.55A1.14,1.14,0,0,0,206.09,87.39Z"/><path class="cls-10" d="M206.61,86.42c.07.2,1.15,0,2.3.48s1.75,1.47,1.93,1.39.07-.35-.18-.78a3.2,3.2,0,0,0-1.46-1.29,3.15,3.15,0,0,0-1.92-.21C206.8,86.13,206.57,86.32,206.61,86.42Z"/><path class="cls-10" d="M198.58,93.11a8,8,0,0,0-1.72-1.18c-.29-.16-.54-.35-.5-.57a1.69,1.69,0,0,1,.59-.79l1.88-1.85a44.41,44.41,0,0,0,4.59-5,41.24,41.24,0,0,0-5,4.62c-.65.65-1.26,1.28-1.85,1.88a1.91,1.91,0,0,0-.67,1.09.8.8,0,0,0,.29.65,2.07,2.07,0,0,0,.47.29A8.54,8.54,0,0,0,198.58,93.11Z"/><path class="cls-10" d="M201.62,95.43c-.18-.1-.74,1.16-2.22,1.57s-2.74-.33-2.83-.16.19.38.75.65a3.45,3.45,0,0,0,2.33.2,3,3,0,0,0,1.78-1.35C201.71,95.83,201.71,95.46,201.62,95.43Z"/><path class="cls-10" d="M208.33,81.76c0,.36,1.2.73,2.48,1.5s2.21,1.63,2.52,1.43c.14-.1.08-.48-.22-1a5,5,0,0,0-1.65-1.55,4.86,4.86,0,0,0-2.16-.68C208.71,81.45,208.35,81.58,208.33,81.76Z"/><path class="cls-10" d="M197.27,78c.08.35,1,.43,2,.85s1.69,1,2,.77c.14-.09.13-.41-.11-.82a3.11,3.11,0,0,0-3.19-1.31C197.47,77.58,197.24,77.8,197.27,78Z"/><path class="cls-8" d="M217.07,95.84c.15,0,5.85.79,3.39,5.85s-7.05,1.55-7,1.4S217.07,95.84,217.07,95.84Z"/><path class="cls-17" d="M216,101.92s.06.11.17.25a1,1,0,0,0,.65.33,2.42,2.42,0,0,0,2-1.46,3.34,3.34,0,0,0,.36-1.39,1.12,1.12,0,0,0-.33-1,.51.51,0,0,0-.64,0c-.13.11-.15.23-.18.22s-.07-.14.07-.33a.64.64,0,0,1,.36-.22.75.75,0,0,1,.55.11,1.42,1.42,0,0,1,.54,1.24,3.51,3.51,0,0,1-.38,1.56,2.57,2.57,0,0,1-2.36,1.56,1,1,0,0,1-.74-.53C215.91,102.05,215.93,101.92,216,101.92Z"/><path class="cls-10" d="M220,97a2.94,2.94,0,0,0-3,.16c-.67.58-1.11,1.38-1.77,2a2,2,0,0,1-2.42.37,1.73,1.73,0,0,1-.54-1.65,4.71,4.71,0,0,1,.72-1.66c1.38-2.27,2.95-4.42,4.13-6.8a13.48,13.48,0,0,0,1.61-7.66,7.39,7.39,0,0,0-4.5-6.07c-1.66-.59-3.49-.41-5.18-.9a6.88,6.88,0,0,1-4.44-4.08,11.55,11.55,0,0,0-.66-1.13c.06-.13.65-1.15,1.25-1.35,4.45-1.5,10.49.22,14.18,3.13a16.46,16.46,0,0,1,6.32,12.29c.05,4.69-2.91,9.88-5.66,13.38"/><path class="cls-10" d="M220.06,96.44c1.4-2.39,3.69-4.13,5.43-6.29s2.94-5.2,1.7-7.69c-.42-.85-1.1-1.56-1.46-2.44a12.43,12.43,0,0,1-.49-2.81,9.81,9.81,0,0,0-4.84-7c-1.78-1-3.84-1.4-5.64-2.34-2.86-1.51-4.95-4.29-7.95-5.48a3.84,3.84,0,0,0-3.11-.09,1.86,1.86,0,0,0-.77,2.69,1.63,1.63,0,0,0-2.25-1.09,2.47,2.47,0,0,0-1.27,2.41,5.42,5.42,0,0,0,1.09,2.65,13.45,13.45,0,0,0,7.7,5.3l6.9-.54,5.66,4.19L225,84.55l-7.59,9.87Z"/></g><g id="Light_Bulb" data-name="Light Bulb"><path class="cls-7" d="M176.87,57.09A24.38,24.38,0,1,0,143.6,81.34c.18,2.89.39,6.14.39,6.14l21.33-1.38s-.1-3.45-.25-6.53A24.35,24.35,0,0,0,176.87,57.09Z"/><path class="cls-10" d="M157.6,86.5v-.3c0-.21,0-.51.05-.89,0-.77.1-1.92.23-3.39s.29-3.28.62-5.35a36.07,36.07,0,0,1,1.77-6.91A22.85,22.85,0,0,1,162,65.89a4.53,4.53,0,0,1,1.56-1.61,2.53,2.53,0,0,1,2.32-.07,1.65,1.65,0,0,1,.83.91,1.71,1.71,0,0,1,0,1.26A3.49,3.49,0,0,1,165,68.12a6.69,6.69,0,0,1-8.78-3.87,5.12,5.12,0,0,1-.33-2.8,2.19,2.19,0,0,1,2.1-1.83,1.62,1.62,0,0,1,1.3.78,2.22,2.22,0,0,1,.29,1.49A4.75,4.75,0,0,1,158,64.41a7.3,7.3,0,0,1-5.57,2,6.36,6.36,0,0,1-4.93-3.21,3.63,3.63,0,0,1-.35-2.93,1.88,1.88,0,0,1,1-1.15,1.85,1.85,0,0,1,1.51,0,2.54,2.54,0,0,1,1.1,1,4.09,4.09,0,0,1,.46,1.38,7.17,7.17,0,0,1-.19,2.81,7.25,7.25,0,0,1-8.16,5.31,3.77,3.77,0,0,1-2.26-1,1.88,1.88,0,0,1-.29-2.33,1.61,1.61,0,0,1,1.06-.61,2.32,2.32,0,0,1,1.17.16,3.53,3.53,0,0,1,1.6,1.57c.7,1.28,1.27,2.53,1.85,3.72,2.26,4.78,3.9,8.73,5,11.47.55,1.37,1,2.44,1.24,3.17.13.35.23.63.31.83l.09.28a2.42,2.42,0,0,1-.12-.27c-.08-.2-.19-.47-.34-.82l-1.29-3.15c-1.14-2.72-2.81-6.66-5.09-11.42-.58-1.18-1.17-2.44-1.86-3.69a3.22,3.22,0,0,0-1.49-1.47,1.46,1.46,0,0,0-1.67,2.39,3.61,3.61,0,0,0,2.12.93,7.12,7.12,0,0,0,4.81-1,7,7,0,0,0,3-4.14,6.76,6.76,0,0,0,.18-2.69,2.63,2.63,0,0,0-1.39-2.15,1.47,1.47,0,0,0-2.1.93,3.38,3.38,0,0,0,.33,2.7,6,6,0,0,0,4.7,3,7,7,0,0,0,5.33-1.93,4.57,4.57,0,0,0,1.47-2.36,1.94,1.94,0,0,0-.25-1.29,1.32,1.32,0,0,0-1.06-.64,1.74,1.74,0,0,0-1.18.47,2,2,0,0,0-.62,1.14,4.85,4.85,0,0,0,.3,2.63A6.48,6.48,0,0,0,160,67.83a6.35,6.35,0,0,0,4.86,0,3.2,3.2,0,0,0,1.65-1.59,1.45,1.45,0,0,0-.68-1.86,2.27,2.27,0,0,0-2.09.07A4.15,4.15,0,0,0,162.23,66a23.63,23.63,0,0,0-1.76,3.72,35.61,35.61,0,0,0-1.8,6.87c-.35,2.06-.54,3.86-.68,5.33s-.22,2.6-.28,3.39l-.08.88A2.29,2.29,0,0,1,157.6,86.5Z"/><path class="cls-10" d="M163.93,90.16l-18.31,1.18a1.38,1.38,0,0,1-1.46-1.29h0a1.38,1.38,0,0,1,1.29-1.46l18.3-1.18a1.38,1.38,0,0,1,1.47,1.28h0A1.39,1.39,0,0,1,163.93,90.16Z"/><path class="cls-10" d="M164,91.36,145.7,92.54a1.38,1.38,0,0,0,.18,2.75l2-.13,3,4.9a1.76,1.76,0,0,0,1.63.84l6.54-.42a1.77,1.77,0,0,0,1.51-1.06l2.26-5.23,1.37-.09a1.37,1.37,0,1,0-.18-2.74Z"/><g class="cls-18"><path class="cls-6" d="M135.91,44.17a17.91,17.91,0,0,1,4.66-3.55,12.92,12.92,0,0,1,3.68-1.33c.92-.16,1.45-.1,1.5.09.14.43-1.66,1.21-4,3a20,20,0,0,0-7.85,20.23c.53,3,1.34,4.74.94,5-.17.1-.6-.22-1.17-1a13.3,13.3,0,0,1-1.82-3.46,18,18,0,0,1-1-5.77A19,19,0,0,1,132,50.29"/></g><g class="cls-18"><path class="cls-6" d="M151.67,40.05c-1.54.08-2.93-.25-3.14-1.06-.09-.4.16-.85.7-1.22a4.48,4.48,0,0,1,2.26-.71,4.54,4.54,0,0,1,2.34.44c.57.3.88.72.84,1.13"/></g><path class="cls-12" d="M160.24,99.87a11.86,11.86,0,0,1-1.28-.3,10.32,10.32,0,0,0-3.13-.19,10.08,10.08,0,0,0-3,.77c-.75.31-1.18.58-1.21.54a4,4,0,0,1,1.12-.74,9,9,0,0,1,3.1-.87,8.84,8.84,0,0,1,3.21.28A3.86,3.86,0,0,1,160.24,99.87Z"/><path class="cls-12" d="M162.86,94.25c0,.09-3.3.37-7.38.63s-7.4.41-7.4.33,3.3-.37,7.38-.63S162.86,94.17,162.86,94.25Z"/><path class="cls-12" d="M161.86,96.5a10.24,10.24,0,0,1-1.79.3c-1.11.14-2.65.3-4.36.44s-3.25.21-4.37.25a10.65,10.65,0,0,1-1.82,0,11.9,11.9,0,0,1,1.81-.2l4.36-.33,4.35-.35A11.67,11.67,0,0,1,161.86,96.5Z"/></g><g id="Book"><path class="cls-14" d="M30,219l4,6.37s17-15.61,33.79-11.2C67.78,214.14,52.66,201.32,30,219Z"/><path class="cls-14" d="M67.78,214.14s12.45-13.52,30.7-10.43l5,.75-1.59-2.88S70.12,190.71,67.78,214.14Z"/><path class="cls-3" d="M41.5,168.56S16.56,164.27.21,173.12l26,48.89s21.26-20.49,41.6-7.87Z"/><path class="cls-10" d="M41.5,168.56a.93.93,0,0,1,.13.2c.1.15.22.35.38.61l1.43,2.43,5.41,9.26L68,214a.22.22,0,0,1-.08.3.24.24,0,0,1-.23,0,27.54,27.54,0,0,0-9.56-3.67,29.13,29.13,0,0,0-5.39-.37,32.67,32.67,0,0,0-5.52.69,47.43,47.43,0,0,0-20.63,11l-.21.2a.24.24,0,0,1-.35,0l0-.06L0,173.21a.19.19,0,0,1,.07-.27h0A50.05,50.05,0,0,1,16.73,168a82.1,82.1,0,0,1,13.3-.58c3.68.12,6.56.42,8.5.66,1,.11,1.72.23,2.22.31l.56.1.19.05-.2,0-.56-.07-2.22-.25c-2-.2-4.82-.46-8.49-.55a86.34,86.34,0,0,0-13.26.67A50.24,50.24,0,0,0,.3,173.29L.39,173l26,48.88-.4-.06.23-.21a52.65,52.65,0,0,1,9.94-7,41.5,41.5,0,0,1,10.92-4.14,33.74,33.74,0,0,1,5.61-.7,30.11,30.11,0,0,1,5.48.39A27.82,27.82,0,0,1,67.89,214l-.3.29c-7.79-13.58-14.32-25-18.91-33l-5.32-9.34L42,169.43l-.36-.65Z"/><path class="cls-3" d="M80.7,158.52s-18.86-12-38.88,10L68.1,214.14s5.36-18.5,36.74-12.06Z"/><path class="cls-10" d="M80.7,158.52a1.8,1.8,0,0,1,.13.19l.34.59,1.32,2.32,5,8.84L105,202a.22.22,0,0,1-.23.32h0l-4.67-.77a21.4,21.4,0,0,0-2.41-.27l-2.47-.19a17.33,17.33,0,0,0-2.5-.06l-2.54,0c-.86,0-1.71.17-2.57.25a18.91,18.91,0,0,0-2.58.39l-2.58.59-2.52.88c-.84.29-1.62.76-2.44,1.13a6.94,6.94,0,0,0-1.18.68l-1.15.73c-.76.51-1.44,1.13-2.15,1.71a24.25,24.25,0,0,0-1.9,2,16.05,16.05,0,0,0-2.79,4.8h0a.25.25,0,0,1-.31.16.26.26,0,0,1-.14-.11l-1-1.84L41.64,168.66a.2.2,0,0,1,0-.24A44,44,0,0,1,55.9,157.71a28.42,28.42,0,0,1,13.43-2.52,27.25,27.25,0,0,1,8.59,1.93,19.17,19.17,0,0,1,2.1,1l.52.3.16.11s-.07,0-.18-.09-.31-.15-.53-.27c-.47-.23-1.17-.56-2.12-.92a27.51,27.51,0,0,0-8.55-1.8A28.24,28.24,0,0,0,56,158,44,44,0,0,0,42,168.7l0-.25,25.26,43.73,1,1.84-.45,0a16.33,16.33,0,0,1,2.89-5A23.87,23.87,0,0,1,72.69,207c.73-.59,1.43-1.22,2.21-1.74l1.17-.75a7.26,7.26,0,0,1,1.21-.69,26.61,26.61,0,0,1,2.49-1.15l2.57-.9L85,201.2a19.34,19.34,0,0,1,2.61-.39c.88-.08,1.74-.23,2.6-.25l2.57,0a19.34,19.34,0,0,1,2.53.07l2.48.2a19.42,19.42,0,0,1,2.43.28l4.7.78-.24.32L87.26,170.63c-2.08-3.82-3.73-6.83-4.87-8.91l-1.27-2.37c-.13-.26-.24-.46-.32-.61A1.55,1.55,0,0,1,80.7,158.52Z"/><path class="cls-3" d="M7.23,149.61l28.12,54.15s22.86-1,32.54,10.14L41.82,168.56S26.54,149.61,7.23,149.61Z"/><path class="cls-10" d="M7.23,149.61l.71,0,2.17.09c.24,0,.5,0,.76.05l.82.13,1.88.31a18.64,18.64,0,0,1,2.16.52c.75.23,1.58.38,2.41.71,6.72,2.24,15.73,7.66,23.84,17v0h0l26.1,45.32a.25.25,0,0,1-.09.34.27.27,0,0,1-.3,0v0L66.59,213a23.83,23.83,0,0,0-7.19-4.76,41.65,41.65,0,0,0-8-2.64,67.28,67.28,0,0,0-16-1.58h0a.22.22,0,0,1-.21-.12L15,164.76,9.24,153.58l-1.51-3-.38-.76a1.11,1.11,0,0,1-.12-.25,1.41,1.41,0,0,1,.15.27l.42.78c.37.69.89,1.7,1.58,3,1.37,2.62,3.37,6.41,5.87,11.19,5,9.55,12.06,23,20.31,38.81l-.22-.12a67.24,67.24,0,0,1,16.12,1.57,41.63,41.63,0,0,1,8.14,2.66,24.17,24.17,0,0,1,7.34,4.85c.39.39.78.77,1.13,1.13l-.4.28-26-45.36,0,0a65.84,65.84,0,0,0-12.31-11.13,47.36,47.36,0,0,0-11.29-5.89c-.82-.33-1.64-.49-2.39-.73a16.24,16.24,0,0,0-2.13-.54l-1.87-.34-.82-.15-.73-.06Z"/></g><g id="Stars"><path class="cls-14" d="M95,303.19l.6,1a6.88,6.88,0,0,0,2.84,2.61l1.05.52-1,.61a6.78,6.78,0,0,0-2.62,2.84l-.52,1.05-.6-1a6.94,6.94,0,0,0-2.84-2.61l-1.05-.52,1-.61a6.84,6.84,0,0,0,2.62-2.84Z"/><path class="cls-14" d="M39.57,96.93l.61,1A6.84,6.84,0,0,0,43,100.55l1,.52-1,.6a6.83,6.83,0,0,0-2.62,2.84l-.52,1-.61-1a6.78,6.78,0,0,0-2.84-2.62l-1-.52,1-.6A6.94,6.94,0,0,0,39.05,98Z"/><path class="cls-14" d="M296.16,132.51l.6,1a6.94,6.94,0,0,0,2.84,2.61l1,.52-1,.61A6.9,6.9,0,0,0,297,140.1l-.52,1.05-.6-1a6.83,6.83,0,0,0-2.84-2.62L292,137l1-.6a6.86,6.86,0,0,0,2.62-2.85Z"/><path class="cls-14" d="M265.86,316.15l.6,1a7,7,0,0,0,2.84,2.62l1.05.52-1,.6a6.9,6.9,0,0,0-2.62,2.84l-.52,1-.6-1a6.83,6.83,0,0,0-2.84-2.62l-1-.52,1-.6a6.9,6.9,0,0,0,2.62-2.84Z"/><path class="cls-14" d="M271.63,354.74l.29.11a1.77,1.77,0,0,0,1,.1l.3-.06-.11.29a1.81,1.81,0,0,0-.1,1l.06.3-.29-.11a1.81,1.81,0,0,0-1-.1l-.3.05.11-.28a1.81,1.81,0,0,0,.1-1Z"/><path class="cls-14" d="M289.07,93.8l.29.12a1.81,1.81,0,0,0,1,.1l.3-.06-.12.29a1.88,1.88,0,0,0-.1,1l.06.31-.29-.12a1.87,1.87,0,0,0-1-.1l-.31.06.12-.29a1.78,1.78,0,0,0,.1-1Z"/><path class="cls-14" d="M50.85,70l.29.12a1.87,1.87,0,0,0,1,.1l.31-.06-.12.29a1.78,1.78,0,0,0-.1,1l.06.31L52,71.64a1.88,1.88,0,0,0-1-.1l-.31.06.12-.29a1.88,1.88,0,0,0,.1-1Z"/><path class="cls-14" d="M80.25,273.15l.29.12a1.87,1.87,0,0,0,1,.1l.31-.06-.12.29a1.87,1.87,0,0,0-.1,1l.06.31-.29-.12a1.87,1.87,0,0,0-1-.1l-.31.06.12-.29a1.87,1.87,0,0,0,.1-1Z"/><path class="cls-7" d="M112.12,351.68a2.42,2.42,0,0,1-.27.29l-.83.83L107.79,356l-12,11.56,0-.12c.57,12.55,1.34,29.6,2.21,48.57l0,.43-.36-.24-4.33-2.89L65.94,394.88l0,0,0-.06L55.88,365c-1.2-3.62-2.14-6.49-2.8-8.47l-.73-2.24c-.07-.25-.13-.44-.17-.58l-.06-.2s0,.06.09.19.12.33.2.57c.19.52.45,1.27.79,2.22l2.9,8.43c2.48,7.27,6,17.57,10.14,29.78l-.08-.1,27.47,18.33,4.33,2.9-.34.19c-.81-19-1.54-36-2.08-48.58v-.07l0,0,12.08-11.47,3.29-3.08.86-.8Z"/><polygon class="cls-14" points="99.35 410.25 99.26 413.08 101.54 414.76 98.82 415.55 97.93 418.24 96.34 415.89 93.51 415.88 95.24 413.64 94.38 410.94 97.05 411.9 99.35 410.25"/><polygon class="cls-14" points="66.29 391.03 66.34 392.87 67.88 393.86 66.16 394.48 65.69 396.25 64.57 394.8 62.74 394.9 63.77 393.39 63.11 391.68 64.87 392.19 66.29 391.03"/><polygon class="cls-14" points="52.05 350.11 53.43 351.88 55.68 351.75 54.42 353.61 55.24 355.71 53.07 355.08 51.33 356.51 51.26 354.26 49.36 353.05 51.48 352.28 52.05 350.11"/><polygon class="cls-14" points="110.74 348.33 112.12 350.11 114.37 349.97 113.11 351.84 113.93 353.93 111.77 353.31 110.03 354.74 109.95 352.49 108.06 351.27 110.17 350.51 110.74 348.33"/><polygon class="cls-14" points="95.33 365.48 96.22 366.61 97.65 366.52 96.84 367.71 97.37 369.05 95.99 368.65 94.88 369.56 94.83 368.13 93.62 367.36 94.97 366.87 95.33 365.48"/></g><g id="Planets"><circle class="cls-7" cx="42.41" cy="269.9" r="19.94"/><g class="cls-19"><path class="cls-6" d="M39.82,276.13a3.26,3.26,0,1,1-3.26-3.25A3.26,3.26,0,0,1,39.82,276.13Z"/></g><g class="cls-19"><path class="cls-6" d="M35.2,266.74a1.89,1.89,0,1,1-1.89-1.89A1.88,1.88,0,0,1,35.2,266.74Z"/></g><path class="cls-14" d="M23.06,274.75c.09.35-17.07,16.81-12.65,20.32s23-5.49,38.9-18.3,30.35-28.37,26.38-32.49-23.79,8.08-23.79,8.08l2.37,1.51s12-7.69,15.78-4.71-7,14.65-22.27,25.78-30,18.95-32.28,15.9S24,277.61,24,277.61Z"/><g class="cls-19"><path class="cls-6" d="M31.42,255.85c.16.2-1.19,1.34-2.72,3.65a18.35,18.35,0,0,0-.4,20.17c1.43,2.36,2.74,3.56,2.57,3.75s-1.7-.79-3.48-3.14A17.33,17.33,0,0,1,25,275.74a17.89,17.89,0,0,1-1-6.25,17.67,17.67,0,0,1,1.29-6.2,17.11,17.11,0,0,1,2.6-4.44C29.68,256.57,31.32,255.71,31.42,255.85Z"/></g><circle class="cls-7" cx="262.18" cy="83.09" r="16.45" transform="translate(15.39 204.5) rotate(-43.78)"/><g class="cls-13"><path d="M267.55,76.79a2.68,2.68,0,1,1,2.61,2.75A2.68,2.68,0,0,1,267.55,76.79Z"/></g><g class="cls-13"><path d="M272.91,83.06a1.56,1.56,0,1,1,1.53,1.59A1.56,1.56,0,0,1,272.91,83.06Z"/></g><g class="cls-13"><path d="M270.82,87.85a.58.58,0,1,1-.59.56A.57.57,0,0,1,270.82,87.85Z"/></g></g></g></svg>