<svg xmlns="http://www.w3.org/2000/svg" viewBox="0 0 355.87 438.74"><defs><style>.cls-1{fill:#e0e0e0;}.cls-2{fill:#ebebeb;}.cls-3{fill:#f5f5f5;}.cls-4{fill:#e8505b;}.cls-5{opacity:0.8;}.cls-16,.cls-6{fill:#fff;}.cls-7{fill:#ff9300;}.cls-8{fill:#ffbe9d;}.cls-9{fill:none;}.cls-10{fill:#263238;}.cls-11{fill:#fafafa;}.cls-12{fill:#455a64;}.cls-13{opacity:0.4;}.cls-14{fill:#009dff;}.cls-15,.cls-16{opacity:0.6;}.cls-16{isolation:isolate;}.cls-17{fill:#eb996e;}.cls-18{opacity:0.2;}.cls-19{fill:#152cff;}.cls-20{opacity:0.3;}</style></defs><g id="Layer_2" data-name="Layer 2"><g id="Layer_1-2" data-name="Layer 1"><g id="Layer_2-2" data-name="Layer 2"><g id="Background_Complete" data-name="Background Complete"><path class="cls-1" d="M251.43,57.06h65.75s-5.81-10.58-22.74-9c-16.16,1.47-17-5.2-25.2-6S254.17,47.47,251.43,57.06Z"/><path class="cls-2" d="M79.57,230.88s-6.59,3.56,3,17.32S98.4,268.56,98.4,268.56s1.81,3.25-1,4.19-9.33.79-10.13,4.51,2.31,7,8.14,9.24,18.4,7.78,19.53,8.28,2.37,2,.55,2.89-15.94,4.41-13.89,11,19.32,10.32,21.2,10.77,2.41,1.14,2.4,2.14-4.86,1.72-8.84,2.87-8.38,3.18-6.88,6.89,12.36,10.44,36.33,9.5l11.09-1.17,4.71-10.15c8.78-22.33,6-34.8,3-37.43s-6.38.86-8.78,4.23-4.67,7.72-5.61,7.4-1.44-1.05-1.24-3,2.37-19.45-3.19-23.56-13.47,8.09-15,9.49-2.46-.25-2.55-1.46-1.15-14.92-1.4-21.17-2.14-10.24-6-10.73-5.78,5.73-7.59,8.08S109,261,109,261s-4.19-8.07-14-21.65S79.44,231,79.44,231"/><path class="cls-1" d="M157.82,342.2c-7.18-10-19.65-28-30.44-43.39s-20.57-29.3-27.7-39.34c-3.57-5-6.46-9.06-8.46-11.88l-2.3-3.23-.59-.85-.19-.29.22.27.61.83,2.36,3.19c2,2.78,5,6.81,8.55,11.82,7.18,10,17,23.9,27.78,39.28S150.89,332,158,342.06"/><path class="cls-1" d="M96.37,277.82a2.42,2.42,0,0,1,.8.11c.51.09,1.24.24,2.14.43,1.81.4,4.3,1,7,1.73l7,1.87,2.12.55a4.25,4.25,0,0,1,.77.23,3.08,3.08,0,0,1-.8-.1c-.51-.09-1.25-.24-2.15-.45-1.81-.41-4.28-1.05-7-1.77l-7-1.82-2.12-.54A5.15,5.15,0,0,1,96.37,277.82Z"/><path class="cls-1" d="M116.86,281.93c-.09,0,.94-5.19,2.3-11.56s2.54-11.51,2.64-11.49-.94,5.2-2.3,11.56S117,282,116.86,281.93Z"/><path class="cls-1" d="M132.36,306.31a4.61,4.61,0,0,1,.36-.74l1.06-2c.89-1.66,2.12-4,3.37-6.55s2.33-5,3.08-6.7c.36-.81.66-1.5.9-2.05a3.38,3.38,0,0,1,.36-.74,2.77,2.77,0,0,1-.24.79c-.17.5-.44,1.22-.79,2.09-.7,1.76-1.73,4.16-3,6.76s-2.52,4.89-3.47,6.52c-.47.82-.87,1.47-1.15,1.92A3.17,3.17,0,0,1,132.36,306.31Z"/><path class="cls-1" d="M113,306.67a3.22,3.22,0,0,1,.76-.09l2.06-.12c1.75-.09,4.16-.18,6.82-.26s5.07-.14,6.82-.17h2.06a2.78,2.78,0,0,1,.76.05,4.8,4.8,0,0,1-.75.09l-2.07.12c-1.74.08-4.15.18-6.81.26s-5.07.14-6.82.16h-2.07A3.88,3.88,0,0,1,113,306.67Z"/><path class="cls-1" d="M124,329.93a5.57,5.57,0,0,1,1-.11l2.65-.16c2.23-.12,5.32-.27,8.73-.41s6.5-.24,8.73-.3h2.65a5.57,5.57,0,0,1,1,0,4.79,4.79,0,0,1-1,.11l-2.65.16c-2.23.13-5.32.27-8.73.41s-6.5.25-8.73.31L125,330A5.6,5.6,0,0,1,124,329.93Z"/><path class="cls-1" d="M148,328.78a5.87,5.87,0,0,1,.42-1l1.26-2.55c1-2.14,2.5-5.12,4-8.45s2.8-6.37,3.72-8.58l1.08-2.62a6.31,6.31,0,0,1,.44-.95,7.21,7.21,0,0,1-.31,1c-.22.63-.55,1.54-1,2.66-.86,2.24-2.11,5.3-3.63,8.64s-3,6.29-4.11,8.42c-.55,1.06-1,1.91-1.35,2.49A6.2,6.2,0,0,1,148,328.78Z"/><path class="cls-3" d="M241,181.2c-11.9-13.34-10.76-32.61-6.25-49.11.75-2.75,1.14-5.75,3-7.88s5.38-3,7.58-1.29c1.84,1.46,2.17,4.07,2.85,6.32a16.73,16.73,0,0,0,5,7.76c1.55,1.34,3.6,2.42,5.58,1.87,2.7-.76,3.77-4,4.41-6.76q1.77-7.74,3.56-15.46a26.13,26.13,0,0,1,2.77-8c1.48-2.41,4-4.4,6.76-4.51s5.69,2.17,5.6,5a25.64,25.64,0,0,1-.73,3.46,3,3,0,0,0,1,3.14c1,.58,2.31.06,3.33-.55,3.51-2.12,6.29-5.25,8.95-8.39s5.27-6.39,8.58-8.81,7.45-4,11.46-3.28,7.64,4.15,7.72,8.27-3.13,7.54-6.34,10.1a63.79,63.79,0,0,1-15.73,9.2,5.1,5.1,0,0,0-2.7,1.8c-1,1.69.28,3.94,1.95,5,1.9,1.17,4.18,1.49,6.27,2.25s4.2,2.27,4.54,4.5c.46,3.09-2.6,5.49-5.38,6.87A54.42,54.42,0,0,1,287.19,148c-2.21.26-4.5.41-6.48,1.45s-3.55,3.28-3,5.46,2.92,3.41,5.14,3.52,4.4-.6,6.61-.88c4.13-.53,9,.89,10.62,4.74a9,9,0,0,1-.9,7.95,20.77,20.77,0,0,1-5.8,5.83,54.56,54.56,0,0,1-26.44,10.56c-9.53,1-17.88-.14-25.87-5.41"/><path class="cls-1" d="M243.46,182.81c2.17-6.45-.1-3.21,4.35-11a256,256,0,0,1,16.13-24.31l4.56-6.15c1.5-2,3-4,4.56-5.88a126,126,0,0,1,9.67-10.21c3.23-3.1,6.41-5.92,9.4-8.54s5.85-5,8.53-7A100.4,100.4,0,0,1,314,100.88c1.65-.9,3-1.57,3.85-2l1-.49a1.14,1.14,0,0,1,.36-.15l-.33.19-1,.54c-.87.47-2.16,1.16-3.8,2.09A105.38,105.38,0,0,0,300.88,110c-2.66,2.07-5.48,4.46-8.46,7.08s-6.15,5.46-9.36,8.56a125,125,0,0,0-9.61,10.19c-1.56,1.86-3,3.84-4.54,5.86s-3,4.08-4.55,6.16a260.12,260.12,0,0,0-16.13,24.24c-4.46,7.76-2.22,4.48-4.42,10.89"/><path class="cls-1" d="M273.21,135.46a6.42,6.42,0,0,1,0-1.24c0-.8.13-1.95.26-3.37.26-2.84.75-6.75,1.31-11.07s1-8.22,1.22-11c.11-1.42.19-2.57.24-3.37a5.58,5.58,0,0,1,.13-1.23,5.7,5.7,0,0,1,.07,1.24c0,.8,0,2-.07,3.38-.13,2.85-.51,6.78-1.07,11.1s-1.07,8.1-1.46,11c-.17,1.33-.31,2.45-.43,3.35A5.43,5.43,0,0,1,273.21,135.46Z"/><path class="cls-1" d="M310.28,137.23a7.85,7.85,0,0,1-1.45-.16c-.93-.14-2.28-.34-3.95-.53-3.33-.42-8-.84-13.08-1.08s-9.78-.24-13.14-.15c-1.68,0-3,.1-4,.14a9,9,0,0,1-1.47,0,7.16,7.16,0,0,1,1.45-.22c.94-.1,2.3-.22,4-.3,3.37-.19,8-.24,13.17,0a125.28,125.28,0,0,1,13.11,1.24c1.67.24,3,.5,3.93.7A8.81,8.81,0,0,1,310.28,137.23Z"/><path class="cls-1" d="M248.41,171.24a1.46,1.46,0,0,1-.15-.49l-.3-1.42c-.26-1.25-.58-3.05-1-5.29-.75-4.47-1.59-10.68-2.43-17.55s-1.62-13.07-2.27-17.55c-.33-2.18-.59-4-.79-5.31-.09-.58-.15-1-.21-1.45a2.17,2.17,0,0,1,0-.51,1.63,1.63,0,0,1,.14.49c.08.39.18.86.31,1.43.25,1.24.58,3,.95,5.29.75,4.47,1.59,10.68,2.43,17.55s1.62,13.07,2.27,17.55c.33,2.18.59,4,.79,5.31.08.58.15,1,.21,1.44A2.84,2.84,0,0,1,248.41,171.24Z"/><path class="cls-1" d="M299.18,167.21a2.27,2.27,0,0,1-.52.09l-1.47.13-5.44.44c-4.6.38-10.93,1-17.94,1.62s-13.35,1.19-17.95,1.47c-2.3.14-4.16.23-5.45.27h-1.49a2.17,2.17,0,0,1-.51,0,2.26,2.26,0,0,1,.51-.08l1.48-.13,5.44-.44c4.59-.38,10.93-1,17.93-1.62s13.35-1.19,18-1.47c2.3-.14,4.17-.23,5.45-.27h1.49A2.26,2.26,0,0,1,299.18,167.21Z"/><path class="cls-1" d="M338.56,269a4.28,4.28,0,0,1-.17.46c-.13.34-.31.78-.54,1.34l-2.14,5L328,293.64l0,.11h-.12l-24.22,4-8.11,1.33-.37.06.09-.37,5.33-21,.12.23-14.24-6.36-3.92-1.79-1-.48-.34-.18a1.23,1.23,0,0,1,.37.12l1.05.43,4,1.69,14.3,6.2.16.07-.05.17c-1.52,6.1-3.3,13.28-5.25,21.07l-.27-.3,8.11-1.33,24.23-3.94-.16.12,7.87-17.75c.95-2.12,1.71-3.79,2.24-5l.61-1.31A2.26,2.26,0,0,1,338.56,269Z"/><polygon class="cls-1" points="298.34 296.24 297.68 297.98 298.74 299.51 296.88 299.42 295.75 300.9 295.26 299.1 293.5 298.49 295.06 297.47 295.1 295.6 296.56 296.77 298.34 296.24"/><polygon class="cls-1" points="281.71 267.98 281.38 268.85 281.91 269.61 280.99 269.57 280.42 270.3 280.18 269.41 279.3 269.1 280.08 268.59 280.1 267.67 280.83 268.25 281.71 267.98"/><polygon class="cls-1" points="328.68 292.55 328.35 293.42 328.88 294.18 327.96 294.13 327.39 294.87 327.15 293.98 326.28 293.67 327.05 293.16 327.07 292.23 327.8 292.81 328.68 292.55"/><polygon class="cls-1" points="301.58 276.95 301.25 277.82 301.78 278.58 300.85 278.54 300.29 279.27 300.05 278.38 299.17 278.07 299.95 277.56 299.97 276.64 300.69 277.22 301.58 276.95"/><polygon class="cls-1" points="339.69 268.12 339.36 268.99 339.89 269.75 338.96 269.7 338.4 270.44 338.16 269.55 337.28 269.24 338.05 268.73 338.08 267.8 338.8 268.38 339.69 268.12"/><path class="cls-1" d="M36.59,340.89H88.94s-4.63-8.42-18.1-7.2c-12.87,1.17-13.53-4.14-20.07-4.8S38.77,333.26,36.59,340.89Z"/><path class="cls-3" d="M47,134.78H99.34s-4.63-8.43-18.11-7.2c-12.87,1.17-13.52-4.15-20.07-4.8S49.17,127.14,47,134.78Z"/><path class="cls-3" d="M312.87,171.18h43S352,164.26,341,165.27c-10.57,1-11.11-3.41-16.48-4S314.66,164.91,312.87,171.18Z"/></g><g id="Pencil"><path class="cls-4" d="M227,256.08c2.14-16.12-9.2-29.42-23.36-37.41S173,208,157.4,203.56c-14.75-4.19-29.42-10.3-40.35-21.06s-17.47-26.94-13.55-41.76c1-3.72,2.75-7.46,6-9.61s8.07-2.09,10.46.93c5.07,6.44-4.82,18,1.37,23.35,1.43,1.23,3.38,1.68,4.85,2.86,3.92,3.12,2.65,9.19,3.21,14.17,1.09,9.85,10.32,16.69,19.4,20.68,12.14,5.35,25.3,7.86,38.19,11s25.88,7.15,36.62,15,20,20,20,33.28c0,3.71-.49,8.27-2.82,11.16s-5.29,3.48-8.65,1.9-5.7-4-5.08-9.37"/><g class="cls-5"><path class="cls-6" d="M227,256.08c2.14-16.12-9.2-29.42-23.36-37.41S173,208,157.4,203.56c-14.75-4.19-29.42-10.3-40.35-21.06s-17.47-26.94-13.55-41.76c1-3.72,2.75-7.46,6-9.61s8.07-2.09,10.46.93c5.07,6.44-4.82,18,1.37,23.35,1.43,1.23,3.38,1.68,4.85,2.86,3.92,3.12,2.65,9.19,3.21,14.17,1.09,9.85,10.32,16.69,19.4,20.68,12.14,5.35,25.3,7.86,38.19,11s25.88,7.15,36.62,15,20,20,20,33.28c0,3.71-.49,8.27-2.82,11.16s-5.29,3.48-8.65,1.9-5.7-4-5.08-9.37"/></g><path class="cls-4" d="M158.48,128c-.51-6,3.93-11.17,9-14s10.85-3.92,16.07-6.39c13-6.14,21.18-20.58,21.79-35.4s-5.82-29.63-15.87-40.51c-4.08-4.42-9.1-9-9.16-15.09-.07-6.29,6-11.25,12.14-11.17s11.72,4.16,15.37,9.29S213.48,26,215.45,32c-1.41-2.51,1.47-5.62,4.24-5.36s5,2.58,6.67,4.89a52,52,0,0,1,10,34.84,49,49,0,0,1-15.5,31.94c-9.86,9-22.92,13.22-35.57,17.21l-26.42,8.33"/><g class="cls-5"><path class="cls-6" d="M158.48,128c-.51-6,3.93-11.17,9-14s10.85-3.92,16.07-6.39c13-6.14,21.18-20.58,21.79-35.4s-5.82-29.63-15.87-40.51c-4.08-4.42-9.1-9-9.16-15.09-.07-6.29,6-11.25,12.14-11.17s11.72,4.16,15.37,9.29S213.48,26,215.45,32c-1.41-2.51,1.47-5.62,4.24-5.36s5,2.58,6.67,4.89a52,52,0,0,1,10,34.84,49,49,0,0,1-15.5,31.94c-9.86,9-22.92,13.22-35.57,17.21l-26.42,8.33"/></g><path class="cls-4" d="M151.13,2.51A5.79,5.79,0,0,0,148,9.6,5.8,5.8,0,0,0,155,13a5.8,5.8,0,0,0,3.68-6.8,5.8,5.8,0,0,0-6.64-4"/><g class="cls-5"><path class="cls-6" d="M151.13,2.51A5.79,5.79,0,0,0,148,9.6,5.8,5.8,0,0,0,155,13a5.8,5.8,0,0,0,3.68-6.8,5.8,5.8,0,0,0-6.64-4"/></g><path class="cls-4" d="M183.7,387.82c-3.24-6.71-.42-15.08,4.74-20.46s12.21-8.45,19-11.45c15.05-6.63,31-14.53,38.65-29.1,2.58-4.91,4-10.31,5.5-15.66,2.81-10.37,5.45-22.14-.2-31.27-1.63-2.62-4.07-5-7.12-5.5-3.46-.62-7,1.29-9.15,4.09s-3.05,6.33-3.49,9.82c-.84,6.64-.15,13.39-.85,20s-3.13,13.61-8.62,17.44c-6.66,4.64-16.17,3.6-22.64,8.51-5.23,4-7.22,10.84-11.31,16-3.43,4.31-8.24,7.26-12.64,10.57s-8.67,7.37-10.16,12.67a15,15,0,0,0,20.89,17.63"/><g class="cls-5"><path class="cls-6" d="M183.7,387.82c-3.24-6.71-.42-15.08,4.74-20.46s12.21-8.45,19-11.45c15.05-6.63,31-14.53,38.65-29.1,2.58-4.91,4-10.31,5.5-15.66,2.81-10.37,5.45-22.14-.2-31.27-1.63-2.62-4.07-5-7.12-5.5-3.46-.62-7,1.29-9.15,4.09s-3.05,6.33-3.49,9.82c-.84,6.64-.15,13.39-.85,20s-3.13,13.61-8.62,17.44c-6.66,4.64-16.17,3.6-22.64,8.51-5.23,4-7.22,10.84-11.31,16-3.43,4.31-8.24,7.26-12.64,10.57s-8.67,7.37-10.16,12.67a15,15,0,0,0,20.89,17.63"/></g><path class="cls-4" d="M83.57,48.84a21.21,21.21,0,0,1-8.42-17.11,21.16,21.16,0,0,1,9-16.79c3.07-2.12,6.72-3.41,9.45-5.95,2.43-2.26,4-5.4,6.74-7.3a10.06,10.06,0,0,1,11.59.3,10.08,10.08,0,0,1,3.28,11c-1.26,3.51-4.41,6.08-5.72,9.57-1.42,3.75-.51,8-1,11.93A16.48,16.48,0,0,1,90,48.71a17.05,17.05,0,0,1-3.66-.91"/><g class="cls-5"><path class="cls-6" d="M83.57,48.84a21.21,21.21,0,0,1-8.42-17.11,21.16,21.16,0,0,1,9-16.79c3.07-2.12,6.72-3.41,9.45-5.95,2.43-2.26,4-5.4,6.74-7.3a10.06,10.06,0,0,1,11.59.3,10.08,10.08,0,0,1,3.28,11c-1.26,3.51-4.41,6.08-5.72,9.57-1.42,3.75-.51,8-1,11.93A16.48,16.48,0,0,1,90,48.71a17.05,17.05,0,0,1-3.66-.91"/></g><path class="cls-7" d="M84,27.4H96.25V52.73a5.41,5.41,0,0,1-5.41,5.41H89.37A5.41,5.41,0,0,1,84,52.73h0Z"/><polygon class="cls-8" points="83.96 27.4 90.1 16.13 96.25 27.4 83.96 27.4"/><path class="cls-7" d="M87.67,20.59s1.86,2.81,4.87,0L90.1,16.13Z"/><line class="cls-9" x1="85.78" y1="27.4" x2="88.42" y2="27.4"/><path class="cls-10" d="M96.42,51.5a39.52,39.52,0,0,1-6.25.25,39.52,39.52,0,0,1-6.25-.25,38.36,38.36,0,0,1,6.25-.25A38.36,38.36,0,0,1,96.42,51.5Z"/><path class="cls-10" d="M96.29,49.62a40.38,40.38,0,0,1-6.12.25A39.38,39.38,0,0,1,84,49.62a36.83,36.83,0,0,1,6.12-.25A36,36,0,0,1,96.29,49.62Z"/><path class="cls-11" d="M87.57,27.58c.13,0,.24,4.91.24,11s-.11,11-.24,11-.25-4.9-.25-11S87.43,27.58,87.57,27.58Z"/><path class="cls-11" d="M92.54,27.58c.13,0,.25,4.91.25,11s-.12,11-.25,11-.25-4.9-.25-11S92.4,27.58,92.54,27.58Z"/></g><g id="Notebook"><polygon class="cls-10" points="190.73 373.7 246.57 376.09 247.91 379.34 211.32 438.74 145.26 436.81 190.73 373.7"/><polygon class="cls-1" points="142.75 431.02 209.21 434.82 243.93 380.95 219.55 382.93 157.86 404.66 142.75 431.02"/><path class="cls-2" d="M133.42,427l61,1c-2.54-7.8,3.44-18.8,11.65-22.5,5.43-2.45,15.67-5.63,21-8.34,10-5.14,19.1-14.89,18.3-23.25l-25.06-.8-32-1.24c-2.68,7.94-8.4,13.14-17.1,16.27-7.78,2.79-16.64,2.79-24.24,6-12.22,5.12-18.09,21.7-13.54,32.93"/><path class="cls-10" d="M133.42,427s-.06-.13-.15-.39l-.42-1.18a12.51,12.51,0,0,1-.52-2,20.29,20.29,0,0,1-.42-2.78,28,28,0,0,1,.48-7.75,28.54,28.54,0,0,1,3.92-9.69,21.33,21.33,0,0,1,1.75-2.45c.33-.4.64-.82,1-1.21l1.13-1.14a10.54,10.54,0,0,1,1.22-1.1c.43-.34.85-.72,1.31-1.05a21.48,21.48,0,0,1,3-1.77c4.23-2.13,9.28-3,14.54-4,2.64-.48,5.35-1,8.08-1.73a37.79,37.79,0,0,0,8-3.24,25.86,25.86,0,0,0,3.76-2.46,22.07,22.07,0,0,0,3.33-3.15,24.09,24.09,0,0,0,4.64-8.18v-.16h.18l26.65,1c9.24.36,18.82.61,28.61.94l1.79.06h.22v.21a13.44,13.44,0,0,1-.81,5.65,24.76,24.76,0,0,1-1.11,2.6c-.48.81-.92,1.64-1.46,2.4a37.51,37.51,0,0,1-7.56,8,45.37,45.37,0,0,1-9.13,5.64c-3.22,1.44-6.48,2.62-9.67,3.8s-6.35,2.3-9.35,3.61a17.9,17.9,0,0,0-4.1,2.49,20.39,20.39,0,0,0-1.78,1.57,21.76,21.76,0,0,0-1.57,1.75,22.59,22.59,0,0,0-4.27,8,15,15,0,0,0-.15,8.54l.08.27h-.28L150,427.41l-12.31-.25-3.23-.08h3.23l12.31.14,44.39.61-.19.27a15.3,15.3,0,0,1,.12-8.79,22.89,22.89,0,0,1,4.34-8.18c.47-.64,1.06-1.19,1.59-1.79a22.89,22.89,0,0,1,1.82-1.6,18.24,18.24,0,0,1,4.2-2.56c3-1.32,6.18-2.44,9.37-3.63s6.44-2.37,9.63-3.8a44.91,44.91,0,0,0,9-5.58,37,37,0,0,0,7.46-7.89,21,21,0,0,0,1.43-2.35,24.57,24.57,0,0,0,1.09-2.54,13.23,13.23,0,0,0,.78-5.43l.24.23-1.79-.06c-9.8-.33-19.37-.58-28.62-1l-26.65-1,.22-.15a24.46,24.46,0,0,1-4.73,8.33,23.36,23.36,0,0,1-3.4,3.19,27.58,27.58,0,0,1-3.82,2.5,38.43,38.43,0,0,1-8.14,3.25c-2.75.75-5.48,1.25-8.12,1.72-5.27.94-10.29,1.82-14.46,3.91a20.22,20.22,0,0,0-2.94,1.73c-.45.33-.86.69-1.29,1a8.82,8.82,0,0,0-1.21,1.08l-1.12,1.12c-.35.38-.66.8-1,1.19a23.27,23.27,0,0,0-1.75,2.42,28.73,28.73,0,0,0-3.94,9.58,28,28,0,0,0-.54,7.7,20,20,0,0,0,.38,2.77,14.18,14.18,0,0,0,.48,2c.17.51.29.9.38,1.18S133.42,427,133.42,427Z"/><path class="cls-10" d="M205.44,372.85a10.47,10.47,0,0,0,.14-1.09,6.15,6.15,0,0,0-.48-2.88,5.93,5.93,0,0,0-2.89-3.09,6.57,6.57,0,0,0-8.75,3.16c0,.08-.07.15-.1.23a7.3,7.3,0,0,0-.59,4.25,7.53,7.53,0,0,0,1,2.75c.38.59.66.87.63.9a2.83,2.83,0,0,1-.79-.79,7,7,0,0,1-1.23-2.8,7.56,7.56,0,0,1,.52-4.5,7,7,0,0,1,9.51-3.61,6.16,6.16,0,0,1,3,3.37,5.89,5.89,0,0,1,.34,3,4.79,4.79,0,0,1-.2.81C205.5,372.77,205.46,372.86,205.44,372.85Z"/><path class="cls-10" d="M215,372.85a9.32,9.32,0,0,0,.13-1.09,6,6,0,0,0-.48-2.88,5.91,5.91,0,0,0-2.88-3.09A6.57,6.57,0,0,0,203,369a1.47,1.47,0,0,0-.1.22,7.48,7.48,0,0,0-.59,4.25,7.18,7.18,0,0,0,1,2.75c.38.59.66.87.63.9a2.83,2.83,0,0,1-.79-.79,6.78,6.78,0,0,1-1.23-2.8,7.48,7.48,0,0,1,.51-4.5,7,7,0,0,1,9.52-3.61,6.13,6.13,0,0,1,3,3.37,6,6,0,0,1,.35,3,4,4,0,0,1-.21.81A.91.91,0,0,0,215,372.85Z"/><path class="cls-10" d="M222.27,373.35a10.18,10.18,0,0,0,.08-1.1,6.11,6.11,0,0,0-.65-2.85,5.89,5.89,0,0,0-3-2.92,6.62,6.62,0,0,0-5.15.11,6.7,6.7,0,0,0-3.5,3.78,7.29,7.29,0,0,0,.85,7c.41.57.71.83.68.86a2.68,2.68,0,0,1-.83-.74,6.94,6.94,0,0,1-1.39-2.73,7.51,7.51,0,0,1,.26-4.52,7.08,7.08,0,0,1,3.73-4.07,7,7,0,0,1,5.53-.07,6.14,6.14,0,0,1,3.19,3.19,6,6,0,0,1,.52,3,4.75,4.75,0,0,1-.16.82C222.32,373.26,222.29,373.35,222.27,373.35Z"/><path class="cls-10" d="M230,373.79a6.24,6.24,0,0,1,0-1.1,6.29,6.29,0,0,0-.8-2.81,5.87,5.87,0,0,0-3.2-2.76,6.6,6.6,0,0,0-8.37,4.14l-.06.2a7.35,7.35,0,0,0,1.21,6.91c.44.55.76.8.73.83a2.69,2.69,0,0,1-.87-.7,6.73,6.73,0,0,1-1.53-2.65,7.61,7.61,0,0,1,0-4.53,7,7,0,0,1,8.7-4.73l.3.1a6.11,6.11,0,0,1,3.36,3,5.78,5.78,0,0,1,.68,3,4.72,4.72,0,0,1-.11.83C230.11,373.7,230.08,373.8,230,373.79Z"/><path class="cls-10" d="M237.86,373.61v-1.1a6.09,6.09,0,0,0-.87-2.79,5.89,5.89,0,0,0-3.28-2.67,6.6,6.6,0,0,0-8.25,4.38l-.06.2a7.31,7.31,0,0,0,1.41,6.87c.46.53.77.77.75.81a2.71,2.71,0,0,1-.89-.68A7,7,0,0,1,225,376a7.53,7.53,0,0,1-.11-4.53,7.11,7.11,0,0,1,3.39-4.36,7,7,0,0,1,5.5-.52,6.1,6.1,0,0,1,3.44,2.93,5.83,5.83,0,0,1,.76,3,3.81,3.81,0,0,1-.09.82C237.91,373.52,237.88,373.61,237.86,373.61Z"/><path class="cls-10" d="M244.44,374.49v-1.1a6.23,6.23,0,0,0-.76-2.83,5.94,5.94,0,0,0-3.17-2.79,6.65,6.65,0,0,0-5.14.32A6.75,6.75,0,0,0,232,372a7.55,7.55,0,0,0-.17,4.29,7.3,7.3,0,0,0,1.31,2.63c.43.55.74.81.71.84A2.94,2.94,0,0,1,233,379a6.91,6.91,0,0,1-1.49-2.67,7.5,7.5,0,0,1,.07-4.52,7,7,0,0,1,8.74-4.65l.34.12a6.14,6.14,0,0,1,3.32,3.06,5.77,5.77,0,0,1,.64,3,3.87,3.87,0,0,1-.12.82A1,1,0,0,1,244.44,374.49Z"/></g><g id="Air_Balloon" data-name="Air Balloon"><path class="cls-7" d="M273.2,169.64a53.15,53.15,0,0,0-8.27.37,34.4,34.4,0,0,0-30,34.3,61,61,0,0,0,2.1,16.35c4.81,17.05,6.29,32.09,5.74,39.41l16.09,8.65s7.46-10.7,14.65-15.32,31.17-17,40.65-29.66c6.12-8.18,7.3-25-7.28-39.66A49.39,49.39,0,0,0,273.2,169.64Z"/><polygon class="cls-12" points="235.15 278.69 249.69 286.55 240.22 298.58 230.53 294.17 235.15 278.69"/><path class="cls-10" d="M235.85,279.18c-.12-.05,1.32-4.36,3.23-9.64s3.56-9.52,3.69-9.47-1.32,4.36-3.23,9.64Q237.94,274.53,235.85,279.18Z"/><path class="cls-10" d="M248.77,286c-.11-.07,2.16-4.14,5.09-9.1s5.4-8.93,5.52-8.86-2.16,4.15-5.09,9.11S248.89,286,248.77,286Z"/><g class="cls-13"><path d="M278,170.09c-.65,0-8.66,9.4-12.2,15.74-11.9,21.33-12.44,42.09-15.74,66.29-.48,3.45-2.19,10.91-2.16,10.73,1.76,1.39,7.68,4.13,7.68,4.13s5.59-6.74,7.81-10.13c8.88-13.57,18.53-24.15,26.14-38.48s14.93-27,7.88-41.66C297.46,176.71,285.27,169.69,278,170.09Z"/></g><path class="cls-10" d="M314.23,225.89a2.11,2.11,0,0,1-.21-.46c-.14-.31-.29-.78-.56-1.36a23.92,23.92,0,0,0-2.81-4.72,24.54,24.54,0,0,0-6.17-5.77,23.64,23.64,0,0,0-10.14-3.75h-.09l-.06-.08a55.53,55.53,0,0,0-6.5-7.45,32.06,32.06,0,0,0-8.87-6.11,22.92,22.92,0,0,0-10.48-2,17.36,17.36,0,0,0-9.17,3.06l-.15.1-.13-.12a18.09,18.09,0,0,0-9.8-4.35,17.65,17.65,0,0,0-8.33,1.06,18.64,18.64,0,0,0-4.78,2.7c-.51.39-.88.71-1.13.93a2.43,2.43,0,0,1-.38.33,2,2,0,0,1,.33-.38,12.78,12.78,0,0,1,1.09-1,17.85,17.85,0,0,1,13.24-4,18.35,18.35,0,0,1,10,4.39h-.27a17.58,17.58,0,0,1,9.41-3.18,23.07,23.07,0,0,1,10.71,2,32.66,32.66,0,0,1,9,6.21,56.45,56.45,0,0,1,6.52,7.54l-.15-.09a23.59,23.59,0,0,1,10.28,3.89,24.33,24.33,0,0,1,6.19,5.91,22.29,22.29,0,0,1,2.72,4.83c.25.59.38,1.07.5,1.38A2.62,2.62,0,0,1,314.23,225.89Z"/><path class="cls-10" d="M284.3,247.14a10,10,0,0,0-1.38-3.5,9.62,9.62,0,0,0-3.09-3,8.6,8.6,0,0,0-5.33-1.26h-.2v-.2a14,14,0,0,0-2.65-6.22,13.75,13.75,0,0,0-6-4.63,14.19,14.19,0,0,0-11.8.61l-.15.08-.12-.13a10,10,0,0,0-5.59-3,11.11,11.11,0,0,0-5,.15,11.58,11.58,0,0,0-4,2,1.94,1.94,0,0,1,.21-.22,5.19,5.19,0,0,1,.68-.56,9.58,9.58,0,0,1,3-1.45,11.08,11.08,0,0,1,5.15-.27,10.46,10.46,0,0,1,5.86,3.09h-.27a14.38,14.38,0,0,1,21.05,10.57l-.24-.18a8.81,8.81,0,0,1,5.56,1.39,9.43,9.43,0,0,1,3.12,3.13,8.36,8.36,0,0,1,1.06,2.63c.07.32.08.57.11.74S284.32,247.14,284.3,247.14Z"/><path class="cls-10" d="M246.88,290.34a1.37,1.37,0,0,0-.53-.35,2.54,2.54,0,0,0-1.7.05,5.14,5.14,0,0,1-1.29.23,2,2,0,0,1-1.44-.63c-.77-.8-1.06-2-1.79-2.77a1.67,1.67,0,0,0-1.34-.56,8,8,0,0,0-1.52.3,3.39,3.39,0,0,1-1.52.08,2.71,2.71,0,0,1-1.19-.61,2.86,2.86,0,0,1-1-1.61,1.16,1.16,0,0,1,0-.69,1.83,1.83,0,0,0,.17.64,2.84,2.84,0,0,0,1,1.39,2.45,2.45,0,0,0,1.05.48,3.32,3.32,0,0,0,1.33-.12,8,8,0,0,1,1.61-.35,2.13,2.13,0,0,1,1.72.71c.84,1,1.11,2.11,1.76,2.79a1.6,1.6,0,0,0,1.12.54,5.33,5.33,0,0,0,1.19-.16,2.57,2.57,0,0,1,1.87.11C246.84,290.06,246.9,290.34,246.88,290.34Z"/><path class="cls-10" d="M248.55,288a64.12,64.12,0,0,1-7.1-3.51,63.77,63.77,0,0,1-6.86-3.94,62.41,62.41,0,0,1,7.1,3.51A62.12,62.12,0,0,1,248.55,288Z"/><path class="cls-10" d="M245.66,291.67l-.56.27c-.17.08-.38.2-.65.31a2.42,2.42,0,0,1-1,.13,4.19,4.19,0,0,1-2.4-.92,3.42,3.42,0,0,1-.91-1.26,5,5,0,0,0-.71-1.31,3.31,3.31,0,0,0-2.63-.75,6.2,6.2,0,0,1-2.53-.25,2.33,2.33,0,0,1-1.28-1.17c-.16-.39-.1-.63-.08-.63a4.72,4.72,0,0,0,.25.54,2.36,2.36,0,0,0,1.23.94,6.62,6.62,0,0,0,2.39.11,3.65,3.65,0,0,1,3,.88,4.9,4.9,0,0,1,.78,1.44,3,3,0,0,0,.77,1.11,4,4,0,0,0,2.13.92,3.23,3.23,0,0,0,1.56-.27A1.17,1.17,0,0,1,245.66,291.67Z"/></g><g id="Character"><path class="cls-14" d="M135.87,198.28,161,194.55l-12-17-6.45.38a11.47,11.47,0,0,0-9.88,6.93h0a11.5,11.5,0,0,0-.73,6.73Z"/><path class="cls-8" d="M243.88,226.14c.26.72.55,1.58.83,2.6a7.62,7.62,0,0,1,.27,2.69,12.16,12.16,0,0,1-.56,3.33c-.42,1,.54,1.91,1.36,1.43s2-3.07,1.94-6.42,3.34.66,4.61,2.1,5.41,5.71,6.17,5.67c1.1-.06,1.24-1.25-.06-2.66s-4.91-5.9-4.12-6.54,7.15,6.8,7.15,6.8,1.1,1.8,2,1.1c1.7-1.27-5.65-8.65-6.37-9.34-.5-.48.34-1.2.85-.66s6.18,7.55,7.92,6.28c1.33-1-6-6.13-6.36-8.24s5.16,4.48,6.39,3.49c.46-.37.76-.7-3-4-1.81-1.61-8.67-6.41-8.67-6.41l-20.63-59.1-15.94,9.13Z"/><path class="cls-8" d="M121,114.38,98,86.86h0a14.87,14.87,0,0,0-1.12-2.74,8.59,8.59,0,0,0-5.44-4.54c-1.47-.32-3.14-.17-4.29-1.13-.51-.43-.85-1-1.39-1.44a1.22,1.22,0,0,0-1.78.1,1.58,1.58,0,0,0,.1,1.37,12.77,12.77,0,0,0,4,5.17c-2.16.65-5.25,1.65-5.25,1.65S77.9,80,75.41,80s2,4.72,2,4.72-4-3.7-5.23-2.66,1.93,3.79,1.93,3.79A5.21,5.21,0,0,0,70.88,85c-1.13.19-2.1,1.52-1.49,2.49a2.74,2.74,0,0,0,1,.82l6.14,3.42a7.43,7.43,0,0,0,3.28,1.19c3.12.1,5.48-1.83,8.6-1.75,0,0,17.39,36.61,19.15,38.5s40,4.46,40,4.46l22.11-19.05Z"/><path class="cls-14" d="M190.29,313.81l23.56,10.26-12.62,29.37c-2.73-1.38-1.84-19-1.84-19l-15.36-6Z"/><g class="cls-15"><path class="cls-7" d="M202,324.82a1.3,1.3,0,0,1,1.73-.24,1.26,1.26,0,0,1,.25,1.71,1.39,1.39,0,0,1-1.83.24,1.3,1.3,0,0,1-.06-1.8"/></g><path class="cls-16" d="M213.85,324.07l-2.42-.94-11.19,28.51s0,1.55,1,1.8Z"/><path class="cls-10" d="M199,334.86c.15.06.52-.63,1.28-1.14s1.53-.63,1.53-.78-.92-.3-1.83.33S198.9,334.83,199,334.86Z"/><path class="cls-10" d="M199,338.49c.13.09.64-.43,1.45-.65s1.52-.1,1.58-.24-.72-.59-1.73-.29S198.86,338.42,199,338.49Z"/><path class="cls-10" d="M201.93,341.82c.08-.12-.55-.63-1.49-.59s-1.55.56-1.45.68.69-.13,1.46-.14S201.85,342,201.93,341.82Z"/><path class="cls-10" d="M195.69,333.11c.16,0,.24-.74.64-1.53s.93-1.31.84-1.44-.86.26-1.32,1.2S195.55,333.14,195.69,333.11Z"/><path class="cls-10" d="M192.51,330.92a3,3,0,0,0,.62-1.48,6.83,6.83,0,0,0,.19-1.74,8.26,8.26,0,0,0-.09-1,1.9,1.9,0,0,0-.15-.59.68.68,0,0,0-.74-.39.83.83,0,0,0-.59.49,2.28,2.28,0,0,0-.17.58,5.2,5.2,0,0,0-.07,1,5.73,5.73,0,0,0,.3,1.74,2.74,2.74,0,0,0,.83,1.38c.07,0-.23-.57-.46-1.49a6,6,0,0,1-.17-1.63,5.56,5.56,0,0,1,.1-1c0-.34.16-.61.33-.63s.09,0,.16.11a1.94,1.94,0,0,1,.11.43,8.22,8.22,0,0,1,0,2.62A11.53,11.53,0,0,0,192.51,330.92Z"/><path class="cls-10" d="M192.79,330.82a2.79,2.79,0,0,0-1.25-1,5.1,5.1,0,0,0-1.7-.49,4.61,4.61,0,0,0-1.05,0,1.31,1.31,0,0,0-1.15.62.75.75,0,0,0,.15.79,2.89,2.89,0,0,0,.47.38,3.69,3.69,0,0,0,1,.43,3.62,3.62,0,0,0,1.79,0c1-.24,1.44-.77,1.39-.8a15.21,15.21,0,0,1-1.46.43,3.83,3.83,0,0,1-1.58-.13,4.28,4.28,0,0,1-.84-.39c-.29-.18-.49-.41-.41-.51a.85.85,0,0,1,.7-.31,4.18,4.18,0,0,1,1,0,5.45,5.45,0,0,1,1.59.34C192.27,330.5,192.74,330.89,192.79,330.82Z"/><path class="cls-14" d="M172.15,354.16l9.75,20.4,3,18.37a2.31,2.31,0,0,0,2.66,1.9l.16,0h0a2.31,2.31,0,0,0,1.61-1.38c1.79-4.43,8.29-20.77,7.5-22.23C196,369.51,188,349,188,349Z"/><path class="cls-16" d="M187.77,394.8l8.48-25,.39.88a3.48,3.48,0,0,1,.18,2.4c-.62,2.12-2.46,8-7.38,20.32a2.32,2.32,0,0,1-1.67,1.4Z"/><g class="cls-15"><path class="cls-6" d="M189,365.05a1.39,1.39,0,0,0,.4,1.83,1.35,1.35,0,0,0,1.81-.38,1.49,1.49,0,0,0-.43-1.94,1.42,1.42,0,0,0-1.85.61"/></g><path class="cls-10" d="M188.43,383.67a7,7,0,0,0-2.53-.79,7.21,7.21,0,0,0-2.58.61,1.62,1.62,0,0,1,.6-.6,3.6,3.6,0,0,1,2-.51,3.51,3.51,0,0,1,2,.65C188.3,383.34,188.47,383.63,188.43,383.67Z"/><path class="cls-10" d="M188.2,387.09c-.06.14-1-.23-2.22-.06s-2,.76-2.14.64a3.27,3.27,0,0,1,4.36-.58Z"/><path class="cls-10" d="M189.57,378.9a21.89,21.89,0,0,0-3.43-.33,24.32,24.32,0,0,0-3.38.66,5.15,5.15,0,0,1,3.36-1.16A5.08,5.08,0,0,1,189.57,378.9Z"/><path class="cls-10" d="M187.13,372.45c0,.15-1.35.19-2.86.8s-2.52,1.5-2.62,1.39a4.38,4.38,0,0,1,2.44-1.85A4.44,4.44,0,0,1,187.13,372.45Z"/><path class="cls-10" d="M184.42,366.39a11.1,11.1,0,0,0-3,.75,11,11,0,0,0-2.42,1.92c-.06,0,.05-.39.4-.88a5,5,0,0,1,4.08-2C184.08,366.19,184.43,366.33,184.42,366.39Z"/><path class="cls-10" d="M180.94,366a1.8,1.8,0,0,1-.38-.77,6.11,6.11,0,0,1-.3-2.32,2.59,2.59,0,0,1,.52-1.61.9.9,0,0,1,1-.24,1.5,1.5,0,0,1,.75.78,3.29,3.29,0,0,1-1.38,3.94,3.8,3.8,0,0,1-4.22-.28,1.27,1.27,0,0,1-.5-1,.91.91,0,0,1,.67-.84,3.2,3.2,0,0,1,1.68.1,6.45,6.45,0,0,1,2.12,1c.46.32.66.55.64.57a10.46,10.46,0,0,0-2.84-1.2,3.18,3.18,0,0,0-1.47-.05.48.48,0,0,0-.37.45,1,1,0,0,0,.37.63,3.42,3.42,0,0,0,3.66.2,2.85,2.85,0,0,0,1.22-3.33,1.12,1.12,0,0,0-.5-.57.49.49,0,0,0-.58.13,2.41,2.41,0,0,0-.46,1.35A9.06,9.06,0,0,0,180.94,366Z"/><path class="cls-10" d="M205,316.3l-26.71-18,8.84-86.8-25.3-14.77-23.13-5.36s-9.66,20.1-14,33c-9.14,27.36-15.55,37.17-14.09,57,.47,6.28,23.65,22,38.29,30.71a46,46,0,0,0,.78,5.2C154.71,339.89,170,370,170,370l23.21-10.79-7.49-25.64,7.8,4.55Zm-57.41-56,3.12-13.91c-.66,8.84-1.26,18.07-1.69,26.92a27.41,27.41,0,0,1-1.48-13Z"/><path class="cls-12" d="M170,370a3,3,0,0,1-.18-.36c-.11-.27-.27-.63-.48-1.1l-1.79-4.23c-1.54-3.68-3.75-9-6.41-15.65s-5.78-14.53-9-23.43c-.79-2.22-1.56-4.52-2.29-6.88-.32-1.2-.73-2.39-.94-3.65-.06-.32-.13-.63-.18-.95l-.11-.94c-.07-.64-.14-1.27-.22-1.91-.27-2.56-.49-5.17-.66-7.81-.08-1.33-.16-2.67-.21-4a34.54,34.54,0,0,1,0-4.07c.39-10.91,1.31-21.25,2.06-30.66s1.5-17.86,2.09-25,1-12.88,1.21-16.86c.12-2,.19-3.54.24-4.59a5.79,5.79,0,0,1,.07-1.2c.07-.3,0-.4,0-.4a1.41,1.41,0,0,1,0,.41v1.19c0,1,0,2.6-.15,4.6-.17,4-.52,9.75-1,16.87s-1.23,15.6-2,25-1.63,19.76-2,30.63c-.08,1.36,0,2.69,0,4s.12,2.67.2,4q.25,4,.66,7.8l.21,1.9.11.94c.05.31.12.62.18.92.19,1.22.6,2.41.91,3.6.72,2.36,1.49,4.65,2.27,6.87,3.14,8.89,6.25,16.81,8.85,23.45l6.26,15.71,1.7,4.26.44,1.12A1.52,1.52,0,0,1,170,370Z"/><path class="cls-12" d="M152.12,213.36a3,3,0,0,1-.61-.5,6.55,6.55,0,0,1-1.13-1.81,19.73,19.73,0,0,1-1.13-6.89,57.56,57.56,0,0,1,.33-6.95,16.15,16.15,0,0,1,.4-2.86,17.31,17.31,0,0,1,0,2.88c-.09,1.78-.24,4.22-.19,6.92a22.26,22.26,0,0,0,1,6.77,7.52,7.52,0,0,0,1,1.82C152,213.11,152.14,213.33,152.12,213.36Z"/><path class="cls-12" d="M142.13,192.7a5.69,5.69,0,0,1,.2,2.43A11.19,11.19,0,0,1,136,204.5a6,6,0,0,1-2.34.7c0-.08.88-.31,2.18-1a11.85,11.85,0,0,0,6.19-9.1C142.16,193.63,142,192.71,142.13,192.7Z"/><path class="cls-12" d="M183.63,243.16a1.13,1.13,0,0,1,0,.26,3.38,3.38,0,0,1-.07.78c-.07.71-.17,1.7-.29,3-.29,2.61-.69,6.32-1.19,10.89-1,9.22-2.48,21.9-4.07,35.9a65.6,65.6,0,0,0,1.32,19.71,69,69,0,0,0,2.42,8.3c.9,2.57,1.73,5,2.5,7.14,1.5,4.34,2.73,7.87,3.59,10.35.4,1.2.72,2.14.95,2.82l.23.74a1.11,1.11,0,0,1,.07.26A.91.91,0,0,1,189,343l-.29-.72-1-2.79c-.89-2.47-2.17-6-3.73-10.3-.79-2.18-1.64-4.56-2.56-7.12a69.4,69.4,0,0,1-2.48-8.34,64.94,64.94,0,0,1-1.36-19.85c1.56-14,3.11-26.71,4.21-35.9.56-4.56,1-8.26,1.34-10.87.17-1.25.3-2.24.39-3l.12-.77A.22.22,0,0,1,183.63,243.16Z"/><polyline class="cls-8" points="138.68 191.23 142.78 180.77 152.12 194.71 139.66 191.59"/><path class="cls-14" d="M236.5,159.77,225.41,134.9c-1.33-4-3.82-4.62-5.9-6.94l-27.8-15.68c-20.25-8.3-31.28,19.53-31.28,19.53l-18.41,42c-21.65,7.18-6.32,23.8-6.32,23.8s-5.89-10.23-.1-13.93c6.07-3.86,12.79,6.32,19.25,16,7.63,11.43,32.41,18.85,32.41,18.85,2.89-3.07,2.08-13.76,4.35-19.49.72-1.82,17.88-41.57,17.88-41.57l6.65,16.12s8.53-10,12.66-11.59A45.82,45.82,0,0,1,236.5,159.77Z"/><path class="cls-10" d="M187.26,177.44a3.91,3.91,0,0,1-.85.59,16.62,16.62,0,0,1-2.52,1.2,18.15,18.15,0,0,1-17.56-2.71,16.86,16.86,0,0,1-2.05-1.91,3.76,3.76,0,0,1-.63-.81c.07-.07,1,1.06,2.89,2.44a18.88,18.88,0,0,0,17.23,2.66C186,178.15,187.21,177.36,187.26,177.44Z"/><path class="cls-14" d="M141.2,138h0l17.15,1.62,27.44-29-16.14-.55-28.74,2.83A74.22,74.22,0,0,1,141.2,138Z"/><path class="cls-10" d="M165,122.72a2.66,2.66,0,0,1-.21.53l-.69,1.48-2.54,5.44c-2.14,4.59-5,11-8,18.09s-5.86,13.53-8,18.14c-1.05,2.31-1.92,4.17-2.55,5.44-.29.6-.53,1.08-.72,1.46a2.32,2.32,0,0,1-.29.5,2.49,2.49,0,0,1,.2-.54c.16-.39.38-.89.64-1.5.59-1.36,1.4-3.22,2.4-5.5l7.83-18.19c3.07-7.1,6-13.49,8.17-18,1.1-2.28,2-4.12,2.69-5.37l.77-1.44A2,2,0,0,1,165,122.72Z"/><path class="cls-10" d="M217.37,131.16c0,.08-1,.63-2.47,1.87a18.8,18.8,0,0,0-2.32,2.4,19.54,19.54,0,0,0-2.17,3.44,20,20,0,0,0-1.36,3.85,17.35,17.35,0,0,0-.44,3.3c-.08,1.9.15,3.08,0,3.1a4,4,0,0,1-.21-.82,6.85,6.85,0,0,1-.13-1,11.62,11.62,0,0,1-.07-1.31,16.74,16.74,0,0,1,.35-3.39,18.87,18.87,0,0,1,1.36-4,18.56,18.56,0,0,1,2.27-3.52,15.76,15.76,0,0,1,2.45-2.38,8.67,8.67,0,0,1,1.07-.76,5.57,5.57,0,0,1,.85-.5A2.42,2.42,0,0,1,217.37,131.16Z"/><path class="cls-8" d="M222.16,91.32,206,121.4a10.63,10.63,0,0,1-13.69,4.68h0a10.6,10.6,0,0,1-5.29-14c.09-.21.19-.41.29-.6,1.51-2.87,2.77-5.21,2.77-5.21s-7-4.54-3.72-12.1c2.92-6.74,13.63-25.77,15.91-29.8l13.56,6.07a15.23,15.23,0,0,1,6.51,20.53Z"/><path class="cls-17" d="M190.15,106.11a19.12,19.12,0,0,0,11,1.6s-4.74,4.38-11.94.34Z"/><path class="cls-10" d="M195.32,82.07a1.16,1.16,0,0,0,.55,1.54,1.12,1.12,0,0,0,1.52-.44l0,0a1.19,1.19,0,0,0-.55-1.55,1.13,1.13,0,0,0-1.53.46Z"/><path class="cls-10" d="M195.38,81.11c.07.2,1.15,0,2.3.48s1.75,1.48,1.94,1.39.06-.35-.19-.78A3.15,3.15,0,0,0,198,80.91a3.09,3.09,0,0,0-1.92-.21C195.57,80.82,195.34,81,195.38,81.11Z"/><path class="cls-10" d="M206.12,87.38a1.19,1.19,0,0,0,.56,1.55,1.14,1.14,0,0,0,1.53-.46h0a1.19,1.19,0,0,0-.55-1.55,1.13,1.13,0,0,0-1.54.46Z"/><path class="cls-10" d="M206.64,86.41c.07.2,1.15,0,2.3.48s1.75,1.47,1.93,1.39.07-.35-.18-.78a3.15,3.15,0,0,0-1.46-1.29,3.09,3.09,0,0,0-1.92-.21C206.83,86.12,206.6,86.31,206.64,86.41Z"/><path class="cls-10" d="M198.61,93.1a7.73,7.73,0,0,0-1.72-1.18c-.29-.16-.54-.35-.5-.57a1.66,1.66,0,0,1,.59-.79l1.88-1.85a44.31,44.31,0,0,0,4.59-5,41.23,41.23,0,0,0-5,4.62c-.65.65-1.26,1.28-1.85,1.88a1.89,1.89,0,0,0-.67,1.09.81.81,0,0,0,.29.65,2.47,2.47,0,0,0,.47.29A8.94,8.94,0,0,0,198.61,93.1Z"/><path class="cls-10" d="M201.65,95.42c-.18-.1-.74,1.16-2.22,1.57s-2.74-.33-2.83-.16.19.38.75.65a3.52,3.52,0,0,0,2.33.2,3,3,0,0,0,1.78-1.35C201.74,95.82,201.74,95.45,201.65,95.42Z"/><path class="cls-10" d="M208.36,81.75c0,.36,1.2.73,2.48,1.5s2.21,1.63,2.52,1.43c.14-.1.08-.48-.22-1a4.89,4.89,0,0,0-1.65-1.55,4.77,4.77,0,0,0-2.16-.68C208.74,81.44,208.38,81.57,208.36,81.75Z"/><path class="cls-10" d="M197.3,78c.08.35,1,.43,2,.85s1.69,1,2,.77c.14-.09.13-.41-.11-.82A3.1,3.1,0,0,0,198,77.48C197.5,77.57,197.27,77.79,197.3,78Z"/><path class="cls-8" d="M217.1,95.83c.15,0,5.85.79,3.39,5.85s-7.05,1.55-7,1.4S217.1,95.83,217.1,95.83Z"/><path class="cls-17" d="M216,101.91a2,2,0,0,0,.17.25,1.07,1.07,0,0,0,.65.33,2.45,2.45,0,0,0,2-1.46,3.41,3.41,0,0,0,.36-1.39,1.12,1.12,0,0,0-.33-1,.51.51,0,0,0-.64,0c-.13.11-.15.23-.18.22s-.07-.14.07-.33a.6.6,0,0,1,.36-.22.71.71,0,0,1,.55.11,1.41,1.41,0,0,1,.54,1.24,3.42,3.42,0,0,1-.38,1.56,2.57,2.57,0,0,1-2.36,1.56,1,1,0,0,1-.74-.53C215.94,102,216,101.91,216,101.91Z"/><path class="cls-10" d="M220,97a2.94,2.94,0,0,0-3,.16c-.67.58-1.11,1.38-1.77,2a2,2,0,0,1-2.42.37,1.74,1.74,0,0,1-.54-1.65,4.74,4.74,0,0,1,.72-1.66c1.38-2.27,2.95-4.42,4.13-6.8a13.54,13.54,0,0,0,1.61-7.66,7.37,7.37,0,0,0-4.5-6.07c-1.66-.59-3.49-.41-5.18-.9a6.88,6.88,0,0,1-4.44-4.08,11.5,11.5,0,0,0-.66-1.13c.06-.13.65-1.15,1.25-1.35,4.45-1.5,10.49.22,14.18,3.13a16.44,16.44,0,0,1,6.32,12.29c.05,4.69-2.91,9.88-5.66,13.38"/><path class="cls-10" d="M220.09,96.43c1.4-2.39,3.69-4.13,5.43-6.29s2.94-5.2,1.7-7.69c-.42-.85-1.1-1.56-1.46-2.44a12.83,12.83,0,0,1-.49-2.81,9.79,9.79,0,0,0-4.84-7c-1.78-1-3.84-1.4-5.64-2.34-2.86-1.51-4.95-4.29-7.95-5.48a3.83,3.83,0,0,0-3.11-.09,1.85,1.85,0,0,0-.89,2.47L203,65a1.63,1.63,0,0,0-2-1.19l-.27.1a2.45,2.45,0,0,0-1.27,2.41A5.49,5.49,0,0,0,200.53,69a13.45,13.45,0,0,0,7.7,5.3l6.9-.54,5.66,4.19L225,84.54l-7.59,9.87Z"/></g><g id="Light_Bulb" data-name="Light Bulb"><path class="cls-7" d="M176.9,57.08a24.38,24.38,0,1,0-33.27,24.25c.18,2.89.39,6.14.39,6.14l21.33-1.38s-.1-3.45-.25-6.53A24.36,24.36,0,0,0,176.9,57.08Z"/><path class="cls-10" d="M157.63,86.49v-.3a6.43,6.43,0,0,1,.05-.89c0-.77.1-1.92.23-3.39s.29-3.28.62-5.35a35.77,35.77,0,0,1,1.77-6.91A22.55,22.55,0,0,1,162,65.88a4.46,4.46,0,0,1,1.56-1.61,2.5,2.5,0,0,1,2.32-.07,1.65,1.65,0,0,1,.83.91,1.71,1.71,0,0,1,0,1.26A3.53,3.53,0,0,1,165,68.11a6.7,6.7,0,0,1-8.71-3.7s0-.11-.07-.17a5.17,5.17,0,0,1-.33-2.8,2.18,2.18,0,0,1,2.1-1.83,1.62,1.62,0,0,1,1.3.78,2.21,2.21,0,0,1,.29,1.49A4.78,4.78,0,0,1,158,64.4a7.3,7.3,0,0,1-5.57,2,6.36,6.36,0,0,1-4.93-3.21,3.63,3.63,0,0,1-.35-2.93,1.87,1.87,0,0,1,1-1.15,1.81,1.81,0,0,1,1.51,0,2.47,2.47,0,0,1,1.1,1,4.16,4.16,0,0,1,.46,1.38,7.28,7.28,0,0,1-8.35,8.12,3.83,3.83,0,0,1-2.26-1,1.88,1.88,0,0,1-.29-2.33,1.57,1.57,0,0,1,1.06-.61,2.23,2.23,0,0,1,1.17.16,3.48,3.48,0,0,1,1.6,1.57c.7,1.28,1.27,2.53,1.85,3.72,2.26,4.78,3.9,8.73,5,11.47.55,1.37,1,2.44,1.24,3.17.13.35.23.63.31.83l.09.28a1.59,1.59,0,0,1-.12-.27c-.08-.2-.19-.47-.34-.82l-1.29-3.15c-1.14-2.72-2.81-6.66-5.09-11.42-.58-1.18-1.17-2.44-1.86-3.69a3.17,3.17,0,0,0-1.49-1.47,1.46,1.46,0,0,0-1.67,2.39,3.66,3.66,0,0,0,2.12.93,7.18,7.18,0,0,0,4.81-1,7,7,0,0,0,3-4.14,6.79,6.79,0,0,0,.18-2.69,2.63,2.63,0,0,0-1.39-2.15,1.46,1.46,0,0,0-2,.62,1.66,1.66,0,0,0-.12.31,3.41,3.41,0,0,0,.33,2.7,6,6,0,0,0,4.7,3,7,7,0,0,0,5.33-1.93,4.59,4.59,0,0,0,1.47-2.36,1.93,1.93,0,0,0-.25-1.29A1.3,1.3,0,0,0,158,59.8a1.72,1.72,0,0,0-1.18.47,2,2,0,0,0-.62,1.14,4.85,4.85,0,0,0,.3,2.63A6.5,6.5,0,0,0,160,67.82a6.39,6.39,0,0,0,4.86,0,3.2,3.2,0,0,0,1.65-1.59,1.44,1.44,0,0,0-.68-1.86,2.24,2.24,0,0,0-2.09.07A4.16,4.16,0,0,0,162.26,66a23.88,23.88,0,0,0-1.76,3.72,35.27,35.27,0,0,0-1.8,6.87c-.35,2.06-.54,3.86-.68,5.33s-.22,2.6-.28,3.39l-.08.88A1.71,1.71,0,0,1,157.63,86.49Z"/><path class="cls-10" d="M164,90.15l-18.31,1.18A1.38,1.38,0,0,1,144.19,90h0a1.37,1.37,0,0,1,1.29-1.46l18.3-1.18a1.37,1.37,0,0,1,1.47,1.28h0A1.39,1.39,0,0,1,164,90.15Z"/><path class="cls-10" d="M164,91.35l-18.3,1.18a1.37,1.37,0,0,0-1.2,1.53,1.38,1.38,0,0,0,1.38,1.22l2-.13,3,4.9a1.78,1.78,0,0,0,1.63.84l6.54-.42a1.8,1.8,0,0,0,1.51-1.06l2.26-5.23,1.37-.09a1.37,1.37,0,1,0-.18-2.74h0Z"/><g class="cls-18"><path class="cls-6" d="M135.94,44.16a17.94,17.94,0,0,1,4.66-3.55,12.68,12.68,0,0,1,3.68-1.33c.92-.16,1.45-.1,1.5.09.14.43-1.66,1.21-4,3a20,20,0,0,0-7.85,20.23c.53,3,1.34,4.74.94,5-.17.1-.6-.22-1.17-1a13.48,13.48,0,0,1-1.82-3.46,18,18,0,0,1-1-5.77A19,19,0,0,1,132,50.28"/></g><g class="cls-18"><path class="cls-6" d="M151.7,40c-1.54.08-2.93-.25-3.14-1.06-.09-.4.16-.85.7-1.22a4.46,4.46,0,0,1,2.26-.71,4.4,4.4,0,0,1,2.34.44c.57.3.88.72.84,1.13"/></g><path class="cls-12" d="M160.27,99.86c-.43-.08-.86-.18-1.28-.3a10,10,0,0,0-6.13.58c-.75.31-1.18.58-1.21.54a4,4,0,0,1,1.12-.74,8.81,8.81,0,0,1,3.1-.87,8.69,8.69,0,0,1,3.21.28A3.79,3.79,0,0,1,160.27,99.86Z"/><path class="cls-12" d="M162.89,94.24c0,.09-3.3.37-7.38.63s-7.4.41-7.4.33,3.3-.37,7.38-.63S162.89,94.16,162.89,94.24Z"/><path class="cls-12" d="M161.89,96.49a11,11,0,0,1-1.79.3c-1.11.14-2.65.3-4.36.44s-3.25.21-4.37.25a11.06,11.06,0,0,1-1.82,0,11,11,0,0,1,1.81-.2l4.36-.33,4.35-.35A11.05,11.05,0,0,1,161.89,96.49Z"/></g><g id="Book"><path class="cls-14" d="M30,219l4,6.37s17-15.61,33.79-11.2C67.81,214.13,52.69,201.31,30,219Z"/><path class="cls-14" d="M67.81,214.13s12.45-13.52,30.7-10.43l5,.75-1.59-2.88S70.15,190.7,67.81,214.13Z"/><path class="cls-3" d="M41.53,168.55S16.59,164.26.24,173.11l26,48.89s21.26-20.49,41.6-7.87Z"/><path class="cls-10" d="M41.53,168.55a.69.69,0,0,1,.13.2c.1.15.22.35.38.61l1.43,2.43,5.41,9.26L68,214a.23.23,0,0,1-.08.3.24.24,0,0,1-.23,0,27.44,27.44,0,0,0-9.56-3.67,28.63,28.63,0,0,0-5.39-.37,32,32,0,0,0-5.52.69,47.33,47.33,0,0,0-20.63,11l-.21.2a.25.25,0,0,1-.34,0h0v-.06L0,173.2a.2.2,0,0,1,.06-.27h0A49.86,49.86,0,0,1,16.76,168a81,81,0,0,1,13.3-.58c3.68.12,6.56.42,8.5.66,1,.11,1.72.23,2.22.31l.56.1.19.05h-.2l-.56-.07-2.22-.25c-2-.2-4.82-.46-8.49-.55a85.21,85.21,0,0,0-13.26.67A50.07,50.07,0,0,0,.33,173.28L.42,173l26,48.88-.4-.06.23-.21a52.56,52.56,0,0,1,9.94-7,41.14,41.14,0,0,1,10.92-4.14,33.1,33.1,0,0,1,5.61-.7,29.61,29.61,0,0,1,5.48.39A27.63,27.63,0,0,1,67.92,214l-.3.29c-7.79-13.58-14.32-25-18.91-33l-5.32-9.34L42,169.42l-.36-.65Z"/><path class="cls-3" d="M80.73,158.51s-18.86-12-38.88,10l26.28,45.62s5.36-18.5,36.74-12.06Z"/><path class="cls-10" d="M80.73,158.51a1.27,1.27,0,0,1,.13.19l.34.59,1.32,2.32,5,8.84L105,202a.21.21,0,0,1-.09.29.22.22,0,0,1-.14,0h0l-4.67-.77a19.53,19.53,0,0,0-2.41-.27l-2.47-.19a17.4,17.4,0,0,0-2.5-.06H90.21c-.86,0-1.71.17-2.57.25a18.68,18.68,0,0,0-2.58.39l-2.58.59-2.52.88c-.84.29-1.62.76-2.44,1.13a6.33,6.33,0,0,0-1.18.68l-1.15.73c-.76.51-1.44,1.13-2.15,1.71a22.45,22.45,0,0,0-1.9,2,15.93,15.93,0,0,0-2.79,4.8h0a.26.26,0,0,1-.31.16.26.26,0,0,1-.14-.11l-1-1.84L41.67,168.65a.21.21,0,0,1,0-.24A44,44,0,0,1,55.93,157.7a28.37,28.37,0,0,1,13.43-2.52A27,27,0,0,1,78,157.11a18.33,18.33,0,0,1,2.1,1l.52.3.16.11a.33.33,0,0,1-.18-.09,5,5,0,0,0-.53-.27c-.47-.23-1.17-.56-2.12-.92a27.27,27.27,0,0,0-8.55-1.8A28.18,28.18,0,0,0,56,158a43.86,43.86,0,0,0-14,10.7v-.25l25.26,43.73,1,1.84h-.45a16.34,16.34,0,0,1,2.89-5,22.33,22.33,0,0,1,2-2c.73-.59,1.43-1.22,2.21-1.74l1.17-.75a7.26,7.26,0,0,1,1.21-.69,25.48,25.48,0,0,1,2.49-1.15l2.57-.9,2.66-.57a19.11,19.11,0,0,1,2.61-.39c.88-.08,1.74-.23,2.6-.25h2.57a17.82,17.82,0,0,1,2.53.07l2.48.2a17.9,17.9,0,0,1,2.43.28l4.7.78-.24.32L87.29,170.62c-2.08-3.82-3.73-6.83-4.87-8.91l-1.27-2.37c-.13-.26-.24-.46-.32-.61A2.14,2.14,0,0,1,80.73,158.51Z"/><path class="cls-3" d="M7.26,149.6l28.12,54.15s22.86-1,32.54,10.14L41.85,168.55S26.57,149.6,7.26,149.6Z"/><path class="cls-10" d="M7.26,149.6H8l2.17.09a4,4,0,0,1,.76.05l.82.13,1.88.31a17.87,17.87,0,0,1,2.16.52c.75.23,1.58.38,2.41.71,6.72,2.24,15.73,7.66,23.84,17h0l26.1,45.32a.25.25,0,0,1-.09.34.27.27,0,0,1-.3,0h0L66.62,213a23.71,23.71,0,0,0-7.19-4.76,41,41,0,0,0-8-2.64,66.7,66.7,0,0,0-16-1.58h0a.24.24,0,0,1-.21-.12L15,164.75,9.27,153.57l-1.51-3-.38-.76a1.42,1.42,0,0,1-.12-.25,1.17,1.17,0,0,1,.15.27l.42.78c.37.69.89,1.7,1.58,3,1.37,2.62,3.37,6.41,5.87,11.19,5,9.55,12.06,23,20.31,38.81l-.22-.12a67.17,67.17,0,0,1,16.12,1.57,40.8,40.8,0,0,1,8.14,2.66A24,24,0,0,1,67,212.57l1.13,1.13-.4.28-26-45.36h0a65.41,65.41,0,0,0-12.31-11.13A46.88,46.88,0,0,0,18.1,151.6c-.82-.33-1.64-.49-2.39-.73a15.82,15.82,0,0,0-2.13-.54L11.71,150l-.82-.15-.73-.06Z"/></g><g id="Stars"><path class="cls-14" d="M95,303.18l.6,1a6.88,6.88,0,0,0,2.84,2.61l1,.52-1,.61a6.78,6.78,0,0,0-2.62,2.84l-.52,1.05-.6-1a6.94,6.94,0,0,0-2.84-2.61l-1-.52,1-.61a6.83,6.83,0,0,0,2.62-2.84Z"/><path class="cls-14" d="M39.6,96.92l.61,1A6.92,6.92,0,0,0,43,100.54l1,.52-1,.6a6.78,6.78,0,0,0-2.62,2.84l-.52,1-.61-1a6.78,6.78,0,0,0-2.84-2.62l-1-.52,1-.6A7,7,0,0,0,39.08,98Z"/><path class="cls-14" d="M296.19,132.5l.6,1a7,7,0,0,0,2.84,2.61l1,.52-1,.61a6.88,6.88,0,0,0-2.6,2.85l-.52,1-.6-1a6.78,6.78,0,0,0-2.84-2.62l-1-.53,1-.6a6.86,6.86,0,0,0,2.62-2.85Z"/><path class="cls-14" d="M265.89,316.14l.6,1a7,7,0,0,0,2.84,2.62l1.05.52-1,.6a6.84,6.84,0,0,0-2.62,2.84l-.52,1-.6-1a6.78,6.78,0,0,0-2.84-2.62l-1-.52,1-.6a6.9,6.9,0,0,0,2.62-2.84Z"/><path class="cls-14" d="M271.66,354.73l.29.11a1.8,1.8,0,0,0,1,.1l.3-.06-.11.29a1.79,1.79,0,0,0-.1,1l.06.3-.29-.11a1.71,1.71,0,0,0-1-.1l-.3.05.11-.28a1.81,1.81,0,0,0,.1-1Z"/><path class="cls-14" d="M289.1,93.79l.29.12a1.89,1.89,0,0,0,1,.1l.3-.06-.12.29a1.88,1.88,0,0,0-.1,1l.06.31-.29-.12a1.8,1.8,0,0,0-1-.1l-.31.06.12-.29a1.81,1.81,0,0,0,.1-1Z"/><path class="cls-14" d="M50.88,70l.29.12a2,2,0,0,0,1,.1l.31-.06-.12.29a1.79,1.79,0,0,0-.1,1l.06.31L52,71.63a1.8,1.8,0,0,0-1-.1l-.31.06.12-.29a1.9,1.9,0,0,0,.1-1Z"/><path class="cls-14" d="M80.28,273.14l.29.12a2,2,0,0,0,1,.1l.31-.06-.12.29a1.88,1.88,0,0,0-.1,1l.06.31-.29-.12a1.8,1.8,0,0,0-1-.1l-.31.06.12-.29a1.9,1.9,0,0,0,.1-1Z"/><path class="cls-7" d="M112.15,351.67a2.44,2.44,0,0,1-.27.29l-.83.83-3.23,3.2-12,11.56v-.12C96.39,380,97.16,397,98,416v.43l-.36-.24-4.33-2.89L66,394.87h0v-.06L55.91,365c-1.2-3.62-2.14-6.49-2.8-8.47l-.73-2.24c-.07-.25-.13-.44-.17-.58l-.06-.2a.4.4,0,0,0,.09.19,2.62,2.62,0,0,1,.2.57c.19.52.45,1.27.79,2.22l2.9,8.43c2.48,7.27,6,17.57,10.14,29.78l-.08-.1,27.47,18.33,4.33,2.9-.34.19c-.81-19-1.54-36-2.08-48.58v-.07h0l12.08-11.47,3.29-3.08.86-.8Z"/><polygon class="cls-14" points="99.38 410.24 99.29 413.07 101.57 414.75 98.85 415.54 97.96 418.23 96.37 415.88 93.54 415.87 95.27 413.63 94.41 410.93 97.08 411.89 99.38 410.24"/><polygon class="cls-14" points="66.32 391.02 66.37 392.86 67.91 393.85 66.19 394.47 65.72 396.24 64.6 394.79 62.77 394.89 63.8 393.38 63.14 391.67 64.9 392.18 66.32 391.02"/><polygon class="cls-14" points="52.08 350.1 53.46 351.87 55.71 351.74 54.45 353.6 55.27 355.7 53.1 355.07 51.36 356.5 51.29 354.25 49.39 353.04 51.51 352.27 52.08 350.1"/><polygon class="cls-14" points="110.77 348.32 112.15 350.1 114.4 349.96 113.14 351.83 113.96 353.92 111.8 353.3 110.06 354.73 109.98 352.48 108.09 351.26 110.2 350.5 110.77 348.32"/><polygon class="cls-14" points="95.36 365.47 96.25 366.6 97.68 366.51 96.87 367.7 97.4 369.04 96.02 368.64 94.91 369.55 94.86 368.12 93.65 367.35 95 366.86 95.36 365.47"/></g><g id="Planets"><circle class="cls-19" cx="42.44" cy="269.89" r="19.94"/><g class="cls-20"><path class="cls-6" d="M39.85,276.12a3.26,3.26,0,1,1-3.27-3.25h0A3.26,3.26,0,0,1,39.85,276.12Z"/></g><g class="cls-20"><path class="cls-6" d="M35.23,266.73a1.89,1.89,0,1,1-1.89-1.89,1.89,1.89,0,0,1,1.89,1.89Z"/></g><path class="cls-14" d="M23.09,274.74c.09.35-17.07,16.81-12.65,20.32s23-5.49,38.9-18.3,30.35-28.37,26.38-32.49-23.79,8.08-23.79,8.08l2.37,1.51s12-7.69,15.78-4.71-7,14.65-22.27,25.78-30,18.95-32.28,15.9S24,277.6,24,277.6Z"/><g class="cls-20"><path class="cls-6" d="M31.45,255.84c.16.2-1.19,1.34-2.72,3.65a18.34,18.34,0,0,0-.4,20.17c1.43,2.36,2.74,3.56,2.57,3.75s-1.7-.79-3.48-3.14A17.46,17.46,0,0,1,25,275.73a18,18,0,0,1-1-6.25,17.58,17.58,0,0,1,1.29-6.2,16.91,16.91,0,0,1,2.6-4.44C29.71,256.56,31.35,255.7,31.45,255.84Z"/></g><circle class="cls-7" cx="262.2" cy="83.08" r="16.45" transform="translate(-0.85 163.41) rotate(-34.56)"/><g class="cls-13"><path d="M267.58,76.78a2.68,2.68,0,1,1,2.61,2.75,2.68,2.68,0,0,1-2.61-2.75Z"/></g><g class="cls-13"><path d="M272.94,83.05a1.56,1.56,0,1,1,1.53,1.59,1.56,1.56,0,0,1-1.53-1.59Z"/></g><g class="cls-13"><path d="M270.85,87.84a.57.57,0,0,1,.57.59.59.59,0,0,1-.59.57.58.58,0,0,1-.57-.59h0a.56.56,0,0,1,.58-.56Z"/></g></g></g></g></g></svg>