<svg id="light" enable-background="new 0 0 24 24" height="512" viewBox="0 0 24 24" width="512" xmlns="http://www.w3.org/2000/svg"><path d="m10.5 24c-.276 0-.5-.224-.5-.5v-4c0-.276.224-.5.5-.5s.5.224.5.5v4c0 .276-.224.5-.5.5z"/><path d="m13.5 24c-.276 0-.5-.224-.5-.5v-4c0-.276.224-.5.5-.5s.5.224.5.5v4c0 .276-.224.5-.5.5z"/><path d="m16.5 24h-9c-.276 0-.5-.224-.5-.5s.224-.5.5-.5h9c.276 0 .5.224.5.5s-.224.5-.5.5z"/><path d="m22.5 20h-21c-.827 0-1.5-.673-1.5-1.5v-13c0-.827.673-1.5 1.5-1.5h4c.276 0 .5.224.5.5s-.224.5-.5.5h-4c-.275 0-.5.224-.5.5v13c0 .276.225.5.5.5h21c.275 0 .5-.224.5-.5v-13c0-.276-.225-.5-.5-.5h-1c-.276 0-.5-.224-.5-.5s.224-.5.5-.5h1c.827 0 1.5.673 1.5 1.5v13c0 .827-.673 1.5-1.5 1.5z"/><path d="m12.759 11.838c-.128 0-.256-.049-.354-.146l-3.597-3.597c-.189-.188-.197-.491-.018-.688l2.947-3.271c2.092-2.417 5.411-4.083 8.253-4.136.167.002.268.051.363.146.096.096.149.227.146.363-.054 2.842-1.719 6.162-4.144 8.261l-3.263 2.94c-.094.086-.214.128-.333.128zm-2.908-4.114 2.926 2.926 2.918-2.629c2.076-1.797 3.543-4.541 3.774-6.99-2.448.232-5.191 1.698-6.982 3.767z"/><path d="m14.104 14.21c-.045 0-.091-.006-.136-.019-.175-.049-.309-.188-.351-.365l-.706-2.95c-.064-.269.102-.538.37-.603.27-.066.539.102.603.37l.469 1.958c.868-1.358 1.042-3.097 1.06-4.115.005-.275.248-.477.509-.491.275.005.495.234.49.509-.042 2.366-.736 4.34-1.955 5.559-.095.096-.223.147-.353.147z"/><path d="m9.74 7.603c-.038 0-.077-.004-.116-.014l-2.95-.707c-.177-.042-.316-.175-.365-.35-.049-.174 0-.361.128-.489 1.219-1.219 3.192-1.913 5.559-1.955.261.014.504.215.509.491s-.215.504-.491.509c-1.018.018-2.756.191-4.114 1.06l1.958.469c.269.064.435.334.37.603-.056.229-.261.383-.488.383z"/><path d="m6 15c-.131 0-.259-.051-.354-.146-.13-.13-.178-.321-.125-.497.165-.552 1.022-3.338 1.694-4.01.811-.81 2.127-.81 2.938 0 .81.81.809 2.128 0 2.938-.672.671-3.458 1.53-4.01 1.695-.046.013-.095.02-.143.02zm2.685-4.261c-.275 0-.552.104-.762.314-.283.284-.773 1.537-1.154 2.678 1.142-.382 2.395-.87 2.678-1.154.419-.42.419-1.104 0-1.523-.211-.21-.486-.315-.762-.315zm1.115 2.192h.01z"/></svg>