<svg xmlns="http://www.w3.org/2000/svg" viewBox="0 0 115.84 115.84"><defs><style>.cls-1{fill:#009dff;}</style></defs><g id="Layer_2" data-name="Layer 2"><g id="light"><path class="cls-1" d="M50.68,115.84a2.41,2.41,0,0,1-2.41-2.41V94.12a2.41,2.41,0,1,1,4.82,0v19.31A2.41,2.41,0,0,1,50.68,115.84Z"/><path class="cls-1" d="M65.16,115.84a2.41,2.41,0,0,1-2.41-2.41V94.12a2.41,2.41,0,1,1,4.82,0v19.31A2.41,2.41,0,0,1,65.16,115.84Z"/><path class="cls-1" d="M79.64,115.84H36.2a2.42,2.42,0,0,1,0-4.83H79.64a2.42,2.42,0,0,1,0,4.83Z"/><path class="cls-1" d="M108.6,96.53H7.24A7.24,7.24,0,0,1,0,89.29V26.55a7.25,7.25,0,0,1,7.24-7.24H26.55a2.41,2.41,0,1,1,0,4.82H7.24a2.41,2.41,0,0,0-2.41,2.42V89.29a2.41,2.41,0,0,0,2.41,2.42H108.6A2.41,2.41,0,0,0,111,89.29V26.55a2.41,2.41,0,0,0-2.41-2.42h-4.83a2.41,2.41,0,1,1,0-4.82h4.83a7.25,7.25,0,0,1,7.24,7.24V89.29A7.24,7.24,0,0,1,108.6,96.53Z"/><path class="cls-1" d="M61.58,57.14a2.45,2.45,0,0,1-1.71-.71L42.51,39.07a2.4,2.4,0,0,1-.08-3.32L56.65,20C66.75,8.3,82.77.26,96.49,0a2.31,2.31,0,0,1,1.75.7,2.41,2.41,0,0,1,.7,1.76c-.26,13.71-8.3,29.74-20,39.87L63.19,56.52a2.34,2.34,0,0,1-1.61.62Zm-14-19.86L61.67,51.4,75.75,38.71C85.77,30,92.86,16.8,94,5c-11.82,1.12-25,8.19-33.7,18.18Z"/><path class="cls-1" d="M68.08,68.59a2.5,2.5,0,0,1-.66-.09,2.42,2.42,0,0,1-1.7-1.77l-3.4-14.24A2.41,2.41,0,1,1,67,51.37l2.27,9.45c4.19-6.55,5-15,5.11-19.86a2.54,2.54,0,0,1,2.46-2.37,2.42,2.42,0,0,1,2.37,2.46C79,52.47,75.66,62,69.78,67.88a2.42,2.42,0,0,1-1.7.71Z"/><path class="cls-1" d="M47,36.7a2.2,2.2,0,0,1-.56-.07L32.21,33.22a2.43,2.43,0,0,1-1.76-1.69,2.4,2.4,0,0,1,.62-2.36C37,23.28,46.48,19.93,57.9,19.73a2.54,2.54,0,0,1,2.46,2.37A2.43,2.43,0,0,1,58,24.56c-4.92.08-13.3.92-19.86,5.11l9.45,2.27A2.41,2.41,0,0,1,47,36.7Z"/><path class="cls-1" d="M29,72.4a2.46,2.46,0,0,1-1.71-.7,2.4,2.4,0,0,1-.6-2.4c.79-2.67,4.93-16.11,8.17-19.36A10,10,0,1,1,49,64.12c-3.25,3.24-16.7,7.39-19.36,8.18a2.3,2.3,0,0,1-.69.1Zm13-20.57a5.22,5.22,0,0,0-3.68,1.52c-1.36,1.37-3.73,7.42-5.57,12.92,5.51-1.84,11.56-4.19,12.93-5.56a5.2,5.2,0,0,0-3.68-8.88ZM47.3,62.41h0Z"/></g></g></svg>