<svg xmlns="http://www.w3.org/2000/svg" viewBox="0 0 637.98 399.53"><defs><style>.cls-1{fill:#ebebeb;}.cls-2{fill:#e0e0e0;}.cls-3{fill:#f5f5f5;}.cls-4{fill:#fafafa;}.cls-5{fill:#263238;}.cls-6{fill:#009dff;}.cls-7{opacity:0.3;}.cls-8{fill:#455a64;}.cls-9{fill:#fff;}.cls-10{fill:#ffbe9d;}.cls-11{opacity:0.5;}.cls-12{fill:#eb996e;}.cls-13{opacity:0.2;}.cls-14{opacity:0.4;}</style></defs><g id="Layer_2" data-name="Layer 2"><g id="Background_Complete" data-name="Background Complete"><path class="cls-1" d="M372.21,315.57H411.3a5,5,0,0,0,5-5v-12a8.4,8.4,0,0,0-8.4-8.4h-36Z"/><path class="cls-1" d="M410.64,323.14H333.78a3.79,3.79,0,0,1-3.79-3.78h0a3.79,3.79,0,0,1,3.79-3.79h76.86a3.79,3.79,0,0,1,3.79,3.79h0A3.79,3.79,0,0,1,410.64,323.14Z"/><path class="cls-2" d="M318.12,214.66l42.28-.75,26.84,101.44-57.25.57L308.41,227A10,10,0,0,1,318.12,214.66Z"/><polygon class="cls-1" points="339.18 323.14 326.53 396.67 329.99 396.67 346.63 323.14 339.18 323.14"/><polygon class="cls-2" points="369.01 323.14 355.56 396.67 359.03 396.67 376.45 323.14 369.01 323.14"/><polygon class="cls-1" points="401.99 323.14 416.99 396.67 413.53 396.67 394.55 323.14 401.99 323.14"/><path class="cls-1" d="M355.56,213.91l20.93,101.55h16l-16.78-89.73a14.44,14.44,0,0,0-14.21-11.82Z"/><rect class="cls-1" x="420.48" y="248.02" width="57.88" height="2.82" transform="translate(898.83 498.86) rotate(180)"/><polygon class="cls-1" points="487.32 250.84 498.18 210.16 452.99 210.16 443.16 250.84 487.32 250.84"/><polygon class="cls-2" points="445.87 247.76 486.24 247.76 495.63 212.04 455.06 212.04 445.87 247.76"/><rect class="cls-3" x="409.01" y="259.17" width="2.92" height="139.55"/><rect class="cls-1" x="411.94" y="259.57" width="2.92" height="139.15"/><rect class="cls-1" x="589.08" y="259.17" width="2.92" height="139.55"/><rect class="cls-2" x="592.01" y="259.57" width="2.92" height="139.15"/><rect class="cls-2" x="396.39" y="251.07" width="222.01" height="11.45"/><rect class="cls-1" x="492.81" y="262.51" width="97.74" height="18.94"/><path class="cls-2" d="M546,270.68a2.18,2.18,0,1,1-2.18-2.18A2.17,2.17,0,0,1,546,270.68Z"/><rect class="cls-2" x="-17.1" y="41.29" width="99.86" height="65.66" transform="translate(-41.29 106.95) rotate(-90)"/><rect class="cls-4" x="-13.73" y="44.13" width="92.86" height="60.04" transform="translate(-41.44 106.85) rotate(-90)"/><rect class="cls-2" x="17.68" y="65.89" width="30.29" height="16.52" transform="translate(-41.32 106.97) rotate(-90)"/><rect class="cls-2" x="559.47" y="112.01" width="2.06" height="18.38"/><rect class="cls-2" x="627.17" y="112.01" width="2.06" height="18.38"/><rect class="cls-1" x="551.88" y="104.62" width="86.09" height="7.39"/><rect class="cls-3" x="609.1" y="49.3" width="11.87" height="55.32"/><path class="cls-2" d="M617.62,91.35A2.35,2.35,0,1,1,615.27,89,2.35,2.35,0,0,1,617.62,91.35Z"/><rect class="cls-2" x="613.35" y="63.95" width="3.63" height="22.61"/><rect class="cls-1" x="597.04" y="49.3" width="11.87" height="55.32"/><path class="cls-4" d="M605.56,91.35A2.35,2.35,0,1,1,603.21,89,2.35,2.35,0,0,1,605.56,91.35Z"/><rect class="cls-4" x="601.3" y="63.95" width="3.63" height="22.61"/><rect class="cls-2" x="585.56" y="49.3" width="11.87" height="55.32"/><path class="cls-4" d="M594.08,91.35A2.35,2.35,0,1,1,591.73,89,2.35,2.35,0,0,1,594.08,91.35Z"/><rect class="cls-4" x="589.81" y="63.95" width="3.63" height="22.61"/><polygon class="cls-2" points="570.88 103.78 585.14 55.11 580.22 52.95 565.6 102.01 570.88 103.78"/><path class="cls-1" d="M240.12,307.07c4.83-2.49,10.52-2.82,15.89-1.93,2.89.48,5.89,1.34,7.86,3.51s2.33,6,.08,7.83a7.55,7.55,0,0,1-5,1.26c-4.2-.05-8.86-.79-12.22,1.74-1.91,1.44-3.19,3.84-5.48,4.55a5.41,5.41,0,0,1-5.95-2.65,9.27,9.27,0,0,1-.68-6.83A10.44,10.44,0,0,1,240.12,307.07Z"/><path class="cls-1" d="M229,285.69c3,4.22,8.7,2.82,11.37.25s3.79-6.32,4.81-9.88c2.34-8.14,4.71-16.68,3-25a13.84,13.84,0,0,0-3.18-6.78,7.25,7.25,0,0,0-6.87-2.29c-2.9.77-4.7,3.6-6,6.3a59.46,59.46,0,0,0-5.88,25.54c0,4.12.47,8.43,2.79,11.83"/><path class="cls-1" d="M220.92,291.75c3.21-3.81,3.82-9.37,2.39-14.14s-4.65-8.84-8.37-12.15a45.09,45.09,0,0,0-15-8.85,16,16,0,0,0-6.74-1.14,7,7,0,0,0-5.66,3.42c-1.58,3-.07,6.66,1.57,9.64a113.67,113.67,0,0,0,9.85,15c2.95,3.8,6.33,7.56,10.83,9.28s9.17,1.52,11.56-1.6"/><path class="cls-2" d="M228.84,349.38a10.12,10.12,0,0,0,.27-1.91c.13-1.4.3-3.15.51-5.24a74.81,74.81,0,0,1,1.17-7.68,58.93,58.93,0,0,1,2.8-9.07,33.08,33.08,0,0,1,4.63-8.2,17.07,17.07,0,0,1,5.85-4.86,16.46,16.46,0,0,1,4.93-1.54,8.24,8.24,0,0,0,1.91-.28,9.8,9.8,0,0,0-1.95,0,15.14,15.14,0,0,0-5.14,1.34,17.22,17.22,0,0,0-6.17,4.91,32.57,32.57,0,0,0-4.8,8.37,54.72,54.72,0,0,0-2.77,9.21,64.51,64.51,0,0,0-1,7.78c-.17,2.22-.23,4-.26,5.27A9.07,9.07,0,0,0,228.84,349.38Z"/><path class="cls-2" d="M229.2,345.36a4,4,0,0,0,.05-.9c0-.66,0-1.51,0-2.54,0-2.21,0-5.41.12-9.36.19-7.89.87-16.39,2.19-28.37,1.24-11.27,2.91-24.38,4.67-32.91.38-1.93.76-3.68,1.12-5.21s.63-2.85.91-3.92.44-1.82.6-2.47a3.79,3.79,0,0,0,.15-.88,4.29,4.29,0,0,0-.31.84c-.19.64-.44,1.44-.74,2.43s-.66,2.37-1,3.9-.82,3.26-1.24,5.2a290.7,290.7,0,0,0-4.91,30.53c-1.32,12-1.91,22.94-2,30.85-.05,4,0,7.17.14,9.38.06,1,.11,1.87.15,2.54A4,4,0,0,0,229.2,345.36Z"/><path class="cls-2" d="M229.25,324.27a15.49,15.49,0,0,0,0-2.66,71.22,71.22,0,0,0-.81-7.2,94.61,94.61,0,0,0-2.34-10.5,87.33,87.33,0,0,0-4.39-12.43,66.05,66.05,0,0,0-12.9-20.07,32.76,32.76,0,0,0-3-2.82c-.46-.39-.88-.78-1.29-1.1l-1.18-.81a16.13,16.13,0,0,0-2.24-1.43c-.13.17,3.17,2.11,7.34,6.55a69.56,69.56,0,0,1,12.57,20,97.88,97.88,0,0,1,4.41,12.31,104.53,104.53,0,0,1,2.5,10.39c.55,3,.87,5.44,1.06,7.14A19,19,0,0,0,229.25,324.27Z"/><polygon class="cls-2" points="208.87 361.46 210.99 390.41 248.17 390.41 250.28 361.46 208.87 361.46"/><rect class="cls-2" x="205.28" y="350.06" width="49.44" height="11.41"/><polygon class="cls-1" points="205.28 389.3 205.28 392.47 207.6 392.47 253.9 392.47 253.9 389.3 205.28 389.3"/><polygon class="cls-2" points="209.88 398.03 207.6 392.47 252.13 392.47 249.48 398.03 209.88 398.03"/><path class="cls-3" d="M249.59,370.93a1.5,1.5,0,0,1-.17.26l-.56.74-2.16,2.77-.1.12-.09-.13-5.32-7.36h.3c-1.58,2.25-3.34,4.74-5.24,7.42l-.16.24-.18-.22-6.22-7.4h.36c-.11.13-.23.28-.34.43l-5.56,7L224,375l-.17-.25-5.25-7.41h.31l-6.46,7.36-.11.13-.09-.15-2-3.39-.52-.91a2.37,2.37,0,0,1-.16-.32s.08.09.22.28l.57.88,2.12,3.33-.2,0,6.35-7.44.16-.19.15.2,5.29,7.39h-.36l5.55-7c.11-.15.23-.29.34-.43l.17-.22.19.22,6.19,7.4-.35,0,5.3-7.38.15-.22.15.22c2.1,3,3.88,5.53,5.21,7.44h-.19l2.26-2.7.6-.7Z"/><path class="cls-3" d="M250.8,361.27c0,.13-9.32.24-20.81.24s-20.81-.11-20.81-.24S218.5,361,230,361,250.8,361.15,250.8,361.27Z"/><path class="cls-3" d="M252.68,392.78c0,.13-10.13.23-22.61.23s-22.62-.1-22.62-.23,10.12-.23,22.62-.23S252.68,392.65,252.68,392.78Z"/></g><g id="Floor"><path class="cls-5" d="M591.42,399.08c0,.15-127.15.27-284,.27s-284-.12-284-.27,127.13-.26,284-.26S591.42,398.94,591.42,399.08Z"/></g><g id="Plant"><path class="cls-5" d="M37.15,377.93a2.8,2.8,0,0,1,.14-.34l.45-.95a24.31,24.31,0,0,0,1.32-3.83A33.77,33.77,0,0,0,39,358a80.63,80.63,0,0,0-2.74-9.92c-1.16-3.53-2.51-7.26-3.61-11.3a43.56,43.56,0,0,1-1.78-13c.16-4.59,1.52-9.18,3-13.75s3-9,3.5-13.54A20.68,20.68,0,0,0,34.86,284c-2-3.65-4.47-6.77-6.34-10a34.83,34.83,0,0,1-3.81-9.61,35.88,35.88,0,0,1-.24-14.9A27.82,27.82,0,0,1,26,244.24s0,.12-.1.35-.18.58-.31,1a37,37,0,0,0-1,3.94A36.15,36.15,0,0,0,25,264.32a34.45,34.45,0,0,0,3.82,9.5c1.86,3.19,4.36,6.3,6.38,10a21,21,0,0,1,2.56,12.76c-.46,4.57-2,9.07-3.51,13.64s-2.84,9.1-3,13.62A43.5,43.5,0,0,0,33,336.69c1.08,4,2.41,7.76,3.56,11.29a79.22,79.22,0,0,1,2.7,10,33.54,33.54,0,0,1,0,14.89,22.07,22.07,0,0,1-1.41,3.82l-.49.94A2.11,2.11,0,0,1,37.15,377.93Z"/><path class="cls-6" d="M31.05,277.2s-3.78-12.11,3-19.2a.42.42,0,0,1,.72.21C35.14,260.21,35.6,266.3,31.05,277.2Z"/><path class="cls-5" d="M33.32,262a10.45,10.45,0,0,1-.25,2.23c-.25,1.54-.54,3.35-.87,5.34s-.6,3.81-.84,5.34a12.14,12.14,0,0,1-.41,2.22,9.84,9.84,0,0,1,.07-2.26c.13-1.38.37-3.28.72-5.37s.7-4,1-5.33A10.33,10.33,0,0,1,33.32,262Z"/><path class="cls-6" d="M35.5,305.76s2.32-12.47,11.64-15.56a.42.42,0,0,1,.54.52C47.06,292.66,44.61,298.25,35.5,305.76Z"/><path class="cls-5" d="M44.6,293.42a11.33,11.33,0,0,1-1.27,1.86l-3.26,4.31-3.25,4.33a11.4,11.4,0,0,1-1.39,1.76,9.55,9.55,0,0,1,1.12-1.95c.75-1.17,1.86-2.74,3.14-4.42s2.48-3.18,3.38-4.24A10.13,10.13,0,0,1,44.6,293.42Z"/><path class="cls-6" d="M33,337.06s-1.4-12.61,6.62-18.28a.42.42,0,0,1,.66.35C40.24,321.16,39.52,327.22,33,337.06Z"/><path class="cls-5" d="M38.1,322.6a10.48,10.48,0,0,1-.67,2.15l-1.87,5.08c-.69,1.9-1.32,3.61-1.85,5.08a12.11,12.11,0,0,1-.82,2.09,10,10,0,0,1,.5-2.2c.39-1.33,1-3.15,1.73-5.14s1.45-3.76,2-5A10.1,10.1,0,0,1,38.1,322.6Z"/><path class="cls-6" d="M40,368.54s-1-12.66,7.27-18a.42.42,0,0,1,.65.37C47.82,352.91,46.89,358.94,40,368.54Z"/><path class="cls-5" d="M45.64,354.28a11.46,11.46,0,0,1-.75,2.11c-.59,1.45-1.29,3.14-2,5l-2,5a12.86,12.86,0,0,1-.89,2.07,9.23,9.23,0,0,1,.57-2.18c.44-1.32,1.1-3.12,1.91-5.08s1.58-3.71,2.18-5A9.72,9.72,0,0,1,45.64,354.28Z"/><path class="cls-6" d="M25.61,266.56s-11.24-5.87-11.46-15.69a.42.42,0,0,1,.65-.36C16.47,251.67,21.1,255.65,25.61,266.56Z"/><path class="cls-5" d="M16.48,254.25a11.12,11.12,0,0,1,1.4,1.76l3.17,4.38,3.18,4.37a10.81,10.81,0,0,1,1.28,1.85A10,10,0,0,1,24,265c-.89-1.07-2.07-2.58-3.3-4.3s-2.31-3.31-3.06-4.47A10.32,10.32,0,0,1,16.48,254.25Z"/><path class="cls-6" d="M37.69,292.57s-11.58-5.18-12.4-15a.42.42,0,0,1,.63-.41C27.66,278.26,32.53,282,37.69,292.57Z"/><path class="cls-5" d="M27.83,280.83a12,12,0,0,1,1.5,1.67l3.43,4.18,3.44,4.17a12.2,12.2,0,0,1,1.39,1.77A9.81,9.81,0,0,1,36,291.08c-1-1-2.22-2.46-3.56-4.1s-2.5-3.15-3.32-4.27A9.55,9.55,0,0,1,27.83,280.83Z"/><path class="cls-6" d="M31,321.58s-7.95-9.89-4.22-19a.42.42,0,0,1,.75-.07C28.62,304.27,31.27,309.77,31,321.58Z"/><path class="cls-5" d="M27.59,306.63a10.57,10.57,0,0,1,.58,2.18l1.15,5.28c.43,2,.83,3.76,1.16,5.28a13,13,0,0,1,.44,2.21,9.24,9.24,0,0,1-.76-2.12c-.39-1.33-.86-3.2-1.3-5.27s-.8-3.95-1-5.32A10.46,10.46,0,0,1,27.59,306.63Z"/><path class="cls-6" d="M38.9,355.71s-11.49-5.37-12.14-15.17a.41.41,0,0,1,.63-.39C29.12,341.23,33.92,345,38.9,355.71Z"/><path class="cls-5" d="M29.24,343.81a11.11,11.11,0,0,1,1.47,1.7c1,1.22,2.11,2.65,3.36,4.24L37.44,354a12.83,12.83,0,0,1,1.37,1.79,9,9,0,0,1-1.62-1.57c-.94-1-2.18-2.49-3.49-4.15s-2.45-3.2-3.25-4.33A9.92,9.92,0,0,1,29.24,343.81Z"/><path class="cls-5" d="M61.79,305.83s0,.1,0,.28,0,.49,0,.81c0,.76-.08,1.79-.14,3.08-.15,2.7-.35,6.47-.6,11v0h0c-.82,4.59-3.16,9.68-6.3,14.62-2.31,3.64-4.72,6.95-6.8,10a70.13,70.13,0,0,0-5.1,8.43,35.59,35.59,0,0,0-2.39,6.18c-.2.76-.35,1.35-.44,1.76a2.59,2.59,0,0,1-.17.61,3.58,3.58,0,0,1,.08-.63c0-.42.18-1,.35-1.78a32.1,32.1,0,0,1,2.27-6.29,66.65,66.65,0,0,1,5-8.53c2.07-3.1,4.47-6.41,6.77-10,3.12-4.92,5.45-9.93,6.3-14.45v0c.32-4.51.59-8.27.78-11l.24-3.07.09-.8A1.18,1.18,0,0,1,61.79,305.83Z"/><path class="cls-6" d="M55,334.69s4.87-11.72-1.25-19.4a.42.42,0,0,0-.74.15C52.42,317.39,51.41,323.42,55,334.69Z"/><path class="cls-5" d="M54.06,319.38a9.43,9.43,0,0,1,.39,2.22c.17,1.37.37,3.28.52,5.39s.22,4,.22,5.42a9.17,9.17,0,0,1-.14,2.25,13,13,0,0,1-.2-2.24c-.1-1.55-.22-3.38-.36-5.4s-.27-3.84-.37-5.39A11.78,11.78,0,0,1,54.06,319.38Z"/><g class="cls-7"><path d="M55,334.69s4.87-11.72-1.25-19.4a.42.42,0,0,0-.74.15C52.42,317.39,51.41,323.42,55,334.69Z"/></g><path class="cls-6" d="M39.87,362.92s3.91-12.07-2.82-19.23a.42.42,0,0,0-.72.21C36,345.89,35.44,352,39.87,362.92Z"/><path class="cls-5" d="M37.75,347.74a10.22,10.22,0,0,1,.56,2.17c.29,1.36.63,3.25,1,5.34s.54,4,.66,5.38a9.16,9.16,0,0,1,0,2.25,12.5,12.5,0,0,1-.38-2.21c-.23-1.54-.5-3.35-.79-5.35s-.58-3.81-.82-5.35A11.1,11.1,0,0,1,37.75,347.74Z"/><g class="cls-7"><path d="M39.87,362.92s3.91-12.07-2.82-19.23a.42.42,0,0,0-.72.21C36,345.89,35.44,352,39.87,362.92Z"/></g><path class="cls-6" d="M61.15,320.37s10.39-7.28,9.34-17a.42.42,0,0,0-.69-.28C68.29,304.42,64.21,309,61.15,320.37Z"/><g class="cls-7"><path d="M61.15,320.37s10.39-7.28,9.34-17a.42.42,0,0,0-.69-.28C68.29,304.42,64.21,309,61.15,320.37Z"/></g><path class="cls-5" d="M68.61,307a10,10,0,0,1-.86,2.08c-.59,1.26-1.45,3-2.46,4.83s-2,3.52-2.72,4.69a9.56,9.56,0,0,1-1.32,1.83,11.8,11.8,0,0,1,1-2c.75-1.37,1.63-3,2.59-4.74l2.58-4.76A12.43,12.43,0,0,1,68.61,307Z"/><path class="cls-6" d="M44.07,351S56.6,349,60,339.77a.42.42,0,0,0-.51-.55C57.5,339.78,51.84,342.06,44.07,351Z"/><g class="cls-7"><path d="M44.07,351S56.6,349,60,339.77a.42.42,0,0,0-.51-.55C57.5,339.78,51.84,342.06,44.07,351Z"/></g><path class="cls-5" d="M56.67,342.22A10.36,10.36,0,0,1,55,343.7c-1.09.87-2.62,2-4.34,3.25s-3.32,2.29-4.51,3a9,9,0,0,1-2,1A12.73,12.73,0,0,1,46,349.69c1.27-.9,2.76-2,4.42-3.12l4.4-3.14A10.6,10.6,0,0,1,56.67,342.22Z"/><polygon class="cls-8" points="32.11 374.02 28.45 398.63 51.24 398.63 48.28 374.02 32.11 374.02"/><path class="cls-5" d="M49.19,381.65a88.85,88.85,0,0,1-9.18.24,89,89,0,0,1-9.19-.24,89,89,0,0,1,9.19-.24A88.85,88.85,0,0,1,49.19,381.65Z"/><path class="cls-5" d="M49.65,383.61c0,.13-4.25.24-9.49.24a94.79,94.79,0,0,1-9.49-.24,94.79,94.79,0,0,1,9.49-.24C45.4,383.37,49.65,383.48,49.65,383.61Z"/></g><g id="Speech_Bubble" data-name="Speech Bubble"><path class="cls-5" d="M47.84,135.73s.15.13.43.41.68.7,1.23,1.21A23.8,23.8,0,0,0,55,141a19.14,19.14,0,0,0,2.08.86l1.14.4,1.22.3a22.92,22.92,0,0,0,2.64.49l1.41.1a9,9,0,0,0,1.47,0,22.21,22.21,0,0,0,12.57-4.11l.07-.06.09,0,11.14,2.11-.22.38c-2-2.23-4-4.6-6.15-7l-.13-.14.12-.17a22.26,22.26,0,0,0,4.12-10.27A22,22,0,0,0,60.68,99.4a21.94,21.94,0,0,0-11.33,5.81,21.64,21.64,0,0,0-5.84,9.48,22.08,22.08,0,0,0,1.13,15.95l.6,1.23c.21.38.44.71.63,1a12.12,12.12,0,0,0,1.05,1.57l.69.93a1.65,1.65,0,0,1,.23.33s-.1-.09-.27-.29l-.74-.91a13.4,13.4,0,0,1-1.1-1.54c-.19-.32-.43-.65-.64-1l-.63-1.23a22.35,22.35,0,0,1,4.59-25.84,22.27,22.27,0,0,1,11.54-6A22.54,22.54,0,0,1,87,124a22.78,22.78,0,0,1-4.23,10.5v-.31c2.12,2.44,4.18,4.81,6.12,7.06l.45.51-.67-.13-11.13-2.15.16,0a22.47,22.47,0,0,1-12.8,4.12,10.47,10.47,0,0,1-1.49,0c-.49,0-1-.06-1.44-.11a23.38,23.38,0,0,1-2.67-.52l-1.24-.32-1.15-.42a19.12,19.12,0,0,1-2.08-.89,22.84,22.84,0,0,1-5.43-3.79c-.55-.54-.93-1-1.2-1.27S47.84,135.73,47.84,135.73Z"/><polygon class="cls-5" points="64.38 116.42 68.14 115.18 71.9 113.93 71.1 117.81 70.3 121.69 68.25 119.87 59.45 129.76 57.62 128.13 66.43 118.24 64.38 116.42"/></g><g id="Bullseye"><circle class="cls-6" cx="169.23" cy="49.14" r="49.14"/><path class="cls-9" d="M169.23,90.05a40.91,40.91,0,1,1,40.9-40.91A41,41,0,0,1,169.23,90.05Zm0-74.81a33.91,33.91,0,1,0,33.9,33.9A33.94,33.94,0,0,0,169.23,15.24Z"/><path class="cls-9" d="M169,63.13A15.07,15.07,0,1,1,184,48.06,15.08,15.08,0,0,1,169,63.13ZM169,40A8.07,8.07,0,1,0,177,48.06,8.07,8.07,0,0,0,169,40Z"/><polygon class="cls-8" points="168.95 48.06 149.91 48.06 153.23 53.94 108.41 74.48 109.92 77 154.89 56.7 157.97 62.53 168.95 48.06"/><path class="cls-5" d="M108.41,74.48l-.47-.46A9.1,9.1,0,0,0,99,71.8L81.16,77l10,4.37L87.12,92l16.77-6a9.11,9.11,0,0,0,6-9h0Z"/></g><g id="Graphics"><rect class="cls-4" x="404.78" y="8.89" width="123.8" height="116.87" rx="4.94"/><path class="cls-5" d="M523.64,125.76a8.77,8.77,0,0,0,1.2-.18,4.89,4.89,0,0,0,3.66-4.45c0-1,0-2,0-3.18,0-2.31,0-5,0-8,0-12-.05-29.28-.09-50.66,0-10.7,0-22.42,0-35q0-4.72,0-9.6a7,7,0,0,0-.22-2.35,4.86,4.86,0,0,0-1.24-2,4.68,4.68,0,0,0-2-1.14,9.24,9.24,0,0,0-2.43-.16H501.74l-92,0a4.71,4.71,0,0,0-4.42,3.14,8.24,8.24,0,0,0-.26,2.92v15c0,8,0,15.79,0,23.48,0,15.39,0,30.24,0,44.39q0,10.61,0,20.66c0,.83,0,1.7,0,2.49a4.86,4.86,0,0,0,.78,2.21,4.79,4.79,0,0,0,4,2.07h9.6l35,0,50.66.09,13.78,0,3.58,0,1.22,0-1.22,0-3.58,0-13.78,0-50.66.08-35,0h-9.6a5.19,5.19,0,0,1-4.37-2.26,5.28,5.28,0,0,1-.87-2.42c-.05-.87,0-1.68,0-2.53q0-10,0-20.66c0-14.15,0-29,0-44.39v-40a5.21,5.21,0,0,1,5.2-5l92,0h21.92a5.19,5.19,0,0,1,3.54,1.42,5.21,5.21,0,0,1,1.35,2.16,7.62,7.62,0,0,1,.25,2.49q0,4.87,0,9.6c0,12.57,0,24.29,0,35,0,21.38-.06,38.69-.08,50.66,0,3,0,5.65,0,8,0,1.15,0,2.21,0,3.18a5.17,5.17,0,0,1-.86,2.5,5,5,0,0,1-2.92,2A4,4,0,0,1,523.64,125.76Z"/><rect class="cls-6" x="426.38" y="55.68" width="6.67" height="57.34"/><rect class="cls-6" x="456.71" y="51.03" width="6.67" height="62"/><rect class="cls-6" x="488.13" y="43.16" width="6.67" height="69.87"/><rect class="cls-5" x="473.37" y="85.11" width="6.67" height="27.92"/><rect class="cls-8" x="434.16" y="49.54" width="6.67" height="63.49"/><rect class="cls-8" x="465.04" y="36.24" width="6.67" height="76.79"/><rect class="cls-5" x="505.34" y="36.24" width="6.67" height="76.79"/><rect class="cls-8" x="497.05" y="21.08" width="6.67" height="91.95"/><rect class="cls-5" x="442.32" y="72.73" width="6.67" height="40.29"/><path class="cls-5" d="M521.57,116.51c0,.14-23.82.26-53.19.26s-53.18-.12-53.18-.26,23.8-.26,53.18-.26S521.57,116.36,521.57,116.51Z"/><rect class="cls-5" x="412.1" y="102.83" width="4.07" height="1.53"/><rect class="cls-5" x="412.1" y="82.42" width="4.07" height="1.53"/><rect class="cls-5" x="412.1" y="44.02" width="4.07" height="1.53"/><rect class="cls-5" x="412.1" y="24.72" width="4.07" height="1.53"/><rect class="cls-5" x="412.31" y="63.22" width="4.07" height="1.53"/><rect class="cls-9" x="192.27" y="51.61" width="230.35" height="179.27"/><path class="cls-5" d="M422.62,230.88c0-1.78-.09-71.08-.22-179.27l.22.22-230.33,0h0l.26-.26c0,64.62,0,125.74,0,179.27l-.24-.23,230.35.23-230.35.24H192v-.24c0-53.53,0-114.65,0-179.27v-.26h.28l230.33,0h.22v.21C422.71,159.8,422.62,229.1,422.62,230.88Z"/><path class="cls-5" d="M260.34,208.92c-.14,0-.26-18.09-.26-40.4s.12-40.4.26-40.4.26,18.08.26,40.4S260.49,208.92,260.34,208.92Z"/><path class="cls-5" d="M353.16,208.92c-.15,0-.26-18.09-.26-40.4s.11-40.4.26-40.4.26,18.08.26,40.4S353.3,208.92,353.16,208.92Z"/><path class="cls-5" d="M292,208.92c-.14,0-.26-23.13-.26-51.65s.12-51.65.26-51.65.26,23.12.26,51.65S292.17,208.92,292,208.92Z"/><path class="cls-5" d="M227.8,208.92c-.14,0-.26-23.13-.26-51.65s.12-51.65.26-51.65.26,23.12.26,51.65S228,208.92,227.8,208.92Z"/><path class="cls-5" d="M389.59,208.92c-.15,0-.27-23.13-.27-51.65s.12-51.65.27-51.65.26,23.12.26,51.65S389.73,208.92,389.59,208.92Z"/><path class="cls-5" d="M319.81,208.92c-.14,0-.26-26.7-.26-59.63s.12-59.64.26-59.64.26,26.7.26,59.64S320,208.92,319.81,208.92Z"/><path class="cls-5" d="M261.1,128.12a.76.76,0,1,1-.76-.76A.76.76,0,0,1,261.1,128.12Z"/><path class="cls-5" d="M292.79,105.62a.76.76,0,1,1-1.52,0,.76.76,0,0,1,1.52,0Z"/><path class="cls-6" d="M292,108.32a2.7,2.7,0,1,1,2.7-2.7A2.7,2.7,0,0,1,292,108.32Zm0-5.14a2.45,2.45,0,1,0,2.45,2.44A2.45,2.45,0,0,0,292,103.18Z"/><circle class="cls-5" cx="319.81" cy="89.65" r="0.76"/><path class="cls-5" d="M353.91,128.88a.76.76,0,0,1-1.51,0,.76.76,0,1,1,1.51,0Z"/><path class="cls-5" d="M390.36,105.62a.76.76,0,0,1-.76.76.75.75,0,0,1-.75-.76.74.74,0,0,1,.75-.75A.75.75,0,0,1,390.36,105.62Z"/><path class="cls-5" d="M228.56,106.38a.76.76,0,1,1-.76-.76A.76.76,0,0,1,228.56,106.38Z"/><path class="cls-6" d="M396.76,142.18c0,.09-.83.21-2.3.83a16.84,16.84,0,0,0-5.47,4.21c-2.05,2.24-4.11,5.36-6.7,8.88a42.64,42.64,0,0,1-4.58,5.34,25.28,25.28,0,0,1-3,2.48,20.86,20.86,0,0,1-3.61,2,20.26,20.26,0,0,1-8.64,1.47,23.45,23.45,0,0,1-4.65-.57,12.32,12.32,0,0,1-4.54-2,14.92,14.92,0,0,1-3.54-3.68,51.15,51.15,0,0,1-2.67-4.38c-1.67-3-3.4-6-5.36-9.08s-3.74-6.34-5.74-9.53a46.94,46.94,0,0,0-7-9,20.33,20.33,0,0,0-4.66-3.31,17.68,17.68,0,0,0-2.66-1.09c-.46-.12-.94-.2-1.41-.31l-.7-.15a6,6,0,0,0-.73-.06,20.08,20.08,0,0,0-11.45,2.43,29.62,29.62,0,0,0-8.74,8.17,90.29,90.29,0,0,0-6.3,10.1c-3.81,6.9-8,13.48-13.56,18.4a23.23,23.23,0,0,1-9.44,5.26,18.22,18.22,0,0,1-5.22.57,20,20,0,0,1-5-.93,33.71,33.71,0,0,1-8.39-4.4c-2.48-1.71-4.74-3.48-7-5.08a37.18,37.18,0,0,0-6.57-4,21.61,21.61,0,0,0-6.53-1.87,15.86,15.86,0,0,0-5.86.36,10.43,10.43,0,0,0-1.27.4,8.4,8.4,0,0,0-1.19.46,15.18,15.18,0,0,0-2.08,1.15,22.34,22.34,0,0,0-3.14,2.48c-.77.87-1.5,1.56-2,2.2a15.13,15.13,0,0,1-1.55,1.9,13.67,13.67,0,0,1,1.3-2.1c.45-.67,1.14-1.4,1.9-2.32a21,21,0,0,1,3.14-2.67,14.4,14.4,0,0,1,2.13-1.25,9,9,0,0,1,1.22-.52,11.54,11.54,0,0,1,1.33-.45,16.61,16.61,0,0,1,6.15-.51,22.7,22.7,0,0,1,6.84,1.83,37.93,37.93,0,0,1,6.8,4c2.25,1.59,4.53,3.33,7,5a32.29,32.29,0,0,0,8.1,4.16,18.08,18.08,0,0,0,4.65.83,16.48,16.48,0,0,0,4.81-.56,22,22,0,0,0,8.84-5c5.3-4.75,9.42-11.2,13.18-18.07a90.6,90.6,0,0,1,6.38-10.28,31.12,31.12,0,0,1,9.22-8.6A21.56,21.56,0,0,1,319,122.69c.27,0,.53,0,.79.07l.78.17c.52.11,1,.21,1.55.35a19.63,19.63,0,0,1,2.92,1.19,22,22,0,0,1,5,3.57,48.38,48.38,0,0,1,7.19,9.31c2,3.25,3.79,6.51,5.69,9.56s3.71,6.17,5.33,9.17,3.28,5.91,5.78,7.68a10.83,10.83,0,0,0,4.07,1.82,22.8,22.8,0,0,0,4.4.59,18.35,18.35,0,0,0,11.61-3.12,24.84,24.84,0,0,0,2.9-2.33,43.65,43.65,0,0,0,4.57-5.15,107.81,107.81,0,0,1,6.95-8.77,16,16,0,0,1,5.79-4.08,10.42,10.42,0,0,1,1.79-.48A2.51,2.51,0,0,1,396.76,142.18Z"/><rect class="cls-5" x="227.04" y="75.16" width="37.29" height="2.07"/><rect class="cls-5" x="227.04" y="80.02" width="18.43" height="2.07"/><rect class="cls-5" x="192.27" y="46.38" width="230.35" height="14.4"/></g><g id="Character_2" data-name="Character 2"><polygon class="cls-10" points="526.83 343.37 560.31 384.37 568.79 374.01 543.47 337.33 526.83 343.37"/><path class="cls-6" d="M559.6,385.37l-1-.94L568.34,373l4.19,3.84-.58.72c-2.63,3.19-13.61,16-16.09,17.49C553.08,396.65,559.6,385.37,559.6,385.37Z"/><g class="cls-11"><path class="cls-9" d="M568.77,380.71a5.13,5.13,0,0,1-1-3.56,5.05,5.05,0,0,1,1.57-3.31l3.08,2.83Z"/></g><g class="cls-11"><path class="cls-9" d="M556.58,391s-2.08,4.15-1.16,4.24,12.49-12.47,17.11-18.46l-.26-.21-13.38,14.77S557.19,390.42,556.58,391Z"/></g><path class="cls-5" d="M572.43,376.42l-.16.21-.47.57c-.47.57-1.06,1.26-1.75,2.08-1.5,1.74-3.6,4.13-6,6.71s-4.58,4.87-6.2,6.51L556,394.42l-.54.51a1,1,0,0,1-.19.17.95.95,0,0,1,.19-.17l.51-.54,1.88-2c1.59-1.66,3.78-4,6.15-6.54s4.49-4.95,6-6.67l1.8-2.05c.18-.2.35-.38.49-.55S572.42,376.41,572.43,376.42Z"/><path class="cls-5" d="M559.06,391.52a6.52,6.52,0,0,0-1.29-.51,6.93,6.93,0,0,0-1.4,0,2,2,0,0,1,1.43-.15A2,2,0,0,1,559.06,391.52Z"/><path class="cls-5" d="M560.41,386.76a1.51,1.51,0,0,1-.74-.05c-.4-.07-.72-.17-.71-.22a1.51,1.51,0,0,1,.74.05C560.1,386.61,560.42,386.71,560.41,386.76Z"/><path class="cls-5" d="M560.76,385.43c0,.05-.27.12-.62.15s-.62,0-.63,0,.27-.12.62-.15S560.76,385.38,560.76,385.43Z"/><path class="cls-5" d="M560.24,383.91s-.17.32-.46.64-.55.56-.59.52a1.94,1.94,0,0,1,.46-.64C559.94,384.11,560.2,383.88,560.24,383.91Z"/><path class="cls-5" d="M559.69,383a1.53,1.53,0,0,1-.41.81c-.31.4-.67.62-.7.58s.26-.31.56-.69S559.64,383,559.69,383Z"/><path class="cls-5" d="M559.11,386.24a3,3,0,0,1-.66.71,6.67,6.67,0,0,1-.86.6,3,3,0,0,1-.57.26.53.53,0,0,1-.39,0,.38.38,0,0,1-.18-.37,1.75,1.75,0,0,1,1.86-1.25,1.62,1.62,0,0,1,.68.2c.15.08.22.15.21.16a2.6,2.6,0,0,0-.9-.24,1.7,1.7,0,0,0-.95.25,1.49,1.49,0,0,0-.72.89c0,.19.15.27.34.21a2.17,2.17,0,0,0,.54-.24,6.81,6.81,0,0,0,.86-.55C558.84,386.49,559.08,386.22,559.11,386.24Z"/><path class="cls-5" d="M559,386.46s-.28,0-.56-.37a1.51,1.51,0,0,1-.34-.67,1,1,0,0,1,.18-.92.39.39,0,0,1,.53.08,1.11,1.11,0,0,1,.2.41,2.64,2.64,0,0,1,.12.73,1.53,1.53,0,0,1-.08.67s0-.26,0-.66a3,3,0,0,0-.15-.69c-.06-.23-.26-.54-.46-.4a.88.88,0,0,0-.13.75,1.54,1.54,0,0,0,.28.62C558.74,386.33,559,386.43,559,386.46Z"/><path class="cls-5" d="M569.21,373.87s-.32.29-.72.84a4.65,4.65,0,0,0-.36,5c.32.6.62.91.59.93s-.09-.06-.22-.2a4.07,4.07,0,0,1-.48-.67,4.66,4.66,0,0,1-.62-2.63,4.61,4.61,0,0,1,1-2.51A3.62,3.62,0,0,1,569,374C569.11,373.92,569.2,373.86,569.21,373.87Z"/><path class="cls-5" d="M566.43,381.12a8.28,8.28,0,0,1-1.33,1.74,7.86,7.86,0,0,1-1.63,1.48s.68-.71,1.49-1.6S566.39,381.09,566.43,381.12Z"/><path class="cls-5" d="M568.4,379c.06,0,.1.2.2.43s.21.4.17.43-.23-.1-.34-.36S568.36,379,568.4,379Z"/><path class="cls-5" d="M568.14,377.21c.05,0,.1.17.11.39s0,.4-.07.4-.1-.17-.11-.39S568.09,377.21,568.14,377.21Z"/><path class="cls-5" d="M568.75,375.62s-.1.18-.2.4-.11.41-.16.41-.12-.22,0-.49S568.73,375.57,568.75,375.62Z"/><path class="cls-5" d="M569.3,374.59s0,.13,0,.26-.12.21-.17.19,0-.14,0-.26S569.25,374.57,569.3,374.59Z"/><polygon class="cls-10" points="470.12 376.65 467.17 394.78 482.67 394.78 486.24 380.01 470.12 376.65"/><path class="cls-6" d="M467.66,395.17l0-1.38,15.06-.07-.18,5.69-.93,0c-4.14.08-21,.12-23.76-.81C454.85,397.58,467.66,395.17,467.66,395.17Z"/><g class="cls-11"><path class="cls-9" d="M477.17,399.1a5.16,5.16,0,0,1,2-3.12,5,5,0,0,1,3.53-1l-.14,4.18Z"/></g><g class="cls-11"><path class="cls-9" d="M461.4,396.57s-4.5,1.12-4,1.88,17.6,1.35,25.16,1l0-.34-19.92-.53S462.27,396.63,461.4,396.57Z"/></g><path class="cls-5" d="M482.81,399.07l-.26,0-.74,0-2.72,0c-2.3,0-5.48,0-9-.16s-6.68-.3-9-.46l-2.72-.21-.73-.07-.26,0h.26l.74,0,2.72.15c2.29.13,5.46.29,9,.41s6.68.18,9,.21l2.72,0h.74Z"/><path class="cls-5" d="M462.65,398.77a6.69,6.69,0,0,0-.47-1.31,6,6,0,0,0-.89-1.08,2.45,2.45,0,0,1,1.36,2.39Z"/><path class="cls-5" d="M467.14,396.69s-.25-.24-.45-.59a1.63,1.63,0,0,1-.3-.68c.05,0,.25.24.45.59S467.18,396.66,467.14,396.69Z"/><path class="cls-5" d="M468.37,396.09s-.26-.13-.51-.37-.43-.46-.39-.5.26.13.51.37S468.41,396.06,468.37,396.09Z"/><path class="cls-5" d="M469.19,394.71a1.83,1.83,0,0,1-.79.07,1.77,1.77,0,0,1-.78-.11,1.86,1.86,0,0,1,.79-.07A1.77,1.77,0,0,1,469.19,394.71Z"/><path class="cls-5" d="M469.49,393.72a1.54,1.54,0,0,1-.88.22,1.45,1.45,0,0,1-.9-.15,4.88,4.88,0,0,1,.89,0A4.57,4.57,0,0,1,469.49,393.72Z"/><path class="cls-5" d="M466.68,395.37a2.86,2.86,0,0,1-1,0,6.12,6.12,0,0,1-1-.26,3.7,3.7,0,0,1-.58-.27.5.5,0,0,1-.22-.3.35.35,0,0,1,.16-.38,1.75,1.75,0,0,1,2.16.59,1.83,1.83,0,0,1,.29.65c0,.17,0,.26,0,.26a2.49,2.49,0,0,0-.41-.83,1.64,1.64,0,0,0-.8-.57,1.53,1.53,0,0,0-1.15,0c-.15.11-.1.29.07.4a2.35,2.35,0,0,0,.53.25,6.11,6.11,0,0,0,1,.29C466.31,395.32,466.68,395.34,466.68,395.37Z"/><path class="cls-5" d="M466.43,395.41a.92.92,0,0,1-.09-.68,1.55,1.55,0,0,1,.29-.69.94.94,0,0,1,.81-.46.37.37,0,0,1,.28.45,1.11,1.11,0,0,1-.17.43,3.09,3.09,0,0,1-.48.56,1.28,1.28,0,0,1-.56.37s.2-.16.47-.46a2.92,2.92,0,0,0,.42-.56c.14-.2.25-.56,0-.61s-.5.2-.65.38a1.57,1.57,0,0,0-.29.62A3.13,3.13,0,0,0,466.43,395.41Z"/><path class="cls-5" d="M482.65,395a10.89,10.89,0,0,0-1.11,0,4.77,4.77,0,0,0-2.44.91,4.83,4.83,0,0,0-1.59,2.07c-.25.64-.28,1.07-.32,1.06a1,1,0,0,1,0-.3,4.86,4.86,0,0,1,.19-.8,4.52,4.52,0,0,1,5-3A1.09,1.09,0,0,1,482.65,395Z"/><path class="cls-5" d="M475.34,397.59a8.58,8.58,0,0,1-2.19.12,8.3,8.3,0,0,1-2.18-.27c0-.05,1,.05,2.18.09S475.33,397.54,475.34,397.59Z"/><path class="cls-5" d="M478.27,397.67s-.09.2-.2.43-.17.41-.22.41-.07-.24.06-.5S478.24,397.63,478.27,397.67Z"/><path class="cls-5" d="M479.42,396.33s-.07.19-.23.34-.31.25-.35.21.07-.19.23-.34S479.39,396.3,479.42,396.33Z"/><path class="cls-5" d="M481,395.76c0,.05-.21,0-.43.11s-.38.18-.42.15.09-.24.37-.32S481,395.72,481,395.76Z"/><path class="cls-5" d="M482.16,395.51s-.07.12-.2.16-.24,0-.26,0,.08-.12.2-.16S482.14,395.46,482.16,395.51Z"/><path class="cls-6" d="M529,160l-25.43,2.16s-7.64.18-15.9,19.54l-5.72,11.26L493.09,200h0l.47,7,1,28.35,47.17-3.47c-1.07-6.44-6.09-14.9-7.78-20.34,1.71-4.28,11.67-21.76,11.66-30.75C545.59,161.61,529,160,529,160"/><path class="cls-4" d="M517.78,200.24a8.58,8.58,0,0,0-3.33-.32,15.47,15.47,0,0,0-3.53.93,23.92,23.92,0,0,1-4.39,1.31,14.83,14.83,0,0,1-8.22-1,13.38,13.38,0,0,1-2.22-1.22c-.48-.34-.73-.56-.71-.59s1.11.72,3.07,1.46a15.51,15.51,0,0,0,8,.82,26.07,26.07,0,0,0,4.32-1.25,14.08,14.08,0,0,1,3.66-.84,6.35,6.35,0,0,1,2.52.27A2.13,2.13,0,0,1,517.78,200.24Z"/><path class="cls-4" d="M490.75,192.25c-.11.1-1.3-1.09-3.11-2s-3.45-1.27-3.42-1.43a6.58,6.58,0,0,1,3.67,1A6.46,6.46,0,0,1,490.75,192.25Z"/><path class="cls-4" d="M504.57,209a7.74,7.74,0,0,1,0-1.52c0-.49,0-1.08.12-1.78s.13-1.48.28-2.34a52.77,52.77,0,0,1,1.28-6,72.54,72.54,0,0,1,2.43-7.12,120.87,120.87,0,0,1,5.9-12.32c.83-1.54,1.52-2.77,2-3.61a7.32,7.32,0,0,1,.81-1.29,9.08,9.08,0,0,1-.63,1.38l-1.87,3.69c-1.57,3.11-3.75,7.41-5.74,12.34-1,2.47-1.79,4.86-2.44,7.06a56.75,56.75,0,0,0-1.38,6c-.18.85-.26,1.63-.36,2.32s-.16,1.27-.2,1.76A10,10,0,0,1,504.57,209Z"/><path class="cls-4" d="M493.37,184.48a3,3,0,0,1,.27-.94c.2-.59.54-1.43,1-2.46a49.87,49.87,0,0,1,9.81-14.4c.79-.8,1.45-1.42,1.93-1.83s.74-.63.77-.6-.93,1-2.43,2.68a66.26,66.26,0,0,0-5.38,6.81,65.13,65.13,0,0,0-4.37,7.5C494,183.24,493.44,184.51,493.37,184.48Z"/><path class="cls-4" d="M522.29,181.7c0,.05-.44-.22-1.27-.4a8.26,8.26,0,0,0-3.57.25,19.94,19.94,0,0,1-5.4.91,12.63,12.63,0,0,1-6.23-2.49c-2-1.36-3.65-2.85-5.37-3.93a11.23,11.23,0,0,0-4.94-1.88,7,7,0,0,0-3.52.48c-.78.34-1.15.66-1.18.62s.07-.1.25-.25a4.14,4.14,0,0,1,.84-.56,6.87,6.87,0,0,1,3.64-.65,11.22,11.22,0,0,1,5.17,1.84c1.77,1.08,3.48,2.57,5.4,3.9a12.44,12.44,0,0,0,6,2.44,20.68,20.68,0,0,0,5.3-.79,7.88,7.88,0,0,1,3.69-.09,3.69,3.69,0,0,1,.93.4C522.2,181.62,522.3,181.69,522.29,181.7Z"/><path class="cls-5" d="M493.56,207a17.25,17.25,0,0,0-.09-4.16,37,37,0,0,0-1.05-4.41,37,37,0,0,1-1.29-5.47,10.77,10.77,0,0,1,.63-5.62,13.81,13.81,0,0,1,2.58-3.84,28.17,28.17,0,0,1,2.23-2.14,5,5,0,0,1,.89-.7c.07.07-1.14,1.15-2.84,3.09a13.91,13.91,0,0,0-2.41,3.77,10.66,10.66,0,0,0-.57,5.37,39.89,39.89,0,0,0,1.24,5.41,31.82,31.82,0,0,1,1,4.49,12.21,12.21,0,0,1,0,3.11A5.16,5.16,0,0,1,493.56,207Z"/><path class="cls-5" d="M494.57,235.39S483.16,270.27,478.83,304s-9.65,80.11-9.65,80.11l15.64.32,28.95-90.53,29.46-41.7-2.93-25.42Z"/><polyline class="cls-5" points="495.9 239.64 506.76 329.04 550.92 373.84 560.62 360.45 529.32 310.8 536.36 232.62 494.17 240.64"/><path class="cls-8" d="M526,278.37a2,2,0,0,1-.25.5,14.63,14.63,0,0,1-.87,1.34,33.93,33.93,0,0,1-3.93,4.35,66.93,66.93,0,0,0-6,6.2,28,28,0,0,0-4.54,9.43c-1.05,3.6-2,7.06-2.67,10.25s-1.13,6.11-1.89,8.48-1.46,4.23-1.85,5.55-.56,2.06-.61,2a3.23,3.23,0,0,1,.07-.55c.06-.36.17-.89.35-1.56.33-1.34,1-3.24,1.68-5.6s1.12-5.26,1.78-8.46,1.58-6.69,2.64-10.32a27.85,27.85,0,0,1,4.67-9.57,60.6,60.6,0,0,1,6.13-6.17,39.74,39.74,0,0,0,4-4.2C525.6,279,526,278.35,526,278.37Z"/><path class="cls-8" d="M529.7,310.18a35.79,35.79,0,0,0-3.24,2.69,37.32,37.32,0,0,0-2.52,3.39,7.37,7.37,0,0,1,2.14-3.74A7.21,7.21,0,0,1,529.7,310.18Z"/><path class="cls-8" d="M529.12,310.76a25.58,25.58,0,0,1-3.33.28,28.33,28.33,0,0,1-3.33.37,7,7,0,0,1,3.28-.89A7,7,0,0,1,529.12,310.76Z"/><polygon class="cls-6" points="458.69 199.42 456.24 210.1 488.47 212.1 458.69 199.42"/><g class="cls-7"><polygon points="458.69 199.42 456.24 210.1 488.47 212.1 458.69 199.42"/></g><path class="cls-8" d="M567.62,230.34a57.45,57.45,0,0,0-5.09-3.49c-.54-.12-3.79,2.47-3.79,2.47s1.09-4.46-.85-6.72-5-2.34-8.68,0-11.1,3.49-11.1,3.49l-2.37-3.63c-1.18-1.81-2.6-1.11-7.46-1s-17.87-6.89-17.87-6.89-7.19-5.2-15.87-11.58l1.95-2.49a3.5,3.5,0,0,0-.59-4.92h0a3.51,3.51,0,0,0-4.92.59l-.22.29a2.52,2.52,0,0,0-4.26-2.63l-.95,1.21a2.54,2.54,0,0,0-1-2.15,2.5,2.5,0,0,0-3.35.24c-5.11-3.83-9.77-7.38-12.83-9.86-10.93-8.84-13.6-25.18-13.6-25.18-4,1-4,3.56-4.05,6.4,0,.73,0,1.37,0,1.94a16.08,16.08,0,0,0-9.7-.37,14.87,14.87,0,0,0-6.7,4.18,4.12,4.12,0,1,0-1.4,1.57,4.19,4.19,0,0,0,.33-.26,13.56,13.56,0,0,0-1.86,3.48,13.1,13.1,0,0,0,2.47,12.8l1.5.45c-.78.33-1.71.54-2.88.92-2.7.87-5.16,1.61-4.9,5.77,0,0,16.39-2.32,28.08,5.48,3.17,2.11,7.74,5.34,12.72,8.93l-.23.29a2.52,2.52,0,0,0,2.74,4l-.91,1.16a2.51,2.51,0,0,0,3.56,3.51l-.22.29a3.5,3.5,0,1,0,5.5,4.32l3-3.76c8.89,6.55,16.27,12.07,16.27,12.07s10.57,10.34,11.9,15,1.1,6.24,3.18,6.83l4.17,1.17s1.16,7.48,0,11.65-.17,7.1,2.56,8.28,6.67-1.18,6.67-1.18-1.5,3.87-1.23,4.35a58.13,58.13,0,0,0,4.85,3.82l19-26.09-.83,1.19Z"/><path class="cls-5" d="M450.78,163.47a6.39,6.39,0,0,1,.07,1.37,24.82,24.82,0,0,1-.24,3.73,9.31,9.31,0,0,1-.74,2.51,4.76,4.76,0,0,1-2.07,2.22c-1.91,1-4.41.95-6.19,2.45a3.71,3.71,0,0,0-1.22,2.93c0,1.1.18,2.18.18,3.25a5.31,5.31,0,0,1-.74,2.94,6.5,6.5,0,0,1-1.83,1.89,27.3,27.3,0,0,1-3.28,1.81,3.72,3.72,0,0,1-1.32.38s.45-.18,1.23-.57a35,35,0,0,0,3.15-1.92,6.16,6.16,0,0,0,1.68-1.82,4.91,4.91,0,0,0,.63-2.71c0-1-.22-2.09-.21-3.26a4.22,4.22,0,0,1,1.39-3.32,7.94,7.94,0,0,1,3.26-1.49,14.27,14.27,0,0,0,3-1,4.41,4.41,0,0,0,1.91-2,9.3,9.3,0,0,0,.76-2.39,32.26,32.26,0,0,0,.4-3.67A6.84,6.84,0,0,1,450.78,163.47Z"/><path class="cls-5" d="M470.38,213.91a27.72,27.72,0,0,1,2.24-2.72c1.42-1.66,3.34-4,5.37-6.59s3.78-5.06,5-6.85a26.57,26.57,0,0,1,2.07-2.85,3.33,3.33,0,0,1-.42.85c-.3.53-.76,1.29-1.35,2.21-1.17,1.84-2.88,4.33-4.91,7s-4,4.92-5.51,6.51c-.74.8-1.36,1.43-1.8,1.86A3.57,3.57,0,0,1,470.38,213.91Z"/><path class="cls-5" d="M491,196.19s-.18.36-.6.95-1,1.41-1.8,2.43c-1.55,2.05-3.71,4.84-6.13,7.91s-4.64,5.83-6.27,7.81a27.08,27.08,0,0,1-2.74,3.12,6.51,6.51,0,0,1,.63-.93l1.82-2.42c1.56-2,3.73-4.83,6.15-7.9s4.63-5.83,6.25-7.81l1.93-2.34A6.34,6.34,0,0,1,491,196.19Z"/><path class="cls-5" d="M481.33,219.76a22.64,22.64,0,0,1,2-2.43c1.26-1.47,3-3.52,4.79-5.86s3.35-4.52,4.45-6.12a24.55,24.55,0,0,1,1.83-2.55,15.35,15.35,0,0,1-1.53,2.75,74.93,74.93,0,0,1-4.34,6.24c-1.82,2.35-3.59,4.38-4.93,5.79A16.41,16.41,0,0,1,481.33,219.76Z"/><path class="cls-5" d="M560.34,226.78a2.44,2.44,0,0,1-.33.49c-.27.35-.6.8-1,1.34l-3.79,4.88c-3.21,4.13-7.6,9.85-12.32,16.27S534,262.07,531,266.35l-3.53,5.07-1,1.37a2,2,0,0,1-.37.46,3.59,3.59,0,0,1,.29-.51c.23-.38.53-.85.89-1.43.78-1.23,2-3,3.4-5.17,2.91-4.34,7-10.27,11.76-16.69s9.17-12.12,12.45-16.18c1.64-2,3-3.67,3.92-4.79l1.1-1.27A2.26,2.26,0,0,1,560.34,226.78Z"/><path class="cls-10" d="M445.64,190.74c-.22-.84,0-1.7.85-1.79h0a1.34,1.34,0,0,1,.91.93l2.24,7.72h0l-1.12-5.76c-.22-.84.14-1.67.81-1.58.37.05.74.58.84,1l1.79,6.45-.8-4.25c-.21-.95,0-1.38.49-1.46s.88.47,1,.83l1.42,4.71c.74.59,3.18,2.39,3.22,4.28,0,.1.27.24.32.31l.69.2-1,4.1s-6.52-4.54-8.19-6.07a6.35,6.35,0,0,1-2-3.31Z"/><path class="cls-5" d="M499.62,121c-2.59,2.31-3.18,6.14-3.1,9.62s.65,7-.29,10.39c-.43,1.56-1.17,3-1.59,4.57a5.81,5.81,0,0,0,.45,4.68c1.35,2,4.18,2.29,6.62,2.35l5.51.14a1.73,1.73,0,0,0,2.19-2.1,135,135,0,0,0-3-29.18"/><path class="cls-10" d="M525.79,124.19l0,2.5-.5,37.47a8,8,0,0,1-8.5,7.66h0c-4.71-.1-8.53-3.74-8.54-8.13,0-4.62-.11-9.47-.11-9.47s-5.95-1-7.18-8.74c-.61-3.86-.42-10.18-.09-15.35a8.19,8.19,0,0,1,9-7.63Z"/><path class="cls-5" d="M502.41,134.54a1,1,0,0,0,1,1,1,1,0,0,0,1-.9,1,1,0,0,0-1-1A1,1,0,0,0,502.41,134.54Z"/><path class="cls-5" d="M502.19,133.42c.12.13.88-.43,1.95-.42s1.85.54,2,.4-.07-.29-.41-.54a2.74,2.74,0,0,0-1.58-.48,2.59,2.59,0,0,0-1.55.5C502.24,133.13,502.13,133.36,502.19,133.42Z"/><path class="cls-5" d="M513.12,134.54a1,1,0,0,0,1,1,1,1,0,0,0,1-.9,1,1,0,0,0-1-1A1,1,0,0,0,513.12,134.54Z"/><path class="cls-5" d="M512.71,133.62c.12.13.88-.43,1.95-.42s1.85.54,2,.4-.07-.29-.41-.54a2.77,2.77,0,0,0-1.58-.48,2.59,2.59,0,0,0-1.55.5C512.76,133.33,512.65,133.56,512.71,133.62Z"/><path class="cls-5" d="M508.83,141.56a7.11,7.11,0,0,0-1.74-.32c-.28,0-.53-.08-.58-.27a1.46,1.46,0,0,1,.18-.81c.26-.66.53-1.35.81-2.08a37.52,37.52,0,0,0,1.82-5.44,35.52,35.52,0,0,0-2.25,5.29l-.78,2.09a1.59,1.59,0,0,0-.14,1.07.71.71,0,0,0,.45.4,1.66,1.66,0,0,0,.46.06A7.28,7.28,0,0,0,508.83,141.56Z"/><path class="cls-12" d="M508.09,154.22a19.68,19.68,0,0,0,10.38-2.77s-2.52,5.33-10.28,4.6Z"/><path class="cls-12" d="M509.28,144.14a1.93,1.93,0,0,1,1.73-.72,1.74,1.74,0,0,1,1.21.65,1.14,1.14,0,0,1,.09,1.28,1.31,1.31,0,0,1-1.41.35,3.94,3.94,0,0,1-1.36-.81,1.18,1.18,0,0,1-.31-.32.36.36,0,0,1,0-.4"/><path class="cls-5" d="M512,142.3c-.17,0-.17,1.15-1.17,2s-2.23.7-2.24.86.28.23.8.24a2.89,2.89,0,0,0,1.87-.65,2.52,2.52,0,0,0,.91-1.66C512.18,142.58,512.05,142.29,512,142.3Z"/><path class="cls-5" d="M535.61,142a50.86,50.86,0,0,1-.87-6.75,28.25,28.25,0,0,0-4.2-12.45,18.71,18.71,0,0,0-6.3-5.93,6,6,0,0,0,3.54-3.8,4.86,4.86,0,1,0-8.21,2.06,13.59,13.59,0,0,0-6.49.41c-.2,0-.4,0-.6,0-2.58.16-5.23-.21-7.68.6a10.15,10.15,0,0,0-5.94,4.66c-1.31,2.56-1.05,5.61-.75,8.47a3,3,0,0,0,.88,2.21,2.93,2.93,0,0,0,1.76.38l5.37,0a6.8,6.8,0,0,0,3.64-.65,2.73,2.73,0,0,0,1.16-1.49,4.17,4.17,0,0,0,2.22,2,10.35,10.35,0,0,0,4.8.25,10.06,10.06,0,0,0,3.1-.69q.19,7.55.4,15.09a4.49,4.49,0,0,0,.53,2.44,4.16,4.16,0,0,0,3.24,1.39,7.8,7.8,0,0,0,4.82-.82,3.67,3.67,0,0,0,1.7-3.51,4.64,4.64,0,0,0,7.41,1.7A9.44,9.44,0,0,1,535.61,142Z"/><path class="cls-8" d="M512.81,116a19.34,19.34,0,0,0-3.59,0,11.22,11.22,0,0,0-10,12,19.81,19.81,0,0,0,.66,3.54,3.14,3.14,0,0,1-.43-.89,9.56,9.56,0,0,1-.59-2.62,11.2,11.2,0,0,1,10.28-12.35,9.86,9.86,0,0,1,2.68.1A2.84,2.84,0,0,1,512.81,116Z"/><path class="cls-8" d="M506.65,131.27s-.17-.2-.36-.61a8.69,8.69,0,0,1-.61-1.84,11.38,11.38,0,0,1,4.1-11.49,9.27,9.27,0,0,1,1.64-1c.41-.2.65-.28.67-.25s-.87.52-2.07,1.57a11.91,11.91,0,0,0-4,11.14C506.31,130.32,506.73,131.24,506.65,131.27Z"/><path class="cls-8" d="M510.44,126.42a3.77,3.77,0,0,1-.68-1.56,8.71,8.71,0,0,1,1.76-7.81c.69-.8,1.25-1.16,1.29-1.11a12.3,12.3,0,0,1-1,1.34,9.82,9.82,0,0,0-1.69,7.5A12.48,12.48,0,0,1,510.44,126.42Z"/><path class="cls-4" d="M546.07,179.06c-.07.06-.91-.92-2.57-2.12a17.29,17.29,0,0,0-15.14-2.65c-2,.57-3.09,1.21-3.13,1.12a2.84,2.84,0,0,1,.75-.49,13.87,13.87,0,0,1,2.27-1,16.48,16.48,0,0,1,15.48,2.71,14.93,14.93,0,0,1,1.8,1.68A3,3,0,0,1,546.07,179.06Z"/><path class="cls-6" d="M479.67,204.1l-4.78,16.29s23.59,9.55,37.12,9.39c12.68-.16,16.56-4.26,21.5-12.53,5.77-9.65,10.21-21.78,11.28-28.56,0,0,7.15-31.18-20.15-28.4l-.74,24.4s-3,10-3.25,10.57c-2,5.4-4.67,13.3-7.23,14.25S479.67,204.1,479.67,204.1Z"/><path class="cls-5" d="M479.67,204.1a3.38,3.38,0,0,1,.67.07l1.94.31c1.68.3,4.11.76,7.11,1.41s6.6,1.46,10.65,2.18a66.53,66.53,0,0,0,13.37,1.18l-.23.17c.51-1.34,1.05-2.75,1.56-4.19,3.59-10.07,6.38-19.36,8.68-26,1.14-3.31,2.11-6,2.82-7.81.35-.92.64-1.62.84-2.1a4,4,0,0,1,.33-.71,4.06,4.06,0,0,1-.23.75l-.75,2.13c-.65,1.85-1.57,4.53-2.66,7.86-2.21,6.65-4.95,15.95-8.54,26-.51,1.45-1.05,2.87-1.57,4.21l-.06.16h-.17A65.77,65.77,0,0,1,500,208.53c-4.05-.76-7.63-1.63-10.63-2.3s-5.41-1.21-7.08-1.56l-1.91-.4A4.61,4.61,0,0,1,479.67,204.1Z"/><path class="cls-5" d="M474.89,220.39a3.66,3.66,0,0,1,.77.24l2.18.74c1.89.63,4.65,1.5,8.09,2.46s7.55,2,12.14,3.14a78.82,78.82,0,0,0,15.07,2.6,26.43,26.43,0,0,0,4-.1,16.27,16.27,0,0,0,3.78-.78,18.45,18.45,0,0,0,6.21-3.76,38.83,38.83,0,0,0,7.46-9.93c1.72-3.12,2.92-5.75,3.75-7.57l1-2.09a4.64,4.64,0,0,1,.36-.72,6,6,0,0,1-.27.76c-.19.49-.47,1.21-.86,2.13-.78,1.85-1.93,4.51-3.61,7.67a37.93,37.93,0,0,1-7.47,10.1,18.64,18.64,0,0,1-6.37,3.9,17.38,17.38,0,0,1-3.88.81,27.57,27.57,0,0,1-4.07.1A76.47,76.47,0,0,1,498,227.44c-4.58-1.16-8.69-2.25-12.13-3.26s-6.17-1.93-8.05-2.62c-.94-.35-1.66-.63-2.15-.84A6.68,6.68,0,0,1,474.89,220.39Z"/><g class="cls-13"><path d="M492.94,206.69l14,.32a8,8,0,0,0,3.27-.39,7.69,7.69,0,0,0,3.25-3.42q3.68-6.06,6.74-12.47s-3.7,11.73-6,16.84a2.66,2.66,0,0,1-3.27,1.68A63,63,0,0,1,492.94,206.69Z"/></g><g class="cls-13"><path d="M535.13,215s-4.73,18-16.84,17.62-23.62-5.56-23.62-5.56l.54-.56s20.6,4.44,26.33,1.65C532.41,222.85,535.13,215,535.13,215Z"/></g><path class="cls-10" d="M475.37,218.75l-3.82,0c-3.47-.34-5.42-.4-6.39-1.32-1.3-1.24.49-2.45.49-2.45s-2.52-.87-2.28-2.4c.16-1,1.35-1.16,1.35-1.16s-2.22-.87-2.66-1.79c-.59-1.26,1-1.94,1-1.94-3-1.86-2.75-3.7-2-3.89s3.06.9,3.06.9c2,.57,7.43,2.23,5.41-.77s-2.43-6.06-2-7a1.14,1.14,0,0,1,2.08.52,13.09,13.09,0,0,0,1.42,3.35,8.56,8.56,0,0,0,1.81,2.29c.86.76,1.61,1.37,2.26,1.87l3.4,3.29Z"/><path class="cls-4" d="M540.58,204.31c0,.08-1.28-.5-3.36-1.21a37.11,37.11,0,0,0-8.37-1.78,37.84,37.84,0,0,0-8.55.22c-2.18.32-3.5.66-3.52.58a3,3,0,0,1,.9-.34,21.67,21.67,0,0,1,2.56-.6,32.08,32.08,0,0,1,17.1,1.57,20.11,20.11,0,0,1,2.4,1.07A3.44,3.44,0,0,1,540.58,204.31Z"/><path class="cls-4" d="M512.76,229.66a7.34,7.34,0,0,0,.71-2.93,8.92,8.92,0,0,0-.6-3.21,22.63,22.63,0,0,0-1.87-3.6,26.94,26.94,0,0,1-2-3.65,10,10,0,0,1-.78-3.33,5.75,5.75,0,0,1,.33-2.28,1.89,1.89,0,0,1,.4-.74,8.36,8.36,0,0,0-.36,3,10.11,10.11,0,0,0,.85,3.16,33.59,33.59,0,0,0,2,3.57,19.63,19.63,0,0,1,1.88,3.71,8.75,8.75,0,0,1,.52,3.38,5.5,5.5,0,0,1-.58,2.24C513,229.46,512.78,229.68,512.76,229.66Z"/><path class="cls-4" d="M486.86,223.47a9.8,9.8,0,0,1,.21-2.44,58,58,0,0,1,1.16-5.77,58.72,58.72,0,0,1,1.73-5.64,10.15,10.15,0,0,1,1-2.24,12.8,12.8,0,0,1-.62,2.35c-.43,1.44-1,3.43-1.57,5.65s-1,4.25-1.31,5.72A13.88,13.88,0,0,1,486.86,223.47Z"/><path class="cls-4" d="M539.22,164.54a5.86,5.86,0,0,1,.27,1,9.6,9.6,0,0,1,0,3,21.43,21.43,0,0,1-1.18,4.55c-.61,1.72-1.4,3.64-2.05,5.84-1.37,4.39-2.32,9.78-3.67,15.71a66.36,66.36,0,0,1-2.75,9.17,32.86,32.86,0,0,1-5.08,8.93,22.59,22.59,0,0,1-8.06,6.36,19.89,19.89,0,0,1-9.43,1.61,42.6,42.6,0,0,1-8.53-1.47c-2.62-.69-5-1.43-7.22-2.16-4.37-1.46-7.81-2.89-10.16-3.94-1.18-.53-2.08-1-2.69-1.25l-.69-.35-.22-.13.25.08.7.3,2.73,1.17c2.37,1,5.82,2.36,10.19,3.77,2.19.7,4.6,1.42,7.21,2.09a43,43,0,0,0,8.46,1.42,19.45,19.45,0,0,0,9.19-1.6,22.25,22.25,0,0,0,7.87-6.23,32.9,32.9,0,0,0,5-8.79,67.36,67.36,0,0,0,2.75-9.09c1.38-5.9,2.37-11.31,3.79-15.71.67-2.2,1.49-4.13,2.13-5.83a22.27,22.27,0,0,0,1.25-4.48A11,11,0,0,0,539.22,164.54Z"/></g><g id="Character_1" data-name="Character 1"><path class="cls-10" d="M216.41,140.92a2.7,2.7,0,0,1,0,2.56l-20.93,37.38a13.22,13.22,0,0,1-17.73,4.48L166,178.71l8.11-14.06,8.69,5.24,21-27.79a25.66,25.66,0,0,0,.31-4.66,7,7,0,0,0-.43-2.35,10.71,10.71,0,0,0-1.3-2.67.93.93,0,0,1,.8-1.56c.81.21,2.47,2.11,3.23,5s2.66-1.39,3.38-2.92,3.18-6.17,3.83-6.32c.95-.22,1.36.76.6,2.27s-2.7,6.21-1.88,6.55c0,0,1.47.34,1.84,1.25Z"/><path class="cls-12" d="M213.83,136.12a6.62,6.62,0,0,1-.43,1.77q-.28.9-.6,1.86c-.12.36-.24.72-.37,1.09a1.56,1.56,0,0,1-.33.64.77.77,0,0,1-.87.11,2.61,2.61,0,0,1-.59-.38,1.27,1.27,0,0,1-.43-.63,2.29,2.29,0,0,1,.27-1.26l.71-1.82a6.5,6.5,0,0,1,.79-1.63,5.93,5.93,0,0,1-.44,1.76l-.61,1.86a2.18,2.18,0,0,0-.22,1c0,.21.44.5.73.65s.23.06.3,0a1.27,1.27,0,0,0,.22-.44q.19-.56.39-1.08c.25-.63.48-1.24.71-1.83A5.92,5.92,0,0,1,213.83,136.12Z"/><path class="cls-12" d="M214.59,139.28a5.36,5.36,0,0,1-.36,1.6c-.18.56-.36,1.12-.54,1.7l-.16.49a1.14,1.14,0,0,1-.37.56.78.78,0,0,1-.78,0,2,2,0,0,1-.53-.34,1.2,1.2,0,0,1-.44-.54,1.13,1.13,0,0,1,0-.7c.11-.4.25-.69.36-1q.34-.84.66-1.65a5.28,5.28,0,0,1,.73-1.47,5,5,0,0,1-.38,1.6c-.18.55-.37,1.11-.55,1.68-.1.31-.24.67-.33,1a.6.6,0,0,0,.29.71c.28.24.6.4.7.3s.26-.51.37-.8l.64-1.65A5.14,5.14,0,0,1,214.59,139.28Z"/><path class="cls-12" d="M216,141a5.07,5.07,0,0,1-.36,1.61c-.18.55-.36,1.11-.54,1.69l-.16.49a1.14,1.14,0,0,1-.37.56.81.81,0,0,1-.78,0,2.32,2.32,0,0,1-.53-.35,1.2,1.2,0,0,1-.44-.54,1.13,1.13,0,0,1,0-.7c.11-.39.25-.69.36-1q.35-.84.66-1.65a5.28,5.28,0,0,1,.73-1.47,5,5,0,0,1-.38,1.6c-.18.55-.37,1.11-.55,1.69-.1.3-.24.66-.33,1a.6.6,0,0,0,.29.71c.28.24.6.4.7.3s.26-.51.37-.8l.64-1.65A5.14,5.14,0,0,1,216,141Z"/><path class="cls-12" d="M209.68,144.7a15.06,15.06,0,0,0-.37-3,14,14,0,0,0-1.48-2.7s.37.12.79.54a5.24,5.24,0,0,1,1.18,2,5.07,5.07,0,0,1,.2,2.31C209.91,144.38,209.74,144.72,209.68,144.7Z"/><path class="cls-5" d="M143.4,92.41a8.85,8.85,0,0,0-9.85-1.78c-1.48.7-2.78,1.82-4.37,2.24-1.9.5-3.89-.1-5.84-.34s-4.25,0-5.32,1.69c-.69,1.06-.73,2.51-1.63,3.4-1.23,1.23-3.31.74-5,1.23a4.67,4.67,0,0,0-3.16,3.71,5.53,5.53,0,0,0,1.6,4.68,8.4,8.4,0,0,1,2,2.14c.55,1.16.14,2.52-.07,3.78s-.05,2.85,1.1,3.41a1.73,1.73,0,0,0,2.42-2.08l24.23-7.76c3.66,0,4.81-3.29,5.39-4.43A8.84,8.84,0,0,0,143.4,92.41Z"/><path class="cls-10" d="M114.53,100.83l0,2.62.52,39.21c.06,4.55,4,8.13,8.9,8h0c4.92-.11,8.92-3.92,8.94-8.52,0-4.83.12-9.91.12-9.91s6.22-1,7.5-9.15c.65-4,.44-10.65.1-16.06a8.57,8.57,0,0,0-9.45-8Z"/><path class="cls-5" d="M139,111.66a1,1,0,0,1-1,1,1,1,0,0,1-1.08-.94,1,1,0,0,1,1-1A1,1,0,0,1,139,111.66Z"/><path class="cls-5" d="M139.23,110.49c-.13.14-.92-.44-2-.44s-1.94.56-2.06.43.07-.31.43-.57a2.86,2.86,0,0,1,1.65-.51,2.76,2.76,0,0,1,1.62.52C139.17,110.19,139.29,110.43,139.23,110.49Z"/><path class="cls-5" d="M127.79,111.66a1,1,0,0,1-1,1,1,1,0,0,1-1.08-.94,1,1,0,0,1,1-1A1,1,0,0,1,127.79,111.66Z"/><path class="cls-5" d="M128.22,110.7c-.13.14-.92-.44-2-.44s-1.94.56-2.06.42.07-.3.43-.56a2.86,2.86,0,0,1,1.65-.51,2.73,2.73,0,0,1,1.62.52C128.16,110.4,128.28,110.64,128.22,110.7Z"/><path class="cls-5" d="M132.28,119a6.84,6.84,0,0,1,1.82-.33c.29,0,.56-.09.61-.28a1.59,1.59,0,0,0-.19-.85l-.85-2.18a37.72,37.72,0,0,1-1.9-5.69,36.41,36.41,0,0,1,2.35,5.53q.44,1.14.81,2.19a1.61,1.61,0,0,1,.15,1.12.7.7,0,0,1-.47.42,2.31,2.31,0,0,1-.48.07A7.55,7.55,0,0,1,132.28,119Z"/><path class="cls-12" d="M133.06,132.26a20.67,20.67,0,0,1-10.87-2.9s2.63,5.58,10.76,4.82Z"/><path class="cls-5" d="M129,119.78c.18,0,.18,1.21,1.22,2.07s2.34.73,2.35.9-.29.24-.84.25a3,3,0,0,1-2-.68,2.71,2.71,0,0,1-.95-1.73C128.77,120.08,128.9,119.78,129,119.78Z"/><path class="cls-5" d="M128.51,106.31c-.11.31-1.23.16-2.55.32s-2.37.52-2.55.25.11-.42.54-.72a4.31,4.31,0,0,1,1.89-.66,4.27,4.27,0,0,1,2,.24C128.31,105.93,128.55,106.17,128.51,106.31Z"/><path class="cls-5" d="M138.81,107.25c-.19.26-1,0-1.89,0s-1.71.17-1.9-.09,0-.39.39-.63a2.71,2.71,0,0,1,1.54-.42,2.66,2.66,0,0,1,1.52.52C138.79,106.87,138.9,107.13,138.81,107.25Z"/><path class="cls-5" d="M140.93,103.45s-4.14,2.17-9.71-.39c-3.65-1.68-7.86-2.42-8.77-1.67s-1,4.46-4.5,5.65c0,0,.47,7.06-2.36,6.9s-2.4-14.33-2.4-14.33l7.78-.42,7.47-1.65,7.12.77,5.53,1.33Z"/><path class="cls-5" d="M113,97.59c0-.1.63-.35,1.41-.07s1.13.89,1,1-.53-.32-1.18-.55S113,97.71,113,97.59Z"/><path class="cls-5" d="M115.34,95.21c.13,0,.09.84.24,1.79s.56,1.66.45,1.73-.71-.59-.87-1.66A2.74,2.74,0,0,1,115.34,95.21Z"/><path class="cls-10" d="M115.76,111c-.12-.06-4.69-1.61-4.74,3.13s4.71,3.8,4.72,3.67S115.76,111,115.76,111Z"/><path class="cls-12" d="M114.31,116s-.08.06-.22.12a.82.82,0,0,1-.62,0,2,2,0,0,1-.92-1.84,2.58,2.58,0,0,1,.24-1.17,1,1,0,0,1,.63-.63.41.41,0,0,1,.48.23c.06.13,0,.23.06.24s.1-.08.06-.28a.51.51,0,0,0-.18-.3.62.62,0,0,0-.45-.12,1.14,1.14,0,0,0-.87.72,2.85,2.85,0,0,0-.3,1.32,2.16,2.16,0,0,0,1.18,2.06.9.9,0,0,0,.76-.12C114.3,116.13,114.33,116,114.31,116Z"/><path class="cls-6" d="M134.34,142.43c3.48.2,9.32.67,20.85,7.41,2.52,1.47,28.39,18.84,28.39,18.84l-11.46,14.66L151,171.46l2.84,25.26,3.16,30-51.11-.65-1.27-30.16-.44-20.51L101,202.81l-20.21-1.92,5.58-36.08a24.09,24.09,0,0,1,5.32-12c3.48-4.06,7.92-6.53,13-8.36a42,42,0,0,1,9.52-1.74l-.16-6s9.09.85,11.51,6.69c0,0,3-6.9,8.85-7.47Z"/><path class="cls-4" d="M120.66,224.78a7.71,7.71,0,0,1-1.39-3,27.25,27.25,0,0,1-.87-8.94c.06-1.89.22-3.94.31-6.13a54.63,54.63,0,0,0-.14-6.95,132.36,132.36,0,0,0-2.74-15.8,94.11,94.11,0,0,1-2.36-16.08c-.13-5,.3-9.47.06-13.18a27,27,0,0,0-1.68-8.54c-.76-1.92-1.41-2.89-1.31-3s.91.8,1.87,2.71a24.35,24.35,0,0,1,2.22,8.71c.38,3.8.07,8.31.28,13.2a102.9,102.9,0,0,0,2.45,15.82,119.34,119.34,0,0,1,2.65,16,52.9,52.9,0,0,1,0,7.13c-.17,2.19-.34,4.24-.49,6.12a30.67,30.67,0,0,0,.35,8.73C120.29,223.67,120.79,224.73,120.66,224.78Z"/><path class="cls-4" d="M141.72,226.24a12.82,12.82,0,0,1-.52-3.23c-.23-2.13-.55-5.14-.95-8.83-.78-7.45-2-17.74-3.63-29.05-.84-5.66-1.71-11-2.55-15.92s-1.64-9.29-2.08-13a66.45,66.45,0,0,1-.53-8.91,11.38,11.38,0,0,1,.32-3.27c.25,0,.1,4.66,1.31,12,.57,3.69,1.48,8,2.4,12.94s1.84,10.27,2.67,15.94c1.68,11.35,2.69,21.69,3.2,29.18.25,3.75.39,6.79.45,8.89A13.27,13.27,0,0,1,141.72,226.24Z"/><path class="cls-4" d="M140.58,143.35a24.3,24.3,0,0,1,.51,3.24,66.36,66.36,0,0,0,2.18,8.59c.54,1.81,1.15,3.8,1.66,6a51,51,0,0,1,1.1,7.08c.44,5,.38,10.51.7,16.24.57,11.47,1.7,21.82,2.45,29.33.39,3.75.69,6.79.86,8.89a13.32,13.32,0,0,1,.11,3.29,14.13,14.13,0,0,1-.71-3.21c-.36-2.08-.83-5.1-1.36-8.84-1-7.48-2.33-17.85-2.91-29.39-.32-5.77-.22-11.27-.58-16.19a54.09,54.09,0,0,0-.92-6.93c-.44-2.14-1-4.13-1.46-6a49.43,49.43,0,0,1-1.72-8.82A9.22,9.22,0,0,1,140.58,143.35Z"/><path class="cls-4" d="M132.52,143.06c-.45-.07-.5-1.38-.88-2.72s-1-2.5-.65-2.79c.16-.14.53,0,1,.39a4.36,4.36,0,0,1,1.2,4.29C133,142.79,132.73,143.1,132.52,143.06Z"/><path class="cls-4" d="M116.4,143.59c-.19.08-.54-.21-.79-.86a4.49,4.49,0,0,1,1.35-4.85c.54-.42,1-.5,1.11-.33.26.36-.62,1.42-1,3S116.8,143.41,116.4,143.59Z"/><path class="cls-4" d="M132.37,225.77c-.13,0,.12-1.16,0-3.22a31.71,31.71,0,0,0-2-8.49c-.59-1.76-1.31-3.69-1.92-5.84s-1.15-4.44-1.62-6.89c-.94-4.9-1.56-10.31-2.28-16-1.42-11.33-2.61-21.6-3.4-29-.4-3.72-.69-6.74-.86-8.83a14,14,0,0,1-.1-3.26,12.69,12.69,0,0,1,.71,3.19c.35,2.06.81,5.06,1.34,8.76,1.07,7.41,2.44,17.65,3.86,29,.72,5.66,1.3,11.07,2.15,15.9.42,2.42.9,4.7,1.45,6.81s1.19,4,1.73,5.85a27.6,27.6,0,0,1,1.53,8.81C132.91,224.68,132.45,225.8,132.37,225.77Z"/><path class="cls-4" d="M111.52,224.65c-.22,0-.6-3.09-1.18-8.09S109,204.64,108.18,197s-1.37-14.61-1.61-19.66-.19-8.17,0-8.18.57,3.09,1.09,8.1,1.26,12,2.06,19.58,1.43,14.6,1.72,19.64S111.73,224.63,111.52,224.65Z"/><path class="cls-4" d="M84.26,201.11c-.21-.05.38-3.33,1.49-8.6S88.51,180,90.42,172l2.76-11.23a35.08,35.08,0,0,1,3.13-9.05A12.38,12.38,0,0,1,100.8,147c1.37-.75,2.25-.84,2.27-.75s-.75.4-1.94,1.26a13.32,13.32,0,0,0-3.85,4.72,38.3,38.3,0,0,0-2.7,8.87L91.94,172.4c-1.91,8-3.72,15.18-5.11,20.37S84.47,201.16,84.26,201.11Z"/><path class="cls-4" d="M108.14,150.41c.09.1-.47.61-1,1.82a27.16,27.16,0,0,0-1.85,5.38c-.28,1.19-.6,2.49-.93,3.88s-.57,2.89-.9,4.49a29.81,29.81,0,0,1-1.42,5,50.35,50.35,0,0,1-2.35,5c-.85,1.67-1.71,3.27-2.39,4.84a23.59,23.59,0,0,0-1.31,4.72,67.8,67.8,0,0,0-.87,8.47c-.21,4.87-.13,7.9-.37,7.91s-.66-3-.73-7.93a54.93,54.93,0,0,1,.55-8.69,23.46,23.46,0,0,1,1.32-5.07c.7-1.68,1.56-3.3,2.42-5s1.67-3.27,2.31-4.86a31.31,31.31,0,0,0,1.43-4.75c.37-1.56.68-3.08,1-4.49s.76-2.68,1.13-3.87a20.77,20.77,0,0,1,2.39-5.39C107.35,150.73,108.1,150.33,108.14,150.41Z"/><path class="cls-4" d="M179,174c-.08.19-2-.47-4.95-2.09a63.89,63.89,0,0,1-10.57-7.5c-1.92-1.72-3.47-3.52-5-5a29.89,29.89,0,0,0-4.36-3.57c-2.69-1.75-4.72-2.16-4.65-2.42,0-.09.55-.11,1.47.08a13.67,13.67,0,0,1,3.74,1.39,24.41,24.41,0,0,1,4.78,3.47c1.66,1.45,3.28,3.25,5.09,4.88a101.44,101.44,0,0,0,10.11,7.71C177.28,172.77,179.05,173.77,179,174Z"/><path class="cls-4" d="M174.18,180.71c-.13.18-1.53-.58-3.73-1.89s-5.23-3.12-8.54-5.22a78.39,78.39,0,0,1-8.2-5.84c-2-1.66-3.07-2.86-2.93-3s1.46.72,3.59,2.13,5.08,3.32,8.38,5.41,6.25,4.08,8.31,5.62S174.3,180.54,174.18,180.71Z"/><path class="cls-5" d="M103.17,145.63s.11,0,.32.1a7,7,0,0,1,.86.42,9.66,9.66,0,0,1,2.62,2.36,12.55,12.55,0,0,1,2.2,4.75,17.48,17.48,0,0,1,.15,6.4,36.66,36.66,0,0,1-1.57,6.18c-.63,1.86-1.25,3.5-1.73,4.89s-.85,2.52-1.09,3.31a7.51,7.51,0,0,1-.39,1.23,5.75,5.75,0,0,1,.2-1.27c.18-.81.49-2,.94-3.38.84-2.83,2.46-6.62,3.14-11a17.66,17.66,0,0,0-.1-6.22,12.46,12.46,0,0,0-2-4.63A11.27,11.27,0,0,0,103.17,145.63Z"/><path class="cls-5" d="M151.66,177.07a5.85,5.85,0,0,1-.21-1.21q-.16-1.34-.42-3.33c-.35-2.92-.82-6.75-1.33-11s-1-8.07-1.34-11c-.16-1.32-.29-2.44-.4-3.32a5.94,5.94,0,0,1-.1-1.23,5.23,5.23,0,0,1,.3,1.2c.14.78.34,1.91.56,3.31.43,2.8,1,6.67,1.48,11s.93,8.18,1.19,11c.12,1.41.21,2.56.26,3.35A5.28,5.28,0,0,1,151.66,177.07Z"/><path class="cls-5" d="M123.79,141.05a2.39,2.39,0,0,0-1.7.22,2.88,2.88,0,0,0-1.21,1.4,7.73,7.73,0,0,0-.38,1.09c0,.2-.1.4-.16.6a1.6,1.6,0,0,1-.32.7.73.73,0,0,1-.45.21.83.83,0,0,1-.43-.08c-.22-.09-.39-.18-.58-.27l-1.07-.53-1.8-.91a7.46,7.46,0,0,1-1.6-1,6.49,6.49,0,0,1,1.76.63l1.84.82,1.08.5.56.26c.18.07.25.06.33,0a4.72,4.72,0,0,0,.37-1.09,6.33,6.33,0,0,1,.43-1.15,3.15,3.15,0,0,1,1.47-1.52,2.11,2.11,0,0,1,1.41-.16C123.67,140.89,123.81,141,123.79,141.05Z"/><path class="cls-5" d="M134.47,142.06a27.47,27.47,0,0,1-3.94,3.28l-.33.24-.07-.4-.09-.52a6,6,0,0,0-1.48-3.48,5.86,5.86,0,0,0-1.34-.85c0-.05.72-.11,1.58.59a4.14,4.14,0,0,1,1.12,1.49,9.38,9.38,0,0,1,.62,2.16c0,.18.06.36.08.52l-.39-.16A28.41,28.41,0,0,1,134.47,142.06Z"/><path class="cls-5" d="M100.13,201.92a14.49,14.49,0,0,1-2.45-.68c-1.49-.46-3.56-1.07-5.87-1.65s-4.42-1-6-1.32a13.71,13.71,0,0,1-2.48-.56,12.1,12.1,0,0,1,2.54.21,57.3,57.3,0,0,1,6,1.18,57.89,57.89,0,0,1,5.87,1.81A11.18,11.18,0,0,1,100.13,201.92Z"/><path class="cls-5" d="M85,195.62a11,11,0,0,1,2.42.5c1.47.38,3.49,1,5.68,1.75,1.1.38,2.14.77,3.07,1.14a16.2,16.2,0,0,1,2.45,1.13c1.38.83,1.68,1.89,1.61,1.88a5.41,5.41,0,0,0-1.79-1.57,19.06,19.06,0,0,0-2.43-1L93,198.34c-2.19-.76-4.18-1.41-5.62-1.88A13.71,13.71,0,0,1,85,195.62Z"/><path class="cls-5" d="M173.72,179.47a7.69,7.69,0,0,1,.86-1.94,45.25,45.25,0,0,1,2.65-4.38,42.11,42.11,0,0,1,3.13-4,7.3,7.3,0,0,1,1.5-1.5c.11.1-2,2.55-4.21,5.83S173.85,179.54,173.72,179.47Z"/><path class="cls-5" d="M172.21,177.1a6,6,0,0,1,.89-1.75,21,21,0,0,1,3-3.69,21.39,21.39,0,0,1,3.72-2.93,6.29,6.29,0,0,1,1.76-.87,58,58,0,0,0-5.12,4.16A56.84,56.84,0,0,0,172.21,177.1Z"/><path class="cls-5" d="M136.28,228.46a4.67,4.67,0,0,1-.13-.8c-.08-.58-.17-1.35-.29-2.31-.24-2.07-.58-5-1-8.51-.83-7.19-2-17.12-3.34-28.07s-2.7-20.87-3.77-28c-.55-3.57-1-6.47-1.33-8.46l-.36-2.3a4.1,4.1,0,0,1-.09-.81,6.89,6.89,0,0,1,.19.79l.46,2.28c.41,2,.9,4.88,1.49,8.44,1.17,7.15,2.56,17.05,3.92,28s2.46,20.9,3.2,28.1c.34,3.56.63,6.46.83,8.53.08,1,.14,1.74.19,2.32A4.13,4.13,0,0,1,136.28,228.46Z"/><path class="cls-5" d="M129.73,166c-.06,0-.14-.42.35-.8a1,1,0,0,1,1-.09,1.1,1.1,0,0,1,.6,1.15,1.06,1.06,0,0,1-1,.83.88.88,0,0,1-.86-.63.81.81,0,0,1,.08-.68c.09-.14.18-.16.2-.14s-.13.32.07.69a.48.48,0,0,0,.49.28.62.62,0,0,0,.52-.45.68.68,0,0,0-.32-.63.62.62,0,0,0-.62,0C129.89,165.74,129.8,166.06,129.73,166Z"/><path class="cls-5" d="M132.75,183.46c-.06,0-.14-.42.35-.79a1,1,0,0,1,1-.1,1.1,1.1,0,0,1,.6,1.15,1,1,0,0,1-1,.83.88.88,0,0,1-.86-.62.81.81,0,0,1,.08-.68c.09-.14.18-.17.2-.15s-.13.32.07.69a.47.47,0,0,0,.49.28.6.6,0,0,0,.52-.44.64.64,0,0,0-.32-.63.63.63,0,0,0-.62,0C132.91,183.16,132.82,183.48,132.75,183.46Z"/><path class="cls-6" d="M125.1,394.39l-.2-8.91-16.69.27.16,13,1,0c4.61.18,23.45.59,26.51-.39C139.33,397.35,125.1,394.39,125.1,394.39Z"/><g class="cls-14"><path class="cls-9" d="M132.06,396.08s5,1.36,4.38,2.18-19.66,1.13-28.07.53l0-.37,22.22-.16S131.09,396.14,132.06,396.08Z"/></g><path class="cls-5" d="M108.13,398.41a1,1,0,0,0,.28,0l.83,0,3,.09c2.57.05,6.11.07,10,0s7.45-.19,10-.31l3-.18.83-.06.28,0h-.28l-.83,0-3,.11c-2.56.1-6.1.2-10,.26s-7.45.06-10,0l-3,0h-.83A1.16,1.16,0,0,0,108.13,398.41Z"/><path class="cls-5" d="M130.61,398.51a7.53,7.53,0,0,1,.55-1.45,6.88,6.88,0,0,1,1-1.18A2.29,2.29,0,0,0,131,397,2.26,2.26,0,0,0,130.61,398.51Z"/><path class="cls-5" d="M125.65,396.09s.28-.26.52-.64.39-.73.34-.76-.28.26-.52.65S125.6,396.07,125.65,396.09Z"/><path class="cls-5" d="M124.29,395.4s.3-.14.58-.4.48-.51.45-.55-.3.14-.59.4S124.25,395.36,124.29,395.4Z"/><path class="cls-5" d="M123.41,393.84a1.9,1.9,0,0,0,.87.1,2,2,0,0,0,.87-.11,2.08,2.08,0,0,0-.87-.1A2,2,0,0,0,123.41,393.84Z"/><path class="cls-5" d="M123.1,392.73a1.65,1.65,0,0,0,1,.27,1.7,1.7,0,0,0,1-.15,5,5,0,0,0-1-.05A6.43,6.43,0,0,0,123.1,392.73Z"/><path class="cls-5" d="M126.19,394.63a3.17,3.17,0,0,0,1.08,0,6.51,6.51,0,0,0,1.13-.27,3.27,3.27,0,0,0,.65-.28.6.6,0,0,0,.26-.34.41.41,0,0,0-.17-.43,2,2,0,0,0-2.76,1.34.59.59,0,0,0,0,.29,3.1,3.1,0,0,1,.47-.92,1.91,1.91,0,0,1,.91-.61,1.67,1.67,0,0,1,1.28.06c.17.13.11.33-.08.44a3,3,0,0,1-.6.27,7.85,7.85,0,0,1-1.1.31C126.6,394.59,126.19,394.6,126.19,394.63Z"/><path class="cls-5" d="M126.47,394.68a1,1,0,0,0,.11-.75,1.86,1.86,0,0,0-.3-.78,1.07,1.07,0,0,0-.9-.53.42.42,0,0,0-.32.5,1.15,1.15,0,0,0,.19.48,3.18,3.18,0,0,0,.51.64,1.55,1.55,0,0,0,.62.42s-.21-.19-.52-.52a3.93,3.93,0,0,1-.45-.64c-.16-.22-.26-.63,0-.68s.54.23.71.44a1.72,1.72,0,0,1,.31.7A3.3,3.3,0,0,1,126.47,394.68Z"/><path class="cls-5" d="M108.39,393.84s.48,0,1.24,0a5.3,5.3,0,0,1,2.7,1.07,5.36,5.36,0,0,1,1.72,2.35c.27.71.3,1.19.34,1.18a1.19,1.19,0,0,0,0-.33,4.15,4.15,0,0,0-.19-.9,5.08,5.08,0,0,0-4.55-3.51,4.1,4.1,0,0,0-.92,0A1,1,0,0,0,108.39,393.84Z"/><path class="cls-5" d="M110,386.87a32.57,32.57,0,0,0-.09,3.43,28.11,28.11,0,0,0,.12,3.43,32.73,32.73,0,0,0,.09-3.43A28,28,0,0,0,110,386.87Z"/><path class="cls-5" d="M116.49,396.9a9.66,9.66,0,0,0,2.44.2,9.41,9.41,0,0,0,2.44-.23c0-.06-1.1,0-2.44,0S116.5,396.84,116.49,396.9Z"/><path class="cls-5" d="M113.22,397s.09.23.21.47.18.47.23.47.09-.27,0-.55S113.25,396.91,113.22,397Z"/><path class="cls-5" d="M112,395.43s.07.21.25.39.35.28.39.24-.07-.22-.25-.39S112,395.39,112,395.43Z"/><path class="cls-5" d="M110.19,394.76c0,.06.23.05.48.13s.42.21.47.17-.1-.26-.41-.36S110.17,394.71,110.19,394.76Z"/><path class="cls-5" d="M108.93,394.45c0,.05.07.13.21.19s.27.05.29,0-.08-.13-.22-.18S109,394.4,108.93,394.45Z"/><g class="cls-7"><polygon points="108.41 393.39 125.08 392.85 125.02 390.84 108.26 392.34 108.41 393.39"/></g><path class="cls-6" d="M163.79,394.56l-.25-8.9-16.69.36.23,13,1,0c4.61.16,23.45.47,26.5-.53C178,397.45,163.79,394.56,163.79,394.56Z"/><g class="cls-14"><path class="cls-9" d="M170.76,396.22s5,1.33,4.39,2.16-19.65,1.23-28.07.67l0-.37,22.23-.28S169.79,396.28,170.76,396.22Z"/></g><path class="cls-5" d="M146.84,398.67l.28,0,.83,0,3,.07c2.56,0,6.1,0,10,0s7.45-.23,10-.37l3-.19.83-.06.28,0a1.07,1.07,0,0,0-.29,0l-.82,0-3,.13c-2.56.1-6.1.23-10,.31s-7.45.09-10,.09h-4.15Z"/><path class="cls-5" d="M169.33,398.66a6.68,6.68,0,0,1,.53-1.46,6.88,6.88,0,0,1,1-1.18,2.7,2.7,0,0,0-1.54,2.64Z"/><path class="cls-5" d="M164.35,396.26c.05,0,.28-.26.51-.65s.39-.72.34-.75-.27.26-.51.65S164.3,396.24,164.35,396.26Z"/><path class="cls-5" d="M163,395.58s.3-.14.58-.41.48-.51.45-.55-.3.14-.58.41S163,395.54,163,395.58Z"/><path class="cls-5" d="M162.1,394a3.84,3.84,0,0,0,1.74,0,3.84,3.84,0,0,0-1.74,0Z"/><path class="cls-5" d="M161.78,392.92a1.7,1.7,0,0,0,1,.26,1.62,1.62,0,0,0,1-.16,6.65,6.65,0,0,0-1,0A4.75,4.75,0,0,0,161.78,392.92Z"/><path class="cls-5" d="M164.89,394.8a3.3,3.3,0,0,0,1.07,0,6.62,6.62,0,0,0,1.13-.28,3.27,3.27,0,0,0,.65-.28.57.57,0,0,0,.26-.34.42.42,0,0,0-.17-.42,2,2,0,0,0-2.42.62,2.24,2.24,0,0,0-.34.72.8.8,0,0,0,0,.29,3.38,3.38,0,0,1,.47-.92,1.86,1.86,0,0,1,.91-.61,1.63,1.63,0,0,1,1.28.06c.17.12.11.32-.08.44a3.64,3.64,0,0,1-.6.27,9.5,9.5,0,0,1-1.1.31C165.29,394.75,164.89,394.76,164.89,394.8Z"/><path class="cls-5" d="M165.17,394.84a1.08,1.08,0,0,0,.1-.74,1.68,1.68,0,0,0-.31-.78,1.07,1.07,0,0,0-.9-.53.43.43,0,0,0-.32.5,1.15,1.15,0,0,0,.19.48,3.59,3.59,0,0,0,.52.64,1.62,1.62,0,0,0,.62.42s-.21-.19-.52-.52a3.93,3.93,0,0,1-.46-.64c-.15-.22-.26-.62,0-.68s.55.23.71.44a1.64,1.64,0,0,1,.32.69A5.36,5.36,0,0,1,165.17,394.84Z"/><path class="cls-5" d="M147.08,394.1s.48-.06,1.24,0a5.22,5.22,0,0,1,4.44,3.39c.27.71.3,1.19.34,1.18a.84.84,0,0,0,0-.33,4.28,4.28,0,0,0-.2-.9,5.07,5.07,0,0,0-1.74-2.45,5.23,5.23,0,0,0-2.82-1,4,4,0,0,0-.92,0A.92.92,0,0,0,147.08,394.1Z"/><path class="cls-5" d="M148.67,387.12a28.45,28.45,0,0,0-.08,3.43,32.12,32.12,0,0,0,.13,3.43,28.57,28.57,0,0,0,.08-3.43A31.93,31.93,0,0,0,148.67,387.12Z"/><path class="cls-5" d="M155.19,397.12a10.12,10.12,0,0,0,2.44.19,9.83,9.83,0,0,0,2.44-.25c0-.06-1.09,0-2.44.05S155.2,397.06,155.19,397.12Z"/><path class="cls-5" d="M151.92,397.18s.1.23.21.48.19.47.24.46.08-.27-.05-.55S152,397.14,151.92,397.18Z"/><path class="cls-5" d="M150.66,395.67s.07.21.25.39.35.27.39.23-.08-.21-.25-.38S150.7,395.63,150.66,395.67Z"/><path class="cls-5" d="M148.88,395c0,.06.23.05.48.13s.43.21.47.17-.1-.27-.41-.36S148.86,395,148.88,395Z"/><path class="cls-5" d="M147.62,394.7c0,.06.08.14.22.19s.26.05.28,0-.08-.14-.21-.19S147.64,394.65,147.62,394.7Z"/><g class="cls-7"><polygon points="147.09 393.65 163.76 393.02 163.69 391.02 146.94 392.6 147.09 393.65"/></g><polygon class="cls-5" points="105.14 223.38 105.14 392.12 131.44 392.12 133.77 245.77 142.99 392.12 169.29 392.12 157.53 226.23 105.14 223.38"/><path class="cls-8" d="M136,224.65a14.3,14.3,0,0,1,.22,2.71c.08,1.68.14,4,.18,6.56,0,1.27,0,2.49,0,3.61a6.48,6.48,0,0,1-.55,3,3.44,3.44,0,0,1-1.5,1.53,1.56,1.56,0,0,1-.79.22s.27-.1.69-.37a3.43,3.43,0,0,0,1.27-1.5,6.63,6.63,0,0,0,.41-2.84c0-1.12-.05-2.33-.07-3.61,0-2.56-.05-4.88,0-6.55A15,15,0,0,1,136,224.65Z"/><path class="cls-8" d="M131.28,226.56c.05.05-.35.26-.36.81a.85.85,0,0,0,.38.75,1,1,0,0,0,1-.07.68.68,0,0,0,.06-1.19,1.21,1.21,0,0,0-1.06-.22l0-.18c.22.1.33.17.32.2s-.15,0-.39,0l-.21,0,.2-.13a1.36,1.36,0,0,1,1.43.1,1.14,1.14,0,0,1,.53.86,1.11,1.11,0,0,1-.56,1,1.51,1.51,0,0,1-1.63,0,1.11,1.11,0,0,1-.45-1.12,1.06,1.06,0,0,1,.41-.69C131.15,226.54,131.27,226.54,131.28,226.56Z"/><path class="cls-10" d="M149.93,193.66c-.69-.9-9,.53-9,.53l3-2.3c-1.55-2.74-6.89.57-8.58,2.18a3.12,3.12,0,0,0-.85,1.65L101,202.79l-18.71-1.91s-.38,3.23-1.32,9.32c-.89,5.76,8.58,11.4,14.45,10.57,5.36-.75,38.12-10.06,43.69-11.66h0l.81-.23v0c1.81-.63,6.12-2.17,6.58-2.95.57-1,.41-8.75.41-8.75l3.08-1.36A2.19,2.19,0,0,0,149.93,193.66Z"/></g></g></svg>