<svg xmlns="http://www.w3.org/2000/svg" xmlns:xlink="http://www.w3.org/1999/xlink" viewBox="0 0 152.88 100.52"><defs><style>.cls-1{fill:url(#linear-gradient);}</style><linearGradient id="linear-gradient" y1="50.26" x2="152.88" y2="50.26" gradientUnits="userSpaceOnUse"><stop offset="0" stop-color="#009dff"/><stop offset="1" stop-color="#2997d9"/></linearGradient></defs><g id="Layer_2" data-name="Layer 2"><g id="Capa_1" data-name="Capa 1"><path class="cls-1" d="M152.86,93.12c0-.34,0-.67,0-1s0-.68,0-1v-.7h0v-.05l0-.42c0-.56-.09-1.12-.13-1.69l0-.42-.05-.55c0-.37-.07-.74-.1-1.1s-.07-.73-.11-1.1c0-.18,0-.36-.05-.54l-.07-.5c-.18-1.33-.35-2.63-.58-3.89-.11-.62-.21-1.24-.33-1.84s-.25-1.19-.36-1.76c-.23-1.14-.51-2.21-.75-3.19l-.18-.73c-.07-.23-.13-.46-.19-.68-.13-.45-.25-.87-.36-1.27s-.21-.76-.32-1.1l-.3-.94-.33-1a.81.81,0,0,0-1-.52l-25.84,7.37a.78.78,0,0,0-.56.91c0,.15.06.32.09.51l.12.64c0,.24.08.5.12.77s.09.56.13.86,0,.31.07.47l.06.5c.07.67.18,1.39.23,2.17,0,.38.06.78.1,1.18s0,.82,0,1.24c.06.84.05,1.71.07,2.59v.62c0,.2,0,.39,0,.58s0,.39,0,.59v.29l0,.42c0,.56,0,1.12-.07,1.68l0,.42v.06h0c0,.06,0-.5,0-.26V91l-.06.66-.06.66c0,.21,0,.43-.08.64,0,.43-.08.85-.15,1.26s-.12.82-.18,1.21-.13.78-.2,1.16-.14.73-.21,1.08-.13.69-.2,1-.15.63-.22.92-.06.29-.1.43l-.09.34-.05.19H152a.78.78,0,0,0,.79-.75h0c0-.59.06-1.19.08-1.81s0-1.25,0-1.89,0-1.29,0-2C152.86,93.78,152.86,93.45,152.86,93.12Zm-8.22-33.18a.8.8,0,0,0,.42-1.08l-.31-.64q-.15-.34-.36-.75c-.16-.35-.35-.72-.54-1.12l-.63-1.26c-.11-.23-.22-.42-.33-.63l-.36-.65c-.24-.45-.48-.91-.75-1.38L140.94,51l-.45-.75-.47-.76-1-1.56c-.71-1-1.41-2.13-2.19-3.18l-.58-.81-.29-.4-.31-.39c-.4-.53-.81-1.05-1.22-1.58s-.84-1-1.26-1.54c-.21-.26-.42-.52-.63-.76l-.65-.74-.65-.74c-.21-.24-.43-.48-.65-.71l-1.3-1.39c-.42-.45-.86-.87-1.28-1.3s-.84-.83-1.26-1.22L125.56,32c-.39-.37-.78-.7-1.15-1l-1.08-.94-1-.82-.87-.71-.75-.59-.84-.64a.79.79,0,0,0-1.09.13L104.92,44.21a.8.8,0,0,0,0,1.07l.4.39c.15.15.31.3.48.48l.55.58.62.66.67.75c.23.26.48.53.72.82l.75.89c.26.31.51.63.76,1s.53.66.79,1,.51.71.78,1.07l.39.56.38.56.39.57c.13.19.24.38.37.58.24.39.5.78.74,1.17l.7,1.19.18.3.16.3.33.6c.45.79.83,1.6,1.23,2.36.18.39.36.77.53,1.15l.26.56.24.55q.23.54.45,1.05c.13.35.26.68.39,1l.18.47c.06.15.13.31.17.43l.25.74.23.65c.09.27.17.53.25.75l.23.68a.78.78,0,0,0,1,.48ZM74,30l.7.09.81.14.93.16.88.18,8.75-17.91-1.28-.2-.86-.13-.84-.1L81.47,12,80,11.86c-.48,0-1-.08-1.39-.1l-1.25-.07-1.09,0H74.3a.79.79,0,0,0-.8.75L72.7,29a.79.79,0,0,0,.69.82Zm23.53,9.17.67.49.59.42.31.23.32.23.56.43a.8.8,0,0,0,1.14-.2l11.43-17.41a.8.8,0,0,0-.27-1.13l-.61-.35-.34-.19-.4-.23-1.06-.58-1.19-.65-1.27-.64c-.44-.21-.89-.45-1.38-.67l-1.49-.69c-.51-.24-1-.45-1.59-.68s-1.1-.47-1.67-.69l-.44-.17L95.9,38.05l.78.51ZM58.65,29.86c.22,0,.43-.07.65-.09l.64-.06,1.23-.13,1.15-.08.54,0,.5,0,.88,0,.77,0h1.52a.79.79,0,0,0,.79-.85l-1-15.7a.79.79,0,0,0-.89-.73l-.71.09-.82.1-1.14.17-1.29.2c-.23,0-.45.07-.67.12l-.69.13-1.46.28-1.55.35-.81.19-.82.21-1.69.45L52,14.91l-.88.28-.88.3-.89.3c-.29.1-.59.2-.88.32l-1.77.67L45,17.5l-.86.37-.85.39-.83.39c-.28.13-.56.25-.82.39l-1.6.81c-.53.26-1,.55-1.52.82s-1,.53-1.44.81l-1.34.8c-.44.25-.84.52-1.23.77l-1.13.72-1,.69-.88.6c-.27.18-.5.37-.72.53l-.76.55a.8.8,0,0,0-.18,1.09l6.52,9.58a.79.79,0,0,0,1,.25l.59-.33c.19-.11.4-.24.64-.36l.77-.4.87-.46,1-.47c.35-.16.7-.34,1.07-.5L43.47,34c.39-.18.81-.34,1.23-.51s.85-.35,1.29-.5l1.35-.49c.22-.09.46-.16.69-.23l.7-.23.71-.23.71-.2c.48-.13,1-.28,1.44-.4L53,30.88l.72-.16.72-.16.71-.15.71-.12,1.39-.24ZM14.19,42.25c-.17.24-.34.49-.52.73l-.51.73c-.18.25-.34.5-.5.75l-1,1.52c-.31.52-.63,1-.94,1.54l-.24.39-.22.39-.45.77c-.6,1-1.12,2.07-1.65,3.06l-.73,1.49c-.12.25-.24.49-.35.73l-.32.71-.62,1.37c-.18.45-.36.88-.53,1.29s-.34.81-.49,1.2-.27.74-.4,1.08l-.36,1c-.1.3-.19.57-.28.82l-.28.83a.79.79,0,0,0,.47,1l6.07,2.33a.79.79,0,0,0,1-.4l.31-.66c.11-.21.22-.44.34-.69l.42-.81c.14-.29.3-.59.47-.91s.36-.65.55-1L14,60.38l.68-1.13.36-.59.38-.6c.26-.4.53-.8.79-1.22.57-.81,1.13-1.66,1.76-2.48l.47-.62.23-.32.24-.3,1-1.23c.33-.41.67-.8,1-1.2.17-.19.33-.4.51-.59l.51-.57.52-.57c.17-.19.34-.38.52-.55.34-.37.69-.72,1-1.07s.69-.68,1-1,.66-.64,1-.94l.95-.87c.31-.29.63-.54.92-.79l.84-.72.75-.59.66-.52.32-.25.31-.24.57-.42a.8.8,0,0,0,.12-1.15l-6.91-8.1a.79.79,0,0,0-1.15,0l-.51.49-.28.27c-.1.1-.2.18-.32.31l-.77.77-.87.88-.89,1c-.31.34-.64.69-1,1.06l-1,1.16c-.34.39-.68.81-1,1.24s-.7.86-1,1.31l-1,1.39C14.53,41.77,14.36,42,14.19,42.25ZM1.63,70.63c0,.2-.08.43-.14.7l-.16.8c-.06.29-.11.65-.18,1S1,73.88,1,74.29c0,.2-.07.41-.1.62l-.09.65c-.11.88-.26,1.82-.35,2.83,0,.5-.1,1-.15,1.55S.19,81,.15,81.55c-.09,1.1-.1,2.24-.14,3.39v3l0,.44c0,.58.05,1.17.07,1.75l0,.43v.24l0,.21.06.84.06.82c0,.29.06.58.08.86l.09.84c0,.14,0,.28,0,.42l.05.41c.07.53.14,1.06.2,1.58s.16,1,.24,1.52.16,1,.24,1.43l0,.11a.79.79,0,0,0,.78.64H4.15a.79.79,0,0,0,.79-.84c0-.12,0-.24,0-.36,0-.45-.06-.91-.07-1.38s0-1,0-1.45,0-1,0-1.51v-.39c0-.12,0-.25,0-.38s0-.51,0-.77,0-.53,0-.79,0-.55,0-.83,0-.55,0-.83v-.32h0v0l0-.41c0-.54.08-1.09.13-1.63l0-.41,0-.4L5.27,87l.09-.8,0-.41.06-.39c.16-1.06.3-2.1.5-3.1.1-.49.18-1,.28-1.46s.21-.94.31-1.4c.19-.91.43-1.75.63-2.53l.15-.58.15-.53c.11-.34.2-.66.3-1s.17-.59.26-.86.18-.54.25-.78.16-.48.23-.67a.8.8,0,0,0-.55-1L2.62,70A.81.81,0,0,0,1.63,70.63Zm60.7,27.79a12.33,12.33,0,0,0,16.51-5.66,12.88,12.88,0,0,0,.93-2.65L92.26,35.92,97,15.28,100,2.5a2,2,0,0,0-2-2.5,1.94,1.94,0,0,0-1.78,1.15l-6,12.26L81.31,31.5,56.66,81.91A12.34,12.34,0,0,0,62.33,98.42ZM68.2,81a6,6,0,1,1-6.05,6A6.05,6.05,0,0,1,68.2,81Z"/></g></g></svg>