<svg xmlns="http://www.w3.org/2000/svg" viewBox="0 0 454.96 388.72"><defs><style>.cls-1{fill:#d3e8ee;}.cls-2{fill:#0172d2;}.cls-3{fill:#0056c7;}.cls-4{fill:#0036af;}.cls-5{fill:#fc5f2d;}.cls-6{fill:#ff8b54;}.cls-7{fill:#0c375a;}.cls-11,.cls-16,.cls-8{fill:#fff;}.cls-9{fill:#ffaa95;}.cls-10{fill:#001030;}.cls-11{opacity:0.3;}.cls-12{fill:#ff8b6b;}.cls-13{fill:#00607f;}.cls-14{fill:#d85c48;}.cls-15{fill:#d53e2f;}.cls-16{opacity:0.5;}</style></defs><g id="Layer_2" data-name="Layer 2"><g id="OBJECTS"><path class="cls-1" d="M450.36,378.06c0,5.89-90.92,10.66-203.07,10.66S44.21,384,44.21,378.06s90.92-10.65,203.08-10.65S450.36,372.18,450.36,378.06Z"/><path class="cls-1" d="M208.19,96.88C193,41.71,124.45,23.93,85.17,65.16L83.48,67C27.17,128.18,53.78,279,171.29,317.25s239.74-31.59,246.6-94-47.34-82-131.48-64.57C238.88,168.55,217.66,131.22,208.19,96.88Z"/><path class="cls-1" d="M342.79,311.13c-13.86,7.86-13.1,22.44,1.71,27.49,4.9,1.67,11.22,2.22,19.34.66,31-6,41.65-24.6,23.76-37C376.57,294.63,356.52,303.34,342.79,311.13Z"/><path class="cls-1" d="M389.9,284.67c-4.47,6.3-1,13.78,6.67,14.07A15,15,0,0,0,405.3,296c12.47-8,13.21-19.44,2.6-23.06C401.35,270.7,394.32,278.43,389.9,284.67Z"/><path class="cls-1" d="M291.35,44.83l1.24-6.3-5.9-1.16a14.68,14.68,0,0,0-.78-4.61l4.86-3.26-3.58-5.33-4.65,3.13a14.51,14.51,0,0,0-4.78-3.22l1.16-5.9L272.62,17,271.43,23a14.51,14.51,0,0,0-3.83.74l-3.27-4.86L259,22.49l3.13,4.65a14.33,14.33,0,0,0-3.21,4.78l-5.16-1-1.24,6.29,5.34,1A14.13,14.13,0,0,0,259,43.11l-4.66,3.13,3.58,5.32,4.86-3.26A14.39,14.39,0,0,0,267.47,51L266.31,57l6.29,1.24,1.27-6.44a14.11,14.11,0,0,0,4.07-1.08l3.13,4.66,5.33-3.58-3.27-4.86a14.51,14.51,0,0,0,2.14-3.27Zm-15.81-2.52a5.88,5.88,0,1,1,1.6-8.17A5.9,5.9,0,0,1,275.54,42.31Z"/><path class="cls-1" d="M246.69,15.24l.68-3.44-3.23-.64a7.88,7.88,0,0,0-.42-2.52l2.65-1.78-2-2.91-2.55,1.71a7.77,7.77,0,0,0-2.61-1.76L239.9.68,236.46,0l-.66,3.32a8,8,0,0,0-2.09.41l-1.79-2.66L229,3l1.71,2.54A7.79,7.79,0,0,0,229,8.18l-2.82-.55-.68,3.44,2.92.57A7.81,7.81,0,0,0,229,14.3L226.46,16l2,2.91,2.66-1.79a7.61,7.61,0,0,0,2.56,1.49L233,21.87l3.45.67.69-3.51a8,8,0,0,0,2.22-.59L241.07,21,244,19l-1.78-2.66a8.36,8.36,0,0,0,1.17-1.79Zm-8.64-1.38a3.22,3.22,0,1,1,.87-4.46A3.22,3.22,0,0,1,238.05,13.86Z"/><path class="cls-1" d="M89.86,324.24l-.22-6.42-6,.2a14.48,14.48,0,0,0-1.79-4.31l4-4.28L81.15,305l-3.83,4.1A14.3,14.3,0,0,0,72,307.08l-.2-6-6.42.21.21,6.2A14.39,14.39,0,0,0,62,309.07l-4.27-4-4.39,4.69,4.09,3.83a14.43,14.43,0,0,0-2,5.38l-5.26.17.22,6.41,5.43-.18a14.17,14.17,0,0,0,2.2,4.48l-3.83,4.09,4.69,4.39,4-4.28a14.19,14.19,0,0,0,5.18,1.6l.2,6.05,6.42-.21-.22-6.56a14.34,14.34,0,0,0,3.73-2l4.09,3.83,4.39-4.69-4.28-4a14.55,14.55,0,0,0,1.35-3.66Zm-16,1.1A5.88,5.88,0,1,1,73.6,317,5.9,5.9,0,0,1,73.88,325.34Z"/><path class="cls-1" d="M167.37,338.51l-.12-3.5-3.28.11a7.72,7.72,0,0,0-1-2.36l2.18-2.34L162.61,328l-2.09,2.23a7.83,7.83,0,0,0-2.94-1.12l-.11-3.29L154,326l.11,3.39a7.68,7.68,0,0,0-2,.86L149.8,328l-2.4,2.56,2.24,2.09a7.85,7.85,0,0,0-1.13,2.94l-2.87.09.12,3.51,3-.1a7.76,7.76,0,0,0,1.2,2.45l-2.09,2.24,2.56,2.39,2.18-2.34a7.88,7.88,0,0,0,2.84.88l.11,3.3,3.5-.11-.12-3.58a7.84,7.84,0,0,0,2-1.08l2.24,2.1,2.39-2.57-2.33-2.18a8.18,8.18,0,0,0,.74-2Zm-8.73.61a3.22,3.22,0,1,1-.15-4.55A3.22,3.22,0,0,1,158.64,339.12Z"/><path class="cls-1" d="M184.43,22.29a.81.81,0,0,1-.38,0c-1.35-.36-2.14-.5-2.14-.5a.76.76,0,0,1-.61-.88.75.75,0,0,1,.87-.61s.85.16,2.26.53a.74.74,0,0,1,.54.92A.76.76,0,0,1,184.43,22.29Z"/><path class="cls-1" d="M228.26,56.87c.7,1.28,1.38,2.61,2,4a.77.77,0,0,0,.87.41l.13,0a.76.76,0,0,0,.36-1c-.64-1.36-1.33-2.72-2-4a.75.75,0,1,0-1.32.73Z"/><path class="cls-1" d="M232,64.88c.55,1.35,1.06,2.75,1.54,4.16a.75.75,0,0,0,.9.49h.06a.77.77,0,0,0,.47-1c-.48-1.44-1-2.86-1.57-4.24a.74.74,0,0,0-1-.42A.76.76,0,0,0,232,64.88Z"/><path class="cls-1" d="M238.44,87a.74.74,0,0,0,.56-.83c-.19-1.5-.42-3-.67-4.46a.76.76,0,0,0-1.49.26c.25,1.44.48,2.92.67,4.4a.75.75,0,0,0,.84.65Z"/><path class="cls-1" d="M235.41,72.35a.75.75,0,0,0-.52.93c.18.67.36,1.34.53,2s.38,1.54.55,2.31a.75.75,0,0,0,.9.57h0a.75.75,0,0,0,.55-.9c-.17-.79-.36-1.58-.56-2.35s-.35-1.36-.54-2a.75.75,0,0,0-.91-.53Z"/><path class="cls-1" d="M226,53.05a.75.75,0,0,0,.82.33.62.62,0,0,0,.22-.1.75.75,0,0,0,.23-1c-.8-1.27-1.66-2.53-2.54-3.75a.76.76,0,0,0-1.22.89C224.38,50.57,225.22,51.8,226,53.05Z"/><path class="cls-1" d="M188.29,23.57c1.37.47,2.77,1,4.15,1.57a.76.76,0,0,0,.47,0,.71.71,0,0,0,.51-.44.75.75,0,0,0-.41-1c-1.4-.58-2.83-1.12-4.24-1.6a.75.75,0,0,0-1,.47A.74.74,0,0,0,188.29,23.57Z"/><path class="cls-1" d="M200.43,29a.71.71,0,0,0,.55.07.72.72,0,0,0,.48-.36.76.76,0,0,0-.3-1c-1.31-.73-2.66-1.43-4-2.09a.76.76,0,0,0-.66,1.36C197.82,27.59,199.14,28.28,200.43,29Z"/><path class="cls-1" d="M214.74,39.42a.77.77,0,0,0,1.07,0,.77.77,0,0,0,0-1.07c-1.09-1-2.24-2-3.4-3a.76.76,0,0,0-1.06.1.75.75,0,0,0,.1,1.06C212.55,37.43,213.67,38.42,214.74,39.42Z"/><path class="cls-1" d="M207.9,33.78a.76.76,0,0,0,.63.12.74.74,0,0,0,.43-.29.75.75,0,0,0-.17-1c-1.21-.88-2.47-1.74-3.74-2.55a.75.75,0,1,0-.81,1.27C205.48,32.07,206.72,32.92,207.9,33.78Z"/><path class="cls-1" d="M220.81,45.88a.76.76,0,0,0,.77.25.89.89,0,0,0,.29-.15.76.76,0,0,0,.1-1.07c-1-1.15-2-2.3-3-3.39a.76.76,0,0,0-1.07,0,.75.75,0,0,0,0,1.06C218.88,43.63,219.87,44.74,220.81,45.88Z"/><polygon class="cls-2" points="183.68 17.18 185.2 4.61 145.21 10.72 183.68 17.18"/><polygon class="cls-3" points="145.21 10.71 182.16 20.38 182.25 20.41 184.11 22.68 183.68 17.18 145.21 10.71"/><polygon class="cls-4" points="184.11 22.68 180.79 22.63 182.25 20.41 184.11 22.68"/><polygon class="cls-2" points="177.6 19.19 182.25 20.41 174.69 31.88 145.21 10.72 177.6 19.19"/><rect class="cls-5" x="330.47" y="33.73" width="35.65" height="24.63"/><polygon class="cls-6" points="330.47 33.73 348.29 46.05 366.12 33.73 330.47 33.73"/><path class="cls-1" d="M324.7,39.38H313.2a.76.76,0,0,1,0-1.51h11.5a.76.76,0,0,1,0,1.51Z"/><path class="cls-1" d="M324.7,46.8H313.2a.76.76,0,0,1,0-1.51h11.5a.76.76,0,0,1,0,1.51Z"/><path class="cls-1" d="M324.7,54.23H313.2a.76.76,0,0,1,0-1.52h11.5a.76.76,0,0,1,0,1.52Z"/><path class="cls-3" d="M446,176.1c-12.26,7.81-22.49-1.63-29.68,7.11s-18.18,10.57-24.2,2.6-10-14.17-20.75-8.59-25.16.52-23.59-9.88c.39-2.58.81-5.39,1.24-8.13.11-.75.23-1.5.34-2.23,0-.17,0-.35.08-.51A21.93,21.93,0,0,1,372,137.77c4.52.22,8.76,1.82,11.47,6,8.5,13.25,14.34-1.79,25.35-.75,12.68,1.19,13.9,13.35,23.4,13.23C445.41,156.15,458.25,168.29,446,176.1Z"/><path class="cls-4" d="M428.43,168.85,349,159.21c.11-.75.23-1.5.34-2.23l79.35,9.63a1.13,1.13,0,1,1-.27,2.24Z"/><path class="cls-3" d="M10.78,284c10.63,7.18,19.88-.92,26,7s15.79,9.75,21.29,2.86,9.16-12.27,18.51-7.1,22.18,1.05,21-8.16c-.29-2.29-.6-4.78-.9-7.21-.09-.66-.17-1.32-.26-2,0-.15,0-.3,0-.45a19.36,19.36,0,0,0-19.47-17c-4,.08-7.77,1.39-10.26,5.06-7.81,11.49-12.61-1.91-22.34-1.25-11.22.76-12.58,11.46-20.95,11.13C11.76,266.38.14,276.8,10.78,284Z"/><path class="cls-4" d="M26.44,278l70.3-6.66c-.09-.66-.17-1.32-.26-2L26.25,276a1,1,0,1,0,.19,2Z"/><path class="cls-3" d="M77.78,103.46l-2.31.05-1.22,0-3.46.07S35.63,51.32,54.57,32.45c5.83-5.81,16.87-1.94,16,23.21C69.73,79,77.78,103.46,77.78,103.46Z"/><path class="cls-4" d="M75.47,103.51l-1.22,0c-6.35-12.79-10-26.73-12-36.55a170.26,170.26,0,0,1-3-20.27.55.55,0,1,1,1.1-.07,172.19,172.19,0,0,0,2.94,20.14C65.34,76.65,69,90.7,75.47,103.51Z"/><path class="cls-2" d="M89,106.27l-2.77,1.85-1.48,1-4.17,2.78S-3.06,75.5,5.34,37.72C7.93,26.09,24.41,22.21,42.92,53.58,60.09,82.66,89,106.27,89,106.27Z"/><path class="cls-3" d="M86.23,108.12l-1.48,1C67,98.45,51.7,84.29,41.62,73.86a248.82,248.82,0,0,1-19.4-22.43.8.8,0,0,1,1.29-1A247.66,247.66,0,0,0,42.79,72.77C52.92,83.25,68.38,97.51,86.23,108.12Z"/><path class="cls-2" d="M.62,217.26c4.14,13.94,18.06,13.5,17.76,24.81S25.19,262,35,259.9s16.85-4.15,21.31,7.1,18.67,16.88,24.29,8l4.4-7,1.2-1.91.28-.44a21.93,21.93,0,0,0-4.8-28.9c-3.55-2.8-7.8-4.37-12.62-2.95-15.1,4.44-9.66-10.75-18.66-17.17-10.36-7.4-19.25,1-26.35-5.33C14.13,202.57-3.53,203.33.62,217.26Z"/><path class="cls-3" d="M18.63,223.28,85,268l1.2-1.91L19.9,221.41a1.13,1.13,0,0,0-1.27,1.87Z"/><path class="cls-2" d="M451.75,100.27c-3.14,14.2-17.05,14.76-15.95,26s-5.37,20.33-15.27,19-17.09-2.94-20.74,8.6-17.42,18.17-23.66,9.71c-1.56-2.11-3.24-4.39-4.88-6.63l-1.34-1.82-.3-.42a21.91,21.91,0,0,1,2.72-29.16c3.34-3,7.47-4.92,12.38-3.85,15.38,3.36,8.87-11.4,17.39-18.45,9.81-8.13,19.27-.4,25.9-7.2C437.23,86.58,454.9,86.08,451.75,100.27Z"/><path class="cls-3" d="M434.21,107.57l-63,49.36-1.34-1.82,62.91-49.32a1.13,1.13,0,1,1,1.39,1.78Z"/><path class="cls-5" d="M109.37,124.05s1.27,3.88,5.22,4,0-4.91,0-4.91,2.9,3.54,4.63,3-3.56-5.34-6-5.42S109.37,124.05,109.37,124.05Z"/><rect class="cls-7" x="63.52" y="68.65" width="331.51" height="222.72" rx="6.36"/><path class="cls-8" d="M386.23,84V276a6.46,6.46,0,0,1-6.46,6.46h-301a6.19,6.19,0,0,1-2.24-.41A6.43,6.43,0,0,1,72.31,276V84a6.46,6.46,0,0,1,6.45-6.46h301A6.46,6.46,0,0,1,386.23,84Z"/><path class="cls-1" d="M386.23,84v9.55H72.31V84a6.46,6.46,0,0,1,6.46-6.46h301A6.46,6.46,0,0,1,386.23,84Z"/><path class="cls-9" d="M361.6,85.56a3.14,3.14,0,1,1-3.13-3.14A3.13,3.13,0,0,1,361.6,85.56Z"/><path class="cls-2" d="M350,85.56a3.14,3.14,0,1,1-3.14-3.14A3.14,3.14,0,0,1,350,85.56Z"/><path class="cls-5" d="M373.21,85.56a3.14,3.14,0,1,1-3.14-3.14A3.14,3.14,0,0,1,373.21,85.56Z"/><rect class="cls-10" x="206.66" y="291.37" width="49.43" height="70.4"/><path class="cls-7" d="M194.3,359.34h80a13.61,13.61,0,0,1,13.61,13.61v1.5a0,0,0,0,1,0,0H180.69a0,0,0,0,1,0,0v-1.5A13.61,13.61,0,0,1,194.3,359.34Z"/><path class="cls-10" d="M316.45,291.37h19.83a0,0,0,0,1,0,0v.38a3.46,3.46,0,0,1-3.46,3.46H319.91a3.46,3.46,0,0,1-3.46-3.46v-.38A0,0,0,0,1,316.45,291.37Z"/><path class="cls-10" d="M346.87,291.37h19.83a0,0,0,0,1,0,0v.38a3.46,3.46,0,0,1-3.46,3.46H350.33a3.46,3.46,0,0,1-3.46-3.46v-.38A0,0,0,0,1,346.87,291.37Z"/><path class="cls-10" d="M286,291.37h19.83a0,0,0,0,1,0,0v.38a3.46,3.46,0,0,1-3.46,3.46H289.49a3.46,3.46,0,0,1-3.46-3.46v-.38A0,0,0,0,1,286,291.37Z"/><path class="cls-1" d="M337.26,129h0a10.66,10.66,0,0,1-10.66,10.66H141.74A10.66,10.66,0,0,1,131.08,129h0a10.66,10.66,0,0,1,10.66-10.66H326.6A10.66,10.66,0,0,1,337.26,129Z"/><path class="cls-2" d="M326.6,118.32H297.3v21.32h29.3A10.66,10.66,0,0,0,337.26,129h0A10.66,10.66,0,0,0,326.6,118.32Z"/><path class="cls-8" d="M319.15,131.09a5,5,0,1,1,7.09-.28A5,5,0,0,1,319.15,131.09Zm5.69-6.16a3.36,3.36,0,1,0,.19,4.75A3.37,3.37,0,0,0,324.84,124.93Z"/><path class="cls-8" d="M313.6,137.1a.82.82,0,0,1-.05-1.17l5.55-6a.83.83,0,1,1,1.22,1.12l-5.55,6A.82.82,0,0,1,313.6,137.1Z"/><path class="cls-1" d="M131.08,165.14h0a4.49,4.49,0,0,0,4.49,4.48h197.2a4.49,4.49,0,0,0,4.49-4.48h0a4.49,4.49,0,0,0-4.49-4.49H135.57A4.49,4.49,0,0,0,131.08,165.14Z"/><path class="cls-1" d="M131.08,184.57h0a4.48,4.48,0,0,0,4.49,4.48h197.2a4.48,4.48,0,0,0,4.49-4.48h0a4.49,4.49,0,0,0-4.49-4.49H135.57A4.49,4.49,0,0,0,131.08,184.57Z"/><path class="cls-1" d="M131.08,204h0a4.48,4.48,0,0,0,4.49,4.48h197.2a4.48,4.48,0,0,0,4.49-4.48h0a4.49,4.49,0,0,0-4.49-4.49H135.57A4.49,4.49,0,0,0,131.08,204Z"/><rect class="cls-1" x="302.77" y="226.51" width="34.48" height="34.48" rx="7.99"/><rect class="cls-1" x="261.47" y="226.51" width="34.48" height="34.48" rx="7.99"/><rect class="cls-1" x="172.62" y="226.51" width="34.48" height="34.48" rx="7.99"/><rect class="cls-1" x="131.31" y="226.51" width="34.48" height="34.48" rx="7.99"/><path class="cls-11" d="M386.23,84V276a6.46,6.46,0,0,1-6.46,6.46h-301a6.19,6.19,0,0,1-2.24-.41L382.21,78A6.46,6.46,0,0,1,386.23,84Z"/><path class="cls-9" d="M207.39,144.54l2,6.17c-6.36,3.73-22.41,12.5-29.56,15.13-2.13.78-5.1,1.75-8.48,2.8-1.29.4-2.64.82-4,1.23L163.71,171l-.17,0c-1.63.19-3.69.42-6,.67l0-9.84,3.87-1.07,2.27-.62,3.21-.89,7-1.94C179.15,154.06,202,147.37,207.39,144.54Z"/><path class="cls-9" d="M216.43,140.79c.18-.06,2.28-.84,2.9,0a1.58,1.58,0,0,1-.1,1.83s1.55.87,1.59,1.76a2.11,2.11,0,0,1-.7,1.52s1,.48,1,1.33-1.19,2.1-2.92,2.55a3.57,3.57,0,0,1-2.45,0l0,0s-.29.11-.79.27c-.83.28-2.26.72-3.93,1.1-2.67.59-6-3.08-6.22-5.45a27.68,27.68,0,0,1,2.1-5c1.12-1.83,1.94-2.26,3.3-2.08s2.69.64,3,.58,7.23-3.65,8.82-3.18S216.73,140.61,216.43,140.79Z"/><path class="cls-12" d="M208.92,144a.41.41,0,0,1-.18-.05.38.38,0,0,1-.15-.51l.84-1.56a.34.34,0,0,1,.24-.18.36.36,0,0,1,.3.05,4.84,4.84,0,0,0,3.31.72,1.35,1.35,0,0,0,.94-.58.8.8,0,0,0,0-.6.38.38,0,0,1,.2-.5.37.37,0,0,1,.49.2,1.53,1.53,0,0,1,0,1.23,2,2,0,0,1-1.44,1,5.27,5.27,0,0,1-3.56-.62l-.66,1.21A.38.38,0,0,1,208.92,144Z"/><path class="cls-12" d="M215.71,149.83l0,0s-.29.11-.79.27a3.93,3.93,0,0,1-.75-2.5,2.83,2.83,0,0,0-.43-1.71,2.39,2.39,0,0,1-.55-1.41,3.4,3.4,0,0,1,.16-1.23c0-.13.09-.25.13-.36a3.21,3.21,0,0,1,.23-.47.37.37,0,0,1,.51-.13.39.39,0,0,1,.14.52s0,0-.05.08a3.24,3.24,0,0,0-.37,1.41,1.72,1.72,0,0,0,.38,1.11,3.44,3.44,0,0,1,.61,2.15A2.85,2.85,0,0,0,215.71,149.83Z"/><path class="cls-12" d="M210.44,147a.38.38,0,0,1-.34-.22.37.37,0,0,1,.18-.5h0a4.61,4.61,0,0,0,2.49-3.24.38.38,0,0,1,.42-.33.37.37,0,0,1,.34.41A5.28,5.28,0,0,1,210.6,147,.29.29,0,0,1,210.44,147Z"/><path class="cls-12" d="M163.71,171c2.65-.79,5.26-1.57,7.66-2.32a15.53,15.53,0,0,0-4.5-9.39l-5.48,1.51Z"/><path class="cls-2" d="M165.07,172.7a61.87,61.87,0,0,1-15.14,3.84,20.87,20.87,0,0,1-7.31-.39l-1.33-2.43L133.84,160s17.52,3.51,28.89-.53C162.73,159.5,165.24,166.57,165.07,172.7Z"/><path class="cls-3" d="M149.93,176.54a20.87,20.87,0,0,1-7.31-.39l-1.33-2.43a3.66,3.66,0,0,1,2.36-2.76A13.35,13.35,0,0,0,149.93,176.54Z"/><path class="cls-9" d="M91.94,347.43l-5.81,7.78a12.42,12.42,0,0,0,5.36,6.15l7-8.95Z"/><path class="cls-5" d="M90.53,359s2.72-.59,3.65.35,3.26,13.73,5.45,16.53,0,4.29-1.36,4.85S77.66,362,77.66,362s4.76-6.58,7.06-7.85S88.09,357.6,90.53,359Z"/><path class="cls-8" d="M91.05,366.9a.45.45,0,0,1-.26-.28.48.48,0,0,1,.3-.62,7.5,7.5,0,0,1,3.66-.32,3.34,3.34,0,0,1,2.49,2.39.48.48,0,0,1-.37.58.49.49,0,0,1-.58-.37,2.39,2.39,0,0,0-1.79-1.66,6.66,6.66,0,0,0-3.09.3A.5.5,0,0,1,91.05,366.9Z"/><path class="cls-8" d="M90.86,364.91a.45.45,0,0,1-.26-.28.49.49,0,0,1,.3-.63,7.5,7.5,0,0,1,3.66-.32,3.34,3.34,0,0,1,2.49,2.4.49.49,0,0,1-.37.58.48.48,0,0,1-.58-.37,2.39,2.39,0,0,0-1.79-1.66,6.5,6.5,0,0,0-3.09.3A.5.5,0,0,1,90.86,364.91Z"/><path class="cls-8" d="M91.8,369a.45.45,0,0,1-.26-.28.48.48,0,0,1,.3-.62,7.5,7.5,0,0,1,3.66-.32A3.34,3.34,0,0,1,98,370.21a.48.48,0,0,1-.37.58.49.49,0,0,1-.58-.37,2.39,2.39,0,0,0-1.79-1.66,6.5,6.5,0,0,0-3.09.3A.5.5,0,0,1,91.8,369Z"/><path class="cls-9" d="M127.59,360.78l.88,9.67a12.45,12.45,0,0,0,8.11,1l-.82-11.3Z"/><path class="cls-5" d="M134.81,370.07s1.7-2.35,3.08-2.27,12.12,8.37,15.77,9,3,3.34,2.34,4.72-28.9.59-28.9.59-1-9.12-.15-11.72S132,370.72,134.81,370.07Z"/><path class="cls-8" d="M140.77,375.88a.51.51,0,0,1-.4,0,.5.5,0,0,1-.2-.69,8,8,0,0,1,2.61-2.81,3.51,3.51,0,0,1,3.61.12.51.51,0,1,1-.59.83,2.49,2.49,0,0,0-2.54,0,7,7,0,0,0-2.2,2.39A.49.49,0,0,1,140.77,375.88Z"/><path class="cls-8" d="M139.23,374.47a.51.51,0,0,1-.6-.74,8,8,0,0,1,2.61-2.8,3.51,3.51,0,0,1,3.61.12.51.51,0,0,1,.12.71.5.5,0,0,1-.71.11,2.52,2.52,0,0,0-2.54,0,6.93,6.93,0,0,0-2.2,2.4A.49.49,0,0,1,139.23,374.47Z"/><path class="cls-8" d="M142.85,377a.51.51,0,0,1-.6-.74,7.88,7.88,0,0,1,2.61-2.8,3.49,3.49,0,0,1,3.61.12.51.51,0,1,1-.6.82,2.51,2.51,0,0,0-2.54,0,7,7,0,0,0-2.19,2.4A.57.57,0,0,1,142.85,377Z"/><path class="cls-10" d="M122.17,255.86l-5.87,48.58A163.59,163.59,0,0,0,106,320.73c-4.22,7.67-15.45,27.59-15.45,27.59l6.8,5.18L134.56,315l9.9-59.57Z"/><path class="cls-7" d="M99,353.37A7.48,7.48,0,0,1,96,356.82l-7.89-6.66a11.8,11.8,0,0,1,2.69-3.64Z"/><path class="cls-7" d="M92.14,257.86s10.47,25.76,24.08,45.84c0,0,2,19.54,5.51,29.94,1.52,4.56,4.47,26.14,4.47,26.14l10.33-.47-2.67-60-10.92-43.46Z"/><path class="cls-13" d="M137.49,359a8.76,8.76,0,0,1,0,5.36l-12,.33a13.79,13.79,0,0,1-.5-5.22Z"/><path class="cls-2" d="M146,254.52c0,2.11,0,3.79,0,4.92a106.28,106.28,0,0,1-15,2.92l-.4.05-.66.08h-.17c-.87.1-1.73.18-2.6.25a100.88,100.88,0,0,1-12.89.23l-1.13-.06-1-.06-.46,0-.86-.06a105.65,105.65,0,0,1-19-3.33c0-2.49-.06-7.56-.07-14.09v-1.09c0-7.21,0-16.06.11-25.17,0-.73,0-1.44,0-2.17s0-1.67,0-2.52V214c0-.2,0-.4,0-.6,0-.39,0-.79,0-1.18,0-.58,0-1.16,0-1.73s0-.87,0-1.31c0-.87,0-1.73,0-2.6.31-18.09.92-34.71,2.08-38.94a3,3,0,0,1,.34-.85,6.31,6.31,0,0,1,.44-.57,9.07,9.07,0,0,1,.76-.76,54.54,54.54,0,0,1,8.7-5.82l1.19-.68c.06,0,9.26-3.14,9.32-3.17l9.63.67c1.15.68,10.25,3.77,11.37,4.47l1,.62c2.62,1.69,4.84,3.36,5.81,4.79,1.4,2.06,2.25,20.52,2.74,40.62,0,.46,0,.92,0,1.38.05,2.13.09,4.27.13,6.4s.09,4.22.12,6.31c.06,3.41.11,6.78.15,10,0,.37,0,.74,0,1.1,0,3.16.07,6.19.09,9,0,.37,0,.74,0,1.1,0,4.25,0,8,0,11h0C146,253.73,146,254.13,146,254.52Z"/><path class="cls-3" d="M101.41,191.17a.5.5,0,0,0-.9-.31,50,50,0,0,0-7.58,15c-.35,1.13-.65,2.22-.92,3.26,0,.44,0,.88,0,1.31s0,1.15,0,1.73c0,.39,0,.79,0,1.18,0,.2,0,.4,0,.6v.42a58.72,58.72,0,0,1,2-8.22,48.57,48.57,0,0,1,7.41-14.71.45.45,0,0,0,.1-.3Z"/><path class="cls-3" d="M103.37,236.33h0c10.4,0,19.27-4.77,24.88-8.73a56.4,56.4,0,0,0,9.78-8.67.49.49,0,0,0-.06-.7.51.51,0,0,0-.71.06,55.57,55.57,0,0,1-9.61,8.51c-5.49,3.87-14.16,8.49-24.28,8.53a.5.5,0,0,0,0,1Z"/><path class="cls-3" d="M114.2,239.86c9,0,18-5.14,18.42-5.37a.51.51,0,0,0,.18-.69.49.49,0,0,0-.68-.18c-.11.06-10.69,6.1-20.07,5.13a.5.5,0,1,0-.1,1A21.18,21.18,0,0,0,114.2,239.86Z"/><path class="cls-3" d="M122.19,176.69a.51.51,0,0,0,.49-.41.5.5,0,0,0-.4-.58c-12.67-2.41-16.49-10.56-16.53-10.64a.49.49,0,0,0-.66-.25.5.5,0,0,0-.25.66c.16.35,4.08,8.71,17.25,11.21Z"/><path class="cls-9" d="M74.58,270.09c-.24,2.57,2.89,1.18,2-4s1.63-9.91,2.71-9.76-.9,5.68.06,7.67,2.21-1.88,3.44-4.22,1.21-7.77.63-11.56,6.3-26.88,6.33-33.56l.84-2.84,3.07-10.38,4.81-16.25s-2.88-12.3-7.73-11.24c0,0-2.58,8.57-5.32,18.23-.47,1.64-.94,3.31-1.4,5-2,7-3.8,13.92-4.66,18-2.26,10.83-2.43,33.36-2.43,33.36s-4,8.27-4.08,12C72.75,264.4,74.81,267.52,74.58,270.09Z"/><path class="cls-12" d="M84,197.13l6.57,14.66,3.07-10.38-8.24-9.26C85,193.79,84.48,195.46,84,197.13Z"/><path class="cls-2" d="M83.69,192.76c2.88,5,5.82,9.87,8.74,14.8,1-3.22,2-6.32,2.9-9.16v0c.37-1.14.74-2.24,1.09-3.29a.43.43,0,0,1,0-.05c.13-.37.24-.73.37-1.09h0a78.58,78.58,0,0,0,2.78-9.53c.84-5.26-1.44-15.57-4.64-17.61h0c-.08.19-.33-.38-.48,0-.57,1.29-3.06,4.5-4.3,7.63l-.48,1.23C87.9,180.24,85.71,186.22,83.69,192.76Z"/><path class="cls-10" d="M76.33,240s6.24-.46,8.89,1.43l-.55,3.65s-7.3-.81-9-.72C75.67,244.33,75.5,240.72,76.33,240Z"/><path class="cls-7" d="M79.47,242.43a2.56,2.56,0,1,1-2.51-3A2.81,2.81,0,0,1,79.47,242.43Z"/><path class="cls-13" d="M78.37,242.33a1.87,1.87,0,1,1-1.84-2.22A2.06,2.06,0,0,1,78.37,242.33Z"/><path class="cls-7" d="M104.89,131.14c0,8.36,5.14,14.12,13.5,14.12s14.18-6.19,14.18-14.55S127.62,116,119.26,116C109.24,116,104.89,122.79,104.89,131.14Z"/><path class="cls-7" d="M105.84,136.14s-1.83-2.2-1.59-7.84,2.13-7.24,2.13-7.24-2.37-4-.18-5.22a4.25,4.25,0,0,1,4.1,0s-1.6-2.49,0-2.85,3.91,1.13,3.91,1.13,11.4-4.28,15-1.78,1.19,9.91.25,10.75Z"/><path class="cls-12" d="M106.77,134.74s-2.32-3.09-4-.54.72,10.12,4.94,8.28Z"/><path class="cls-14" d="M106.74,140.14a.36.36,0,0,1-.35-.26,5.54,5.54,0,0,0-3.09-3.29.35.35,0,0,1-.21-.46.36.36,0,0,1,.46-.21,6.18,6.18,0,0,1,3.53,3.77.35.35,0,0,1-.25.44Z"/><path class="cls-14" d="M104.3,139a.36.36,0,0,1-.2-.06.36.36,0,0,1-.1-.49,3.21,3.21,0,0,1,1.34-1.08.35.35,0,0,1,.47.18.36.36,0,0,1-.18.47,2.63,2.63,0,0,0-1,.81A.35.35,0,0,1,104.3,139Z"/><path class="cls-12" d="M130.69,134.74s2.32-3.09,4.05-.54-.72,10.12-4.94,8.28Z"/><path class="cls-14" d="M130.72,140.14a.34.34,0,0,0,.34-.26,5.57,5.57,0,0,1,3.1-3.29.36.36,0,0,0,.21-.46.36.36,0,0,0-.46-.21,6.15,6.15,0,0,0-3.53,3.77.35.35,0,0,0,.24.44Z"/><path class="cls-14" d="M133.16,139a.33.33,0,0,0,.19-.06.35.35,0,0,0,.11-.49,3.29,3.29,0,0,0-1.34-1.08.35.35,0,0,0-.47.18.36.36,0,0,0,.18.47,2.63,2.63,0,0,1,1,.81A.35.35,0,0,0,133.16,139Z"/><path class="cls-9" d="M124.44,148.89v7.52s-2.24,3.82-5.27,4.08-5.72-3.29-5.72-3.29v-7.78Z"/><path class="cls-12" d="M124.44,148.89v3.33c-2,2.26-5.64,2.83-11,2v-4.84Z"/><path class="cls-9" d="M132.37,129.58a72.67,72.67,0,0,1-1,9.5c-.14.73-.29,1.41-.47,2-1.58,5.54-5.54,15-16.61,11.08-4.9-1.75-7.16-7.2-8.18-12.74a53.93,53.93,0,0,1-.73-10.28,7.83,7.83,0,0,1,4-6.68c6.54-3.71,13.44-2.33,18-.58A7.83,7.83,0,0,1,132.37,129.58Z"/><path class="cls-7" d="M114.65,135.18c0,.8-.41,1.46-.92,1.46s-.93-.66-.93-1.46.42-1.45.93-1.45S114.65,134.38,114.65,135.18Z"/><path class="cls-7" d="M125.37,135.18c0,.8-.42,1.46-.93,1.46s-.92-.66-.92-1.46.41-1.45.92-1.45S125.37,134.38,125.37,135.18Z"/><path class="cls-7" d="M127,130.7s-2.91-1.15-5.15-.18l.22,1.24a14.48,14.48,0,0,1,5,.4A2.15,2.15,0,0,0,127,130.7Z"/><path class="cls-7" d="M110,130.7s2.92-1.15,5.16-.18l-.22,1.24s-3.3-.27-5,.4A2.22,2.22,0,0,1,110,130.7Z"/><path class="cls-12" d="M119.09,141.48a4,4,0,0,1-1.31-.11.36.36,0,0,1-.26-.44.36.36,0,0,1,.44-.25,2.15,2.15,0,0,0,1.44,0,.37.37,0,0,0,.13-.35,52.7,52.7,0,0,0-.87-5.4.36.36,0,0,1,.27-.43.37.37,0,0,1,.43.28c0,.17.86,4.22.89,5.53a1.09,1.09,0,0,1-.41.93A1.43,1.43,0,0,1,119.09,141.48Z"/><path class="cls-8" d="M114.21,143.62c.29,1.47,1.26,4.17,4.53,4.17s4.19-2.47,4.51-4.17Z"/><path class="cls-12" d="M118.46,150a3.78,3.78,0,0,0,1.75-.49.37.37,0,0,0,.12-.49.36.36,0,0,0-.49-.12,3.2,3.2,0,0,1-1.38.38,3,3,0,0,1-1.3-.38.36.36,0,0,0-.37.61A3.54,3.54,0,0,0,118.46,150Z"/><path class="cls-7" d="M132,134.8h-1.62a11.65,11.65,0,0,0-.9-4.89c-1.1-3,1.25-4.28-.65-5.76s-6.64-.85-9.94-1a70.14,70.14,0,0,0-9.93.24c-1.3.29-.59,2.45-.12,4.11s-1.58,3.51-1.93,5.24a7.5,7.5,0,0,0,0,2h-1.35c-.16-2.1-.18-4.05-.15-5.63a7.83,7.83,0,0,1,4-6.68c6.54-3.71,13.44-2.33,18-.58a7.83,7.83,0,0,1,5,7.67C132.29,131.18,132.17,133,132,134.8Z"/><path class="cls-5" d="M40.52,162.8a5.39,5.39,0,1,1,5.38-5.39A5.4,5.4,0,0,1,40.52,162.8Zm0-9.08a3.7,3.7,0,1,0,3.69,3.69A3.7,3.7,0,0,0,40.52,153.72Z"/><path class="cls-2" d="M30.18,136.13a5.39,5.39,0,1,1,5.39-5.39A5.39,5.39,0,0,1,30.18,136.13Zm0-9.08a3.7,3.7,0,1,0,3.7,3.69A3.69,3.69,0,0,0,30.18,127.05Z"/><path class="cls-2" d="M44.65,188.45a.85.85,0,0,1-.85-.85v-3.72a.85.85,0,1,1,1.69,0v3.72A.85.85,0,0,1,44.65,188.45Z"/><path class="cls-2" d="M44.65,195a.85.85,0,0,1-.85-.85V190.4a.85.85,0,1,1,1.69,0v3.72A.85.85,0,0,1,44.65,195Z"/><path class="cls-2" d="M49.88,189.84H46.53a.84.84,0,1,1,0-1.68h3.35a.84.84,0,0,1,0,1.68Z"/><path class="cls-2" d="M42.76,189.84H39.42a.84.84,0,1,1,0-1.68h3.34a.84.84,0,1,1,0,1.68Z"/><path class="cls-5" d="M12.53,158.55a.85.85,0,0,1-.85-.85V154a.85.85,0,1,1,1.69,0v3.72A.85.85,0,0,1,12.53,158.55Z"/><path class="cls-5" d="M12.53,165.06a.84.84,0,0,1-.85-.84v-3.73a.85.85,0,0,1,1.69,0v3.73A.84.84,0,0,1,12.53,165.06Z"/><path class="cls-5" d="M17.76,159.94H14.41a.85.85,0,0,1,0-1.69h3.35a.85.85,0,0,1,0,1.69Z"/><path class="cls-5" d="M10.65,159.94H7.3a.85.85,0,1,1,0-1.69h3.35a.85.85,0,0,1,0,1.69Z"/><path class="cls-2" d="M404.71,25.21a5.39,5.39,0,1,1,5.38-5.38A5.39,5.39,0,0,1,404.71,25.21Zm0-9.08a3.7,3.7,0,1,0,3.69,3.7A3.7,3.7,0,0,0,404.71,16.13Z"/><path class="cls-2" d="M414,51.07a5.39,5.39,0,1,1,5.39-5.39A5.39,5.39,0,0,1,414,51.07ZM414,42a3.7,3.7,0,1,0,3.7,3.69A3.7,3.7,0,0,0,414,42Z"/><path class="cls-5" d="M417.67,71.28a.85.85,0,0,1-.85-.84V66.71a.85.85,0,0,1,.85-.84.84.84,0,0,1,.84.84v3.73A.84.84,0,0,1,417.67,71.28Z"/><path class="cls-5" d="M417.67,77.8a.85.85,0,0,1-.85-.84V73.23a.84.84,0,0,1,.85-.84.83.83,0,0,1,.84.84V77A.84.84,0,0,1,417.67,77.8Z"/><path class="cls-5" d="M422.9,72.68h-3.35a.85.85,0,0,1,0-1.69h3.35a.85.85,0,0,1,0,1.69Z"/><path class="cls-5" d="M415.79,72.68h-3.35a.85.85,0,0,1,0-1.69h3.35a.85.85,0,0,1,0,1.69Z"/><path class="cls-5" d="M385.55,41.38a.85.85,0,0,1-.85-.84V36.81a.84.84,0,0,1,.85-.84.83.83,0,0,1,.84.84v3.73A.84.84,0,0,1,385.55,41.38Z"/><path class="cls-5" d="M385.55,47.9a.85.85,0,0,1-.85-.85V43.33a.85.85,0,0,1,.85-.85.84.84,0,0,1,.84.85v3.72A.84.84,0,0,1,385.55,47.9Z"/><path class="cls-5" d="M390.78,42.78h-3.35a.85.85,0,0,1,0-1.69h3.35a.85.85,0,0,1,0,1.69Z"/><path class="cls-5" d="M383.67,42.78h-3.35a.85.85,0,0,1,0-1.69h3.35a.85.85,0,0,1,0,1.69Z"/><path class="cls-5" d="M432.69,380.44H408.94c-3.23,0-6.1-2.47-7.1-6.12l-10.07-36.84a2.45,2.45,0,0,1,1.8-3.2,293.44,293.44,0,0,1,54.49,0,2.44,2.44,0,0,1,1.8,3.19l-10.08,36.85C438.79,378,435.92,380.44,432.69,380.44Z"/><path class="cls-7" d="M447.75,337c0,1-12,1.78-26.77,1.78s-26.78-.8-26.78-1.78,12-1.77,26.78-1.77S447.75,336,447.75,337Z"/><path class="cls-2" d="M451.3,287.16c-9.64-2.53-24.36,17.46-28.83,37V295.71a58.61,58.61,0,0,1,14.31-16.31c12.1-9.86,23.24-22.5,13.59-25-9.05-2.39-22.58,15.1-27.9,33.38V251.26a38.44,38.44,0,0,1,8.2-8.92c7.62-6.21,14.64-14.18,8.56-15.78-5.28-1.39-13,7.95-16.76,18.49V233.23A56.44,56.44,0,0,1,426.4,219c5.61-12.37,8.63-25.12,1.24-24.17s-12.2,23-8.15,39.91v6.08c-2.73-12.38-12.11-25.2-18.24-23.59s.94,9.57,8.56,15.78a35.18,35.18,0,0,1,9.68,11.53v28.74c-4.39-19.6-19.21-39.82-28.9-37.27s1.49,15.19,13.59,25c9.14,7.44,13.45,14.42,15.31,18.22v34.46c-4.69-19.24-19.13-38.65-28.63-36.15-9.66,2.54-1.38,11.78,12.22,23a64,64,0,0,1,16.41,20v16.23a5,5,0,0,0,3,0v-6.46c1.89-3.82,6.21-10.72,15.25-18.08C449.81,302.35,461,289.71,451.3,287.16Z"/><polygon class="cls-9" points="336.82 364.49 336.82 371.67 343.39 371.57 343.82 363.95 336.82 364.49"/><path class="cls-5" d="M338,371s-1.65-2.17-2.94-2.06-11.15,8.14-14.55,8.83-2.72,3.19-2.08,4.47,27-.34,27-.34.82-8.37-.07-10.78S340.64,371.55,338,371Z"/><path class="cls-8" d="M332.52,376.59a.47.47,0,0,0,.38,0,.48.48,0,0,0,.17-.65,7.4,7.4,0,0,0-2.52-2.56,3.32,3.32,0,0,0-3.38.19.48.48,0,1,0,.58.76,2.36,2.36,0,0,1,2.38-.09,6.52,6.52,0,0,1,2.11,2.18A.5.5,0,0,0,332.52,376.59Z"/><path class="cls-8" d="M333.93,375.23a.48.48,0,0,0,.37-.05.48.48,0,0,0,.18-.65A7.4,7.4,0,0,0,332,372a3.29,3.29,0,0,0-3.38.19.48.48,0,0,0,.58.76,2.35,2.35,0,0,1,2.38-.1,6.61,6.61,0,0,1,2.11,2.19A.5.5,0,0,0,333.93,375.23Z"/><path class="cls-8" d="M330.61,377.71a.48.48,0,0,0,.54-.71,7.38,7.38,0,0,0-2.52-2.56,3.29,3.29,0,0,0-3.38.2.48.48,0,1,0,.58.76,2.36,2.36,0,0,1,2.38-.1,6.21,6.21,0,0,1,2.11,2.19A.53.53,0,0,0,330.61,377.71Z"/><path class="cls-2" d="M331,244.1c.62,21.94,2.76,96.51,3.92,120.49h10.48s.1-28.86,2.07-47.91c1.17-11.34,3.68-51.8,4.93-72.58Z"/><path class="cls-3" d="M348,244.1c-1,19.57-2.5,48.35-3.66,60.33-1.2,12.37-2.36,46.51-2.79,60.16h1.36c.44-13.66,1.6-47.7,2.79-60,1.16-12,2.7-40.87,3.67-60.46Z"/><polygon class="cls-3" points="333.79 360.81 334.26 365.61 346.83 365.61 347.2 360.81 333.79 360.81"/><polygon class="cls-9" points="359.48 364.05 359.74 371.23 366.31 370.88 366.45 363.25 359.48 364.05"/><path class="cls-5" d="M362.7,369.29a31.6,31.6,0,0,1,4.46-.71c1,.06,7,7.52,9.19,8,3.88.94,3.61,7.05,1.22,7.25C370.64,384.44,359,381,359,381s-.74-7.89-.16-10.33S360.74,369.93,362.7,369.29Z"/><path class="cls-8" d="M368.11,376.24a.5.5,0,0,1-.37-.09.48.48,0,0,1-.1-.66,7.27,7.27,0,0,1,2.78-2.28,3.3,3.3,0,0,1,3.34.55.49.49,0,0,1,0,.68.48.48,0,0,1-.68,0,2.38,2.38,0,0,0-2.35-.35,6.55,6.55,0,0,0-2.34,1.95A.43.43,0,0,1,368.11,376.24Z"/><path class="cls-8" d="M366.85,374.74a.48.48,0,0,1-.46-.76,7.4,7.4,0,0,1,2.77-2.28,3.25,3.25,0,0,1,3.34.56.47.47,0,1,1-.65.69,2.36,2.36,0,0,0-2.36-.35,6.37,6.37,0,0,0-2.33,1.95A.51.51,0,0,1,366.85,374.74Z"/><path class="cls-8" d="M369.9,377.55a.49.49,0,0,1-.37-.08.48.48,0,0,1-.1-.67,7.28,7.28,0,0,1,2.78-2.28,3.3,3.3,0,0,1,3.34.55.48.48,0,0,1-.66.7,2.35,2.35,0,0,0-2.36-.36,6.46,6.46,0,0,0-2.33,2A.5.5,0,0,1,369.9,377.55Z"/><path class="cls-2" d="M351.06,244.1c1.25,20.78,3.75,61.24,4.93,72.58,2,19.05,2.06,47.91,2.06,47.91h10.48c1.16-24,3.31-98.55,3.93-120.49Z"/><path class="cls-3" d="M355.53,244.1h-1.37c1,19.59,2.5,48.44,3.67,60.46,1.19,12.33,2.35,46.37,2.78,60H362c-.43-13.65-1.59-47.79-2.79-60.16C358,292.45,356.5,263.67,355.53,244.1Z"/><polygon class="cls-3" points="369.69 360.81 369.22 365.61 356.65 365.61 356.27 360.81 369.69 360.81"/><path class="cls-15" d="M339.28,189.52c-6.5,9.55-24.08,17.87-24.08,17.87a48.85,48.85,0,0,1-14.62-5.55,44.63,44.63,0,0,0,2.39-9.62c6,1.67,11.19,2.56,11.19,2.56,12.67-5.88,27.55-35.5,27.55-35.5C345.82,167.72,339.28,189.52,339.28,189.52Z"/><path class="cls-7" d="M379.25,174c-5.27,4.68-11.45,2.58-19.31-1.42s-2.83,3.86-10.55,5.2-6.81-17.77-7.34-27.31c-.33-6-2.7-13.52-2.7-16.55v0c0-.5-.06-1-.07-1.5-.06-7.27,4.42-20.54,20.18-18.43,0,0,13.08,1.49,14.56,14.27,0,0,.62,5.89,1,10.16,1.16,12.09,5.62,5.79,4.19,20.52C378.78,163.76,385.41,168.52,379.25,174Z"/><path class="cls-5" d="M331.13,246.26c12.86,9.48,42.6.5,42.6.5,3.35-4.09-1.3-13.44-2.66-24.39-1.15-9.22.17-21.73,1.87-31,.32-1.73.65-3.35,1-4.81,2.09-9.26,2.3-24.72,2.3-24.72-1.61-.83-4.21-2-6.85-3-1.64-.66-3.3-1.32-4.74-1.88-2.56-1-4.47-1.7-4.47-1.7l-10.61,1.62-2.09.64L344,158.58l-2.3.7s-1.63,10.47-3.18,16.83a25.59,25.59,0,0,1-1.23,4c-1.77,3.85-1.33,5.71.53,10.79a16.41,16.41,0,0,1,.88,3.88c.05.34.08.7.1,1.06.27,4.3-.58,9.63-2,16.85-1.63,8.42-5.61,24.67-7,30.19A3.23,3.23,0,0,0,331.13,246.26Z"/><path class="cls-15" d="M338.71,194.78c.05.34.08.7.1,1.06,5.28,4.47,14.38,10.57,24.76,10.57a.38.38,0,0,0,0-.75C353,205.66,343.8,199.21,338.71,194.78Z"/><path class="cls-15" d="M349.39,177.77c5.28,0,10.14-5.6,10.35-5.85a.37.37,0,1,0-.56-.48c-.05.06-5.15,5.93-10.24,5.57a.38.38,0,0,0-.4.35.38.38,0,0,0,.35.4Z"/><path class="cls-15" d="M361.72,231.12a.37.37,0,0,0,0-.74c-13.62-1.57-19.26-25.15-19.32-25.39a.37.37,0,0,0-.73.17c.24,1,5.83,24.33,20,26Z"/><path class="cls-15" d="M356.29,224a.38.38,0,0,0,.32-.18.37.37,0,0,0-.12-.51c-7.25-4.47-8.32-11.05-8.33-11.12a.37.37,0,0,0-.74.11c0,.28,1.13,7,8.68,11.64A.35.35,0,0,0,356.29,224Z"/><path class="cls-12" d="M344.7,134.75s-2.25-2.85-3.92-.5.69,9.33,4.79,7.63Z"/><path class="cls-8" d="M343.73,141.39a.75.75,0,1,1-.75-.75A.74.74,0,0,1,343.73,141.39Z"/><path class="cls-14" d="M344.67,139.72a.33.33,0,0,1-.33-.24,5.27,5.27,0,0,0-3-3,.32.32,0,0,1-.2-.42.34.34,0,0,1,.44-.19,5.85,5.85,0,0,1,3.43,3.47.33.33,0,0,1-.24.4Z"/><path class="cls-14" d="M342.31,138.64a.41.41,0,0,1-.19,0,.32.32,0,0,1-.1-.46,3.12,3.12,0,0,1,1.29-1,.35.35,0,0,1,.46.16.33.33,0,0,1-.17.44,2.45,2.45,0,0,0-1,.75A.35.35,0,0,1,342.31,138.64Z"/><path class="cls-9" d="M362.05,149.32V157s-4,3.92-7.07,4.19-4.16-3.38-4.16-3.38v-7.95Z"/><path class="cls-12" d="M362.05,150.15v3.41c-2.08,2.31-5.77,3.13-11.23,2.32v-5.19Z"/><path class="cls-9" d="M343.35,138c.1.82.21,1.66.36,2.5,1,5.55,4.5,11.55,8.94,12.56,9.58,2.17,13.56-5.35,15.09-10.9.17-.62-.15-1.33,0-2.06a55.25,55.25,0,0,0,1.18-5.63c.11-1.34.19-2.67.24-3.87a7.86,7.86,0,0,0-4.85-7.69c-4.41-1.75-11.1-3.14-17.43.58a7.9,7.9,0,0,0-3.86,6.69A59,59,0,0,0,343.35,138Z"/><path class="cls-12" d="M355,142.29a.37.37,0,0,0,.06-.73l-1.28-.22,1.77-4.69a.37.37,0,1,0-.7-.26l-2.08,5.53,2.17.37Z"/><path class="cls-7" d="M347,128.64c-3.75,1.7-2.56,6.15-3.82,8.39-.08.14-.17.17-.26.09a58.06,58.06,0,0,1-.37-8,8,8,0,0,1,4.07-6.82c6.68-3.79,13.73-2.38,18.37-.59a8,8,0,0,1,5.12,7.84c-.06,1.22-.14,2.57-.26,3.94-.62.37-2.14.54-2.2,1.54-.17,2.64-.3,4.45-.85,4.29-.93-.27-1.51-3.47-.44-5.54,0,0-.86-1.39-4.35-2.74a67.48,67.48,0,0,1-8.78-4.27,8.14,8.14,0,0,1-2.35-2.14A8,8,0,0,1,347,128.64Z"/><ellipse class="cls-7" cx="349.74" cy="136.09" rx="0.94" ry="1.48"/><ellipse class="cls-7" cx="359.94" cy="136.09" rx="0.94" ry="1.48"/><path class="cls-7" d="M347.2,132.2a17.73,17.73,0,0,1,3.92-.34c.43,0,.78.34.72.68h0a.61.61,0,0,1-.69.43,21,21,0,0,0-5.38.34.69.69,0,0,1,.29-.59A2.24,2.24,0,0,1,347.2,132.2Z"/><path class="cls-7" d="M362.37,132.37a18.5,18.5,0,0,0-3.92-.38.67.67,0,0,0-.73.67h0a.62.62,0,0,0,.68.44,20.66,20.66,0,0,1,5.38.41.69.69,0,0,0-.28-.59A2.32,2.32,0,0,0,362.37,132.37Z"/><path class="cls-8" d="M350.92,144.51a4.23,4.23,0,0,0,4.28,3.71c3.09,0,4-2.2,4.26-3.71Z"/><path class="cls-12" d="M355.15,150.46a3.64,3.64,0,0,1-1.71-.5.37.37,0,0,1-.12-.5.35.35,0,0,1,.5-.12h0a3,3,0,0,0,1.33.39,2.93,2.93,0,0,0,1.4-.4.37.37,0,0,1,.5.13.36.36,0,0,1-.12.5A3.77,3.77,0,0,1,355.15,150.46Z"/><path class="cls-9" d="M367.78,134.72s2.62-3.17,4.16-.88-.64,9-4.42,7.4Z"/><path class="cls-8" d="M369.9,141.39a.75.75,0,1,1-.75-.75A.75.75,0,0,1,369.9,141.39Z"/><path class="cls-12" d="M368.35,139.15a.32.32,0,0,0,.31-.23,4.92,4.92,0,0,1,2.77-2.95.32.32,0,0,0,.18-.41.31.31,0,0,0-.41-.18,5.48,5.48,0,0,0-3.16,3.36.32.32,0,0,0,.22.4Z"/><path class="cls-12" d="M370.53,138.1a.34.34,0,0,0,.17,0,.32.32,0,0,0,.1-.44,2.92,2.92,0,0,0-1.2-1,.32.32,0,0,0-.26.58,2.32,2.32,0,0,1,.92.73A.32.32,0,0,0,370.53,138.1Z"/><path class="cls-2" d="M315,205.18l-9.19,7a2.66,2.66,0,0,1-3.72-.49l-17.86-23.29-7.39-9.64,13.4-10.28,4.38,5.71,20.87,27.22A2.64,2.64,0,0,1,315,205.18Z"/><path class="cls-3" d="M294.66,174.24a36.75,36.75,0,0,1-10.39,14.21l-7.39-9.64,13.4-10.28Z"/><path class="cls-7" d="M321.06,203.32h10.49a0,0,0,0,1,0,0v47.39a4.72,4.72,0,0,1-4.72,4.72h-1a4.72,4.72,0,0,1-4.72-4.72V203.32A0,0,0,0,1,321.06,203.32Z" transform="translate(-72.21 245.95) rotate(-37.49)"/><path class="cls-7" d="M228.42,102.16a47.51,47.51,0,1,0,66.66,8.45A47.52,47.52,0,0,0,228.42,102.16Zm53.75,69.34a40.22,40.22,0,1,1,7.15-56.43A40.27,40.27,0,0,1,282.17,171.5Z"/><path class="cls-16" d="M296.39,129.33a40.27,40.27,0,0,1-28.48,49.24,40.08,40.08,0,0,1-19.5.31A40.39,40.39,0,0,1,220.74,156a41,41,0,0,1-2.07-5.89,40.23,40.23,0,0,1,68.26-37.83A39.82,39.82,0,0,1,294.56,124,38.77,38.77,0,0,1,296.39,129.33Z"/><path class="cls-16" d="M275.47,103.73,235.3,173.21A40.14,40.14,0,0,1,220.74,156l32.55-56.28A40.16,40.16,0,0,1,275.47,103.73Z"/><path class="cls-16" d="M294.56,124l-32.17,55.63a39.63,39.63,0,0,1-14-.76l38.52-66.61A39.82,39.82,0,0,1,294.56,124Z"/><path class="cls-9" d="M334.59,225.22H333a3.55,3.55,0,0,1-3.2-2.15,19.44,19.44,0,0,0-.94-2c-.76-1-2.82-2.71-3.6-2.76s-.63,1.39-.08,2a12.47,12.47,0,0,1,1.87,2.33c.46.89-3.78,2.69-5.51,3.11s-4.75-.5-5,.93,2,1.64,2,1.64-.66,1.29,1.22,2.35a1.75,1.75,0,0,0,.89,1.94,2,2,0,0,0,1.27,2c1.42.42,5.83,1.7,14.49-3.56Z"/><path class="cls-15" d="M365.14,188.66a51,51,0,0,1-6.41,18.1,77.84,77.84,0,0,1-12.11,10.42,148.74,148.74,0,0,1-13.65,8c1.45,1.88,2.48,5.61,1.92,6.73,16-3.6,32.05-17.1,32.05-17.1,12.53-14.53,12.29-47,12.29-47s-.41-4.81-3-6a12.72,12.72,0,0,0-7.07,8.11C367.33,176.12,365.14,188.66,365.14,188.66Z"/><path class="cls-9" d="M285.07,190.51s3.89-1.38,5.68-.63-3.17,3.43-3.17,3.43,6-3.2,7.05-1.91-4.71,4.56-4.71,4.56,4.4-1.55,5.29-.64-3.21,3.47-3.21,3.47,3.61-.87,4.37-.25-2.45,3.18-4.48,3.86-2.36-2.18-2.36-2.18-1.91-1.68-1.66-2.85c0,0-2-1.34-2.12-2.7C285.75,194.67,283,192.2,285.07,190.51Z"/></g></g></svg>