<svg xmlns="http://www.w3.org/2000/svg" viewBox="0 0 356.38 288.17"><defs><style>.cls-1,.cls-11,.cls-3,.cls-6{fill:#4763e5;}.cls-1{opacity:0.05;}.cls-2{fill:#fff;}.cls-3,.cls-7{opacity:0.2;}.cls-4{opacity:0.8;}.cls-5{fill:#f4a88b;}.cls-10,.cls-8{opacity:0.25;}.cls-10,.cls-9{fill:#f08d61;}.cls-11{opacity:0.12;}.cls-12,.cls-21{fill:#194dc2;}.cls-12{opacity:0.3;}.cls-13{fill:#fdfdfd;}.cls-14{fill:#3656c9;}.cls-15{fill:#294db2;opacity:0.55;}.cls-16{fill:#edd9c8;}.cls-17{fill:#ddc7b8;}.cls-18{fill:#fca976;}.cls-19{fill:#ddc6b3;}.cls-20{fill:#3958c6;}</style></defs><g id="Layer_2" data-name="Layer 2"><g id="OBJECTS"><path class="cls-1" d="M273.55,78.74c-18.7-6.89-39.48-10-55.55-21.24-18.64-13-28.51-35.34-48.93-45.83-19.35-10-44.6-6.35-62.36,5.6S78,48.2,72.52,67.86c-.37,1.3-.68,2.53-1,3.71a20.59,20.59,0,0,0-.48,2.16h0c-.24,1.11-.44,2.18-.61,3.2-5.65,27.55-22.39,53.68-31.57,64.9-.75.86-1.49,1.72-2.21,2.58h0C24.77,158.61,15.61,174.48,11.32,192c-7.85,32,4.37,69.82,35.32,86.43,24.56,13.17,55.22,11,82.68,5s54.4-15.68,82.69-16.23c18.2-.35,36.25,3.09,54.4,4.46s37.28.46,53-7.8c20.74-10.88,32.09-32.84,35.63-54.63C363.74,155.86,328.09,98.85,273.55,78.74Z"/><path class="cls-1" d="M284.55,94.86c-17.24-10-37.18-16.63-51.1-30.42-16.15-16-22.06-39.7-40.37-53.53C175.71-2.2,150.21-3,130.67,5.77s-33.57,25.58-42.34,44c-.57,1.22-1.1,2.38-1.58,3.49-.29.61-.58,1.29-.85,2h0q-.63,1.59-1.14,3.06c-10.28,26.18-31.24,49.05-42.2,58.54-.88.72-1.76,1.44-2.62,2.17h0c-14.15,12-25.89,26-33.11,42.53-13.21,30.19-7.63,69.54,20,91.19,21.94,17.17,52.52,20.29,80.62,19s56.28-6.16,84.25-1.86c18,2.77,35.18,9.24,52.83,13.69s36.65,6.83,53.59,1.38c22.3-7.18,37.24-26.87,44.45-47.74C360.23,186.25,334.86,124,284.55,94.86Z"/><polygon class="cls-2" points="269.66 45.77 228.63 49.34 236.2 60.17 179.33 99.95 77.4 134.46 82.13 148.43 186.05 113.25 244.66 72.26 252.24 83.09 269.66 45.77"/><polygon class="cls-3" points="269.66 45.77 228.63 49.34 236.2 60.17 179.33 99.95 77.4 134.46 82.13 148.43 186.05 113.25 244.66 72.26 252.24 83.09 269.66 45.77"/><g class="cls-4"><path class="cls-5" d="M159.84,42.12a1.64,1.64,0,0,0,0,3.28A1.64,1.64,0,0,0,159.84,42.12Z"/><path class="cls-5" d="M330.12,236.87a1.64,1.64,0,0,0,0,3.28A1.64,1.64,0,0,0,330.12,236.87Z"/><path class="cls-5" d="M290.45,103.93a1.64,1.64,0,0,0,0,3.28A1.64,1.64,0,0,0,290.45,103.93Z"/><path class="cls-6" d="M218.47,103.93a1.64,1.64,0,0,0,0,3.28A1.64,1.64,0,0,0,218.47,103.93Z"/><path class="cls-6" d="M311,189.18a1.64,1.64,0,0,0,0,3.28A1.64,1.64,0,0,0,311,189.18Z"/><path class="cls-6" d="M22.49,201.62a1.64,1.64,0,0,0,0,3.28A1.64,1.64,0,0,0,22.49,201.62Z"/><path class="cls-5" d="M65.34,141.18a1.64,1.64,0,0,0,0,3.28A1.64,1.64,0,0,0,65.34,141.18Z"/><path class="cls-6" d="M84,78.42a1.64,1.64,0,0,0,0,3.28A1.64,1.64,0,0,0,84,78.42Z"/></g><g class="cls-7"><path class="cls-6" d="M174,81a4.69,4.69,0,0,1-2.56,1.28v.84a1.13,1.13,0,0,1-.33.85,1.3,1.3,0,0,1-1.73,0,1.13,1.13,0,0,1-.33-.85v-.77a7.68,7.68,0,0,1-3.25-1.11,1.21,1.21,0,0,1-.44-.43,1.41,1.41,0,0,1-.13-.63,1.37,1.37,0,0,1,.3-.89.9.9,0,0,1,.71-.38,1.14,1.14,0,0,1,.41.07,2.66,2.66,0,0,1,.53.25,6.46,6.46,0,0,0,1.41.59,5.55,5.55,0,0,0,1.38.17,2.57,2.57,0,0,0,1.38-.3,1,1,0,0,0,.47-.9.72.72,0,0,0-.28-.59,2.21,2.21,0,0,0-.7-.37c-.28-.09-.69-.2-1.23-.34a17.8,17.8,0,0,1-2.1-.66,3.61,3.61,0,0,1-1.42-1,2.87,2.87,0,0,1-.6-1.91,3.36,3.36,0,0,1,1-2.38,4.73,4.73,0,0,1,2.53-1.33v-.86a1.11,1.11,0,0,1,.34-.84,1.27,1.27,0,0,1,1.72,0,1.14,1.14,0,0,1,.34.85v.81a7.31,7.31,0,0,1,2.77,1.07,1.24,1.24,0,0,1,.43.46,1.25,1.25,0,0,1,.13.61,1.32,1.32,0,0,1-.31.88.88.88,0,0,1-.72.38,1.07,1.07,0,0,1-.39-.07,5.09,5.09,0,0,1-.55-.25l-.53-.29a4.6,4.6,0,0,0-.88-.34,4,4,0,0,0-1-.13,2.1,2.1,0,0,0-1.25.34,1,1,0,0,0-.48.9.9.9,0,0,0,.55.82,8.53,8.53,0,0,0,1.73.54,14.85,14.85,0,0,1,2.08.62,3.46,3.46,0,0,1,1.4,1,3,3,0,0,1,.59,1.94A3.28,3.28,0,0,1,174,81Z"/></g><g class="cls-7"><path class="cls-6" d="M337.13,211.32a4.66,4.66,0,0,1-2.56,1.28v.84a1.13,1.13,0,0,1-.33.85,1.3,1.3,0,0,1-1.73,0,1.13,1.13,0,0,1-.33-.85v-.77a7.68,7.68,0,0,1-3.25-1.11,1.21,1.21,0,0,1-.44-.43,1.41,1.41,0,0,1-.13-.63,1.39,1.39,0,0,1,.3-.89.9.9,0,0,1,.71-.38,1.14,1.14,0,0,1,.41.07,2.8,2.8,0,0,1,.53.26,6.69,6.69,0,0,0,1.41.58,5.55,5.55,0,0,0,1.38.17,2.59,2.59,0,0,0,1.38-.3,1,1,0,0,0,.47-.9.76.76,0,0,0-.28-.59,2.57,2.57,0,0,0-.7-.37c-.28-.09-.69-.2-1.23-.34a14.7,14.7,0,0,1-2.1-.66,3.61,3.61,0,0,1-1.42-1,2.86,2.86,0,0,1-.6-1.91,3.36,3.36,0,0,1,1-2.38,4.73,4.73,0,0,1,2.53-1.33v-.86a1.11,1.11,0,0,1,.34-.84,1.19,1.19,0,0,1,.86-.34,1.17,1.17,0,0,1,.86.33,1.15,1.15,0,0,1,.33.85v.81a7.37,7.37,0,0,1,2.78,1.08,1.15,1.15,0,0,1,.43.45,1.28,1.28,0,0,1,.13.61,1.34,1.34,0,0,1-.31.89.89.89,0,0,1-.72.37,1.07,1.07,0,0,1-.39-.07,4.34,4.34,0,0,1-.55-.25l-.53-.28a4.25,4.25,0,0,0-.88-.35,4,4,0,0,0-1-.12,2.17,2.17,0,0,0-1.25.33,1,1,0,0,0-.48.9.89.89,0,0,0,.55.82,9.1,9.1,0,0,0,1.73.55,14.08,14.08,0,0,1,2.08.61,3.55,3.55,0,0,1,1.4,1,3,3,0,0,1,.59,1.94A3.28,3.28,0,0,1,337.13,211.32Z"/></g><g class="cls-8"><path class="cls-9" d="M198.13,32.38a1.19,1.19,0,0,1,0,1.62,1.07,1.07,0,0,1-.81.34H194.9v2.4a1.13,1.13,0,0,1-.32.81,1.06,1.06,0,0,1-.81.32,1.11,1.11,0,0,1-1.14-1.13v-2.4h-2.42a1.07,1.07,0,0,1-.81-.34,1.19,1.19,0,0,1,0-1.62,1.1,1.1,0,0,1,.81-.33h2.42V29.63a1.06,1.06,0,0,1,.33-.8,1.1,1.1,0,0,1,.81-.33,1.08,1.08,0,0,1,.8.33,1.06,1.06,0,0,1,.33.8v2.42h2.42A1.1,1.1,0,0,1,198.13,32.38Z"/></g><g class="cls-8"><path class="cls-9" d="M328.21,158.83a1.11,1.11,0,0,1,.32.8,1.16,1.16,0,0,1-.32.82,1.07,1.07,0,0,1-.81.34H325v2.4a1.13,1.13,0,0,1-.32.81,1.1,1.1,0,0,1-.81.32A1.13,1.13,0,0,1,323,164a1.1,1.1,0,0,1-.33-.81v-2.4h-2.42a1.07,1.07,0,0,1-.81-.34,1.16,1.16,0,0,1-.32-.82,1.11,1.11,0,0,1,1.13-1.13h2.42v-2.42a1.1,1.1,0,0,1,.33-.81,1.13,1.13,0,0,1,.81-.32,1.11,1.11,0,0,1,1.13,1.13v2.42h2.42A1.1,1.1,0,0,1,328.21,158.83Z"/></g><g class="cls-7"><path class="cls-6" d="M142,11a3.13,3.13,0,0,1-.67-2.14,3,3,0,0,1,.67-2.1,2.63,2.63,0,0,1,3.66,0,3.08,3.08,0,0,1,.66,2.12,3.09,3.09,0,0,1-.66,2.13,2.33,2.33,0,0,1-1.83.73A2.3,2.3,0,0,1,142,11Zm2.27-1a2.87,2.87,0,0,0,.14-1.1,3,3,0,0,0-.14-1.08.47.47,0,0,0-.89,0,3.05,3.05,0,0,0-.13,1.08,3.15,3.15,0,0,0,.13,1.1.48.48,0,0,0,.45.33A.46.46,0,0,0,144.27,10Zm1.13,5.68a.83.83,0,0,1-.47.14.8.8,0,0,1-.8-.82,1.27,1.27,0,0,1,.19-.62l4.55-7.86a1.34,1.34,0,0,1,.41-.44.92.92,0,0,1,.47-.14.73.73,0,0,1,.56.23.77.77,0,0,1,.23.59,1.25,1.25,0,0,1-.18.62l-4.55,7.86A1.34,1.34,0,0,1,145.4,15.64Zm3.62-.77a3.13,3.13,0,0,1-.67-2.14,3,3,0,0,1,.67-2.1,2.63,2.63,0,0,1,3.66,0,3,3,0,0,1,.66,2.11,3.09,3.09,0,0,1-.66,2.13,2.3,2.3,0,0,1-1.83.74A2.34,2.34,0,0,1,149,14.87Zm2.27-1a2.9,2.9,0,0,0,.14-1.11,3.08,3.08,0,0,0-.14-1.08.49.49,0,0,0-.44-.34.48.48,0,0,0-.45.33,3.16,3.16,0,0,0-.13,1.09,3.17,3.17,0,0,0,.13,1.11.48.48,0,0,0,.45.33A.46.46,0,0,0,151.29,13.85Z"/></g><g class="cls-8"><path class="cls-9" d="M25,232.06a3.69,3.69,0,0,1,0-4.24,2.66,2.66,0,0,1,3.66,0,3.75,3.75,0,0,1,0,4.25,2.34,2.34,0,0,1-1.83.74A2.31,2.31,0,0,1,25,232.06Zm2.27-1a3,3,0,0,0,.14-1.11,3.08,3.08,0,0,0-.14-1.08.48.48,0,0,0-.44-.33.47.47,0,0,0-.45.33,3.08,3.08,0,0,0-.14,1.08,3.19,3.19,0,0,0,.14,1.11.46.46,0,0,0,.45.32A.45.45,0,0,0,27.25,231.05Zm1.13,5.67a.84.84,0,0,1-.47.15.77.77,0,0,1-.56-.24.78.78,0,0,1-.24-.58,1.18,1.18,0,0,1,.19-.63l4.55-7.85a1.17,1.17,0,0,1,.41-.44.84.84,0,0,1,.47-.15.77.77,0,0,1,.56.23.84.84,0,0,1,.23.59,1.26,1.26,0,0,1-.18.63l-4.56,7.85A1.23,1.23,0,0,1,28.38,236.72ZM32,236a3.06,3.06,0,0,1-.67-2.13,3,3,0,0,1,.67-2.11,2.66,2.66,0,0,1,3.66,0,3.75,3.75,0,0,1,0,4.25,2.34,2.34,0,0,1-1.83.74A2.31,2.31,0,0,1,32,236Zm2.27-1a3,3,0,0,0,.14-1.11,3.1,3.1,0,0,0-.14-1.09.47.47,0,0,0-.89,0,4.43,4.43,0,0,0,0,2.21.48.48,0,0,0,.45.32A.46.46,0,0,0,34.27,234.94Z"/></g><path class="cls-10" d="M198.8,130.45a1.81,1.81,0,0,0-1.14,1.05l-4.47-.58a2.32,2.32,0,0,0-.11-.63,2.62,2.62,0,0,0-.68-1.08l2.35-3.66a2.8,2.8,0,0,0,1.92.09,2.78,2.78,0,1,0-3.48-1.81A2.74,2.74,0,0,0,194,125l-2.35,3.66a2.62,2.62,0,0,0-1.73-.07,2.55,2.55,0,1,0,1.54,4.86,2.53,2.53,0,0,0,1.65-1.64l4.47.58c0,.1,0,.21.07.31a1.83,1.83,0,1,0,1.19-2.29Z"/><path class="cls-3" d="M51.87,201.41a1.81,1.81,0,0,0-1.53.22l-3.35-3a2.34,2.34,0,0,0,.26-.58,2.54,2.54,0,0,0,0-1.28l4-1.68a2.77,2.77,0,1,0-.31-2.29,2.68,2.68,0,0,0,0,1.43l-4,1.68a2.51,2.51,0,0,0-1.38-1,2.55,2.55,0,1,0,.8,4.46l3.35,3a1.88,1.88,0,0,0-.12.3,1.83,1.83,0,1,0,2.28-1.21Z"/><g class="cls-7"><path class="cls-6" d="M308.12,129.83a1.1,1.1,0,0,1-.33-.81,1.15,1.15,0,0,1,.33-.83,1.08,1.08,0,0,1,.82-.34h7.19a1.14,1.14,0,0,1,.82.33,1.11,1.11,0,0,1,.33.82,1.12,1.12,0,0,1-.33.82,1.11,1.11,0,0,1-.82.34h-7.19A1.11,1.11,0,0,1,308.12,129.83Zm0,3.89a1.11,1.11,0,0,1-.33-.82,1.12,1.12,0,0,1,.33-.82,1.08,1.08,0,0,1,.82-.34h7.19a1.14,1.14,0,0,1,.82.33,1.1,1.1,0,0,1,.33.81,1.15,1.15,0,0,1-.33.83,1.11,1.11,0,0,1-.82.34h-7.19A1.11,1.11,0,0,1,308.12,133.72Z"/></g><g class="cls-8"><path class="cls-9" d="M98.8,57.24a1.11,1.11,0,0,1-.33-.82,1.12,1.12,0,0,1,.33-.82,1.07,1.07,0,0,1,.81-.34h7.2A1.13,1.13,0,0,1,108,56.4a1.15,1.15,0,0,1-.33.83,1.07,1.07,0,0,1-.81.34h-7.2A1.1,1.1,0,0,1,98.8,57.24Zm0,3.89a1.11,1.11,0,0,1-.33-.82,1.12,1.12,0,0,1,.33-.82,1.07,1.07,0,0,1,.81-.34h7.2A1.13,1.13,0,0,1,108,60.29a1.15,1.15,0,0,1-.33.83,1.07,1.07,0,0,1-.81.34h-7.2A1.1,1.1,0,0,1,98.8,61.13Z"/></g><path class="cls-3" d="M259.25,104.44l-.88-2.09a.62.62,0,0,0-.82-.33l-2.09.88a2.42,2.42,0,1,0-4.46,1.88l-2.09.88a.61.61,0,0,0-.33.81l3.64,8.65a.62.62,0,0,0,.81.33l2.1-.88a2.42,2.42,0,1,1,4.45-1.88l2.1-.88A.64.64,0,0,0,262,111l-.89-2.09a2.42,2.42,0,0,0-1.87-4.46Z"/><path class="cls-10" d="M42.93,155.62l-.88-2.1a.63.63,0,0,0-.81-.33l-2.1.88A2.42,2.42,0,0,0,34.69,156l-2.1.88a.63.63,0,0,0-.33.82l3.64,8.64a.61.61,0,0,0,.81.33l2.1-.88a2.42,2.42,0,0,1,4.45-1.88l2.1-.88a.62.62,0,0,0,.33-.81l-.88-2.1a2.42,2.42,0,1,0-1.88-4.45Z"/><g class="cls-7"><path class="cls-6" d="M83.62,110.23a1.14,1.14,0,1,0,.77,1.42A1.15,1.15,0,0,0,83.62,110.23Z"/><path class="cls-6" d="M92.88,110.18l-16.95-5.09a.5.5,0,0,0-.62.33l-1.93,6.42a.51.51,0,0,0,.34.62l16.94,5.09a.49.49,0,0,0,.62-.34l1.93-6.41A.5.5,0,0,0,92.88,110.18Zm-2.06,5.43a.25.25,0,0,1-.31.17.5.5,0,0,0-.62.33.25.25,0,0,1-.31.17L75.32,112a.25.25,0,0,1-.16-.31.5.5,0,0,0-.34-.63.24.24,0,0,1-.16-.31L75.77,107a.26.26,0,0,1,.32-.17.5.5,0,0,0,.62-.33.25.25,0,0,1,.31-.17l14.25,4.28a.25.25,0,0,1,.17.31.49.49,0,0,0,.33.62.25.25,0,0,1,.17.31Z"/><path class="cls-6" d="M90.92,111.06,77.08,106.9a1,1,0,0,1-.89.48l-1,3.31a1,1,0,0,1,.48.89l13.83,4.16a1,1,0,0,1,.89-.48l1-3.31A1,1,0,0,1,90.92,111.06ZM80.7,110.8l-4.12-1.24a.24.24,0,0,1-.17-.31.25.25,0,0,1,.31-.17l4.13,1.24a.25.25,0,0,1,.16.31A.24.24,0,0,1,80.7,110.8Zm2.13,2.09a1.64,1.64,0,1,1,2-1.1A1.64,1.64,0,0,1,82.83,112.89Zm7,.67-4.12-1.24a.25.25,0,0,1-.17-.31.24.24,0,0,1,.31-.17L90,113.08a.25.25,0,0,1,.16.31A.26.26,0,0,1,89.87,113.56Z"/></g><ellipse class="cls-11" cx="180.47" cy="244.66" rx="137.23" ry="15.53"/><path class="cls-6" d="M128.32,247.5H68.61a3.32,3.32,0,0,1-3.27-3.38V170a3.32,3.32,0,0,1,3.27-3.38h59.71A3.33,3.33,0,0,1,131.6,170v74.14A3.33,3.33,0,0,1,128.32,247.5Z"/><path class="cls-12" d="M68.61,247.5h59.71a3.27,3.27,0,0,0,3.28-3.27V204.82c-13,43-66.26,33-66.26,33v6.46A3.26,3.26,0,0,0,68.61,247.5Z"/><path class="cls-12" d="M65.34,169.87v13.41S68,166.6,84.93,166.6H68.61A3.26,3.26,0,0,0,65.34,169.87Z"/><path class="cls-13" d="M124.75,242.37a1,1,0,0,1-1-1v-5.68a1,1,0,1,1,2,0v5.68A1,1,0,0,1,124.75,242.37Z"/><path class="cls-14" d="M210.33,247.5H150.62a3.17,3.17,0,0,1-3.28-3V157.42a3.17,3.17,0,0,1,3.28-3h59.71a3.16,3.16,0,0,1,3.27,3v87.05A3.16,3.16,0,0,1,210.33,247.5Z"/><path class="cls-15" d="M150.62,247.5h59.71a3.26,3.26,0,0,0,3.27-3.27V204.82c-13,43-66.26,33-66.26,33v6.46A3.27,3.27,0,0,0,150.62,247.5Z"/><path class="cls-15" d="M147.34,157.66v13.41s2.65-16.69,19.6-16.69H150.62A3.28,3.28,0,0,0,147.34,157.66Z"/><path class="cls-13" d="M206.75,242.37a1,1,0,0,1-1-1v-5.68a1,1,0,1,1,2,0v5.68A1,1,0,0,1,206.75,242.37Z"/><path class="cls-6" d="M292.33,247.5H232.62a3.16,3.16,0,0,1-3.28-3v-107a3.16,3.16,0,0,1,3.28-3h59.71a3.16,3.16,0,0,1,3.28,3v107A3.16,3.16,0,0,1,292.33,247.5Z"/><path class="cls-12" d="M232.62,247.5h59.71a3.27,3.27,0,0,0,3.28-3.27V204.82c-13,43-66.27,33-66.27,33v6.46A3.27,3.27,0,0,0,232.62,247.5Z"/><path class="cls-12" d="M229.47,137.74v13.41s2.65-16.68,19.6-16.68H232.75A3.27,3.27,0,0,0,229.47,137.74Z"/><path class="cls-13" d="M288.75,242.37a1,1,0,0,1-1-1v-5.68a1,1,0,1,1,2,0v5.68A1,1,0,0,1,288.75,242.37Z"/><path class="cls-16" d="M109.89,84.71c-1.19,2.69-3.15,4.08-3.37,5.42h0c-.13.94-.56,3.43-1.47,3.13-1.16-.38-.22-1.77-.22-1.77A10.16,10.16,0,0,0,103,94.07c-.46,1.08-1.78,2-1.94-.23a5.69,5.69,0,0,1,2.82-4.71h0c1.84-.89,2.86-3.49,3.75-6.37Z"/><path class="cls-5" d="M118.27,44.77c-1.74,3.78-7.13,29.22-12.08,38.52a1.88,1.88,0,0,0-.16,1.59,2.26,2.26,0,0,0,.11.22.16.16,0,0,0,0,.06A3.5,3.5,0,0,0,109,87.3c2.27,0,10.36-21.79,11-26.5Z"/><path class="cls-16" d="M131.58,33.35c-.68-5.62-2.05-10-3.83-12.2,0,0-6-3.32-9.47.9-2.82,3.46-.9,13.07-.07,17.91a1.16,1.16,0,0,1,.13.22c1,2.09.09,4.11-.52,5.87a1.18,1.18,0,0,0,.37.68c6.38,5.76,10.65,2.25,10.65,2.25-1.64-1.1-3.42-5.76-3.29-8.22C125.55,40.76,132.27,39,131.58,33.35Z"/><path class="cls-5" d="M136.52,79.28c-3-5.76-2.24-14.54-1.12-19.33s-4.91-9.87-6.56-11h0l-.55,0c-3.61-.47-8.51-4.91-9.58-5.93a8.66,8.66,0,0,1-.3,1.34c-1.79,4.49-2.88,11-3.59,17.18-.94,8,3.64,16.66,2.6,27.64h15.67l4.77-7.92A14.23,14.23,0,0,1,136.52,79.28Z"/><path class="cls-16" d="M155.85,104.07s3.93,4.54,3.78,8.17-3,25-3.56,36.4c0,0-2.43,2.32-4.69.35a42.14,42.14,0,0,0,.23-8.15c-.25-3.26-.65-24.37-2.7-31.94C147.45,103.49,155.85,104.07,155.85,104.07Z"/><path class="cls-17" d="M156.45,143q.12-1.46.27-3a7.23,7.23,0,0,0-.62-.4l-3,.21-1.46,1v0c.06.73.09,1.45.1,2.14A10.86,10.86,0,0,0,156.45,143Z"/><path class="cls-16" d="M119,161.19s5.33-19.5,7.06-48.57l-8.39,2.13s-.2,36.29-3.36,46.79l.64,1.87,2.84-.59Z"/><path class="cls-17" d="M120.3,155.68c.24-1.08.5-2.31.77-3.69H117l-1.2,1.48c-.06.51-.12,1-.19,1.5A25.25,25.25,0,0,0,120.3,155.68Z"/><path class="cls-16" d="M150.37,83.89s3.86-.11,3.65,1-1.54.09-1.54.09a13.69,13.69,0,0,0,2.58,1c1.14.32,2.28,2.31.07,2.77s-5.07-1.48-5.39-2.86A2.07,2.07,0,0,1,150.37,83.89Z"/><line class="cls-18" x1="134.82" y1="94.05" x2="137.85" y2="81.25"/><path class="cls-19" d="M125.75,42.81a11,11,0,0,0-2.42-2.1,8.23,8.23,0,0,0,2.22,0A8.73,8.73,0,0,0,125.75,42.81Z"/><path class="cls-6" d="M162.07,138.41c-.33-4.72-1.06-15.72-1.07-20.81,0-3.83,0-6.57,0-6.57,0-4.43-17.79-23-23.14-29.78a39,39,0,0,1-20.46,7.61c-.26,3.58-.8,11-1.46,19.58-1,13.4-5.21,35.44-6.53,42.12h0a2,2,0,0,0,1.46,2.53,31.6,31.6,0,0,0,14.27.55c.78-.21,1.4-.65,1.42-2h0c.08-6,.49-26.88,2.54-38.38.12-.65.27-1.38.43-2.18h0c1.06-5.28,2.73-13.16,3.56-14.82,2.06,3.2,13.91,14.53,15.66,17.48.81,1.36.87,7.26.71,13.22a80,80,0,0,1-1.65,11.79h0v0c0,.14-.06.27-.08.39a1.78,1.78,0,0,0,1.29,2.31c2,.68,5.68,1.34,11.35-.21C161.41,140.9,162.23,140.65,162.07,138.41Z"/><path class="cls-5" d="M123.17,162.88c-2.22.06-4.42-.76-4.18-1.69-2.79,1.68-4.69.35-4.69.35h0c-.66,2.51-1.56,5.63,1.18,5.37H124c1.88,0,3.53,0,3.53-1.4C127.5,163.58,125.56,162.82,123.17,162.88Z"/><path class="cls-5" d="M160.25,150.33c-2.22.06-4.21-.66-4.18-1.69-2.8,1.68-4.69.35-4.69.35h0c-.66,2.51-1.57,5.63,1.18,5.38h8.49c1.87,0,3.52,0,3.52-1.41C164.57,151,162.64,150.27,160.25,150.33Z"/><path class="cls-9" d="M134.5,71.41,131.07,63l-3.77-2.31-4.66,1.39c.26,2,.38,6.5,13.88,17.23A20.64,20.64,0,0,1,134.5,71.41Z"/><path class="cls-16" d="M150.28,87c-1.21-1.51-3.45-1.92-5.77-3.74S128.7,71,126.27,66l3.59-6.1s7,12.88,10.75,15.76,7.18,8.13,10.95,8.29L152,85.2Z"/><path class="cls-9" d="M134.71,63.91c-3.74-6.95-4.86-7.33-6.27-7.73l-.8,1.08,4.83,9.63a19.06,19.06,0,0,0,1.94,1.43A40.58,40.58,0,0,1,134.71,63.91Z"/><polygon class="cls-20" points="149.01 114.4 149.01 114.4 149.01 114.4 149.01 114.4"/><path class="cls-20" d="M130.18,91.21a23.71,23.71,0,0,0,1.7,3.16c-.62,2.43-4.47,18-4.1,29.54.33-3.92.76-7.64,1.31-10.7.12-.65.27-1.38.43-2.18h0c1.06-5.28,2.73-13.16,3.56-14.82l.2.28a.76.76,0,0,0,.08.11l.16.21a.76.76,0,0,0,.11.14l.16.21.13.17.18.21.36.43a.52.52,0,0,0,.1.11c.08.11.18.21.27.32l.09.1.31.35h0c4,4.49,11.63,12,13.36,14.61C145.74,108.24,130.18,91.21,130.18,91.21Z"/><path class="cls-9" d="M115.49,61.53c.71-6.16,1.8-12.69,3.59-17.18.07-.26.14-.53.2-.8L118.7,43a8.66,8.66,0,0,1-.3,1.34c-1.79,4.49-2.88,11-3.59,17.18-.94,8,3.64,16.66,2.6,27.64h.68C119.13,78.19,114.55,69.56,115.49,61.53Z"/><path class="cls-21" d="M137.85,81.25a39,39,0,0,1-20.46,7.61c0,.47-.07,1-.12,1.59h0s8.77,1.15,22-7.46C138.74,82.35,138.26,81.76,137.85,81.25Z"/><path class="cls-5" d="M148,82.18v-.35a1.38,1.38,0,0,0-.76-1.06h0c-8-5.69-14.37-20.2-17.31-23.55,0,0-2.36-3-5.83,0-3.85,3.28.68,9.53.68,9.53,2.63,4,19.61,19.82,21.64,18.81,1.33-.67,1.57-2.29,1.58-3.35Z"/><path class="cls-9" d="M146.37,85.55c1.33-.67,1.57-2.29,1.58-3.35v-.37a1.34,1.34,0,0,0-.72-1,6.33,6.33,0,0,1-1.77,4.63A1.24,1.24,0,0,0,146.37,85.55Z"/><path class="cls-9" d="M106.18,83.31a1.85,1.85,0,0,0-.15,1.57,2.26,2.26,0,0,0,.11.22.16.16,0,0,0,0,.06A3.5,3.5,0,0,0,109,87.3c.21,0,.48-.19.78-.54A7.33,7.33,0,0,1,106.18,83.31Z"/><path class="cls-20" d="M112.36,134.51h0c-1.2,7-2.37,13.06-3,16.05h0a2,2,0,0,0,1.46,2.53c.74.19,1.69.41,2.78.6C110.1,148,112.37,136.2,112.36,134.51Z"/><polygon class="cls-20" points="149.46 126.19 149.46 126.19 149.46 126.19 149.46 126.19"/><path class="cls-20" d="M149,141.42a12.87,12.87,0,0,0,2.43.57c-2-3.93-2.06-12.11-2-14.94a80.16,80.16,0,0,1-1.64,11.65h0v0c0,.14-.06.27-.08.39A1.78,1.78,0,0,0,149,141.42Z"/><path class="cls-9" d="M119.79,162.23c-.57-.29-.9-.66-.8-1-2.79,1.68-4.69.35-4.69.35h0c-.12.46-.25.94-.36,1.41A7.6,7.6,0,0,0,119.79,162.23Z"/><path class="cls-9" d="M157,149.74c-.57-.28-.92-.66-.91-1.1-2.8,1.68-4.69.35-4.69.35h0c-.13.47-.26,1-.37,1.45A8.87,8.87,0,0,0,157,149.74Z"/><path class="cls-9" d="M127.3,166.21a1.23,1.23,0,0,0,.2-.7c0-1.93-1.94-2.69-4.33-2.63C123.17,162.88,127.3,164.18,127.3,166.21Z"/><path class="cls-9" d="M160.66,150.33c1,.53,3,1.76,3.7,3.35a1.16,1.16,0,0,0,.21-.72C164.57,151.14,162.85,150.36,160.66,150.33Z"/><path class="cls-9" d="M150.72,152c-.15,1.43.18,2.51,1.84,2.36C152.62,153.19,150.73,152,150.72,152Z"/><path class="cls-9" d="M115.48,166.91a3.47,3.47,0,0,0-1.81-2.57C113.47,165.88,113.74,167.08,115.48,166.91Z"/><path class="cls-9" d="M131,50.7A17.39,17.39,0,0,0,128.84,49h0l-.55,0c-3.61-.47-8.51-4.91-9.58-5.93a8.66,8.66,0,0,1-.3,1.34c-.14.33-.26.68-.39,1C119.78,46.89,124.8,50.63,131,50.7Z"/><path d="M115.72,21.34c-4.79,5.26-2.79,16.33-2,19a5.94,5.94,0,0,0,6.66,4.41,2.35,2.35,0,0,0,.9-.23.85.85,0,0,0,.29-.14c3.13-1.56,1.67-4.21.35-6.79h0a19.1,19.1,0,0,1-1-2.09c-1.16-3.21.39-4.48.39-4.48s9-2.51,8.89-7.52S120.52,16.08,115.72,21.34Z"/></g></g></svg>