<svg xmlns="http://www.w3.org/2000/svg" viewBox="0 0 926.46 678.74"><defs><style>.cls-1{fill:#a8d29f;}.cls-2{fill:#4a75cb;}.cls-3{fill:#699dee;}.cls-4{fill:#d86713;}.cls-5{fill:#f1a34f;}.cls-6{fill:#c95c12;}.cls-7{fill:#82b378;}.cls-8{fill:#ffb973;}.cls-9{fill:#ed975d;}.cls-10{fill:#2b478b;}.cls-11{fill:#233862;}.cls-12{fill:#1e3d70;}.cls-13{fill:#ffb27d;}.cls-14{fill:#2c3a64;}.cls-15{fill:#4a82d3;}.cls-16{fill:#a9453d;}.cls-17{fill:#ee9849;}.cls-18{fill:#e58638;}.cls-19{fill:#2a4e96;}.cls-20{fill:#35488b;}.cls-21{fill:#2e3552;}.cls-22{fill:#4271bc;}</style></defs><g id="Layer_2" data-name="Layer 2"><g id="_Layer_" data-name="&lt;Layer&gt;"><path class="cls-1" d="M852.32,640.1C843,630.4,824.06,637,810.05,644a90,90,0,0,0-7.7-12.76c30.18-27.78,71.85-87,49.76-92-19.2-4.36-45.11,49-59,81.43-14.38-13.83-36.42-24-70.06-20.47-87.32,9.15-155.53-71.34-205.81-44.49-40,21.34-76.61,33.3-111.95,29.21C406.86,548,407.19,475.52,386.92,468c-20.58-7.62-.4,74.63,10.82,115.7q-3.94-.72-7.88-1.72c-7.26-20.47-19.23-47.26-32.37-48.18-12.38-.86,2.89,23.22,17.93,43.63-43.21-13-94.47,37.23-95.32,96.58H819.55a94,94,0,0,0-5.19-20.08C835.21,653.34,862.41,650.64,852.32,640.1Z"/><rect class="cls-2" x="255.6" y="628.14" width="142.18" height="45.88"/><rect class="cls-3" x="211.76" y="628.14" width="142.18" height="45.88"/><rect class="cls-4" x="453.71" y="462.53" width="105.87" height="211.48" transform="translate(1013.28 1136.55) rotate(180)"/><rect class="cls-5" x="421.06" y="462.53" width="105.87" height="211.48" transform="translate(947.99 1136.55) rotate(180)"/><polygon class="cls-6" points="526.93 462.54 559.57 494.29 559.57 462.54 526.93 462.54"/><path class="cls-7" d="M200.13,509.38s-19.8,21-23.66,19.76,14.47-22.71,14.47-22.71c-6.9-4.74-28.34-1.77-28.34-1.77s-7.14,32.92-10.67,30.32,7.37-28.68,7.37-28.68c-7.68-.66-17.11,7.49-17.11,7.49-12.9,14.56.85,37.48.85,37.48a61.84,61.84,0,0,1-10.79,21.65s-11.64,12.29-12.44,34.26l2.11.27s3.35-20.46,9.43-30.14c.23-.35.58-.85,1-1.46,1-1.31,1.69-2.3,2.15-3,3-4.16,7.22-9.46,9.23-10a7.74,7.74,0,0,1-.08-1.45c0,.47,0,.94.08,1.45.69,11.59,16.42,21.7,26.09,23.78s6.68-3.6,3.35-12-13.88-12.19-16.29-16.07,2.57-3.89,8.4-.09,6.63,13.95,16,20.35S204.68,563,204.68,563c-7.45-.54-18.1-12.1-17.71-15.64s18.06,6.1,21.09,6.57S218,549,219,531.63,200.13,509.38,200.13,509.38Z"/><path class="cls-1" d="M95,522.44s21.87-17.5,11.66-41.25c0,0-8.16-14.58-16.91-18.33,0,0,4.66,35.42,0,36.25s-3.21-40-3.21-40-23-15.84-32.07-14.59c0,0,14.29,34.59,9.62,33.75s-20.7-35.83-20.7-35.83S19.75,436.19,16,456.19s2.34,30,5.83,31.25,26,.83,25.37,5S31.42,503.28,23,499.53c0,0,9.33,32.91,21.58,31.25s16-12.5,23.61-13.34,13.12,2.09,9.33,5-16.62,1-22.74,8.4-11.08,12,.29,15.35,31.78,1.25,35.87-11.25Z"/><path class="cls-7" d="M100.81,552.86A90.51,90.51,0,0,1,95,522.44c-7-31.67-68.23-60-68.23-60,77.85,45,64.15,72.5,64.15,72.5,2.09,1.75,5.24,10.09,7.42,16.49.31,1.09.81,2.6,1.54,4.64h0c.29.93.53,1.68.69,2.21,4,14.34,1.89,39.09,1.89,39.09l2.43.93A78.79,78.79,0,0,0,100.81,552.86Z"/><path class="cls-1" d="M129.77,498.31s-28.83-23.07-15.38-54.38c0,0,10.77-19.22,22.3-24.17,0,0-6.15,46.69,0,47.79s4.22-52.73,4.22-52.73,30.37-20.87,42.28-19.23c0,0-18.83,45.59-12.68,44.49s27.29-47.23,27.29-47.23,31.13-8.24,36.12,18.12-3.07,39.55-7.68,41.2-34.21,1.1-33.44,6.59,20.75,14.28,31.9,9.34c0,0-12.3,43.39-28.44,41.19s-21.14-16.48-31.13-17.57-17.3,2.74-12.3,6.59,21.91,1.26,30,11.06,14.6,15.85-.39,20.25-41.89,1.64-47.27-14.83Z"/><path class="cls-7" d="M219.7,419.21s-80.71,37.35-89.93,79.1a119.28,119.28,0,0,1-7.69,40.09s-12.45,27-5.35,59.9l3.2-1.23s-2.8-32.63,2.49-51.52c.21-.7.52-1.69.92-2.91h0c1-2.7,1.61-4.69,2-6.12,2.88-8.44,7-19.43,9.79-21.73C135.15,514.79,117.08,478.53,219.7,419.21Z"/><path class="cls-5" d="M128.8,669.6c31.18,0,56.46-36.12,56.46-80.69H72.33C72.33,633.48,97.61,669.6,128.8,669.6Z"/><path class="cls-8" d="M142.69,669a39.92,39.92,0,0,1-7,.61c-31.18,0-56.46-36.13-56.46-80.69h14C93.24,630.08,114.82,664.05,142.69,669Z"/><path class="cls-5" d="M179.07,664.06H78.52c-3.85,0-7,4.45-7,10H186C186,668.51,182.92,664.06,179.07,664.06Z"/><path class="cls-4" d="M185.68,588.91H71.34c-.48,0-.87.55-.87,1.24s.39,1.23.87,1.23H185.68c.48,0,.86-.55.86-1.23S186.16,588.91,185.68,588.91Z"/><path class="cls-9" d="M621.39,164c-1.64-.36-6.57,6.16-6.57,6.16h0c-10.53,1.74-25.93,5.73-31.47,7.26-3.93,1.08-14.49-4.07-24.82-10-12.27-7-24.2-15.15-24.2-15.15-6.81-.49-14.55,17.27-.73,28.56,2.11,1.72,10,4.67,19.15,7.35h0c12.59,3.71,27.46,6.92,32.52,5.79,5.88-1.31,22.52-10,32.42-16.67h0l0,0,.11-.08c.59-.39,3-1.93,4.63-1.8,1.85.16,6-4.69,6.11-6S623,164.33,621.39,164Z"/><path class="cls-10" d="M608.53,387.72l-5.8,1.68s-26.53-42.61-30.62-60.54c-2.2-9.58-16.2-13.72-30.84-19.13-12.75-4.7-26-10.38-32.28-21.45-13.57-23.78,8.52-53,8.52-53s23.49,20,43.76,40.57c14.16,14.4,26.75,29.13,28.65,37.6C594.53,334,604.3,373.15,608.53,387.72Z"/><path class="cls-11" d="M600.77,401.77H604c1.1-.24,1.9-.7,3-.9a2.47,2.47,0,0,1,2.64.9l0,.05h13.86c.35-.71,0-2.36-.32-3.57a2.46,2.46,0,0,0-1.29-1.7c-1.47-.61-4.37-1.15-7-4.58a99,99,0,0,0-7.21-7.08h0c-.12,0-.72.26-3.32,3.4-1.34,1.62-3.63-2.29-3.63-2.29a4.82,4.82,0,0,0-.75,1.46,6.75,6.75,0,0,0-.3,3c.21,1.78-.46,5.1-1,7.34-.33,1.36-.6,2.32-.6,2.32S598,401.27,600.77,401.77Z"/><path class="cls-12" d="M561.27,275.85l-20,33.88c-12.75-4.7-26-10.38-32.28-21.45-13.57-23.78,8.52-53,8.52-53S541,255.24,561.27,275.85Z"/><path class="cls-10" d="M543.09,258.15s-1.61,7.27-4.24,18.2c-3.32,13.83-8.26,33.51-13.62,51.77-1.18,4-2.38,7.95-3.59,11.75-4.46,14-9,26.09-13,32.21-7.23,11-24.79,81.72-24.79,81.72l-4.37-1.73s-6.1-60.39,15.51-94.76a2.68,2.68,0,0,0,.44-1.28h0c.29-5.09,1.31-27.87,3.55-50.95.55-5.67,1.17-11.34,1.88-16.78,0-.35.09-.7.13-1,3.29-25.16,6.43-36.35,10.5-42l29.87,12.15Z"/><path class="cls-11" d="M479,462.49h3.26c1.1-.25,1.9-.7,3-.91a2.47,2.47,0,0,1,2.64.91l0,.05h13.86c.35-.72,0-2.36-.32-3.58a2.46,2.46,0,0,0-1.29-1.69c-1.47-.61-4.37-1.15-7-4.58a99.61,99.61,0,0,0-7.21-7.09h0c-.12,0-.72.27-3.32,3.4-1.34,1.62-3.63-2.28-3.63-2.28a4.83,4.83,0,0,0-.75,1.45,6.79,6.79,0,0,0-.3,3c.21,1.79-.46,5.1-1,7.35-.33,1.35-.6,2.32-.6,2.32S476.15,462,479,462.49Z"/><path class="cls-13" d="M485.36,176s-5,17.47-10.76,34.48c-4.85,14.31-10.24,28.28-13.65,31.26-4.82,4.21-18.09,16.07-26.69,24.91,0,0-6.72-.07-7.76,1.77s-3.45,10.09-2.75,10.93,6,.44,7.34-1.46a11.22,11.22,0,0,1,4.28-3.12l.11-.05,0,0h0c10.46-4.59,26.86-14.17,31.83-18.86,4.27-4,13.75-20.72,21.31-35.57h0c5.48-10.76,10-20.56,10.7-23.86C504.25,174.79,490.16,169.1,485.36,176Z"/><path class="cls-14" d="M511.5,107.48a35.34,35.34,0,0,0-1.79-3.3,4.18,4.18,0,0,0,2.21-.48c1.75-1,2.55-9,2.29-11.36s-2.7-9.19-5.71-9.87-6.11,4.09-6.11,4.09c.56-3.44,5.64-5.43,5.64-5.43-10.47,2.76-9.94,12.75-9.87,13.67C488.57,89.92,483,115.72,483,115.72l24.83,20.92s.07-5.7,2.44-5.33C513.91,131.88,517,118.91,511.5,107.48Z"/><path class="cls-13" d="M513.08,161.63c-5.69,3.84-13.26-1.69-13.22-1.75.49-.7.32-2.79-.13-5.52A50.22,50.22,0,0,0,496.27,143c-.4-1-.81-2-1.3-3l.65-.35,11.07-6.34s1.8,4.59,3.67,8.78c1.58,3.49,3.25,6.63,4,6.52C514.39,148.48,521.71,155.69,513.08,161.63Z"/><path class="cls-9" d="M506.69,134.81c-.28,5.64-1.62,15.82-7,19.55A50.22,50.22,0,0,0,496.27,143Z"/><path class="cls-13" d="M495.62,149.38s14.42-8.12,10.74-20.88-4.29-22.38-13.65-17.74S483,121.32,483.48,126,491.78,151.16,495.62,149.38Z"/><path class="cls-14" d="M501,125.6c6.66-1.35,8.6-5.19,8.6-5.19s-6.13-2.51-9.73-11.09c0,0-7.48-3.61-13,2.42a6.72,6.72,0,0,0-.7,2.23c-1.27-.59-3.18-.44-4.28,4.69-1.66,7.71,4.23,16.13,4.23,16.13,1.43-.57-.18-7.45-.4-11.11a23.25,23.25,0,0,1,1.4-7.79c.7,1.3,7.73,13.92,16.3,14.42a34.17,34.17,0,0,1-8.65-6.64C496.79,125.11,499,126,501,125.6Z"/><path class="cls-3" d="M540.53,187.9c-.12-.62-.25-1.25-.39-1.91a64,64,0,0,0,3.64-15.58c1-9.42-.69-15.24-.69-15.24s-10-7.58-14.42-8.54l0,0-.18,0c-4.46-.88-14.11,1.94-14.11,1.94s1.87,7.08-3.39,11.8-10.85-1.21-10.85-1.21l-.54.53h0s-13.82,13-15.06,16-6.55,17.72-6.55,17.72,1.69,12.38,20.35,13.41a82.85,82.85,0,0,1,3.09,14.83c1.48,16.8-.24,30.05,1.49,39.86s32.87,4.21,38.51,2.32,4.37-10.49,4.8-18.85C546.73,234.43,542.37,197.17,540.53,187.9Z"/><path class="cls-15" d="M543.78,170.41a63.75,63.75,0,0,1-3.67,15.65c-.49-3.08-2.48-14.37-5.7-19.49A21.5,21.5,0,0,1,543.78,170.41Z"/><path class="cls-9" d="M417,280.5s5.8-10,7-11.23,6.73-3.27,7-2.85.33,1-.35,1.88-3.27,3-2.9,3.26,8.19-5.32,9.32-3.44-.64,9.59-3.65,13.29-12,5.28-12.57,5.8C416.12,291.59,417,280.5,417,280.5Z"/><path class="cls-13" d="M314.84,257.3s8.33,14.13,19,8.22c0,0,2.28-7.89,2.31-13.71,0-.71,0-1.41,0-2.07.06-6.55.21-10.22.21-10.22h0c-.48-.28-16.22-9.52-16.21-8.75C320.38,248.47,314.84,257.3,314.84,257.3Z"/><path class="cls-9" d="M321.69,235c1.52,4,6.73,11.89,14.43,14.76.06-6.55.21-10.22.21-10.22h0C335.88,239.35,321.24,233.8,321.69,235Z"/><path class="cls-13" d="M339.63,238.83s-17.71,5.95-20.13-9.86-6.34-25.7,4.86-30.16,14.33.88,16,5.87S344.17,236.88,339.63,238.83Z"/><path class="cls-16" d="M320.11,233.28c-.24.22-4.05,1.89-11.27-18.65a24.82,24.82,0,0,1,.74-16.36c2.64-6.16,12-11,19.78-13.12s9.64,4.15,11.47,10.43c1.92,6.6,7.48,12,7.48,12-6.71,5.36-14.79-2.3-17.59-1s-3.78,7.56-4,9.58-.54,3.7-4.05,1.9-1.6,7.12-1,8.83C321.65,226.88,322.13,231.43,320.11,233.28Z"/><path class="cls-14" d="M274.5,628.14H263.78c-2.25,0-4.74-3.26-5.37-9.23s-5.24-9.22-6.24-14.1,4.12-11.76,4.12-11.76l.86-1.6.89-1.66,8.49,2.89s.21,2.93.34,6.66c.09,2.7.14,5.81,0,8.54-.25,6.51,1.26,13.52,5.26,14.79S274.5,628.14,274.5,628.14Z"/><path class="cls-14" d="M349.13,628.29H320.71a2.17,2.17,0,0,1-.6-.26c-1.9-1.4-1.3-12.09-1.07-15.39,0-.61.07-1,.07-1s10-11.76,11.37-2.75c0,.28.09.55.14.83h0c1.74,8.42,9.49,12.25,14,13.32A6,6,0,0,1,349.13,628.29Z"/><path class="cls-17" d="M343.4,393.45s-1.52,27.05-3.3,59.58c-2.42,44.18-5.34,98.45-5.63,108.73-.49,17.86-2.5,46.42-2.5,46.42s-4.74,6.78-14.23,3.92c0,0-8.46-40.77-10.88-83.9,0-.71-.08-1.42-.11-2.13C304.5,482.16,301,389.7,301,389.7Z"/><path class="cls-18" d="M343.4,393.45s-1.52,27.05-3.3,59.58L306.86,528.2c0-.71-.08-1.42-.11-2.13C304.5,482.16,301,389.7,301,389.7Z"/><path class="cls-17" d="M336.47,396.66s-27.35,98-45.34,144-23.6,58.91-23.6,58.91-10.31-5.89-11.24-9.91c0,0,6.88-88.9,18.92-110.58,6.81-12.24,14.8-49,15.18-61.85S292.82,379,292.82,379Z"/><path class="cls-9" d="M273.85,380.34s-.71,12.24-1.23,14.12-4,7.7-4.38,7.62-.64-.54-.44-1.73,1.4-4.85,1-4.76-4.33,10.42-5.91,9.84-3.12-7.92-2.18-13.1,7.3-13.32,7.55-14.16C270.34,371.09,273.85,380.34,273.85,380.34Z"/><path class="cls-12" d="M270.91,383.44c3,1.39,3.51,1.08,3.51,1.08s14.74-38.34,16.23-41.85,31.29-43,31.29-43l-7.66-40.8s-33.89,62.71-37.54,71.71c-6.05,14.87-9.59,49.41-9.59,49.41A9.52,9.52,0,0,0,270.91,383.44Z"/><path class="cls-19" d="M349.18,315.69c-.11,8.38-.45,17.8-.91,27.37,0,.57-.06,1.13-.08,1.7-.3,5.93-.62,11.87-1,17.66q-.22,3.49-.47,6.88l0,.3c0,.84-.09,1.76-.15,2.6-1.5,21.69-3.06,38.84-3.35,39.1a1.36,1.36,0,0,1-1.17.43c-4-.72-15.86.57-25.59-2.45-8.2-2.48-15.27-7.17-22.76-13.49-1-.84-3.26-3.07-3.07-4.73.18-1.82.51-4.46.94-7.78,1.47-11.54,4-31.4,4.89-54.63.17-4.33.41-8.61.73-12.81a269.94,269.94,0,0,1,4-30.58c3.33-17.16,8.23-30.3,14.38-35.44.8-.65,5.13,3.28,9.1,6.92a13.55,13.55,0,0,0,11.28,3.82l3.3,5.22a63.84,63.84,0,0,1,9.42,28.08c.09.92.16,1.91.23,3C349.19,301.94,349.27,308.43,349.18,315.69Z"/><path class="cls-12" d="M349.18,315.69c-.11,8.38-.45,17.8-.91,27.37,0,.57-.06,1.13-.08,1.7-22.75-20.34-26.25-57.57-26.25-57.57,11.19.7,20.08,4.37,26.93,9.63C349.19,301.94,349.27,308.43,349.18,315.69Z"/><path class="cls-19" d="M420.43,281.51c-1.17-4.53-3-4.24-3-4.24s-33.82,12.05-36.85,12.56-36.42-18.63-36.42-18.63-13.14-8.42-19.29-.73c-5.35,6.69-5.59,15.16-4.34,22.27,1.49,8.48,6.51,14.74,12.58,15.85,13.61,2.47,40.78,7.14,46.48,6,12.67-2.52,41.39-26.22,41.39-26.22A21.47,21.47,0,0,0,420.43,281.51Z"/><g id="man"><path class="cls-14" d="M753.88,370.09s4.7,6.22,3.78,10.64-5.15,7.37-5.73,12.78-2.86,8.35-4.92,8.35h-9.84s-1.52-3.8,2.15-4.95,5-7.5,4.82-13.39.34-13.76.34-13.76l7.8-2.62Z"/><path class="cls-14" d="M695.33,401.12c-.48.35-2.16.58-4.45.74H668.64a5.5,5.5,0,0,1,4.23-5.15c4.11-1,11.22-4.37,12.81-11.88.05-.24.1-.49.14-.74,1.26-8,10.42,2.46,10.42,2.46s0,.32.07.87C696.52,390.37,697.06,399.88,695.33,401.12Z"/><path class="cls-20" d="M674,186.5s1.39,24.82,3,54.66c2.22,40.54,4.89,90.33,5.16,99.76.46,16.38,2.29,42.58,2.29,42.58s4.35,6.23,13.06,3.6a592.86,592.86,0,0,0,10-77c0-.65.07-1.3.11-2,2.06-40.28,5.27-125.11,5.27-125.11Z"/><path class="cls-14" d="M674,186.5s1.39,24.82,3,54.66l30.49,69c0-.65.07-1.3.11-2,2.06-40.28,5.27-125.11,5.27-125.11Z"/><path class="cls-20" d="M680.32,189.45s25.09,89.9,41.59,132.15,21.66,54,21.66,54,9.45-5.4,10.31-9.09c0,0-6.31-81.56-17.36-101.45-6.24-11.23-13.58-45-13.92-56.74s-2.24-35.13-2.24-35.13Z"/><path class="cls-13" d="M602.91,140.68s-6.8-2.22-7.95-2.11-5.15,2.51-5.21,3,.14.85.83.91,3-.35,2.83.05-6.71,2.23-6.78,4.12,3.52,5.4,6.56,5.64,9-4.81,9.53-4.88C607.06,146.84,602.91,140.68,602.91,140.68Z"/><path class="cls-18" d="M600,143.15c-1-4.44-.75-5.15-.75-5.15s27.59-21.32,30.12-23.48,31-45.53,31-45.53l29.21,11.49s-45.2,49.2-51.68,54.5c-10.7,8.76-35.49,13.71-35.49,13.71A14.06,14.06,0,0,1,600,143.15Z"/><path class="cls-13" d="M669.26,47.91S659,73.65,649,77c0,0,.42-8.65,2.86-14.57-1-1.68-1.88-3.23-2.64-4.61-2.52-4.61-3.71-7.44-3.71-7.44l3.39-13,2.31-8.85a45.76,45.76,0,0,0,3.6,7.41C661.38,46.69,669.26,47.91,669.26,47.91Z"/><path class="cls-9" d="M654.82,35.91s1.22,12.91-5.59,21.93c-2.52-4.61-3.71-7.44-3.71-7.44l3.39-13A14.26,14.26,0,0,1,654.82,35.91Z"/><path class="cls-13" d="M642.82,52.31s15.3-8.53,11.44-22.06S649.77,6.5,639.84,11.37,629.49,22.5,630,27.47,638.74,54.17,642.82,52.31Z"/><path class="cls-17" d="M721.85,180c-6.18,12.68-52.32,29.62-51.77,20.84a135.55,135.55,0,0,0,0-17.31q-.17-2.82-.49-6a182.09,182.09,0,0,0-10.16-43.53c-.47-1.28-.95-2.58-1.46-3.89a168.71,168.71,0,0,1-6.39-20.54c-3.2-13.21-4.49-25.84-2.88-34.1l0-.11c9.64-6.38,13.38-31.1,13.38-31.1s32.91,8.45,51.34,71.13C713.44,115.44,727.22,169,721.85,180Z"/><path class="cls-18" d="M670.07,183.56q-.17-2.82-.49-6a182.09,182.09,0,0,0-10.16-43.53c1.06-9.23,2.53-16.92,4.15-20.37C670.13,99.62,674,97.42,674,97.42S683.8,156.74,670.07,183.56Z"/><path class="cls-13" d="M618.2,169.45s-9.1.68-10.51,1.41-5.84,5.78-5.79,6.39.38,1,1.26.72,3.65-2,3.56-1.39-7.86,6.23-7.48,8.64,5.78,5,9.65,3.72S619,178.3,619.63,178C625,175.06,618.2,169.45,618.2,169.45Z"/><path class="cls-17" d="M616.49,174.38c-1.83-4.21-.51-6.13-.51-6.13s28.12-31.46,30.32-34.64,12.42-53.8,12.42-53.8,3.51-20.48,11.74-22.74c7.15-2,12.09,3.09,15.33,9,3.85,7.06,4.23,16.81,1,24.51-7.18,17.29-21.66,51.61-25.89,57.47C651.52,161.12,620,179.36,620,179.36A13.7,13.7,0,0,1,616.49,174.38Z"/><path class="cls-10" d="M656.45,5.11c.11-.3.42-.63,1.18-1a2.28,2.28,0,0,0-1.54-.08c-.43-1.5-1.47-4.05-3.43-4.07a2.87,2.87,0,0,1,1.54,2c-2.69-2.43-7.66-3.13-20.08,2.78-16.37,7.79-8.19,21.37-5.71,22.45s7.05-5.89,11.15-6.85,6.33,7.23,7.9,7.9.67-1.18,2.31-3,2.58,2.52,2.55,5.6,3.16,6,3.16,6l1.88-4.91c1.87-4.92,1.36-22.76-.43-26Z"/></g><rect class="cls-21" y="674.01" width="926.46" height="4.72" rx="2.36"/><polygon class="cls-22" points="397.77 627.62 397.77 654.09 353.93 627.62 397.77 627.62"/><rect class="cls-2" x="627.97" y="401.86" width="144.99" height="272.15"/><rect class="cls-3" x="583.27" y="401.86" width="144.99" height="272.15"/><polygon class="cls-22" points="772.96 401.86 772.96 442.56 728.26 401.86 772.96 401.86"/></g></g></svg>