<svg xmlns="http://www.w3.org/2000/svg" viewBox="0 0 340.74 304.88"><defs><style>.cls-1{isolation:isolate;}.cls-2{fill:#72b5e8;}.cls-3{fill:#a8cff0;}.cls-4{fill:#d1ebff;}.cls-5,.cls-7{mix-blend-mode:color-dodge;}.cls-10,.cls-13,.cls-6,.cls-7{fill:#fff;}.cls-8{fill:#eb4680;}.cls-9{fill:#d62d69;}.cls-10{opacity:0.7;}.cls-11{fill:#3f92d1;}.cls-12{fill:#4f9fdb;}.cls-13{mix-blend-mode:screen;}.cls-14{fill:#03336e;}.cls-15{fill:#001a46;}.cls-16{fill:#fc0;}.cls-17{fill:#0fbab8;}.cls-18{fill:#2672ab;}.cls-19{fill:#084c94;}.cls-20{fill:#0ba19f;}.cls-21{fill:#ffd70f;}.cls-22{fill:#d99f00;}.cls-23{fill:#b08100;}.cls-24{fill:#ffde17;}.cls-25{fill:#3ecfcd;}.cls-26{fill:#f76195;}.cls-27{fill:#92b4d1;opacity:0.2;}</style></defs><g class="cls-1"><g id="Layer_2" data-name="Layer 2"><g id="Layer_1-2" data-name="Layer 1"><path class="cls-2" d="M288.63,176.74c-7.67-4.43-13.89-15.15-13.89-24a11.12,11.12,0,0,1,2.34-7.47c-4.21.31-7.06,3.83-7.06,9.78,0,8.8,6.22,19.52,13.89,24,4.82,2.78,9,2.4,11.53-.44A12.13,12.13,0,0,1,288.63,176.74Z"/><path class="cls-3" d="M302.13,173.84a27.69,27.69,0,0,0-.24-3.37l5.61-.71a50.51,50.51,0,0,0-2.54-8.5l-6.4-1.93a43.53,43.53,0,0,0-4-6.87l1.53-6.45a50.89,50.89,0,0,0-6.12-6.46L286.55,144a27.75,27.75,0,0,0-2.82-1.89,21.16,21.16,0,0,0-2.81-1.36l-3.44-8.42a16.81,16.81,0,0,0-6.13-.62l1.53,8.22a8.83,8.83,0,0,0-4,2.27l-6.39-5.45a16.66,16.66,0,0,0-2.55,5.56l5.61,7.19a21.56,21.56,0,0,0-.23,3.09,27.79,27.79,0,0,0,.23,3.37l-5.61.71a50.56,50.56,0,0,0,2.55,8.5l6.39,1.93a45.63,45.63,0,0,0,4,6.87l-1.53,6.45a51,51,0,0,0,6.13,6.46l3.44-4.45a27.63,27.63,0,0,0,2.81,1.89,21.26,21.26,0,0,0,2.82,1.36L290,194.1a17,17,0,0,0,6.12.62l-1.53-8.22a8.73,8.73,0,0,0,4-2.27l6.4,5.45a16.75,16.75,0,0,0,2.54-5.56l-5.61-7.19A21.52,21.52,0,0,0,302.13,173.84Zm-18.22,5.21c-7.67-4.43-13.89-15.15-13.89-24s6.22-12.35,13.89-7.92,13.89,15.15,13.89,23.95S291.58,183.48,283.91,179.05Z"/><polygon class="cls-2" points="286.3 137.66 282.86 129.24 277.48 132.32 280.92 140.75 286.3 137.66"/><path class="cls-4" d="M280.92,140.75a21.16,21.16,0,0,1,2.81,1.36,27.75,27.75,0,0,1,2.82,1.89l3.44-4.45h0s-.58-.36-.88-.53a21.16,21.16,0,0,0-2.81-1.36Z"/><path class="cls-4" d="M282.85,129.24a17,17,0,0,0-6.12-.62l-5.38,3.09a16.81,16.81,0,0,1,6.13.62Z"/><path class="cls-4" d="M301.49,142.92a50.89,50.89,0,0,0-6.12-6.46L290,139.55a50.89,50.89,0,0,1,6.12,6.46Z"/><polygon class="cls-2" points="296.12 146.01 294.58 152.46 299.96 149.37 301.49 142.92 296.12 146.01"/><path class="cls-2" d="M294.58,152.46a43.53,43.53,0,0,1,4,6.87l5.38-3.09a44.32,44.32,0,0,0-4-6.87Z"/><polygon class="cls-4" points="298.56 159.33 304.96 161.26 310.34 158.17 303.94 156.24 298.56 159.33"/><path class="cls-2" d="M305,161.26a50.51,50.51,0,0,1,2.54,8.5l5.38-3.09a50.51,50.51,0,0,0-2.54-8.5Z"/><path class="cls-2" d="M272.88,139.93l-.44-2.39-4.56-3.88-5.37,3.09,6.39,5.45A8.83,8.83,0,0,1,272.88,139.93Z"/><path class="cls-2" d="M307.5,184.12a16.75,16.75,0,0,1-2.54,5.56l5.38-3.09a16.75,16.75,0,0,0,2.54-5.56Z"/><path class="cls-2" d="M307.27,173.84a21.52,21.52,0,0,0,.24-3.09c0-.33,0-.66,0-1l-5.58.71a27.69,27.69,0,0,1,.24,3.37,21.52,21.52,0,0,1-.24,3.09Z"/><polygon class="cls-4" points="301.89 176.93 307.5 184.12 312.88 181.03 307.27 173.84 301.89 176.93"/><path class="cls-2" d="M298.56,184.23a8.73,8.73,0,0,1-4,2.27l1.53,8.22,5.38-3.09-1.08-5.83Z"/><path class="cls-4" d="M265.37,153.49,260,156.67l5.61-.71C265.47,155.13,265.41,154.31,265.37,153.49Z"/><path class="cls-2" d="M280.92,182.43l-3.44,4.45,5.41-3.09C282.23,183.37,281.57,182.92,280.92,182.43Z"/><g class="cls-5"><path class="cls-6" d="M272.23,140.3l0-.08c-.25.1-.5.22-.74.34C271.72,140.47,272,140.37,272.23,140.3Z"/><path class="cls-6" d="M264.89,156.06l-4.66.59a2.61,2.61,0,0,1,.06.27l4.63-.59Z"/><path class="cls-6" d="M295.81,146.36l-1.53,6.45a44.79,44.79,0,0,1,4,6.87l6.4,1.93a51.22,51.22,0,0,1,2.48,8.23l.63-.11a50.41,50.41,0,0,0-2.54-8.49l-6.4-1.94a43.89,43.89,0,0,0-4-6.86l1.54-6.46a51.64,51.64,0,0,0-6.13-6.46l-.21.71A51.79,51.79,0,0,1,295.81,146.36Z"/><path class="cls-6" d="M284,178.94c-7.67-4.42-13.89-15.15-13.89-23.95,0-3.89,1.22-6.73,3.24-8.33-2.33,1.5-3.77,4.49-3.77,8.71,0,8.8,6.22,19.52,13.89,23.95,3.87,2.24,7.37,2.43,9.89,1a5.45,5.45,0,0,1-.58.14C290.35,181.28,287.29,180.87,284,178.94Z"/><path class="cls-6" d="M295.62,186.22a8.76,8.76,0,0,0,2.53-1.42l-.24-.2A9.08,9.08,0,0,1,295.62,186.22Z"/><path class="cls-6" d="M268.7,142.35c-.23,0,0-.19.24-.38l-6.16-5.24c-.18.24-.34.5,0,.53Z"/><path class="cls-7" d="M294.43,186.87l1.47,7.87c-.17,0,.16,0,.49,0l-1.52-8.14C294.56,186.67,294.25,186.78,294.43,186.87Z"/><path class="cls-6" d="M302.4,173.81a27.19,27.19,0,0,0-.21-3.09l-.56,0a27.83,27.83,0,0,1,.24,3.37,21.41,21.41,0,0,1-.24,3.09l5.61,7.19a17,17,0,0,1-2.05,4.8l0,.44a16.56,16.56,0,0,0,2.54-5.56l-5.61-7.19A21.41,21.41,0,0,0,302.4,173.81Z"/><path class="cls-6" d="M277.24,132.55l3.44,8.43a22.47,22.47,0,0,1,2.82,1.35,26.17,26.17,0,0,1,2.81,1.9l.11-.54a26.73,26.73,0,0,0-2.42-1.61,22.36,22.36,0,0,0-2.81-1.35l-3.44-8.43a17.25,17.25,0,0,0-6.13-.62l.07.36A20,20,0,0,1,277.24,132.55Z"/><path class="cls-6" d="M280.26,182.8l-2.88,3.72c.13.11.24.23.37.33l2.91-3.77Z"/></g><path class="cls-2" d="M286.64,110.7c-11.54-6.66-20.89-22.79-20.89-36,0-4.91,1.3-8.71,3.51-11.23-6.33.46-10.62,5.76-10.62,14.7,0,13.24,9.36,29.37,20.89,36,7.25,4.19,13.62,3.61,17.36-.66A18.17,18.17,0,0,1,286.64,110.7Z"/><path class="cls-3" d="M306.94,106.33a42,42,0,0,0-.36-5.07L315,100.2a76.38,76.38,0,0,0-3.82-12.79l-9.62-2.91a68.1,68.1,0,0,0-6-10.32l2.3-9.71a76.72,76.72,0,0,0-9.21-9.71l-5.18,6.69a41.79,41.79,0,0,0-4.23-2.85,32.52,32.52,0,0,0-4.24-2l-5.17-12.68a25.47,25.47,0,0,0-9.22-.93L263,55.33a13.18,13.18,0,0,0-6,3.41l-9.62-8.2a25.12,25.12,0,0,0-3.83,8.37L252,69.73a32.31,32.31,0,0,0-.35,4.65,41.79,41.79,0,0,0,.35,5.06l-8.44,1.07a76,76,0,0,0,3.83,12.78L257,96.2a67.72,67.72,0,0,0,6,10.33l-2.31,9.71a76.75,76.75,0,0,0,9.22,9.71l5.17-6.7a41.91,41.91,0,0,0,4.24,2.85,32.53,32.53,0,0,0,4.23,2l5.18,12.68a25.85,25.85,0,0,0,9.21.93l-2.3-12.37a13.29,13.29,0,0,0,6-3.42l9.62,8.2A25.05,25.05,0,0,0,315,121.8L306.58,111A32.38,32.38,0,0,0,306.94,106.33Zm-27.41,7.84c-11.53-6.66-20.89-22.79-20.89-36S268,59.57,279.53,66.23s20.89,22.79,20.89,36S291.07,120.83,279.53,114.17Z"/><polygon class="cls-2" points="283.13 51.92 277.95 39.24 269.86 43.89 275.03 56.57 283.13 51.92"/><path class="cls-4" d="M275,56.57a32.52,32.52,0,0,1,4.24,2,41.79,41.79,0,0,1,4.23,2.85l5.18-6.69h0L287.36,54a32.42,32.42,0,0,0-4.23-2Z"/><path class="cls-4" d="M278,39.24a25.7,25.7,0,0,0-9.22-.93L260.64,43a25.47,25.47,0,0,1,9.22.93Z"/><path class="cls-4" d="M306,59.82a77.5,77.5,0,0,0-9.22-9.71l-8.09,4.65a76.72,76.72,0,0,1,9.21,9.71Z"/><polygon class="cls-2" points="297.89 64.47 295.59 74.17 303.68 69.53 305.99 59.82 297.89 64.47"/><path class="cls-2" d="M295.59,74.18a68.1,68.1,0,0,1,6,10.32l8.09-4.64a67.72,67.72,0,0,0-6-10.33Z"/><polygon class="cls-4" points="301.58 84.5 311.2 87.41 319.29 82.77 309.67 79.86 301.58 84.5"/><path class="cls-2" d="M311.2,87.41A76.38,76.38,0,0,1,315,100.2l8.1-4.65a76,76,0,0,0-3.83-12.78Z"/><path class="cls-2" d="M263,55.33l-.67-3.6-6.85-5.83-8.09,4.64,9.62,8.2A13.18,13.18,0,0,1,263,55.33Z"/><path class="cls-2" d="M315,121.8a25.05,25.05,0,0,1-3.82,8.36l8.09-4.65a25.06,25.06,0,0,0,3.83-8.36Z"/><path class="cls-2" d="M314.67,106.33a30.9,30.9,0,0,0,.36-4.65c0-.49,0-1-.06-1.48l-8.39,1.06a42,42,0,0,1,.36,5.07,32.38,32.38,0,0,1-.36,4.65Z"/><polygon class="cls-4" points="306.58 110.98 315.02 121.8 323.12 117.15 314.67 106.33 306.58 110.98"/><path class="cls-2" d="M301.58,122a13.29,13.29,0,0,1-6,3.42l2.3,12.37,8.1-4.65-1.64-8.77Z"/><path class="cls-4" d="M251.65,75.73l-8.14,4.78L252,79.44C251.8,78.19,251.7,77,251.65,75.73Z"/><path class="cls-2" d="M275,119.25l-5.17,6.7,8.15-4.64C277,120.67,276,120,275,119.25Z"/><g class="cls-5"><path class="cls-6" d="M262,55.89l0-.13c-.39.15-.76.33-1.12.51A10.88,10.88,0,0,1,262,55.89Z"/><path class="cls-6" d="M250.93,79.58l-7,.89c0,.14.06.27.09.41l7-.88C251,79.86,250.94,79.72,250.93,79.58Z"/><path class="cls-6" d="M297.44,65l-2.3,9.71a67.66,67.66,0,0,1,6,10.33l9.62,2.91a76.15,76.15,0,0,1,3.74,12.38l.95-.16a76,76,0,0,0-3.83-12.78L302,84.47a67.66,67.66,0,0,0-6-10.33l2.3-9.71a76.72,76.72,0,0,0-9.21-9.71l-.32,1.06A78.42,78.42,0,0,1,297.44,65Z"/><path class="cls-6" d="M279.6,114c-11.53-6.66-20.88-22.79-20.88-36,0-5.84,1.83-10.13,4.87-12.53-3.51,2.26-5.67,6.76-5.67,13.1,0,13.24,9.35,29.37,20.89,36,5.83,3.36,11.09,3.66,14.88,1.43a8.48,8.48,0,0,1-.87.21C289.22,117.53,284.62,116.91,279.6,114Z"/><path class="cls-6" d="M297.14,125a13,13,0,0,0,3.81-2.14l-.36-.3A13.35,13.35,0,0,1,297.14,125Z"/><path class="cls-6" d="M256.65,59c-.35,0,0-.27.36-.56l-9.27-7.89c-.26.36-.5.76-.06.8Z"/><path class="cls-7" d="M295.36,125.93l2.21,11.84c-.26,0,.24,0,.73-.06L296,125.46C295.56,125.64,295.09,125.81,295.36,125.93Z"/><path class="cls-6" d="M307.34,106.29a41.1,41.1,0,0,0-.31-4.65l-.84.06a42,42,0,0,1,.36,5.07,32.38,32.38,0,0,1-.36,4.65l8.44,10.82a25.55,25.55,0,0,1-3.08,7.21l.05.67a25.06,25.06,0,0,0,3.83-8.36L307,110.94A32.31,32.31,0,0,0,307.34,106.29Z"/><path class="cls-6" d="M269.5,44.22l5.18,12.68a32.53,32.53,0,0,1,4.23,2,41.91,41.91,0,0,1,4.24,2.85l.16-.8a39.73,39.73,0,0,0-3.64-2.43,31.81,31.81,0,0,0-4.23-2l-5.18-12.68a25.62,25.62,0,0,0-9.21-.93l.1.53A30.52,30.52,0,0,1,269.5,44.22Z"/><path class="cls-6" d="M274.05,119.81l-4.33,5.6.54.5,4.39-5.67Z"/></g><path class="cls-8" d="M289.72,38.31c.07-1.34,1-1.92,2.06-1.31a4.22,4.22,0,0,1,1.82,3.54c-.06,1.34-1,1.93-2.05,1.31A4.22,4.22,0,0,1,289.72,38.31Z"/><path class="cls-8" d="M283.74,198.34c0-.89.65-1.27,1.36-.86a2.8,2.8,0,0,1,1.22,2.35c-.05.89-.66,1.28-1.37.87A2.81,2.81,0,0,1,283.74,198.34Z"/><path class="cls-8" d="M322.85,133.64a.5.5,0,0,1-.43-.76l2.39-4.11a.51.51,0,0,1,.69-.18.51.51,0,0,1,.18.69l-1.75,3,3.53-1.09a.5.5,0,0,1,.3,1L323,133.61Z"/><path class="cls-9" d="M281.32,151.76a11.43,11.43,0,0,1,4.46,5.38,10.51,10.51,0,0,0,1.48-.5,4,4,0,0,1,3.43.53,11.65,11.65,0,0,1,5.29,9.12c0,6.12-10.49,8.25-10.49,8.25s-10-13.33-10-19.46c0-1.67-.71-2.18.25-2.73l2.06-1.1A3.93,3.93,0,0,1,281.32,151.76Z"/><path class="cls-8" d="M279.56,152.71a11.68,11.68,0,0,1,4.68,6c.89-1.42,2.65-1.72,4.69-.55a11.65,11.65,0,0,1,5.28,9.12c0,6.13-10,7.94-10,7.94s-10-13.33-10-19.45C274.27,152.38,276.64,151,279.56,152.71Z"/><g class="cls-5"><path class="cls-10" d="M279.27,152.84a12.09,12.09,0,0,1,4.92,6c.18-.29-.07-.18.18-.38a11.64,11.64,0,0,0-4.55-5.64c-1.6-.92-2.81-1.14-3.76-.55A4.09,4.09,0,0,1,279.27,152.84Z"/><path class="cls-10" d="M289.07,158.1c-1.6-.92-2.84-.94-3.63-.45a4.07,4.07,0,0,1,3.2.6,11.64,11.64,0,0,1,5.28,9.12c0,2.84-2.15,4.76-4.45,6,2.57-1.2,4.89-3,4.89-6.14A11.65,11.65,0,0,0,289.07,158.1Z"/></g><path class="cls-8" d="M324.37,133l-.67-.74c5.38-4.89,8.22-12.86,8.22-23,0-25.34-18-56.33-40.05-69.08l.5-.87c22.36,12.91,40.55,44.29,40.55,70C332.92,119.65,330,127.88,324.37,133Z"/><path class="cls-3" d="M340.24,115.89h0a.49.49,0,0,1-.49-.51v-1a.5.5,0,0,1,.5-.5.5.5,0,0,1,.5.5v1A.51.51,0,0,1,340.24,115.89Z"/><path class="cls-3" d="M312.71,150.54a.51.51,0,0,1-.5-.5.5.5,0,0,1,.5-.5c.65,0,1.31,0,2-.08a.52.52,0,0,1,.54.46.5.5,0,0,1-.47.54c-.66,0-1.34.07-2,.08Zm-3-.12h0c-.66,0-1.33-.13-2-.22a.5.5,0,1,1,.14-1c.65.09,1.3.16,1.94.22a.5.5,0,0,1,0,1Zm7.91-.34a.5.5,0,0,1-.09-1c.64-.12,1.28-.26,1.9-.42a.5.5,0,1,1,.25,1c-.64.17-1.31.32-2,.44Zm4.76-1.35a.5.5,0,0,1-.18-1c.6-.24,1.2-.5,1.77-.78a.5.5,0,1,1,.44.89c-.6.3-1.22.57-1.84.82A.43.43,0,0,1,322.41,148.73Zm4.39-2.28a.48.48,0,0,1-.41-.23.49.49,0,0,1,.14-.69c.54-.36,1.07-.74,1.57-1.14a.51.51,0,0,1,.71.09.5.5,0,0,1-.09.7c-.52.41-1.08.81-1.64,1.18A.49.49,0,0,1,326.8,146.45Zm3.84-3.14a.47.47,0,0,1-.35-.15.48.48,0,0,1,0-.7c.45-.46.9-.94,1.32-1.43a.49.49,0,0,1,.7-.06.51.51,0,0,1,.06.71c-.44.51-.9,1-1.38,1.48A.47.47,0,0,1,330.64,143.31Zm3.15-3.82a.51.51,0,0,1-.28-.09.5.5,0,0,1-.13-.69q.56-.81,1.05-1.65a.5.5,0,0,1,.86.51c-.34.58-.7,1.15-1.08,1.7A.52.52,0,0,1,333.79,139.49Zm2.46-4.3a.5.5,0,0,1-.21-.05.5.5,0,0,1-.24-.67c.27-.58.53-1.18.78-1.79a.5.5,0,0,1,.65-.28.5.5,0,0,1,.28.65c-.26.63-.53,1.25-.81,1.85A.49.49,0,0,1,336.25,135.19Zm1.8-4.62a.45.45,0,0,1-.16,0,.5.5,0,0,1-.32-.63c.19-.61.37-1.24.54-1.88a.5.5,0,1,1,1,.26c-.17.65-.36,1.3-.56,1.93A.5.5,0,0,1,338.05,130.57Zm1.21-4.82h-.1a.5.5,0,0,1-.39-.59c.12-.64.23-1.28.33-1.94a.5.5,0,0,1,.57-.41.49.49,0,0,1,.42.57c-.1.67-.21,1.32-.34,2A.5.5,0,0,1,339.26,125.75Zm.71-4.9h-.05a.49.49,0,0,1-.45-.54c.06-.65.11-1.3.15-2a.48.48,0,0,1,.53-.47.49.49,0,0,1,.47.53c0,.67-.09,1.34-.16,2A.5.5,0,0,1,340,120.85Z"/><path class="cls-3" d="M304.78,149.66h-.1l-1-.23a.5.5,0,0,1,.24-1l1,.23a.5.5,0,0,1-.11,1Z"/><path class="cls-3" d="M240.75,70.51a.49.49,0,0,1-.49-.41c-.06-.33-.12-.66-.17-1a.5.5,0,1,1,1-.17c.06.33.11.65.17,1a.5.5,0,0,1-.4.58Z"/><path class="cls-3" d="M332.94,80.67a.51.51,0,0,1-.47-.31c-.25-.63-.51-1.25-.77-1.87a.49.49,0,0,1,.26-.65.5.5,0,0,1,.66.26c.27.63.53,1.25.78,1.88a.49.49,0,0,1-.27.65A.46.46,0,0,1,332.94,80.67Zm-2-4.66a.48.48,0,0,1-.45-.29c-.28-.61-.57-1.22-.86-1.83a.49.49,0,0,1,.24-.66.5.5,0,0,1,.67.23c.29.61.58,1.23.86,1.85a.51.51,0,0,1-.25.66A.52.52,0,0,1,330.93,76Zm-2.2-4.56a.51.51,0,0,1-.45-.27q-.45-.9-.93-1.8a.5.5,0,0,1,.89-.46c.32.6.63,1.2.94,1.8a.52.52,0,0,1-.22.68A.64.64,0,0,1,328.73,71.45ZM326.34,67a.5.5,0,0,1-.43-.25c-.33-.59-.67-1.17-1-1.76a.5.5,0,0,1,.87-.5c.34.59.68,1.18,1,1.77a.51.51,0,0,1-.19.68A.57.57,0,0,1,326.34,67Zm-86.21-.46a.5.5,0,0,1-.5-.43c-.09-.68-.17-1.35-.24-2a.5.5,0,1,1,1-.1c.08.66.15,1.33.24,2a.5.5,0,0,1-.43.56Zm83.64-3.9a.5.5,0,0,1-.42-.24c-.35-.57-.71-1.14-1.07-1.71a.5.5,0,1,1,.84-.54l1.08,1.73a.5.5,0,0,1-.16.68A.53.53,0,0,1,323.77,62.62Zm-84.15-1.14a.5.5,0,0,1-.5-.46c0-.68-.08-1.36-.11-2a.51.51,0,0,1,.48-.52h0a.5.5,0,0,1,.5.48c0,.67.07,1.34.11,2a.49.49,0,0,1-.46.53ZM321,58.36a.47.47,0,0,1-.41-.22c-.38-.55-.76-1.11-1.15-1.66a.5.5,0,0,1,.83-.57c.38.55.77,1.11,1.14,1.67a.5.5,0,0,1-.13.7A.48.48,0,0,1,321,58.36Zm-81.57-1.93h0a.51.51,0,0,1-.5-.51c0-.69,0-1.37,0-2a.5.5,0,0,1,.5-.48h0a.5.5,0,0,1,.48.52c0,.66,0,1.33,0,2A.5.5,0,0,1,239.46,56.43Zm78.66-2.2a.51.51,0,0,1-.41-.2c-.4-.54-.8-1.08-1.21-1.61a.51.51,0,0,1,.1-.7.5.5,0,0,1,.7.09l1.22,1.62a.51.51,0,0,1-.11.7A.46.46,0,0,1,318.12,54.23Zm-78.44-2.86h0a.51.51,0,0,1-.46-.54c.06-.69.13-1.37.21-2a.5.5,0,1,1,1,.12c-.08.65-.15,1.32-.21,2A.5.5,0,0,1,239.68,51.37ZM315,50.23a.49.49,0,0,1-.39-.19l-1.28-1.56a.49.49,0,0,1,.06-.7.51.51,0,0,1,.71.06l1.29,1.57a.52.52,0,0,1-.08.71A.51.51,0,0,1,315,50.23Zm-3.26-3.87a.48.48,0,0,1-.38-.17c-.44-.5-.89-1-1.34-1.49a.5.5,0,1,1,.73-.68c.46.5.91,1,1.36,1.51a.51.51,0,0,1,0,.71A.54.54,0,0,1,311.77,46.36Zm-71.42,0h-.09a.5.5,0,0,1-.41-.58c.13-.69.27-1.35.42-2a.49.49,0,0,1,.59-.38.51.51,0,0,1,.38.6c-.15.65-.28,1.3-.4,2A.51.51,0,0,1,240.35,46.36Zm68-3.71a.51.51,0,0,1-.36-.15c-.47-.48-.94-1-1.42-1.43a.51.51,0,0,1,0-.71.5.5,0,0,1,.71,0c.48.47,1,1,1.43,1.44a.5.5,0,0,1,0,.71A.52.52,0,0,1,308.33,42.65Zm-66.8-1.21-.15,0a.51.51,0,0,1-.33-.63c.2-.66.42-1.31.65-1.94a.49.49,0,0,1,.64-.3.5.5,0,0,1,.3.64c-.23.61-.44,1.25-.63,1.89A.51.51,0,0,1,241.53,41.44Zm63.19-2.33a.48.48,0,0,1-.34-.14c-.5-.46-1-.91-1.49-1.35a.5.5,0,0,1,0-.71.5.5,0,0,1,.7,0c.51.45,1,.91,1.51,1.37a.5.5,0,0,1,0,.71A.52.52,0,0,1,304.72,39.11Zm-61.41-2.4a.46.46,0,0,1-.2-.05.49.49,0,0,1-.25-.66c.29-.63.59-1.25.91-1.84a.5.5,0,1,1,.88.47c-.31.58-.6,1.17-.88,1.79A.52.52,0,0,1,243.31,36.71Zm57.61-1a.49.49,0,0,1-.32-.12L299,34.37a.5.5,0,1,1,.62-.78c.53.42,1.06.85,1.58,1.29a.5.5,0,0,1-.32.88Zm-4-3.13a.49.49,0,0,1-.3-.1c-.54-.4-1.08-.79-1.63-1.17a.5.5,0,0,1-.12-.7.49.49,0,0,1,.69-.12c.56.38,1.11.78,1.66,1.19a.5.5,0,0,1,.1.7A.51.51,0,0,1,296.94,32.63Zm-51.16-.34a.46.46,0,0,1-.28-.08.51.51,0,0,1-.14-.7c.39-.57.8-1.13,1.21-1.66a.5.5,0,0,1,.79.61c-.4.52-.8,1.06-1.17,1.61A.48.48,0,0,1,245.78,32.29Zm47-2.54a.48.48,0,0,1-.28-.08c-.56-.36-1.13-.72-1.7-1.06a.5.5,0,0,1-.17-.69.51.51,0,0,1,.69-.17l1.73,1.08a.5.5,0,0,1,.15.69A.51.51,0,0,1,292.78,29.75ZM249,28.38a.47.47,0,0,1-.35-.15.49.49,0,0,1,0-.7c.48-.49,1-1,1.51-1.41a.49.49,0,0,1,.7.05.51.51,0,0,1,0,.71c-.5.42-1,.88-1.45,1.35A.49.49,0,0,1,249,28.38Zm39.45-1.21a.53.53,0,0,1-.24-.06c-.59-.33-1.18-.64-1.78-.94a.5.5,0,1,1,.46-.89c.59.3,1.2.62,1.8.95a.5.5,0,0,1,.2.68A.51.51,0,0,1,288.42,27.17Zm-35.56-2a.48.48,0,0,1-.41-.23.5.5,0,0,1,.14-.69c.57-.38,1.17-.74,1.77-1.07a.5.5,0,0,1,.48.88c-.58.32-1.15.66-1.7,1A.47.47,0,0,1,252.86,25.17Zm31-.24a.54.54,0,0,1-.21-.05c-.62-.27-1.23-.53-1.85-.77a.51.51,0,0,1-.28-.65.5.5,0,0,1,.66-.28c.62.25,1.25.51,1.88.79a.49.49,0,0,1,.25.66A.49.49,0,0,1,283.89,24.93Zm-4.72-1.83-.16,0c-.64-.21-1.28-.41-1.92-.59a.49.49,0,0,1-.34-.61.48.48,0,0,1,.61-.35c.65.18,1.3.38,2,.6a.5.5,0,0,1-.15,1Zm-21.83-.26a.5.5,0,0,1-.18-1c.63-.24,1.29-.47,1.95-.67a.5.5,0,0,1,.62.33.51.51,0,0,1-.33.63c-.64.19-1.27.41-1.87.64A.41.41,0,0,1,257.34,22.84Zm16.94-1.05h-.1c-.66-.13-1.32-.25-2-.35a.5.5,0,0,1-.42-.57.51.51,0,0,1,.57-.42c.67.1,1.34.22,2,.36a.5.5,0,0,1-.1,1Zm-12.07-.31a.49.49,0,0,1-.49-.41.49.49,0,0,1,.4-.58c.67-.12,1.36-.22,2-.29a.51.51,0,0,1,.55.45.5.5,0,0,1-.45.55c-.66.07-1.32.16-2,.27Zm7.06-.37h0c-.68,0-1.34-.06-2-.06a.51.51,0,0,1-.5-.5.5.5,0,0,1,.5-.5c.68,0,1.36,0,2.06.06a.52.52,0,0,1,.47.53A.5.5,0,0,1,269.27,21.11Z"/><path class="cls-3" d="M334.41,84.5a.52.52,0,0,1-.47-.33l-.34-.94a.5.5,0,0,1,.29-.64.51.51,0,0,1,.65.3l.34.94a.5.5,0,0,1-.29.64A.57.57,0,0,1,334.41,84.5Z"/><path class="cls-8" d="M316.28,159.1a.51.51,0,0,1-.47-.32c-.12-.3-.25-.61-.37-.92a.5.5,0,0,1,.26-.65.51.51,0,0,1,.66.27c.13.31.26.62.38.93a.5.5,0,0,1-.28.65A.58.58,0,0,1,316.28,159.1Z"/><path class="cls-8" d="M302.48,205.65h0c-.67,0-1.35,0-2-.1A.51.51,0,0,1,300,205a.53.53,0,0,1,.55-.45c.64.06,1.29.1,1.93.1a.5.5,0,0,1,.5.5A.5.5,0,0,1,302.48,205.65Zm3-.21a.5.5,0,0,1-.08-1,16.63,16.63,0,0,0,1.89-.38.49.49,0,0,1,.61.35.5.5,0,0,1-.36.61,18,18,0,0,1-2,.41Zm-7.87-.35h-.11c-.64-.14-1.29-.31-1.95-.5a.48.48,0,0,1-.34-.61.49.49,0,0,1,.62-.35c.63.19,1.27.35,1.88.48a.52.52,0,0,1,.39.6A.5.5,0,0,1,297.57,205.09ZM310.16,204a.5.5,0,0,1-.45-.29.49.49,0,0,1,.24-.66,16.15,16.15,0,0,0,1.68-.92.5.5,0,0,1,.69.15.49.49,0,0,1-.16.69,14,14,0,0,1-1.78,1A.44.44,0,0,1,310.16,204Zm-17.32-.38a.63.63,0,0,1-.19,0c-.61-.24-1.22-.5-1.84-.79a.49.49,0,0,1-.25-.66.5.5,0,0,1,.66-.25c.61.28,1.2.53,1.8.77a.5.5,0,0,1-.18,1Zm21.4-2.38a.5.5,0,0,1-.34-.87,15.91,15.91,0,0,0,1.33-1.39.49.49,0,0,1,.7-.05.49.49,0,0,1,.06.7,16.37,16.37,0,0,1-1.41,1.47A.49.49,0,0,1,314.24,201.26Zm3.11-3.84a.48.48,0,0,1-.26-.07.5.5,0,0,1-.17-.69c.33-.54.65-1.11.93-1.69a.5.5,0,1,1,.9.44c-.3.61-.63,1.21-1,1.77A.5.5,0,0,1,317.35,197.42Zm2.08-4.48a.44.44,0,0,1-.16,0,.51.51,0,0,1-.31-.64c.21-.6.4-1.22.56-1.86a.49.49,0,0,1,.61-.35.5.5,0,0,1,.36.61c-.17.65-.37,1.3-.58,1.93A.52.52,0,0,1,319.43,192.94Zm1.19-4.79h-.08a.5.5,0,0,1-.41-.58c.1-.63.19-1.27.26-1.93a.5.5,0,0,1,1,.1c-.07.68-.16,1.35-.27,2A.5.5,0,0,1,320.62,188.15Zm.47-4.93h0a.5.5,0,0,1-.48-.52c0-.45,0-.9,0-1.36v-.6a.49.49,0,0,1,.49-.5.52.52,0,0,1,.51.49v.61c0,.47,0,.94,0,1.4A.5.5,0,0,1,321.09,183.22Zm-.12-4.95a.49.49,0,0,1-.49-.46c-.05-.65-.11-1.3-.19-2a.5.5,0,0,1,.44-.55.52.52,0,0,1,.56.44c.07.67.13,1.33.18,2a.5.5,0,0,1-.46.54Zm-.59-4.92a.5.5,0,0,1-.5-.41c-.1-.65-.22-1.29-.35-1.94a.5.5,0,0,1,.39-.59.51.51,0,0,1,.59.4c.13.65.25,1.31.36,2a.51.51,0,0,1-.41.58Zm-1-4.84a.5.5,0,0,1-.48-.38c-.16-.64-.33-1.27-.51-1.9a.5.5,0,1,1,1-.28c.18.65.35,1.29.52,1.93a.51.51,0,0,1-.37.61ZM318,163.75a.5.5,0,0,1-.47-.35c-.21-.62-.42-1.24-.64-1.86a.5.5,0,0,1,.3-.64.5.5,0,0,1,.64.3c.22.63.44,1.26.65,1.89a.5.5,0,0,1-.32.63A.45.45,0,0,1,318,163.75Z"/><path class="cls-8" d="M288.33,201.52a.5.5,0,0,1-.24-.06l-.88-.5a.5.5,0,0,1,.49-.87l.87.49a.51.51,0,0,1,.2.68A.52.52,0,0,1,288.33,201.52Z"/><path class="cls-8" d="M315.09,159.59h0a.52.52,0,0,1-.47-.53l.17-2.67a.48.48,0,0,1,.29-.42.49.49,0,0,1,.51.05l2.25,1.67a.5.5,0,0,1,.1.7.5.5,0,0,1-.7.1l-1.51-1.12-.11,1.75A.5.5,0,0,1,315.09,159.59Z"/><path class="cls-6" d="M133.62,71c0-3.28-4.64-6-10.33-6S113,67.65,113,70.93c0,3,3.9,5.49,8.91,5.9V78.5c-1,.14-1.65.64-1.65,1.23l0,5.68c0,.71,1,1.29,2.24,1.29h1.69c1.23,0,2.22-.58,2.22-1.29l0-5.68c0-.59-.71-1.09-1.66-1.24V76.84C129.79,76.45,133.64,74,133.62,71Z"/><path class="cls-4" d="M258.25,303.38,79.49,200.1c-6.92-4-12.53-14.71-12.53-23.94V13.54C67,4.31,72.57.07,79.49,4.06L258.25,107.34c6.93,4,12.54,14.71,12.54,23.94V293.9C270.79,303.13,265.18,307.37,258.25,303.38Z"/><path class="cls-11" d="M263.21,104.78,84.44,1.5C81.71-.08,79.17-.37,77.11.43,76.85.53,72,3.06,71.7,3.2h0c2.14-1,4.85-.84,7.8.86L258.25,107.34c6.93,4,12.54,14.71,12.54,23.94V293.9c0,5.76-2.19,9.58-5.51,10.66a2,2,0,0,0,1.09-.37c.16-.09,5.36-2.91,5.51-3,2.38-1.67,3.86-5.1,3.86-9.84V128.72C275.74,119.49,270.13,108.77,263.21,104.78Z"/><path class="cls-12" d="M261.81,105.45,83,2.18C80.3.6,77.77.3,75.71,1.1c-.26.1-3.76,2-4,2.1h0c2.14-1,4.85-.84,7.8.86L258.25,107.34Z"/><path class="cls-13" d="M258.86,107,80.09,3.76c-2.84-1.64-5.45-1.87-7.55-1a9.26,9.26,0,0,1,6,1.41L257.35,107.49c6.92,4,12.53,14.71,12.53,23.94V294.05c0,5.45-2,9.13-5,10.44,3.87-.61,6.49-4.58,6.49-10.89V131C271.39,121.75,265.78,111,258.86,107Z"/><path class="cls-14" d="M74,28V176.16c0,7.24,3.44,14.31,9,17.85L259.87,296.17l.29.17a2.4,2.4,0,0,0,3.59-2.09V137.61Z"/><path class="cls-15" d="M263.5,295l-.3-.17L86.34,192.68c-5.57-3.54-9-10.62-9-17.85V29.92L74,28V176.16c0,7.24,3.44,14.31,9,17.85L259.87,296.17l.29.17a2.4,2.4,0,0,0,3.44-1.29Z"/><path class="cls-16" d="M253.79,119.82a7.61,7.61,0,0,0,3.45,6c1.91,1.1,3.45.22,3.45-2a7.58,7.58,0,0,0-3.45-6C255.34,116.76,253.79,117.64,253.79,119.82Z"/><path class="cls-8" d="M244.9,114.66a7.56,7.56,0,0,0,3.45,5.94c1.9,1.1,3.45.22,3.45-2a7.61,7.61,0,0,0-3.45-6C246.44,111.59,244.9,112.47,244.9,114.66Z"/><path class="cls-17" d="M236,109.49a7.62,7.62,0,0,0,3.45,6c1.91,1.1,3.45.22,3.45-2a7.6,7.6,0,0,0-3.45-6C237.55,106.42,236,107.3,236,109.49Z"/><path class="cls-2" d="M190.64,104.55l-13-7.49c-1.31-.76-2.37-.15-2.37,1.35a5.24,5.24,0,0,0,2.37,4.1l13,7.49c1.31.75,2.37.15,2.37-1.36A5.23,5.23,0,0,0,190.64,104.55ZM212,116.88l-13-7.49c-1.31-.76-2.37-.15-2.37,1.35a5.24,5.24,0,0,0,2.37,4.1l13,7.49c1.31.75,2.37.15,2.37-1.36A5.23,5.23,0,0,0,212,116.88Zm21.35,12.33-13-7.49c-1.31-.76-2.37-.15-2.37,1.35a5.24,5.24,0,0,0,2.37,4.1l13,7.48c1.31.76,2.37.16,2.37-1.35A5.23,5.23,0,0,0,233.35,129.21Zm21.36,12.33-13-7.49c-1.31-.76-2.37-.15-2.37,1.35a5.2,5.2,0,0,0,2.37,4.09l13,7.49c1.31.76,2.37.16,2.37-1.35A5.23,5.23,0,0,0,254.71,141.54Z"/><polygon class="cls-18" points="139.17 115.25 139.17 171.08 145.28 167.5 145.28 111.52 139.17 115.25"/><polygon class="cls-11" points="139.19 115.25 139.19 171.08 17.4 101.23 17.4 45.25 139.19 115.25"/><polygon class="cls-2" points="17.4 45.25 139.19 115.25 145.28 111.52 23.44 41.57 17.4 45.25"/><polygon class="cls-10" points="17.4 45.25 139.19 115.25 145.28 111.52 139.18 114.4 17.4 45.25"/><polygon class="cls-6" points="121.36 150.83 121.36 148.46 82.92 126.61 82.92 128.98 121.36 150.83"/><polygon class="cls-6" points="66.27 82.52 66.27 84.89 130.88 121.86 130.88 119.48 66.27 82.52"/><polygon class="cls-6" points="89.02 115.36 66.27 102.22 66.27 104.59 89.02 117.73 89.02 115.36"/><polygon class="cls-6" points="104.42 134.1 104.42 136.47 113.81 141.55 113.81 139.18 104.42 134.1"/><polygon class="cls-6" points="102.96 113.55 66.27 92.37 66.27 94.74 102.96 115.92 102.96 113.55"/><polygon class="cls-6" points="79.71 105.06 66.27 97.3 66.27 99.67 79.71 107.43 79.71 105.06"/><polygon class="cls-6" points="76.29 120.23 102.08 135.12 102.08 132.75 76.29 117.86 76.29 120.23"/><polygon class="cls-6" points="82.04 106.4 82.04 108.77 118.25 129.34 118.25 126.97 82.04 106.4"/><polygon class="cls-6" points="91.35 116.7 91.35 119.08 109.46 129.53 109.46 127.16 91.35 116.7"/><polygon class="cls-6" points="73.96 116.51 66.27 112.07 66.27 114.44 73.96 118.88 73.96 116.51"/><polygon class="cls-6" points="105.29 117.27 130.88 131.71 130.88 129.34 105.29 114.9 105.29 117.27"/><polygon class="cls-6" points="120.58 130.69 130.88 136.63 130.88 134.26 120.58 128.31 120.58 130.69"/><polygon class="cls-6" points="66.27 89.82 130.88 126.78 130.88 124.41 66.27 87.45 66.27 89.82"/><polygon class="cls-6" points="111.79 130.87 130.88 141.56 130.88 139.19 111.79 128.5 111.79 130.87"/><polygon class="cls-6" points="80.58 125.26 66.27 117 66.27 119.37 80.58 127.63 80.58 125.26"/><polygon class="cls-6" points="123.69 152.18 130.88 156.33 130.88 153.96 123.69 149.81 123.69 152.18"/><polygon class="cls-6" points="116.15 142.9 130.88 151.41 130.88 149.04 116.15 140.53 116.15 142.9"/><polygon class="cls-6" points="66.27 109.52 130.88 146.48 130.88 144.11 66.27 107.15 66.27 109.52"/><path class="cls-18" d="M52.77,73.15,31.53,60.86c-3.72-2.14-6.73.13-6.73,5.08V90.53c0,5,3,10.7,6.73,12.85l21.24,12.29c3.71,2.14,6.72-.13,6.72-5.09V86C59.49,81,56.48,75.29,52.77,73.15Z"/><path class="cls-19" d="M55.39,113.67,34.15,101.38c-3.71-2.15-6.72-7.9-6.72-12.85V63.94a8,8,0,0,1,.83-3.83c-2.06.34-3.46,2.46-3.46,5.83V90.53c0,5,3,10.7,6.73,12.85l21.24,12.29c2.54,1.46,4.75.86,5.89-1.25A5,5,0,0,1,55.39,113.67Z"/><path class="cls-17" d="M36.27,80,15,67.73c-3.72-2.14-6.73.14-6.73,5.09V97.41c0,5,3,10.7,6.73,12.84l21.24,12.29c3.71,2.15,6.72-.13,6.72-5.08V92.87C43,87.92,40,82.17,36.27,80Z"/><path class="cls-20" d="M39.73,78,18.49,65.7a4.37,4.37,0,0,0-4.2-.45l0,0-3.67,2.16v0a4.3,4.3,0,0,1,4.44.32L36.27,80C40,82.17,43,87.92,43,92.87v24.59c0,2.41-.71,4.17-1.87,5.11l2.05-1.35a6,6,0,0,0,3.29-5.79V90.84C46.46,85.89,43.45,80.13,39.73,78Z"/><path class="cls-10" d="M36.65,79.71,15.4,67.42c-1.84-1.07-3.51-1-4.73-.14a4.6,4.6,0,0,1,3.92.58L35.83,80.15C39.54,82.29,42.55,88,42.55,93v24.58c0,2.5-.76,4.31-2,5.22,1.7-.64,2.81-2.65,2.81-5.66V92.56C43.37,87.6,40.36,81.85,36.65,79.71Z"/><path class="cls-6" d="M13.94,74.52v28.15L37,116V87.83ZM35.5,113.41l-20.09-11.6V77.08L35.5,88.68Z"/><path class="cls-6" d="M31.91,92.83c0,1.84-1.3,2.59-2.91,1.66a6.44,6.44,0,0,1-2.91-5c0-1.85,1.31-2.59,2.91-1.66A6.4,6.4,0,0,1,31.91,92.83Z"/><polygon class="cls-6" points="14.71 95.19 20.71 87.44 26.8 102.85 31.23 99.25 36.12 112.54 36.02 113.88 14.8 102.53 14.71 95.19"/><path class="cls-16" d="M295.76,96.25c0,3.82-1.32,6.53-3.47,7.84l-3.73,2.31c-2.23,1.25-.8-1.58-4.19-3.54C277.54,98.92,272,89.38,272,81.55c0-3.87-3.58-3.9-1.38-5.2L274.78,74c2.23-1.2,5.27-1,8.63,1C290.23,78.88,295.76,88.42,295.76,96.25Z"/><path class="cls-6" d="M280,77.05c-3.28-1.89-6.25-2.14-8.46-1,2.06-.58,4.62-.14,7.39,1.45,6.82,3.94,12.35,13.48,12.35,21.31,0,4.08-1.5,6.89-3.9,8.09,3-.85,5-3.85,5-8.5C292.31,90.53,286.78,81,280,77.05Z"/><ellipse class="cls-21" cx="279.36" cy="91.52" rx="10.06" ry="17.42" transform="translate(-8 153.5) rotate(-30.31)"/><path class="cls-22" d="M277.15,86.44c0,1.1-.77,1.55-1.73,1a3.81,3.81,0,0,1-1.74-3c0-1.1.78-1.54,1.74-1A3.8,3.8,0,0,1,277.15,86.44Z"/><path class="cls-22" d="M284.17,90.5c0,1.1-.77,1.54-1.73,1a3.85,3.85,0,0,1-1.74-3c0-1.1.78-1.54,1.74-1A3.84,3.84,0,0,1,284.17,90.5Z"/><path class="cls-22" d="M272.37,91l1.62.27a11.73,11.73,0,0,0,5,6.89c2.16,1.25,4.14.84,4.92-1l1.6,1.64c-1,2.46-3.66,3-6.52,1.36A15.64,15.64,0,0,1,272.37,91Z"/><path class="cls-23" d="M275.92,87.08a3.83,3.83,0,0,1-1.73-3,1.49,1.49,0,0,1,.23-.84c-.45.1-.74.53-.74,1.2a3.81,3.81,0,0,0,1.74,3c.64.38,1.2.29,1.5-.14A1.4,1.4,0,0,1,275.92,87.08Z"/><path class="cls-23" d="M283,91.13a3.81,3.81,0,0,1-1.74-3,1.5,1.5,0,0,1,.23-.85,1.1,1.1,0,0,0-.74,1.2,3.85,3.85,0,0,0,1.74,3c.64.37,1.2.28,1.5-.15A1.32,1.32,0,0,1,283,91.13Z"/><path class="cls-23" d="M284.08,97.32l-.2-.2a3,3,0,0,1-.74,1.06A2.74,2.74,0,0,0,284.08,97.32Z"/><path class="cls-23" d="M279.46,99.76A15.58,15.58,0,0,1,273,91.08l-.64-.1a15.64,15.64,0,0,0,6.59,9.14c2.15,1.24,4.17,1.24,5.48.11C283.15,101,281.36,100.86,279.46,99.76Z"/><polygon class="cls-18" points="289.69 219.05 289.69 287.22 295.8 283.65 295.8 215.32 289.69 219.05"/><polygon class="cls-11" points="289.71 219.05 289.71 287.22 156.42 210.79 156.42 142.45 289.71 219.05"/><polygon class="cls-2" points="156.42 142.45 289.71 219.05 295.8 215.32 162.46 138.78 156.42 142.45"/><polygon class="cls-10" points="156.42 142.45 289.71 219.05 295.8 215.32 289.69 218.2 156.42 142.45"/><ellipse class="cls-18" cx="260.7" cy="236.83" rx="17.03" ry="29.49" transform="translate(-83.89 163.95) rotate(-30.31)"/><path class="cls-19" d="M262.7,259.08c-11.55-6.67-20.92-22.82-20.92-36.08,0-4.95,1.31-8.79,3.54-11.32-3.43,2.29-5.54,6.79-5.54,13.07,0,13.26,9.37,29.41,20.92,36.08,7.24,4.18,13.63,3.64,17.38-.61C274.26,262.77,268.78,262.59,262.7,259.08Z"/><path class="cls-18" d="M202,179.89l-4.49-2.6V228l4.49,2.59Zm6.48-2.54-4.5-2.6v56.91l4.5,2.6Zm6.67,11.45-4.5-2.6v49.27l4.5,2.6Zm-31,3.57v27.77l4.5,2.59V195Zm11.17-7.72-4.5-2.6V224l4.5,2.59Zm26.35,18.22-4.5-2.6v39l4.5,2.6ZM228.09,219l-4.49-2.59V243l4.49,2.59ZM182,187.56l-4.5-2.6v31.15l4.5,2.6Zm-17.83,1.83v18.88l4.49,2.6V192Zm11.16-7.4-4.5-2.6v32.69l4.5,2.6Z"/><path class="cls-3" d="M202,199.79l-4.49-2.6V228l4.49,2.59Zm6.48-14-4.5-2.6v48.47l4.5,2.6Zm6.67,12-4.5-2.6v40.27l4.5,2.6Zm-31,1.31v21l4.5,2.59v-21Zm11.17-.82-4.5-2.6V224l4.5,2.59ZM182,190.1l-4.5-2.59v28.6l4.5,2.6Zm-17.83,12.71v5.46l4.49,2.6V205.4Zm11.16,0-4.5-2.6v11.86l4.5,2.6Zm46.36,7.31-4.5-2.6v31.75l4.5,2.6Zm6.41,12.78-4.49-2.6V243l4.49,2.59Z"/><polygon class="cls-6" points="215.14 198.36 210.64 195.76 210.64 195.2 215.14 197.79 215.14 198.36"/><polygon class="cls-6" points="208.47 186.35 203.97 183.75 203.97 183.19 208.47 185.79 208.47 186.35"/><polygon class="cls-6" points="228.09 223.47 223.6 220.88 223.6 220.31 228.09 222.91 228.09 223.47"/><polygon class="cls-6" points="201.99 200.35 197.5 197.75 197.5 197.19 201.99 199.79 201.99 200.35"/><polygon class="cls-6" points="221.68 210.69 217.18 208.09 217.18 207.53 221.68 210.13 221.68 210.69"/><polygon class="cls-6" points="175.32 203.38 170.82 200.78 170.82 200.22 175.32 202.82 175.32 203.38"/><polygon class="cls-6" points="181.99 190.67 177.49 188.07 177.49 187.51 181.99 190.1 181.99 190.67"/><polygon class="cls-6" points="168.65 205.4 168.65 205.96 164.16 203.37 164.16 202.81 168.65 205.4"/><polygon class="cls-6" points="195.33 198.85 190.83 196.26 190.83 195.69 195.33 198.29 195.33 198.85"/><polygon class="cls-6" points="188.66 202.27 184.16 199.68 184.16 199.12 188.66 201.71 188.66 202.27"/><path class="cls-16" d="M240.12,228c.28-10,7.56-14,16.5-8.84,4.6,2.65,8.76,7.23,11.76,12.45l3.29-.82c-3.75-6.82-9.11-12.82-15.05-16.25-11.25-6.5-20.41-1.36-20.54,11.42l2.63,2.4Z"/><path class="cls-16" d="M264.9,259.23a14.23,14.23,0,0,1-8.28-2.2c-8.47-4.89-15.45-16.27-16.4-26.24l-4-2c0,.07-1.34.34-1.34.42,1.17,12.41,11.24,26.39,21.78,32.47,3.82,2.21,6.41,3.37,9.48,3,.13,0,1.26-.33,1.38-.35Z"/><path class="cls-16" d="M269.94,234.6a31.56,31.56,0,0,1,3.2,13c0,6-2.44,9.92-6.24,11.21l2.56,5.05c4.69-1.61,7.7-6.51,7.7-13.93a39.23,39.23,0,0,0-4-16.16Z"/><path class="cls-16" d="M262.29,242.91a13.84,13.84,0,0,1-2.9-3.47c-.48-.8-.46-1.67,0-1.94a3.67,3.67,0,0,0,1.47-1.65c.51.14,1.14,0,1.14-.74a2.76,2.76,0,0,0-.73-1.88,9.22,9.22,0,0,0-4.66-8.18,4.38,4.38,0,0,0-2.83-.8c-.16,0-1.55.4-1.68.47-1,.47-.08,1.48-.15,3.13-.42-.09-.73.32-.73,1a3.36,3.36,0,0,0,1.14,2.06,16.08,16.08,0,0,0,1.47,3.35c.47.81.49,1.7,0,2a3.81,3.81,0,0,1-2.9.12,2.19,2.19,0,0,0-1.21,0c-.1,0-1.35.35-1.44.39-.65.33.09.8.09,1.9v3.14a2.12,2.12,0,0,0,1,1.65l13.43,8.89c.24.13,1.55-.34,1.72-.4a.62.62,0,0,0,.35-.64v-3.14A7.44,7.44,0,0,0,262.29,242.91Z"/><path class="cls-6" d="M239.22,228.22c.28-10,7.56-14,16.49-8.84,4.6,2.65,8.77,7.23,11.76,12.45l3.3-.83c-3.75-6.81-9.11-12.82-15.06-16.25-11.24-6.49-20.4-1.36-20.54,11.43Z"/><path class="cls-6" d="M264,259.49a14.26,14.26,0,0,1-8.29-2.2c-8.46-4.89-15.45-16.27-16.4-26.24l-4-2c1.09,12.47,9.83,26.78,20.43,32.9,4,2.3,7.71,3.14,10.87,2.69Z"/><path class="cls-6" d="M269,234.86a31.4,31.4,0,0,1,3.2,13c0,6-2.44,9.92-6.23,11.2l2.55,5.06c4.7-1.61,7.71-6.51,7.71-13.94A39.23,39.23,0,0,0,272.31,234Z"/><path class="cls-6" d="M261.39,243.17a14.21,14.21,0,0,1-2.9-3.47c-.48-.8-.46-1.67,0-1.94a3.69,3.69,0,0,0,1.48-1.65c.51.14,1.14-.05,1.14-.75a2.78,2.78,0,0,0-.73-1.87,9.24,9.24,0,0,0-4.66-8.18c-3.5-2-4.54-.1-4.66,2.8-.42-.09-.73.32-.73,1a3.37,3.37,0,0,0,1.13,2.05,16.75,16.75,0,0,0,1.48,3.36c.47.81.48,1.7,0,1.95a3.81,3.81,0,0,1-2.9.12c-1.47-.44-2.56.44-2.56,2.25V242a2.12,2.12,0,0,0,1,1.65L263,252.05c.52.31.95.06.95-.55v-3.13A7.47,7.47,0,0,0,261.39,243.17Z"/><path class="cls-24" d="M238.71,228.35c.27-10,7.55-14,16.49-8.84,4.6,2.65,8.76,7.23,11.76,12.45l3.29-.83c-3.75-6.81-9.11-12.82-15.05-16.25-11.25-6.49-20.41-1.36-20.54,11.43Z"/><path class="cls-24" d="M263.48,259.62a14.17,14.17,0,0,1-8.28-2.21c-8.47-4.88-15.45-16.26-16.4-26.23l-4-2c1.08,12.47,9.83,26.78,20.43,32.9,4,2.3,7.71,3.13,10.86,2.69Z"/><path class="cls-24" d="M268.52,235a31.56,31.56,0,0,1,3.2,13c0,6-2.44,9.92-6.24,11.2l2.56,5.06c4.69-1.61,7.7-6.51,7.7-13.94a39,39,0,0,0-3.95-16.15Z"/><path class="cls-24" d="M260.87,243.3a14.21,14.21,0,0,1-2.9-3.47c-.48-.8-.46-1.67,0-1.94a3.8,3.8,0,0,0,1.48-1.65.81.81,0,0,0,1.13-.75,2.73,2.73,0,0,0-.73-1.87,9.2,9.2,0,0,0-4.66-8.18c-3.49-2-4.53-.1-4.66,2.8-.42-.09-.73.32-.73,1a3.34,3.34,0,0,0,1.14,2,15.91,15.91,0,0,0,1.48,3.36c.46.81.48,1.7,0,1.95a3.81,3.81,0,0,1-2.9.12c-1.46-.44-2.56.44-2.56,2.25v3.13a2.13,2.13,0,0,0,1,1.66l14.54,8.39c.53.31,1,.06,1-.55V248.5A7.44,7.44,0,0,0,260.87,243.3Z"/><polygon class="cls-20" points="157.16 201.92 157.16 230.47 161.94 227.84 161.94 199.13 157.16 201.92"/><polygon class="cls-17" points="157.18 201.92 157.18 230.47 51.54 169.48 51.54 140.77 157.18 201.92"/><polygon class="cls-25" points="51.54 140.77 157.18 201.92 161.94 199.13 56.26 138.04 51.54 140.77"/><polygon class="cls-10" points="51.54 140.77 157.18 201.92 161.94 199.13 157.28 201.17 51.54 140.77"/><polygon class="cls-6" points="151.81 221.82 56.75 166.34 56.75 149.52 151.81 205 151.81 221.82"/><path class="cls-19" d="M60.73,154.28l1.92,1.11.89,9.18,0,0,.94-8.12,2.18,1.25.94,9.22,0,0,.89-8.16,1.72,1L69,171.09l-2.48-1.43-.91-7.82,0,0-.9,6.77L62,167.06Z"/><path class="cls-19" d="M72.11,160.89,74,162l.89,9.18,0,0,.94-8.13,2.18,1.26.94,9.21,0,0,.89-8.15,1.72,1-1.29,11.3-2.48-1.44L77,168.45l0,0-.9,6.78-2.65-1.53Z"/><path class="cls-19" d="M83.58,167.42l1.92,1.11.89,9.18,0,0,.94-8.12,2.18,1.25.94,9.21,0,0,.89-8.16,1.72,1-1.29,11.29-2.48-1.43L88.46,175l0,0-.9,6.77-2.65-1.53Z"/><polygon class="cls-16" points="99.5 55 99.5 74.91 102.5 73.25 102.5 53.19 99.5 55"/><polygon class="cls-21" points="99.52 55 99.52 74.91 81.8 64.67 81.8 44.61 99.52 55"/><polygon class="cls-24" points="81.8 44.61 99.52 55 102.5 53.19 84.74 42.85 81.8 44.61"/><polygon class="cls-6" points="81.8 44.61 99.52 55 102.5 53.19 99.37 54.04 81.8 44.61"/><polygon class="cls-9" points="115.08 48.36 115.08 80.6 119.94 77.92 119.94 45.43 115.08 48.36"/><polygon class="cls-26" points="86.42 31.53 115.12 48.36 119.94 45.43 91.18 28.69 86.42 31.53"/><polygon class="cls-10" points="86.42 31.53 115.12 48.36 119.94 45.43 115.25 47.67 86.42 31.53"/><polygon class="cls-8" points="86.42 31.53 86.42 44.9 101.61 53.81 101.61 72.79 115.12 80.6 115.12 48.36 86.42 31.53"/><polygon class="cls-20" points="176.42 126.2 176.42 148.46 179.78 146.61 179.78 124.18 176.42 126.2"/><polygon class="cls-17" points="176.44 126.2 176.44 148.46 156.63 137.01 156.63 114.58 176.44 126.2"/><polygon class="cls-25" points="156.63 114.58 176.44 126.2 179.78 124.18 159.92 112.62 156.63 114.58"/><polygon class="cls-10" points="156.63 114.58 176.44 126.2 179.78 124.18 176.28 125.13 156.63 114.58"/><polygon class="cls-20" points="202.42 141.2 202.42 163.46 205.78 161.61 205.78 139.18 202.42 141.2"/><polygon class="cls-17" points="202.44 141.2 202.44 163.46 182.63 152.01 182.63 129.58 202.44 141.2"/><polygon class="cls-25" points="182.63 129.58 202.44 141.2 205.78 139.18 185.92 127.62 182.63 129.58"/><polygon class="cls-10" points="182.63 129.58 202.44 141.2 205.78 139.18 202.28 140.13 182.63 129.58"/><polygon class="cls-20" points="228.25 156.03 228.25 178.29 231.61 176.44 231.61 154.01 228.25 156.03"/><polygon class="cls-17" points="228.28 156.03 228.28 178.29 208.47 166.84 208.47 144.41 228.28 156.03"/><polygon class="cls-25" points="208.47 144.41 228.28 156.03 231.61 154.01 211.75 142.46 208.47 144.41"/><polygon class="cls-10" points="208.47 144.41 228.28 156.03 231.61 154.01 228.11 154.96 208.47 144.41"/><polygon class="cls-20" points="253.75 170.53 253.75 192.79 257.11 190.94 257.11 168.51 253.75 170.53"/><polygon class="cls-17" points="253.78 170.53 253.78 192.79 233.97 181.34 233.97 158.91 253.78 170.53"/><polygon class="cls-25" points="233.97 158.91 253.78 170.53 257.11 168.51 237.25 156.96 233.97 158.91"/><polygon class="cls-10" points="233.97 158.91 253.78 170.53 257.11 168.51 253.61 169.46 233.97 158.91"/><path class="cls-6" d="M222.32,165.46a9.08,9.08,0,0,1-1.83-2.19c-.3-.51-.29-1.06,0-1.23a2.42,2.42,0,0,0,.94-1c.32.09.72,0,.72-.47a1.69,1.69,0,0,0-.47-1.18,5.82,5.82,0,0,0-3-5.18c-2.21-1.28-2.86-.06-2.94,1.77-.27-.06-.47.2-.47.65a2.13,2.13,0,0,0,.72,1.3A10.38,10.38,0,0,0,217,160c.29.51.3,1.07,0,1.23a2.42,2.42,0,0,1-1.83.08c-.93-.28-1.62.28-1.62,1.42v2a1.32,1.32,0,0,0,.61,1l9.19,5.31c.34.2.61,0,.61-.34v-2A4.72,4.72,0,0,0,222.32,165.46Z"/><path class="cls-6" d="M237.55,179.78l3.21,1.85v-5.76L237.55,174Zm5.08,2.93,3.21,1.86V174l-3.21-1.85Zm5.08-12.41v15.35l3.21,1.85V172.15Z"/><path class="cls-6" d="M197.71,149.77a7.11,7.11,0,0,0-.07-.91l1.52-.19a14.06,14.06,0,0,0-.69-2.3l-1.73-.52a12.28,12.28,0,0,0-1.07-1.86l.41-1.74a14.49,14.49,0,0,0-1.65-1.75l-.93,1.21a7.43,7.43,0,0,0-.77-.52,5.22,5.22,0,0,0-.76-.36l-.93-2.28a4.81,4.81,0,0,0-1.65-.17l.41,2.23a2.26,2.26,0,0,0-1.07.61L187,139.75a4.33,4.33,0,0,0-.69,1.5l1.52,1.94a5.6,5.6,0,0,0-.07.84,7.11,7.11,0,0,0,.07.91l-1.52.19a13.4,13.4,0,0,0,.69,2.3l1.73.52a12.28,12.28,0,0,0,1.07,1.86l-.41,1.74a13.69,13.69,0,0,0,1.65,1.74l.93-1.2a8.41,8.41,0,0,0,.76.51,6,6,0,0,0,.77.37l.93,2.28a4.56,4.56,0,0,0,1.65.16l-.41-2.22a2.34,2.34,0,0,0,1.07-.61l1.73,1.47a4.61,4.61,0,0,0,.69-1.5l-1.52-2A5.35,5.35,0,0,0,197.71,149.77Zm-5-.58a4.41,4.41,0,0,1-2-3.44c0-1.27.89-1.78,2-1.14a4.37,4.37,0,0,1,2,3.44C194.73,149.32,193.84,149.83,192.73,149.19Z"/><path class="cls-6" d="M160.3,123.43l6.38,10,6.38-2.6h0a2.4,2.4,0,0,0-.75-.74l-11.25-6.5a1,1,0,0,0-.76-.13Z"/><path class="cls-6" d="M173.08,130.83l-6.4,3.64-1.81-3.12-4.57,1.86,0,0,4.25-2.42-4.25-7.32a.82.82,0,0,0-.47.85v7.62a2.75,2.75,0,0,0,1.25,2.15l11.25,6.5c.69.4,1.25.08,1.25-.71v-7.63A2.62,2.62,0,0,0,173.08,130.83Zm0,9.75-4.57-7.14.34-.19,4.25,7.32Z"/><polygon class="cls-18" points="76.64 191.28 76.64 219.82 81.15 217.26 81.15 188.55 76.64 191.28"/><polygon class="cls-11" points="76.67 191.28 76.67 219.82 0 175.57 0 146.87 76.67 191.28"/><polygon class="cls-2" points="0 146.87 76.67 191.28 81.15 188.55 4.45 144.2 0 146.87"/><polygon class="cls-10" points="0 146.87 76.67 191.28 81.15 188.55 76.48 190.43 0 146.87"/><path class="cls-6" d="M29.63,168.69l-14-8.09c-.86-.5-1.56-.1-1.56.88V171a3.42,3.42,0,0,0,1.56,2.68l8.76,5.06,4.38,7.56v-5l.88.51c.86.49,1.55.09,1.55-.89v-9.5A3.41,3.41,0,0,0,29.63,168.69Zm-9.88,1.78c-.46.26-1.2-.17-1.66-1s-.45-1.63,0-1.89,1.2.16,1.66.95S20.2,170.21,19.75,170.47Zm3.79,2.19c-.46.26-1.19-.17-1.65-1s-.46-1.63,0-1.89,1.19.16,1.65.95S24,172.4,23.54,172.66Zm3.8,2.19c-.46.26-1.2-.17-1.65-1s-.46-1.63,0-1.89,1.19.17,1.65.95S27.79,174.59,27.34,174.85ZM12.88,170.3v-7.7l-5.35-3.09c-.86-.5-1.56-.1-1.56.88v9.5a3.42,3.42,0,0,0,1.56,2.68l.88.51v5l4.38-2.5,8.76,5.06c.86.49,1.55.09,1.55-.89v-.45L15.61,175A6,6,0,0,1,12.88,170.3Z"/><polygon class="cls-6" points="34.37 173.46 34.37 175.83 71 196.98 71 194.61 34.37 173.46"/><polygon class="cls-6" points="59.42 197.79 34.37 183.31 34.37 185.68 59.42 200.16 59.42 197.79"/><polygon class="cls-6" points="34.37 180.76 71 201.91 71 199.54 34.37 178.39 34.37 180.76"/><path class="cls-27" d="M127.73,251l-23.81-13.36c2.06-1.51,3.27-3.31,3.27-5.24,0-5.32-9.09-9.64-20.3-9.64S66.58,227,66.58,232.35,75.67,242,86.89,242a41.58,41.58,0,0,0,6.66-.54l25.63,14.39a7.18,7.18,0,0,0,6.46-.26C127.76,254.51,130.27,252.45,127.73,251Z"/><path class="cls-15" d="M127.65,248.32a5.45,5.45,0,1,1-7.38-2.21A5.46,5.46,0,0,1,127.65,248.32Z"/><path class="cls-19" d="M110.41,214.06l-11.8,6.36,17.6,32.46h0s0,0,0,.05c1,1.89,4.5,2,7.75.25s5.07-4.71,4-6.61l0,0h0Z"/><path class="cls-18" d="M110.42,214.08c1,1.9-.79,4.86-4,6.62s-6.72,1.64-7.75-.26.79-4.86,4-6.61S109.4,212.18,110.42,214.08Z"/><path class="cls-15" d="M102.68,205.45l-7,3.78,5,9.26h0v0c.61,1.13,2.67,1.2,4.61.16s3-2.81,2.41-3.94l0,0h0Z"/><path class="cls-2" d="M82.87,131c-8.73-5-16.66-5.62-22.45-2.48-.17.09-8.49,4.73-8.75,5.13,5.9-4.45,14.63-4.38,24.38,1.25,17.77,10.25,32.17,35.1,32.17,55.48,0,10.41-3.75,17.64-9.78,20.86a7.45,7.45,0,0,0,1.57-.69c.17-.09,5.84-3.53,6-3.63,5.59-3.42,9-10.47,9-20.43C115,166.11,100.64,141.27,82.87,131Z"/><path class="cls-4" d="M76.05,134.91c-17.77-10.26-32.17-2-32.17,18.34s14.4,45.23,32.17,55.49,32.17,2,32.17-18.35S93.82,145.16,76.05,134.91Zm-.48,69c-15.08-8.71-27.3-29.79-27.3-47.09s12.22-24.27,27.3-15.56,27.3,29.78,27.3,47.08S90.65,212.57,75.57,203.87Z"/><path class="cls-2" d="M81.22,200.71c-15.08-8.71-27.3-29.79-27.3-47.09,0-7.05,2-12.39,5.47-15.65-6.74,1.81-11.12,8.46-11.12,18.81,0,17.3,12.22,38.38,27.3,47.09,8.92,5.15,16.85,4.81,21.83.08C92.87,205.17,87.28,204.21,81.22,200.71Z"/><path class="cls-13" d="M77.59,134.13c-8.51-4.91-16.25-5.58-22-2.7,5.36-1.5,13.25-.69,20.46,3.48,17.77,10.25,32.17,35.1,32.17,55.48,0,10.62-5.14,18.23-11.39,21.36,7.85-2.2,12.93-10,12.93-22.13C109.76,169.23,95.36,144.39,77.59,134.13Z"/></g></g></g></svg>