<svg xmlns="http://www.w3.org/2000/svg" viewBox="0 0 111.47 111.47"><defs><style>.cls-1{fill:#009dff;}</style></defs><g id="Layer_2" data-name="Layer 2"><g id="light"><path class="cls-1" d="M62.7,111.47H48.77c-3.25,0-7-2.79-7-8.36V93.35c0-4.64-2.32-8.82-6-12.07a32.1,32.1,0,0,1-12.54-26A33.06,33.06,0,0,1,55.27,23.22a32.64,32.64,0,0,1,23.22,9.29,33.06,33.06,0,0,1,9.75,23.22A31.23,31.23,0,0,1,76.17,80.81a17,17,0,0,0-6.5,13V104.5a7.14,7.14,0,0,1-7,7Zm-7-83.6c-14.86,0-27.4,12.54-27.86,27.4,0,8.82,3.71,17.18,10.68,22.29a20.24,20.24,0,0,1,7.89,15.79v9.76c0,.93,0,3.71,2.33,3.71H62.7A2.19,2.19,0,0,0,65,104.5V93.82c0-6,3.25-12.54,8.36-16.72A27.1,27.1,0,0,0,83.6,55.73a27.79,27.79,0,0,0-8.36-20,27.38,27.38,0,0,0-19.51-7.89Z"/><path class="cls-1" d="M67.34,97.53H44.12a2.32,2.32,0,0,1,0-4.64H67.34a2.32,2.32,0,1,1,0,4.64Z"/><path class="cls-1" d="M55.73,13.93a2.19,2.19,0,0,1-2.32-2.32V2.32a2.33,2.33,0,0,1,4.65,0v9.29A2.2,2.2,0,0,1,55.73,13.93Z"/><path class="cls-1" d="M86.85,26.94A2.79,2.79,0,0,1,85,26.47a2.24,2.24,0,0,1,0-3.25l6.51-6.5A2.3,2.3,0,0,1,94.75,20l-6.51,6.5a4.55,4.55,0,0,1-1.39.47Z"/><path class="cls-1" d="M109.14,58.06H99.86a2.33,2.33,0,1,1,0-4.65h9.28a2.33,2.33,0,1,1,0,4.65Z"/><path class="cls-1" d="M93.35,95.68a2.75,2.75,0,0,1-1.85-.47L85,88.71a2.3,2.3,0,0,1,3.25-3.25L94.75,92a2.24,2.24,0,0,1,0,3.25c0,.47-.47.47-1.4.47Z"/><path class="cls-1" d="M18.11,95.68a2.75,2.75,0,0,1-1.85-.47,2.24,2.24,0,0,1,0-3.25l6.5-6.5A2.3,2.3,0,0,1,26,88.71l-6.5,6.5A1.71,1.71,0,0,1,18.11,95.68Z"/><path class="cls-1" d="M11.61,58.06H2.32a2.33,2.33,0,0,1,0-4.65h9.29a2.33,2.33,0,0,1,0,4.65Z"/><path class="cls-1" d="M24.62,26.94a2.76,2.76,0,0,1-1.86-.47l-6.5-7a2.3,2.3,0,0,1,3.25-3.25l6.5,6.5A2.24,2.24,0,0,1,26,26c-.47.46-.93.93-1.39.93Z"/><path class="cls-1" d="M74.31,58.06A2.2,2.2,0,0,1,72,55.73,16.45,16.45,0,0,0,55.73,39.48a2.33,2.33,0,0,1,0-4.65,20.81,20.81,0,0,1,20.9,20.9A2.2,2.2,0,0,1,74.31,58.06Z"/></g></g></svg>