<svg xmlns="http://www.w3.org/2000/svg" viewBox="0 0 148.11 96.86"><defs><style>.cls-1{fill:#009dff;}</style></defs><g id="Layer_2" data-name="Layer 2"><g id="Capa_1" data-name="Capa 1"><g id="Layer_20" data-name="Layer 20"><polygon class="cls-1" points="46.77 73.9 67.42 73.9 67.42 78.66 46.77 78.66 46.77 82.59 111.73 82.59 111.73 78.66 87.65 78.66 87.65 73.9 114.43 73.9 114.43 63.02 46.77 63.02 46.77 73.9"/><polygon class="cls-1" points="28.78 8.44 127.26 8.44 127.26 47.8 135.69 47.8 135.69 0 20.34 0 20.34 26.36 28.78 26.36 28.78 8.44"/><path class="cls-1" d="M0,95.08H44.05V29H0Zm23-3.31a2.12,2.12,0,1,1,2.12-2.12A2.12,2.12,0,0,1,23,91.77ZM6.37,35.38H37.69V84.12H6.37Z"/><path class="cls-1" d="M117.42,50.34V96.86h30.69V50.34Zm16,1.92a.68.68,0,0,1,0,1.35.69.69,0,0,1-.68-.68A.68.68,0,0,1,133.39,52.26Zm-4,2.23h8v.65h-8Zm3.72,40.36a1.59,1.59,0,1,1,1.59-1.59A1.59,1.59,0,0,1,133.12,94.85Zm10.55-5.48c-7.18,0-18.25.07-21.8,0v-32h21.8Z"/></g></g></g></svg>