<svg xmlns="http://www.w3.org/2000/svg" viewBox="0 0 358.55 297.37"><defs><style>.cls-1{isolation:isolate;}.cls-2{fill:#b3b3b3;opacity:0.46;mix-blend-mode:multiply;}.cls-10,.cls-11,.cls-12,.cls-13,.cls-14,.cls-15,.cls-16,.cls-17,.cls-18,.cls-19,.cls-2,.cls-20,.cls-21,.cls-22,.cls-23,.cls-26,.cls-27,.cls-28,.cls-29,.cls-3,.cls-30,.cls-31,.cls-32,.cls-33,.cls-34,.cls-35,.cls-36,.cls-37,.cls-38,.cls-39,.cls-4,.cls-40,.cls-41,.cls-5,.cls-6,.cls-7,.cls-8,.cls-9{fill-rule:evenodd;}.cls-3{fill:#31274f;}.cls-4{fill:#73d0eb;}.cls-26,.cls-5{fill:#a2d8eb;}.cls-6{fill:#2a2c4a;}.cls-7{fill:#404266;}.cls-23,.cls-41,.cls-8{fill:#fefefe;}.cls-38,.cls-8{opacity:0.5;}.cls-9{fill:#ff5a19;}.cls-10{fill:#ff0;}.cls-11{fill:#cc6f00;}.cls-12{fill:#e89c43;}.cls-13,.cls-25{fill:#1d3673;}.cls-14{fill:#3b569e;}.cls-15,.cls-38{fill:#f1f1f1;}.cls-16{fill:#fffefe;}.cls-17{fill:#60bfb3;}.cls-18{fill:#65d9c8;}.cls-19{fill:#fdd000;}.cls-20{fill:#fff;}.cls-21{fill:#eee;}.cls-22{fill:#009dff;}.cls-24{fill:#3e3938;}.cls-26{opacity:0.62;}.cls-27{fill:#2d3d7d;}.cls-28{fill:#f5ae69;}.cls-29{fill:#f08b00;}.cls-30{fill:#f08a00;}.cls-31{fill:#21081c;}.cls-33{fill:#ff9300;}.cls-34{fill:#261302;}.cls-35{fill:#3872a3;}.cls-36{fill:#e47a00;}.cls-37{fill:#2d2925;}.cls-38{mix-blend-mode:soft-light;}.cls-39{fill:#22316d;}.cls-40{fill:#6c3506;}.cls-41{opacity:0.53;}</style></defs><g class="cls-1"><g id="Layer_2" data-name="Layer 2"><g id="OBJECTS"><path class="cls-2" d="M345.07,293.1c0,2.36-77.25,4.27-172.54,4.27S0,295.46,0,293.1s77.25-4.27,172.53-4.27S345.07,290.75,345.07,293.1Z"/><path class="cls-3" d="M166.87,169.42H316.06a5.44,5.44,0,0,1,5.5,6.35l-13.35,99.66a7.54,7.54,0,0,1-7.19,6.35H151.81a5.45,5.45,0,0,1-5.49-6.35l13.36-99.66a7.5,7.5,0,0,1,7.19-6.35Z"/><path class="cls-4" d="M167.29,174.15h147.1a2.28,2.28,0,0,1,2.3,2.66l-13.08,97.58a3.12,3.12,0,0,1-3,2.64H153.51a2.26,2.26,0,0,1-2.3-2.64l13.08-97.58a3.13,3.13,0,0,1,3-2.66Z"/><polygon class="cls-5" points="259.84 199.5 305.2 199.5 298.86 246.34 253.49 246.34 259.84 199.5"/><path class="cls-6" d="M301.82,281.72h-223v4.55a4.57,4.57,0,0,0,4.56,4.56h214a4.57,4.57,0,0,0,4.54-4.56Z"/><path class="cls-7" d="M301.82,281.72H190.29v4.55a4.58,4.58,0,0,0,4.57,4.56H297.28a4.57,4.57,0,0,0,4.54-4.56Z"/><path class="cls-8" d="M237.35,126.09h-22L196.06,240.2a1.62,1.62,0,0,0-.31,0,8.1,8.1,0,0,0-7.36,4.72,9.75,9.75,0,0,0-6.77-2.7,9.86,9.86,0,0,0-9.86,9.87,9.59,9.59,0,0,0,1.77,5.6l-.12.23a16.73,16.73,0,0,0-14.79,11,12.14,12.14,0,0,0-5.78-1.48c-.27,0-.51,0-.7,0l-.93,7a2.26,2.26,0,0,0,2.3,2.64H300.6a3.12,3.12,0,0,0,3-2.64l.8-5.95a16.76,16.76,0,0,0-5.21-1,12.2,12.2,0,0,0-5.78,1.48A16.71,16.71,0,0,0,287,260.7a9.92,9.92,0,0,0-13.17-12.06A11.82,11.82,0,0,0,255,245.37Z"/><path class="cls-9" d="M217.43,121c-3.39,14.66,1.1,28.27,9,40.4,7.89-12.13,12.36-25.74,9-40.4Z"/><path class="cls-10" d="M221.82,119.7c-1.71,7.47.57,14.45,4.6,20.63,4-6.18,6.31-13.16,4.6-20.63Z"/><path class="cls-11" d="M214.57,105.73S205.18,108,200.41,113s-1.41,15.8-1.41,15.8c2.55-6.12,12.25-11.43,18.39-9.77Z"/><path class="cls-12" d="M212.1,111.47c-.44-1.43-.87-3-1.27-4.56-3.16,1.14-7.61,3.13-10.42,6.1-4.77,5-1.41,15.8-1.41,15.8-.26-3.75.15-8.18,2.84-11s6.88-5,10.26-6.35Z"/><path class="cls-11" d="M238.26,105.73s9.39,2.28,14.17,7.28,1.4,15.8,1.4,15.8c-2.54-6.12-12.24-11.43-18.38-9.77Z"/><path class="cls-12" d="M240.73,111.47c.44-1.43.86-3,1.28-4.56,3.15,1.14,7.58,3.13,10.42,6.1,4.77,5,1.4,15.8,1.4,15.8.27-3.75-.15-8.18-2.85-11s-6.86-5-10.25-6.35Z"/><path class="cls-13" d="M220.52,117.25c-.3.11-4.14,3.69-4.14,3.69l-1.08,5.15h22l-1.08-5.15s-3.84-3.58-4.17-3.69Z"/><path class="cls-14" d="M215.77,122.76h21.09a.55.55,0,0,1,.55.55h0a.56.56,0,0,1-.55.56H215.77a.55.55,0,0,1-.53-.56h0a.55.55,0,0,1,.53-.55Z"/><path class="cls-15" d="M216.09,120.94c-6.23-9.41-11.4-41.75-11.06-63C205.56,24.64,222.31,4,226.32,0c4,4,20.75,24.64,21.3,57.93.34,21.26-4.85,53.6-11.09,63H216.09Z"/><path class="cls-16" d="M225.9,53.85a9.62,9.62,0,1,0-9.61-9.61,9.65,9.65,0,0,0,9.61,9.61Z"/><path class="cls-17" d="M234.16,44.24a8.24,8.24,0,0,1-14.55,5.3,13.32,13.32,0,0,0,13-10.14A8.19,8.19,0,0,1,234.16,44.24Z"/><path class="cls-18" d="M232.59,39.4a13.32,13.32,0,0,1-13,10.14,8.24,8.24,0,1,1,13-10.14Z"/><path class="cls-12" d="M226.32,0c-2.72,2.7-11.21,13-16.63,29.62h33.25C237.54,13,229,2.7,226.32,0Z"/><path class="cls-19" d="M226,1.65c-2.53,2.44-10.38,11.77-14.75,26.87h6.46c4.16-13,7.21-21.56,8.29-26.87Z"/><path class="cls-20" d="M220.9,114.21c-4.9-11.81-8.68-38.08-8.4-56a93.34,93.34,0,0,1,4.35-26.94H210.6A92.88,92.88,0,0,0,206.28,58c-.32,20.13,4.47,50.74,10.23,59.66h6.14a23.4,23.4,0,0,1-1.75-3.48Z"/><path class="cls-12" d="M226.65,106.83c-1.62,8.1-.86,13.54,0,22Z"/><path class="cls-11" d="M226.65,106.83c1.61,8.1.85,13.54,0,22Z"/><path class="cls-21" d="M152.14,267.43l-.93,7a2.26,2.26,0,0,0,2.3,2.64h65.74c0-.19,0-.4,0-.59a8.75,8.75,0,0,0-8.75-8.75,8.6,8.6,0,0,0-4.33,1.16,18.74,18.74,0,0,0-27.82-13.51,14.49,14.49,0,0,0-.87-3.56A15.17,15.17,0,0,0,163.3,242a15,15,0,0,0-8.06,2.32Z"/><path class="cls-21" d="M265.49,256.4c-8.39,0-15.53,6.18-18.29,14.83a13.61,13.61,0,0,0-9.28-3.76c-5.84,0-10.89,3.89-13.35,9.56h76a3.12,3.12,0,0,0,3-2.64l.8-5.95,2.85-21.28c-5.29,1.1-9.62,5.48-11.39,11.24a14.5,14.5,0,0,0-4.66-.76,14.15,14.15,0,0,0-2.26.17,14.67,14.67,0,0,0-4.51,1.48,17.32,17.32,0,0,0-5,3.95,18.27,18.27,0,0,0-14-6.84Z"/><path class="cls-22" d="M203.55,195.77l3.65-21.62H167.29a3.13,3.13,0,0,0-3,2.66l-2.55,19Z"/><path class="cls-22" d="M244.46,174.15l3.19,21.62h66.49l2.55-19a2.28,2.28,0,0,0-2.3-2.66Z"/><polygon class="cls-21" points="168.09 200.45 189.02 200.45 186.09 222.06 165.16 222.06 168.09 200.45"/><path class="cls-21" d="M254.88,185.22h48.71a2.13,2.13,0,0,1,2.13,2.13h0a2.13,2.13,0,0,1-2.13,2.13H254.88a2.14,2.14,0,0,1-2.13-2.13h0a2.14,2.14,0,0,1,2.13-2.13Z"/><path class="cls-21" d="M265.81,204.88h27.78a1.23,1.23,0,0,1,1.22,1.21h0a1.23,1.23,0,0,1-1.22,1.22H265.81a1.23,1.23,0,0,1-1.22-1.22h0a1.23,1.23,0,0,1,1.22-1.21Z"/><path class="cls-21" d="M265.2,211.38H293a1.22,1.22,0,0,1,1.22,1.22h0a1.22,1.22,0,0,1-1.22,1.21H265.2A1.22,1.22,0,0,1,264,212.6h0a1.22,1.22,0,0,1,1.21-1.22Z"/><path class="cls-21" d="M264.73,218.26h14.2a1.22,1.22,0,0,1,1.22,1.22h0a1.23,1.23,0,0,1-1.22,1.22h-14.2a1.23,1.23,0,0,1-1.22-1.22h0a1.22,1.22,0,0,1,1.22-1.22Z"/><polygon class="cls-23" points="259.75 229.27 296.71 229.27 295.05 241.46 258.11 241.46 259.75 229.27"/><path class="cls-21" d="M165.5,226.46h23.92a1.05,1.05,0,0,1,1.06,1h0a1.06,1.06,0,0,1-1.06,1.07H165.5a1.06,1.06,0,0,1-1.06-1.07h0a1.05,1.05,0,0,1,1.06-1Z"/><path class="cls-21" d="M165,232.06h23.92a1.06,1.06,0,0,1,1.06,1.05h0a1.06,1.06,0,0,1-1.06,1H165a1.06,1.06,0,0,1-1.06-1h0a1.06,1.06,0,0,1,1.06-1.05Z"/><path class="cls-21" d="M164.57,238H176.8a1,1,0,0,1,1,1h0a1.05,1.05,0,0,1-1,1.05H164.57a1.06,1.06,0,0,1-1.06-1.05h0a1.05,1.05,0,0,1,1.06-1Z"/><path class="cls-21" d="M170.94,189.91H181a.89.89,0,0,1,.89.88h0a.89.89,0,0,1-.89.89h-10.1a.89.89,0,0,1-.89-.89h0a.89.89,0,0,1,.89-.88Z"/><path class="cls-21" d="M188.45,189.91h10.1a.89.89,0,0,1,.89.88h0a.89.89,0,0,1-.89.89h-10.1a.89.89,0,0,1-.89-.89h0a.89.89,0,0,1,.89-.88Z"/><path class="cls-14" d="M144.08,281.72H103.86A3.36,3.36,0,0,0,107,284h33.92a3.33,3.33,0,0,0,3.14-2.29Z"/><rect class="cls-24" x="232.73" y="283.38" width="3.31" height="3.97"/><rect class="cls-25" x="220.28" y="283.38" width="12.45" height="3.97"/><rect class="cls-24" x="255.81" y="283.38" width="3.29" height="3.97"/><rect class="cls-25" x="243.36" y="283.38" width="12.45" height="3.97"/><polygon class="cls-26" points="122.69 136.83 177.63 136.83 169.95 193.58 114.99 193.58 122.69 136.83"/><polygon class="cls-26" points="303.59 160.62 358.55 160.62 350.85 217.37 295.91 217.37 303.59 160.62"/><polygon class="cls-26" points="275.26 97.02 330.23 97.02 322.54 153.77 267.58 153.77 275.26 97.02"/><polygon class="cls-22" points="177.63 136.83 122.69 136.83 121.62 144.59 176.59 144.59 177.63 136.83"/><polygon class="cls-22" points="330.23 97.02 275.26 97.02 274.21 104.8 329.18 104.8 330.23 97.02"/><polygon class="cls-22" points="358.55 160.62 303.59 160.62 302.54 168.37 357.49 168.37 358.55 160.62"/><path class="cls-19" d="M162.08,138.92a1.82,1.82,0,0,1,1.84,2.06,2.31,2.31,0,0,1-2.24,2.05,1.82,1.82,0,0,1-1.84-2.05,2.31,2.31,0,0,1,2.24-2.06Z"/><path class="cls-27" d="M170.58,138.89a1.81,1.81,0,0,1,1.84,2.05,2.32,2.32,0,0,1-2.24,2.05,1.82,1.82,0,0,1-1.84-2.05,2.29,2.29,0,0,1,2.24-2.05Z"/><path class="cls-21" d="M128.18,150.52H156a1.22,1.22,0,0,1,1.21,1.22h0A1.22,1.22,0,0,1,156,153H128.18a1.23,1.23,0,0,1-1.22-1.21h0a1.23,1.23,0,0,1,1.22-1.22Z"/><path class="cls-21" d="M127.57,157h27.78a1.22,1.22,0,0,1,1.22,1.22h0a1.22,1.22,0,0,1-1.22,1.22H127.57a1.22,1.22,0,0,1-1.21-1.22h0a1.22,1.22,0,0,1,1.21-1.22Z"/><path class="cls-21" d="M127.1,163.91h14.2a1.22,1.22,0,0,1,1.22,1.21h0a1.22,1.22,0,0,1-1.22,1.22H127.1a1.22,1.22,0,0,1-1.22-1.22h0a1.22,1.22,0,0,1,1.22-1.21Z"/><polygon class="cls-21" points="147.17 169.06 168.09 169.06 165.16 190.68 144.25 190.68 147.17 169.06"/><path class="cls-21" d="M279.61,109.76h27.78a1.22,1.22,0,0,1,1.22,1.22h0a1.22,1.22,0,0,1-1.22,1.21H279.61A1.22,1.22,0,0,1,278.4,111h0a1.22,1.22,0,0,1,1.21-1.22Z"/><path class="cls-21" d="M279,116.26h19.9a1.22,1.22,0,0,1,1.22,1.22h0a1.22,1.22,0,0,1-1.22,1.21H279a1.23,1.23,0,0,1-1.24-1.21h0a1.23,1.23,0,0,1,1.24-1.22Z"/><path class="cls-21" d="M278.53,123.14h14.2a1.22,1.22,0,0,1,1.22,1.22h0a1.22,1.22,0,0,1-1.22,1.22h-14.2a1.23,1.23,0,0,1-1.22-1.22h0a1.23,1.23,0,0,1,1.22-1.22Z"/><path class="cls-21" d="M277.5,131.39h21.41a1.22,1.22,0,0,1,1.22,1.22h0a1.22,1.22,0,0,1-1.22,1.22H277.5a1.22,1.22,0,0,1-1.21-1.22h0a1.22,1.22,0,0,1,1.21-1.22Z"/><path class="cls-21" d="M276.88,137.88h27.77a1.22,1.22,0,0,1,1.22,1.21h0a1.23,1.23,0,0,1-1.22,1.24H276.88a1.23,1.23,0,0,1-1.22-1.24h0a1.22,1.22,0,0,1,1.22-1.21Z"/><path class="cls-21" d="M276.42,144.78h14.2a1.21,1.21,0,0,1,1.22,1.22h0a1.22,1.22,0,0,1-1.22,1.21h-14.2A1.23,1.23,0,0,1,275.2,146h0a1.22,1.22,0,0,1,1.22-1.22Z"/><polygon class="cls-21" points="317.7 173.98 338.61 173.98 335.68 195.6 314.77 195.6 317.7 173.98"/><path class="cls-21" d="M310.53,200.5h27.78a1.23,1.23,0,0,1,1.21,1.24h0a1.22,1.22,0,0,1-1.21,1.22H310.53a1.22,1.22,0,0,1-1.22-1.22h0a1.24,1.24,0,0,1,1.22-1.24Z"/><path class="cls-21" d="M315.34,207.29h14.2a1.22,1.22,0,0,1,1.22,1.22h0a1.22,1.22,0,0,1-1.22,1.22h-14.2a1.22,1.22,0,0,1-1.22-1.22h0a1.22,1.22,0,0,1,1.22-1.22Z"/><path class="cls-19" d="M315,98.83a1.82,1.82,0,0,1,1.85,2,2.33,2.33,0,0,1-2.26,2.05,1.83,1.83,0,0,1-1.85-2.05,2.32,2.32,0,0,1,2.26-2Z"/><path class="cls-27" d="M323.51,98.79a1.82,1.82,0,0,1,1.85,2,2.33,2.33,0,0,1-2.25,2,1.82,1.82,0,0,1-1.84-2,2.3,2.3,0,0,1,2.24-2Z"/><path class="cls-19" d="M343.21,162.78a1.83,1.83,0,0,1,1.85,2.06,2.32,2.32,0,0,1-2.25,2,1.81,1.81,0,0,1-1.84-2,2.31,2.31,0,0,1,2.24-2.06Z"/><path class="cls-27" d="M351.71,162.75a1.82,1.82,0,0,1,1.84,2.05,2.3,2.3,0,0,1-2.24,2,1.82,1.82,0,0,1-1.86-2,2.31,2.31,0,0,1,2.26-2.05Z"/><path class="cls-28" d="M82.46,234s-.14,3.65-.08,5.78.53,3.86-.3,3.84-1-3.84-1.39-3.92-.91,6-1.79,6.16.48-6.1.27-6.14-2.19,6-3,5.59,1.43-5.91,1.24-6.29-3,5.19-3.82,4.62,2.83-5.12,2.56-5.31-3.9,3.4-4.39,2.8,6.92-7.46,6.92-7.46Z"/><path class="cls-29" d="M123.6,204.12c-13.1,6.8-41.26,31.52-41.26,31.52l-4.18-1.9c11.5-24.26,35.32-35.37,53-44.32,6.57-3.35,12.51,4.26-7.57,14.7Z"/><path class="cls-28" d="M174.21,171.64c4.07,5.46,2.13,13.16-5.34,19.78-3.94,3.49-8.41,7.32-11.39,7.3-3.23,0-5.91-3-7.83-5.55-4.07-5.46-2.49-14.21,5-20.82s15.53-6.14,19.58-.71Z"/><path class="cls-28" d="M157,189.86c-.32.83-5.45,10.42-5.45,10.42s-13.2-8.33-11.7-9.76,8.28-8.57,8.28-8.57Z"/><path class="cls-30" d="M139.47,189a27,27,0,0,1,2.91-3.48c.19,0,9.22,4.47,11.22,6.51a9.51,9.51,0,0,1,2.24,5.22Z"/><path class="cls-31" d="M108.66,246c-2.51,1.18-5,4.92-5,4.92-1.49,7.89,3.65,39.55,8.4,41.7,3.35,1.5,8.82.38,10.5-1.83s-2.4-38.33-2.4-38.33Z"/><path class="cls-31" d="M105.14,280.37c-7.13-1.63-27.68-1.19-27.68-1.19l-.71,4.47s29.75,7.74,36.39,9.39,5.23-4,5.23-4c2.64-8.14-6.1-7-13.23-8.68Z"/><path class="cls-32" d="M80,281.46c-.24-.21-1.61-2.07-2.56-2.28s-4.15.57-4.53,2,.89,3.14.72,3.77-.93,6.46.63,7.3,7.8,1.38,7.83.21-2.79-2.51-2.68-4.95.59-6.08.59-6.08Z"/><path class="cls-31" d="M121.41,247.88l15.74,8.33s19.3,22.7,19,30.08-1.67,10.23-9.89,6.37-30.3-33.22-32.15-40.67,7.34-4.11,7.34-4.11Z"/><path class="cls-33" d="M155.43,197c-1.2-2.9-11.94-8.76-15.52-8.68a85.27,85.27,0,0,0-8.74,1.06c-7.46,12.21-26.49,22.34-29.4,62.87,7.49-1.42,28,.4,36.18,4.34-8.36-34.13,25.75-47.7,17.48-59.59Z"/><path class="cls-34" d="M147.69,183.72c2.22,3.57,7.66,6.27,11.37,4.83s1.67-5.12,4.18-6.47,3.75,1,3.61,2.32-.15,2-.15,2l.29,1.1,5.6-6.69s2.61,3.32,6.39,3c8.94-.74-6.1-17-9.24-18.59-3.82-1.92-8.53.34-8.53.34s-.54-2.24-4.3-1.07c-4.74,1.49-11.43,15.63-9.22,19.21Z"/><path class="cls-28" d="M181.11,261.5s2.47,1.21,3.12,1.38a26.41,26.41,0,0,1,3.5,2.36s5.07,10.38,3.9,10.17-3-4.14-3-4.14a13.53,13.53,0,0,1-2.26,1.42c-.74.29-4.07.67-4.7-.38a3.24,3.24,0,0,1-.15-2.43l-.49-2.07Z"/><path class="cls-33" d="M155,196.49c15.59,52,20,49.45,29.26,66.37L181,267.37c-1.18-1.67-61.53-67.63-26.07-70.88Z"/><path class="cls-31" d="M146.7,281.72c-7.13-1.65-27.63-.91-27.63-.91l-.7,4.47s25.55,7.43,32.19,9.07,6.06-3.52,6.06-3.52c.8-8.44-2.79-7.47-9.92-9.11Z"/><path class="cls-32" d="M121.58,282.81c-.26-.21-1.63-2.09-2.58-2.28s-4.13.57-4.51,2,.88,3.16.71,3.79-.92,6.44.64,7.28,7.8,1.39,7.84.21-2.82-2.51-2.69-4.95.59-6.06.59-6.06Z"/><path class="cls-35" d="M25.88,141.46C17.34,153.52,18,184.91,18,184.91l-4.61.22c-5.24-25.89-2.49-47.34,9.15-63.38,4.33-6,16.41,1.25,3.31,19.71Z"/><polygon class="cls-36" points="29.03 167.21 4.41 167.93 4.93 191.98 6.26 192.05 32.99 190.36 29.03 167.21"/><polygon class="cls-19" points="29.98 167.6 5.76 168.46 6.26 192.05 34.32 190.46 29.98 167.6"/><path class="cls-28" d="M38.64,83.63c6.78,0,11.8,6.16,12.64,16.1.44,5.27.83,11.1-1,13.48-2,2.59-5.93,3-9.15,3-6.8,0-12.87-6.5-13.7-16.46s4.37-16.1,11.18-16.1Z"/><path class="cls-28" d="M45.75,110.32,47,122.51s-14.09-.12-14-.82-1.9-12.36-1.9-12.36Z"/><path class="cls-32" d="M58,285.16a27,27,0,0,0,2.76,1.52c.28,0,9.33,3.93,9.45,4.22s-.61.53-1.47.84-8.31.58-8.31.58-6.5.52-6.69-.17a50.63,50.63,0,0,1,.55-5.93l3.2-1Z"/><path class="cls-37" d="M27.49,284.49l1.07,1.37.09.36a22.08,22.08,0,0,1,3.52,5.06c.48,1.33-2.15,1.1-2.15,1.1h0a23.72,23.72,0,0,1-5.49.29h0a5,5,0,0,1-2.07-.29c-.25-.45.66-6.33.66-6.33Z"/><path class="cls-32" d="M30,292.38a16.8,16.8,0,0,1-4,.31c-.52,0-1,0-1.51,0a5,5,0,0,1-2.07-.28c-.25-.46.67-6.33.67-6.33l4.37-1.56,1.06,1.37-1.23,0Z"/><path class="cls-3" d="M59.85,189.07l1.77,8.14-.87,89.26H54.32l-10.78-80.8-15,80.19-5.44.19,2.07-90,3-7.83c9.54-15,23.76-14.32,31.69.8Z"/><path class="cls-3" d="M61.62,197.2l-.88,89.27H54.32L43.54,205.66l-1.17-5.09-15,85.33-4.2.15,2.07-90,3-7.83c9.54-15,23.76-14.32,31.69.8Z"/><polygon class="cls-38" points="43.54 205.66 28.55 285.86 27.32 285.9 42.37 200.57 43.54 205.66"/><path class="cls-38" d="M30,292.38l-2.7-6.48,1.23,0,.1.36a22.4,22.4,0,0,1,3.52,5.06C32.64,292.61,30,292.38,30,292.38Z"/><path class="cls-39" d="M29.76,117.56a24.38,24.38,0,0,1,1-4.41c.18-.05,10.23-.26,12.93.65a9.55,9.55,0,0,1,4.39,3.63Z"/><path class="cls-35" d="M47.63,117.45c-2.4-2-14.62-2.34-17.76-.65a85.79,85.79,0,0,0-7.3,5C21.5,136,28.24,165.82,25.16,191.1c9.05-.21,28.25,1,37.3.8-.1-12.53-2-67.66-14.83-74.45Z"/><path class="cls-40" d="M32.44,112.09c4.18.36,9.6-2.36,10.66-6.22s-3.08-4.39-2.68-7.2,3-2.42,4-1.53S46,98.46,46,98.46l1,.45-2-8.5s4.23-.11,6.25-3.32-1.82-7-3.42-7.55-.91,1-3.63,1.92-9.57,0-13.39,1.9-4.83,7-4.83,7-2.11-.91-3.42,2.82c-1.63,4.67,5.69,18.5,9.89,18.86Z"/><path class="cls-28" d="M90.06,86.4c-.32-1.08-2.64-3.33-2.85-4.12s1.64-1.45,1.64-1.45-1.26-1-.27-2,3.23-.19,3.59-.17a2.63,2.63,0,0,1,1.54.36,3,3,0,0,1,.52.55,1.11,1.11,0,0,1,.55.78C95,81,94,86.65,93.6,86.52s-3.54-.12-3.54-.12Z"/><path class="cls-35" d="M53.24,134.05c-6-.14-14.4-11.73-6.28-16.89,17-.68,36-3.7,42.8-31.37l5-.13c5.32,23.58-20.19,46.14-41.52,48.39Z"/><path class="cls-28" d="M17.17,191.43a4.07,4.07,0,0,1,2.62-1.73c1.39-.21,2.59-.48,3.31.38s.44,2.09-.83,3.27-5,1.42-6.2.55a3.18,3.18,0,0,1-1.18-2.34Z"/><path class="cls-38" d="M56.32,133.59c20.61-4,43.52-25.48,38.44-47.93l-.8,0-1.69,0s0,.24-.1.7c-.41,3.08-2.58,15.82-11.35,25.76-6.35,7.19-18.42,12.3-26.48,15.1-4.73,1.63-8.06,2.47-8.06,2.47,1.94,2.47,4.62,4.24,7,4.3,1-.12,2-.27,3.08-.46Z"/><path class="cls-38" d="M62.46,191.9c-.06-8.86-1.07-39-6.14-58.31-1,.19-2.08.34-3.08.46-2.34-.06-5-1.83-7-4.3,0,0,9.22,23.5,9.22,33.23A174,174,0,0,1,54,181.37c-.71,5.84-1.39,10.44-1.39,10.44,2.89.07,5.57.13,7.85.11.7,0,1.37,0,2,0Z"/><path class="cls-38" d="M60.48,191.92c-2.28,0-5,0-7.85-.11l3.88,12.43.74,81v1.22h3.5l.87-89.26Z"/><path class="cls-38" d="M70.14,290.86c-.72-.53-9.11-4.14-9.39-4.18a1.92,1.92,0,0,1-.5-.21h-3s7.93,2.76,12.89,4.39Z"/><path class="cls-38" d="M129.82,254.08a41.72,41.72,0,0,1,7.41,2.23l.72.32c-4.18-17.09,2.28-29,8.73-38.18-2.72-6.48-3.8-12.28-1.92-16.31-.7,1.1-9.28,14.47-12.17,21.71-2.53,6.28-2.75,23-2.77,28.48v1.75Z"/><path class="cls-38" d="M156,285.17a14.35,14.35,0,0,0-1.08-3.39s0,0,0-.06a44.47,44.47,0,0,0-2.66-5c-.34-.57-.7-1.16-1.08-1.75-1.24-2-2.61-4-4-5.9-4.54-6.33-9.27-12-9.94-12.75a41.72,41.72,0,0,0-7.41-2.23S139.89,265,146.53,274a51.39,51.39,0,0,1,4.92,7.73s0,0,0,0a9.57,9.57,0,0,1,.4,1,20.18,20.18,0,0,1,1.2,8.06,17.2,17.2,0,0,1-.53,3.5c0,.11-.06.23-.08.34,4.62.29,4.16-3.84,4.16-3.84C156.89,288.09,156.68,286.34,156,285.17Z"/><path class="cls-38" d="M170.6,240.09c-.33-.67-.67-1.37-1-2.09-.53-1.2-1.1-2.48-1.69-3.84-.29-.67-.57-1.37-.88-2.1-.45-1.1-.91-2.28-1.38-3.49l-.75-1.92c-1.57-4.22-3.32-9.21-5.26-15.18-.93-2.89-1.92-6-3-9.39-.11-.38-.23-.76-.36-1.16-.25-.83-.51-1.71-.78-2.58l-.46-1.51a.26.26,0,0,0,0-.11l-.1.06a2,2,0,0,0-.87.82c-.93,1.38-1.9,4.65-.9,11.93a27.05,27.05,0,0,0,1.33,4.91c.88,2.47,2.13,5.36,3.62,8.5,2.2,4.69,5,9.94,7.85,15.06l1.2,2.09c.55,1,1.12,2,1.67,2.91,1.18,2,2.34,3.95,3.48,5.8,3.46,5.6,6.63,10.34,8.78,13.08a12.82,12.82,0,0,0,2.19,2.33l.95-1.33v0c-1.75-3.21-3.33-5.74-4.85-8.06l-1.73-2.58c-1.23-1.88-2.45-3.75-3.73-5.93a1.48,1.48,0,0,1-.13-.21c-1-1.75-2.07-3.69-3.19-6Z"/><path class="cls-38" d="M187.73,265.24a26.41,26.41,0,0,0-3.5-2.36l-.95,1.33c4.35,2.91,2.87,2,3.63,2.57s4.81,7.85,4.81,7.85c-.57-2.37-4-9.39-4-9.39Z"/><path class="cls-41" d="M188.17,71.65H185A11.68,11.68,0,0,0,170.36,62a11.7,11.7,0,0,0-21.49,1,11.72,11.72,0,0,0-17.16,8.7h-.23a8.54,8.54,0,1,0,0,17.08h56.69a8.54,8.54,0,1,0,0-17.08Z"/><path class="cls-41" d="M335.61,52.09h-3.14a11.68,11.68,0,0,0-14.68-9.68,11.7,11.7,0,0,0-21.49,1,11.72,11.72,0,0,0-17.16,8.7h-.23a8.54,8.54,0,0,0,0,17.08h56.7a8.54,8.54,0,0,0,0-17.08Z"/></g></g></g></svg>